%TF.GenerationSoftware,KiCad,Pcbnew,7.0.11+dfsg-1build4*%
%TF.CreationDate,2026-03-19T18:50:22+05:30*%
%TF.ProjectId,pcb,7063622e-6b69-4636-9164-5f7063625858,rev?*%
%TF.SameCoordinates,Original*%
%TF.FileFunction,Copper,L2,Bot*%
%TF.FilePolarity,Positive*%
%FSLAX46Y46*%
G04 Gerber Fmt 4.6, Leading zero omitted, Abs format (unit mm)*
G04 Created by KiCad (PCBNEW 7.0.11+dfsg-1build4) date 2026-03-19 18:50:22*
%MOMM*%
%LPD*%
G01*
G04 APERTURE LIST*
%TA.AperFunction,ComponentPad*%
%ADD10R,0.850000X0.850000*%
%TD*%
%TA.AperFunction,ComponentPad*%
%ADD11O,0.850000X0.850000*%
%TD*%
%TA.AperFunction,ComponentPad*%
%ADD12R,1.700000X1.700000*%
%TD*%
%TA.AperFunction,ViaPad*%
%ADD13C,0.600000*%
%TD*%
%TA.AperFunction,Conductor*%
%ADD14C,0.200000*%
%TD*%
G04 APERTURE END LIST*
D10*
%TO.P,J4,1,Pin_1*%
%TO.N,Net-(J4-Pin_1)*%
X136550000Y-71700000D03*
D11*
%TO.P,J4,2,Pin_2*%
%TO.N,Net-(J4-Pin_2)*%
X136550000Y-70700000D03*
%TO.P,J4,3,Pin_3*%
%TO.N,Net-(J4-Pin_3)*%
X136550000Y-69700000D03*
%TO.P,J4,4,Pin_4*%
%TO.N,Net-(J4-Pin_4)*%
X136550000Y-68700000D03*
%TO.P,J4,5,Pin_5*%
%TO.N,Net-(J4-Pin_5)*%
X136550000Y-67700000D03*
%TO.P,J4,6,Pin_6*%
%TO.N,Net-(J4-Pin_6)*%
X136550000Y-66700000D03*
%TD*%
D12*
%TO.P,J2,1,Pin_1*%
%TO.N,Net-(J2-Pin_1)*%
X124550000Y-74600000D03*
%TD*%
%TO.P,J3,1,Pin_1*%
%TO.N,Net-(J3-Pin_1)*%
X135900000Y-63450000D03*
%TD*%
D10*
%TO.P,IE3,1,Pin_1*%
%TO.N,Net-(IE3-Pin_1)*%
X119100000Y-71575000D03*
D11*
%TO.P,IE3,2,Pin_2*%
%TO.N,Net-(IE3-Pin_2)*%
X120100000Y-71575000D03*
%TD*%
D10*
%TO.P,J5,1,Pin_1*%
%TO.N,Net-(D1-K)*%
X119350000Y-62800000D03*
D11*
%TO.P,J5,2,Pin_2*%
%TO.N,Net-(J5-Pin_2)*%
X119350000Y-61800000D03*
%TD*%
D10*
%TO.P,IE1,1,Pin_1*%
%TO.N,Net-(IE1-Pin_1)*%
X119100000Y-66675000D03*
D11*
%TO.P,IE1,2,Pin_2*%
%TO.N,Net-(IE1-Pin_2)*%
X120100000Y-66675000D03*
%TD*%
D10*
%TO.P,J1,1,Pin_1*%
%TO.N,Net-(J1-Pin_1)*%
X119500000Y-75950000D03*
D11*
%TO.P,J1,2,Pin_2*%
%TO.N,Net-(J1-Pin_2)*%
X119500000Y-76950000D03*
%TD*%
D10*
%TO.P,IE2,1,Pin_1*%
%TO.N,Net-(IE2-Pin_1)*%
X119100000Y-69100000D03*
D11*
%TO.P,IE2,2,Pin_2*%
%TO.N,Net-(IE2-Pin_2)*%
X120100000Y-69100000D03*
%TD*%
D13*
%TO.N,Net-(J5-Pin_2)*%
X123275000Y-64975000D03*
%TO.N,Net-(J2-Pin_1)*%
X126825000Y-75025000D03*
X125975000Y-76450000D03*
%TO.N,Net-(U1-RLDOUT)*%
X127450000Y-76425000D03*
%TD*%
D14*
%TO.N,Net-(J5-Pin_2)*%
X123275000Y-64975000D02*
X123275000Y-65475000D01*
X123900000Y-66100000D02*
X128550000Y-66100000D01*
X123275000Y-65475000D02*
X123900000Y-66100000D01*
%TO.N,Net-(IE1-Pin_1)*%
X119375000Y-67575000D02*
X127150000Y-67575000D01*
X119100000Y-66675000D02*
X119100000Y-67300000D01*
X119100000Y-67300000D02*
X119375000Y-67575000D01*
%TO.N,Net-(IE2-Pin_1)*%
X119100000Y-68475000D02*
X119200000Y-68375000D01*
X119100000Y-69100000D02*
X119100000Y-68475000D01*
X119200000Y-68375000D02*
X126950000Y-68375000D01*
X126950000Y-68375000D02*
X127100000Y-68525000D01*
%TO.N,Net-(IE3-Pin_1)*%
X119100000Y-71575000D02*
X119100000Y-70950000D01*
X119100000Y-70950000D02*
X119825000Y-70225000D01*
X119825000Y-70225000D02*
X126400000Y-70225000D01*
X126400000Y-70225000D02*
X127025000Y-69600000D01*
%TO.N,Net-(J2-Pin_1)*%
X126825000Y-75600000D02*
X125975000Y-76450000D01*
X126825000Y-75025000D02*
X126825000Y-75600000D01*
%TO.N,Net-(U1-RLDOUT)*%
X127450000Y-76425000D02*
X127450000Y-72025000D01*
X127450000Y-72025000D02*
X128462500Y-71012500D01*
%TD*%
M02*
