%TF.GenerationSoftware,KiCad,Pcbnew,9.0.9-9.0.9~ubuntu24.04.1*%
%TF.CreationDate,2026-05-12T12:24:14+05:30*%
%TF.ProjectId,controller_board,636f6e74-726f-46c6-9c65-725f626f6172,rev?*%
%TF.SameCoordinates,Original*%
%TF.FileFunction,Soldermask,Bot*%
%TF.FilePolarity,Negative*%
%FSLAX46Y46*%
G04 Gerber Fmt 4.6, Leading zero omitted, Abs format (unit mm)*
G04 Created by KiCad (PCBNEW 9.0.9-9.0.9~ubuntu24.04.1) date 2026-05-12 12:24:14*
%MOMM*%
%LPD*%
G01*
G04 APERTURE LIST*
G04 Aperture macros list*
%AMRoundRect*
0 Rectangle with rounded corners*
0 $1 Rounding radius*
0 $2 $3 $4 $5 $6 $7 $8 $9 X,Y pos of 4 corners*
0 Add a 4 corners polygon primitive as box body*
4,1,4,$2,$3,$4,$5,$6,$7,$8,$9,$2,$3,0*
0 Add four circle primitives for the rounded corners*
1,1,$1+$1,$2,$3*
1,1,$1+$1,$4,$5*
1,1,$1+$1,$6,$7*
1,1,$1+$1,$8,$9*
0 Add four rect primitives between the rounded corners*
20,1,$1+$1,$2,$3,$4,$5,0*
20,1,$1+$1,$4,$5,$6,$7,0*
20,1,$1+$1,$6,$7,$8,$9,0*
20,1,$1+$1,$8,$9,$2,$3,0*%
G04 Aperture macros list end*
%ADD10RoundRect,0.102000X-0.754000X0.754000X-0.754000X-0.754000X0.754000X-0.754000X0.754000X0.754000X0*%
%ADD11C,1.712000*%
%ADD12C,2.100000*%
%ADD13C,1.734000*%
%ADD14RoundRect,0.102000X0.754000X0.754000X-0.754000X0.754000X-0.754000X-0.754000X0.754000X-0.754000X0*%
%ADD15C,3.204000*%
%ADD16R,1.700000X1.700000*%
%ADD17O,1.700000X1.700000*%
%ADD18C,1.700000*%
G04 APERTURE END LIST*
D10*
%TO.C,S1*%
X126997500Y-123190000D03*
D11*
X126997500Y-129690000D03*
X122497500Y-123190000D03*
X122497500Y-129690000D03*
%TD*%
D12*
%TO.C,REF\u002A\u002A*%
X167900000Y-70900000D03*
%TD*%
D13*
%TO.C,U2*%
X114560000Y-116500000D03*
X117100000Y-116500000D03*
X119640000Y-116500000D03*
X122180000Y-116500000D03*
X145040000Y-111420000D03*
X117100000Y-101260000D03*
X124720000Y-116500000D03*
X127260000Y-116500000D03*
X129800000Y-116500000D03*
X132340000Y-116500000D03*
X134880000Y-116500000D03*
X137420000Y-116500000D03*
X139960000Y-116500000D03*
X142500000Y-116500000D03*
X145040000Y-116500000D03*
X145040000Y-101260000D03*
X142500000Y-101260000D03*
X139960000Y-101260000D03*
X137420000Y-101260000D03*
X134880000Y-101260000D03*
X132340000Y-101260000D03*
X129800000Y-101260000D03*
X127260000Y-101260000D03*
X124720000Y-101260000D03*
X122180000Y-101260000D03*
X119640000Y-101260000D03*
X112020000Y-116500000D03*
X145040000Y-108880000D03*
X114560000Y-101260000D03*
X145040000Y-103800000D03*
X145040000Y-106340000D03*
X145040000Y-113960000D03*
X112020000Y-101260000D03*
%TD*%
D14*
%TO.C,U3*%
X151510000Y-93287500D03*
D11*
X148970000Y-93287500D03*
X146430000Y-93287500D03*
X143890000Y-93287500D03*
D15*
X158700000Y-92787500D03*
X136700000Y-92787500D03*
X136700000Y-70787500D03*
X158700000Y-70787500D03*
%TD*%
D16*
%TO.C,J1*%
X116200000Y-82500000D03*
D17*
X116200000Y-79960000D03*
%TD*%
D16*
%TO.C,U1*%
X168335000Y-113950500D03*
D18*
X168335000Y-116490500D03*
X165795000Y-113950500D03*
X165795000Y-116490500D03*
X163255000Y-113950500D03*
X163255000Y-116490500D03*
X160715000Y-113950500D03*
X160715000Y-116490500D03*
%TD*%
D16*
%TO.C,J2*%
X117780000Y-93500000D03*
D17*
X120320000Y-93500000D03*
X122860000Y-93500000D03*
X125400000Y-93500000D03*
X127940000Y-93500000D03*
X130480000Y-93500000D03*
%TD*%
D10*
%TO.C,S3*%
X142910000Y-123215000D03*
D11*
X142910000Y-129715000D03*
X138410000Y-123215000D03*
X138410000Y-129715000D03*
%TD*%
D10*
%TO.C,S2*%
X134960000Y-123065000D03*
D11*
X134960000Y-129565000D03*
X130460000Y-123065000D03*
X130460000Y-129565000D03*
%TD*%
D12*
%TO.C,REF\u002A\u002A*%
X114000000Y-129700000D03*
%TD*%
M02*
