%TF.GenerationSoftware,KiCad,Pcbnew,9.0.9-9.0.9~ubuntu24.04.1*%
%TF.CreationDate,2026-05-14T17:49:19+05:30*%
%TF.ProjectId,controller_board,636f6e74-726f-46c6-9c65-725f626f6172,rev?*%
%TF.SameCoordinates,Original*%
%TF.FileFunction,Soldermask,Top*%
%TF.FilePolarity,Negative*%
%FSLAX46Y46*%
G04 Gerber Fmt 4.6, Leading zero omitted, Abs format (unit mm)*
G04 Created by KiCad (PCBNEW 9.0.9-9.0.9~ubuntu24.04.1) date 2026-05-14 17:49:19*
%MOMM*%
%LPD*%
G01*
G04 APERTURE LIST*
G04 Aperture macros list*
%AMRoundRect*
0 Rectangle with rounded corners*
0 $1 Rounding radius*
0 $2 $3 $4 $5 $6 $7 $8 $9 X,Y pos of 4 corners*
0 Add a 4 corners polygon primitive as box body*
4,1,4,$2,$3,$4,$5,$6,$7,$8,$9,$2,$3,0*
0 Add four circle primitives for the rounded corners*
1,1,$1+$1,$2,$3*
1,1,$1+$1,$4,$5*
1,1,$1+$1,$6,$7*
1,1,$1+$1,$8,$9*
0 Add four rect primitives between the rounded corners*
20,1,$1+$1,$2,$3,$4,$5,0*
20,1,$1+$1,$4,$5,$6,$7,0*
20,1,$1+$1,$6,$7,$8,$9,0*
20,1,$1+$1,$8,$9,$2,$3,0*%
G04 Aperture macros list end*
%ADD10RoundRect,0.237500X0.237500X-0.287500X0.237500X0.287500X-0.237500X0.287500X-0.237500X-0.287500X0*%
%ADD11RoundRect,0.102000X-0.754000X0.754000X-0.754000X-0.754000X0.754000X-0.754000X0.754000X0.754000X0*%
%ADD12C,1.712000*%
%ADD13RoundRect,0.102000X0.485000X-0.460000X0.485000X0.460000X-0.485000X0.460000X-0.485000X-0.460000X0*%
%ADD14RoundRect,0.102000X0.475000X-1.075000X0.475000X1.075000X-0.475000X1.075000X-0.475000X-1.075000X0*%
%ADD15RoundRect,0.102000X1.625000X-1.075000X1.625000X1.075000X-1.625000X1.075000X-1.625000X-1.075000X0*%
%ADD16C,2.100000*%
%ADD17C,1.734000*%
%ADD18RoundRect,0.102000X0.754000X0.754000X-0.754000X0.754000X-0.754000X-0.754000X0.754000X-0.754000X0*%
%ADD19C,3.204000*%
%ADD20R,1.700000X1.700000*%
%ADD21O,1.700000X1.700000*%
%ADD22C,1.700000*%
%ADD23RoundRect,0.237500X0.237500X-0.250000X0.237500X0.250000X-0.237500X0.250000X-0.237500X-0.250000X0*%
%ADD24RoundRect,0.102000X-0.485000X0.460000X-0.485000X-0.460000X0.485000X-0.460000X0.485000X0.460000X0*%
G04 APERTURE END LIST*
D10*
%TO.C,D1*%
X116100000Y-74850000D03*
X116100000Y-73100000D03*
%TD*%
D11*
%TO.C,S1*%
X126997500Y-123190000D03*
D12*
X126997500Y-129690000D03*
X122497500Y-123190000D03*
X122497500Y-129690000D03*
%TD*%
D13*
%TO.C,C2*%
X129100000Y-85050000D03*
X129100000Y-83500000D03*
%TD*%
D14*
%TO.C,U4*%
X124500000Y-79200000D03*
X126800000Y-79200000D03*
X129100000Y-79200000D03*
D15*
X126800000Y-73400000D03*
%TD*%
D16*
%TO.C,REF\u002A\u002A*%
X167900000Y-70900000D03*
%TD*%
D17*
%TO.C,U2*%
X114560000Y-116500000D03*
X117100000Y-116500000D03*
X119640000Y-116500000D03*
X122180000Y-116500000D03*
X145040000Y-111420000D03*
X117100000Y-101260000D03*
X124720000Y-116500000D03*
X127260000Y-116500000D03*
X129800000Y-116500000D03*
X132340000Y-116500000D03*
X134880000Y-116500000D03*
X137420000Y-116500000D03*
X139960000Y-116500000D03*
X142500000Y-116500000D03*
X145040000Y-116500000D03*
X145040000Y-101260000D03*
X142500000Y-101260000D03*
X139960000Y-101260000D03*
X137420000Y-101260000D03*
X134880000Y-101260000D03*
X132340000Y-101260000D03*
X129800000Y-101260000D03*
X127260000Y-101260000D03*
X124720000Y-101260000D03*
X122180000Y-101260000D03*
X119640000Y-101260000D03*
X112020000Y-116500000D03*
X145040000Y-108880000D03*
X114560000Y-101260000D03*
X145040000Y-103800000D03*
X145040000Y-106340000D03*
X145040000Y-113960000D03*
X112020000Y-101260000D03*
%TD*%
D18*
%TO.C,U3*%
X151510000Y-93287500D03*
D12*
X148970000Y-93287500D03*
X146430000Y-93287500D03*
X143890000Y-93287500D03*
D19*
X158700000Y-92787500D03*
X136700000Y-92787500D03*
X136700000Y-70787500D03*
X158700000Y-70787500D03*
%TD*%
D20*
%TO.C,J1*%
X116200000Y-82500000D03*
D21*
X116200000Y-79960000D03*
%TD*%
D20*
%TO.C,U1*%
X168335000Y-113950500D03*
D22*
X168335000Y-116490500D03*
X165795000Y-113950500D03*
X165795000Y-116490500D03*
X163255000Y-113950500D03*
X163255000Y-116490500D03*
X160715000Y-113950500D03*
X160715000Y-116490500D03*
%TD*%
D23*
%TO.C,R1*%
X118650000Y-74932500D03*
X118650000Y-73107500D03*
%TD*%
D20*
%TO.C,J2*%
X117780000Y-93500000D03*
D21*
X120320000Y-93500000D03*
X122860000Y-93500000D03*
X125400000Y-93500000D03*
X127940000Y-93500000D03*
X130480000Y-93500000D03*
%TD*%
D11*
%TO.C,S3*%
X142910000Y-123215000D03*
D12*
X142910000Y-129715000D03*
X138410000Y-123215000D03*
X138410000Y-129715000D03*
%TD*%
D24*
%TO.C,C3*%
X169300000Y-108425000D03*
X169300000Y-109975000D03*
%TD*%
D13*
%TO.C,C1*%
X125300000Y-84900000D03*
X125300000Y-83350000D03*
%TD*%
D11*
%TO.C,S2*%
X134960000Y-123065000D03*
D12*
X134960000Y-129565000D03*
X130460000Y-123065000D03*
X130460000Y-129565000D03*
%TD*%
D16*
%TO.C,REF\u002A\u002A*%
X114000000Y-129700000D03*
%TD*%
M02*
