M48
; DRILL file {KiCad 9.0.9-9.0.9~ubuntu24.04.1} date 2026-05-14T17:49:16+0530
; FORMAT={-:-/ absolute / metric / decimal}
; #@! TF.CreationDate,2026-05-14T17:49:16+05:30
; #@! TF.GenerationSoftware,Kicad,Pcbnew,9.0.9-9.0.9~ubuntu24.04.1
; #@! TF.FileFunction,Plated,1,2,PTH
FMAT,2
METRIC
; #@! TA.AperFunction,Plated,PTH,ViaDrill
T1C0.300
; #@! TA.AperFunction,Plated,PTH,ComponentDrill
T2C1.000
; #@! TA.AperFunction,Plated,PTH,ComponentDrill
T3C1.020
; #@! TA.AperFunction,Plated,PTH,ComponentDrill
T4C2.000
%
G90
G05
T1
X120.4Y-79.9
X122.6Y-79.1
X122.8Y-88.2
X124.3Y-86.1
X124.5Y-80.8
X124.5Y-82.1
X126.8Y-86.1
X129.4Y-86.2
X129.8Y-99.6
X132.4Y-99.7
X138.4Y-97.9
X140.6Y-114.9
X141.2Y-97.0
X146.9Y-115.0
X152.7Y-110.6
X156.8Y-109.3
X161.1Y-109.3
X161.1Y-110.6
X169.2Y-111.5
X170.8Y-111.4
T2
X116.2Y-79.96
X116.2Y-82.5
X117.78Y-93.5
X120.32Y-93.5
X122.497Y-123.19
X122.497Y-129.69
X122.86Y-93.5
X125.4Y-93.5
X126.997Y-123.19
X126.997Y-129.69
X127.94Y-93.5
X130.46Y-123.065
X130.46Y-129.565
X130.48Y-93.5
X134.96Y-123.065
X134.96Y-129.565
X138.41Y-123.215
X138.41Y-129.715
X142.91Y-123.215
X142.91Y-129.715
X143.89Y-93.287
X146.43Y-93.287
X148.97Y-93.287
X151.51Y-93.287
X160.715Y-113.95
X160.715Y-116.49
X163.255Y-113.95
X163.255Y-116.49
X165.795Y-113.95
X165.795Y-116.49
X168.335Y-113.95
X168.335Y-116.49
T3
X112.02Y-101.26
X112.02Y-116.5
X114.56Y-101.26
X114.56Y-116.5
X117.1Y-101.26
X117.1Y-116.5
X119.64Y-101.26
X119.64Y-116.5
X122.18Y-101.26
X122.18Y-116.5
X124.72Y-101.26
X124.72Y-116.5
X127.26Y-101.26
X127.26Y-116.5
X129.8Y-101.26
X129.8Y-116.5
X132.34Y-101.26
X132.34Y-116.5
X134.88Y-101.26
X134.88Y-116.5
X137.42Y-101.26
X137.42Y-116.5
X139.96Y-101.26
X139.96Y-116.5
X142.5Y-101.26
X142.5Y-116.5
X145.04Y-101.26
X145.04Y-103.8
X145.04Y-106.34
X145.04Y-108.88
X145.04Y-111.42
X145.04Y-113.96
X145.04Y-116.5
T4
X136.7Y-70.787
X136.7Y-92.787
X158.7Y-70.787
X158.7Y-92.787
M30
