%TF.GenerationSoftware,KiCad,Pcbnew,9.0.9-9.0.9~ubuntu24.04.1*%
%TF.CreationDate,2026-05-14T17:49:19+05:30*%
%TF.ProjectId,controller_board,636f6e74-726f-46c6-9c65-725f626f6172,rev?*%
%TF.SameCoordinates,Original*%
%TF.FileFunction,Copper,L2,Bot*%
%TF.FilePolarity,Positive*%
%FSLAX46Y46*%
G04 Gerber Fmt 4.6, Leading zero omitted, Abs format (unit mm)*
G04 Created by KiCad (PCBNEW 9.0.9-9.0.9~ubuntu24.04.1) date 2026-05-14 17:49:19*
%MOMM*%
%LPD*%
G01*
G04 APERTURE LIST*
%TA.AperFunction,ComponentPad*%
%ADD10R,1.508000X1.508000*%
%TD*%
%TA.AperFunction,ComponentPad*%
%ADD11C,1.508000*%
%TD*%
%TA.AperFunction,ComponentPad*%
%ADD12C,1.530000*%
%TD*%
%TA.AperFunction,ComponentPad*%
%ADD13C,3.000000*%
%TD*%
%TA.AperFunction,ComponentPad*%
%ADD14R,1.700000X1.700000*%
%TD*%
%TA.AperFunction,ComponentPad*%
%ADD15O,1.700000X1.700000*%
%TD*%
%TA.AperFunction,ComponentPad*%
%ADD16C,1.700000*%
%TD*%
%TA.AperFunction,ViaPad*%
%ADD17C,0.600000*%
%TD*%
%TA.AperFunction,Conductor*%
%ADD18C,0.200000*%
%TD*%
G04 APERTURE END LIST*
D10*
%TO.P,S1,1*%
%TO.N,GND*%
X126997500Y-123190000D03*
D11*
%TO.P,S1,2*%
%TO.N,unconnected-(S1-Pad2)*%
X126997500Y-129690000D03*
%TO.P,S1,3*%
%TO.N,unconnected-(S1-Pad3)*%
X122497500Y-123190000D03*
%TO.P,S1,4*%
%TO.N,GPIO 0*%
X122497500Y-129690000D03*
%TD*%
D12*
%TO.P,U2,0,0*%
%TO.N,GPIO 0*%
X114560000Y-116500000D03*
%TO.P,U2,1,1*%
%TO.N,unconnected-(U2-Pad1)*%
X117100000Y-116500000D03*
%TO.P,U2,2,2*%
%TO.N,unconnected-(U2-Pad2)*%
X119640000Y-116500000D03*
%TO.P,U2,3,3*%
%TO.N,GPIO 3*%
X122180000Y-116500000D03*
%TO.P,U2,3.3V_1,3.3V_1*%
%TO.N,unconnected-(U2-Pad3.3V_1)*%
X145040000Y-111420000D03*
%TO.P,U2,3.3V_2,3.3V_2*%
%TO.N,unconnected-(U2-Pad3.3V_2)*%
X117100000Y-101260000D03*
%TO.P,U2,4,4*%
%TO.N,unconnected-(U2-Pad4)*%
X124720000Y-116500000D03*
%TO.P,U2,5,5*%
%TO.N,unconnected-(U2-Pad5)*%
X127260000Y-116500000D03*
%TO.P,U2,6,6*%
%TO.N,unconnected-(U2-Pad6)*%
X129800000Y-116500000D03*
%TO.P,U2,7,7*%
%TO.N,GPIO 7*%
X132340000Y-116500000D03*
%TO.P,U2,8,8*%
%TO.N,Net-(U1-~{CSN})*%
X134880000Y-116500000D03*
%TO.P,U2,9,9*%
%TO.N,Net-(U1-IRQ)*%
X137420000Y-116500000D03*
%TO.P,U2,10,10*%
%TO.N,Net-(U1-CE)*%
X139960000Y-116500000D03*
%TO.P,U2,11,11*%
%TO.N,Net-(U1-MOSI)*%
X142500000Y-116500000D03*
%TO.P,U2,12,12*%
%TO.N,Net-(U1-MISO)*%
X145040000Y-116500000D03*
%TO.P,U2,13,13*%
%TO.N,Net-(U1-SCK)*%
X145040000Y-101260000D03*
%TO.P,U2,14,14*%
%TO.N,unconnected-(U2-Pad14)*%
X142500000Y-101260000D03*
%TO.P,U2,15,15*%
%TO.N,GPIO 15*%
X139960000Y-101260000D03*
%TO.P,U2,16,16*%
%TO.N,GPIO 16*%
X137420000Y-101260000D03*
%TO.P,U2,17,17*%
%TO.N,GPIO 17*%
X134880000Y-101260000D03*
%TO.P,U2,18,18*%
%TO.N,GPIO 18*%
X132340000Y-101260000D03*
%TO.P,U2,19,19*%
%TO.N,GPIO 19*%
X129800000Y-101260000D03*
%TO.P,U2,20,20*%
%TO.N,unconnected-(U2-Pad20)*%
X127260000Y-101260000D03*
%TO.P,U2,21,21*%
%TO.N,GPIO 21*%
X124720000Y-101260000D03*
%TO.P,U2,22,22*%
%TO.N,GPIO 22*%
X122180000Y-101260000D03*
%TO.P,U2,23,23*%
%TO.N,GPIO 23*%
X119640000Y-101260000D03*
%TO.P,U2,G1,G1*%
%TO.N,unconnected-(U2-PadG1)*%
X112020000Y-116500000D03*
%TO.P,U2,G2,G2*%
%TO.N,unconnected-(U2-PadG2)*%
X145040000Y-108880000D03*
%TO.P,U2,G3,G3*%
%TO.N,GND*%
X114560000Y-101260000D03*
%TO.P,U2,ON-OFF,ON/OFF*%
%TO.N,unconnected-(U2-ON{slash}OFF-PadON-OFF)*%
X145040000Y-103800000D03*
%TO.P,U2,PGM,PROGRAM*%
%TO.N,unconnected-(U2-PROGRAM-PadPGM)*%
X145040000Y-106340000D03*
%TO.P,U2,VBAT,VBAT*%
%TO.N,unconnected-(U2-PadVBAT)*%
X145040000Y-113960000D03*
%TO.P,U2,VIN,VIN*%
%TO.N,+3.3V*%
X112020000Y-101260000D03*
%TD*%
D10*
%TO.P,U3,1,GND*%
%TO.N,GND*%
X151510000Y-93287500D03*
D11*
%TO.P,U3,2,VCC_IN*%
%TO.N,+3.3V*%
X148970000Y-93287500D03*
%TO.P,U3,3,SCL*%
%TO.N,GPIO 19*%
X146430000Y-93287500D03*
%TO.P,U3,4,SDA*%
%TO.N,GPIO 18*%
X143890000Y-93287500D03*
D13*
%TO.P,U3,S1*%
%TO.N,N/C*%
X158700000Y-92787500D03*
%TO.P,U3,S2*%
X136700000Y-92787500D03*
%TO.P,U3,S3*%
X136700000Y-70787500D03*
%TO.P,U3,S4*%
X158700000Y-70787500D03*
%TD*%
D14*
%TO.P,J1,1,Pin_1*%
%TO.N,+5V*%
X116200000Y-82500000D03*
D15*
%TO.P,J1,2,Pin_2*%
%TO.N,GND*%
X116200000Y-79960000D03*
%TD*%
D14*
%TO.P,U1,1,GND*%
%TO.N,GND*%
X168335000Y-113950500D03*
D16*
%TO.P,U1,2,VCC*%
%TO.N,+3.3V*%
X168335000Y-116490500D03*
%TO.P,U1,3,CE*%
%TO.N,Net-(U1-CE)*%
X165795000Y-113950500D03*
%TO.P,U1,4,~{CSN}*%
%TO.N,Net-(U1-~{CSN})*%
X165795000Y-116490500D03*
%TO.P,U1,5,SCK*%
%TO.N,Net-(U1-SCK)*%
X163255000Y-113950500D03*
%TO.P,U1,6,MOSI*%
%TO.N,Net-(U1-MOSI)*%
X163255000Y-116490500D03*
%TO.P,U1,7,MISO*%
%TO.N,Net-(U1-MISO)*%
X160715000Y-113950500D03*
%TO.P,U1,8,IRQ*%
%TO.N,Net-(U1-IRQ)*%
X160715000Y-116490500D03*
%TD*%
D14*
%TO.P,J2,1,Pin_1*%
%TO.N,GPIO 23*%
X117780000Y-93500000D03*
D15*
%TO.P,J2,2,Pin_2*%
%TO.N,GPIO 22*%
X120320000Y-93500000D03*
%TO.P,J2,3,Pin_3*%
%TO.N,GPIO 21*%
X122860000Y-93500000D03*
%TO.P,J2,4,Pin_4*%
%TO.N,GPIO 17*%
X125400000Y-93500000D03*
%TO.P,J2,5,Pin_5*%
%TO.N,GPIO 16*%
X127940000Y-93500000D03*
%TO.P,J2,6,Pin_6*%
%TO.N,GPIO 15*%
X130480000Y-93500000D03*
%TD*%
D10*
%TO.P,S3,1*%
%TO.N,GND*%
X142910000Y-123215000D03*
D11*
%TO.P,S3,2*%
%TO.N,unconnected-(S3-Pad2)*%
X142910000Y-129715000D03*
%TO.P,S3,3*%
%TO.N,unconnected-(S3-Pad3)*%
X138410000Y-123215000D03*
%TO.P,S3,4*%
%TO.N,GPIO 7*%
X138410000Y-129715000D03*
%TD*%
D10*
%TO.P,S2,1*%
%TO.N,GND*%
X134960000Y-123065000D03*
D11*
%TO.P,S2,2*%
%TO.N,unconnected-(S2-Pad2)*%
X134960000Y-129565000D03*
%TO.P,S2,3*%
%TO.N,unconnected-(S2-Pad3)*%
X130460000Y-123065000D03*
%TO.P,S2,4*%
%TO.N,GPIO 3*%
X130460000Y-129565000D03*
%TD*%
D17*
%TO.N,GND*%
X170800000Y-111400000D03*
X169200000Y-111500000D03*
X122600000Y-79100000D03*
X120400000Y-79900000D03*
X124500000Y-82100000D03*
X124500000Y-80800000D03*
%TO.N,+3.3V*%
X124300000Y-86100000D03*
X126800000Y-86100000D03*
X129400000Y-86200000D03*
X122800000Y-88200000D03*
%TO.N,Net-(U1-CE)*%
X140600000Y-114900000D03*
X161100000Y-109300000D03*
X146900000Y-115000000D03*
X156800000Y-109300000D03*
%TO.N,Net-(U1-MOSI)*%
X161100000Y-110600000D03*
X152700000Y-110600000D03*
%TO.N,GPIO 19*%
X138400000Y-97900000D03*
X129800000Y-99600000D03*
%TO.N,GPIO 18*%
X141200000Y-97000000D03*
X132400000Y-99700000D03*
%TD*%
D18*
%TO.N,GND*%
X120400000Y-79900000D02*
X121800000Y-79900000D01*
X170800000Y-111400000D02*
X169300000Y-111400000D01*
X124500000Y-80800000D02*
X124500000Y-82100000D01*
X169300000Y-111400000D02*
X169200000Y-111500000D01*
X121800000Y-79900000D02*
X122600000Y-79100000D01*
%TO.N,+3.3V*%
X124300000Y-88000000D02*
X124100000Y-88200000D01*
X124100000Y-88200000D02*
X122800000Y-88200000D01*
X126800000Y-86100000D02*
X126900000Y-86200000D01*
X126900000Y-86200000D02*
X129400000Y-86200000D01*
X124300000Y-86100000D02*
X124300000Y-88000000D01*
%TO.N,Net-(U1-CE)*%
X146875000Y-115025000D02*
X146900000Y-115000000D01*
X140600000Y-114900000D02*
X140725000Y-115025000D01*
X140725000Y-115025000D02*
X146875000Y-115025000D01*
X161100000Y-109300000D02*
X156800000Y-109300000D01*
%TO.N,Net-(U1-MOSI)*%
X161100000Y-110600000D02*
X152700000Y-110600000D01*
%TO.N,GPIO 19*%
X129800000Y-99600000D02*
X129800000Y-98300000D01*
X130100000Y-98000000D02*
X138300000Y-98000000D01*
X129800000Y-98300000D02*
X130100000Y-98000000D01*
X138300000Y-98000000D02*
X138400000Y-97900000D01*
%TO.N,GPIO 18*%
X132400000Y-99700000D02*
X133300000Y-98800000D01*
X133300000Y-98800000D02*
X139400000Y-98800000D01*
X139400000Y-98800000D02*
X141200000Y-97000000D01*
%TD*%
%TA.AperFunction,Conductor*%
%TO.N,GND*%
G36*
X172177539Y-66835185D02*
G01*
X172223294Y-66887989D01*
X172234500Y-66939500D01*
X172234500Y-132890500D01*
X172214815Y-132957539D01*
X172162011Y-133003294D01*
X172110500Y-133014500D01*
X110709500Y-133014500D01*
X110642461Y-132994815D01*
X110596706Y-132942011D01*
X110585500Y-132890500D01*
X110585500Y-129597648D01*
X112699500Y-129597648D01*
X112699500Y-129802351D01*
X112731522Y-130004534D01*
X112794781Y-130199223D01*
X112858691Y-130324653D01*
X112883073Y-130372504D01*
X112887715Y-130381613D01*
X113008028Y-130547213D01*
X113152786Y-130691971D01*
X113284880Y-130787941D01*
X113318390Y-130812287D01*
X113434607Y-130871503D01*
X113500776Y-130905218D01*
X113500778Y-130905218D01*
X113500781Y-130905220D01*
X113603545Y-130938610D01*
X113695465Y-130968477D01*
X113796557Y-130984488D01*
X113897648Y-131000500D01*
X113897649Y-131000500D01*
X114102351Y-131000500D01*
X114102352Y-131000500D01*
X114304534Y-130968477D01*
X114499219Y-130905220D01*
X114681610Y-130812287D01*
X114798185Y-130727591D01*
X114847213Y-130691971D01*
X114847215Y-130691968D01*
X114847219Y-130691966D01*
X114991966Y-130547219D01*
X114991968Y-130547215D01*
X114991971Y-130547213D01*
X115044732Y-130474590D01*
X115112287Y-130381610D01*
X115205220Y-130199219D01*
X115268477Y-130004534D01*
X115300500Y-129802352D01*
X115300500Y-129597648D01*
X115299489Y-129591263D01*
X121243000Y-129591263D01*
X121243000Y-129788736D01*
X121273889Y-129983763D01*
X121294293Y-130046558D01*
X121334909Y-130171561D01*
X121424556Y-130347501D01*
X121424558Y-130347504D01*
X121540615Y-130507246D01*
X121680253Y-130646884D01*
X121791339Y-130727591D01*
X121839999Y-130762944D01*
X122015939Y-130852591D01*
X122141137Y-130893270D01*
X122203736Y-130913610D01*
X122398764Y-130944500D01*
X122398769Y-130944500D01*
X122596236Y-130944500D01*
X122791263Y-130913610D01*
X122979061Y-130852591D01*
X123155001Y-130762944D01*
X123252695Y-130691966D01*
X123314746Y-130646884D01*
X123314748Y-130646881D01*
X123314752Y-130646879D01*
X123454379Y-130507252D01*
X123454381Y-130507248D01*
X123454384Y-130507246D01*
X123545660Y-130381613D01*
X123570444Y-130347501D01*
X123660091Y-130171561D01*
X123721110Y-129983763D01*
X123752000Y-129788736D01*
X123752000Y-129591263D01*
X125743000Y-129591263D01*
X125743000Y-129788736D01*
X125773889Y-129983763D01*
X125794293Y-130046558D01*
X125834909Y-130171561D01*
X125924556Y-130347501D01*
X125924558Y-130347504D01*
X126040615Y-130507246D01*
X126180253Y-130646884D01*
X126291339Y-130727591D01*
X126339999Y-130762944D01*
X126515939Y-130852591D01*
X126641137Y-130893270D01*
X126703736Y-130913610D01*
X126898764Y-130944500D01*
X126898769Y-130944500D01*
X127096236Y-130944500D01*
X127291263Y-130913610D01*
X127479061Y-130852591D01*
X127655001Y-130762944D01*
X127752695Y-130691966D01*
X127814746Y-130646884D01*
X127814748Y-130646881D01*
X127814752Y-130646879D01*
X127954379Y-130507252D01*
X127954381Y-130507248D01*
X127954384Y-130507246D01*
X128045660Y-130381613D01*
X128070444Y-130347501D01*
X128160091Y-130171561D01*
X128221110Y-129983763D01*
X128252000Y-129788736D01*
X128252000Y-129591263D01*
X128234503Y-129480795D01*
X128232201Y-129466263D01*
X129205500Y-129466263D01*
X129205500Y-129663736D01*
X129236389Y-129858763D01*
X129285128Y-130008763D01*
X129297409Y-130046561D01*
X129387056Y-130222501D01*
X129387058Y-130222504D01*
X129503115Y-130382246D01*
X129642753Y-130521884D01*
X129792234Y-130630486D01*
X129802499Y-130637944D01*
X129978439Y-130727591D01*
X130087236Y-130762941D01*
X130166236Y-130788610D01*
X130361264Y-130819500D01*
X130361269Y-130819500D01*
X130558736Y-130819500D01*
X130753763Y-130788610D01*
X130755822Y-130787941D01*
X130941561Y-130727591D01*
X131117501Y-130637944D01*
X131207192Y-130572779D01*
X131277246Y-130521884D01*
X131277248Y-130521881D01*
X131277252Y-130521879D01*
X131416879Y-130382252D01*
X131416881Y-130382248D01*
X131416884Y-130382246D01*
X131467779Y-130312192D01*
X131532944Y-130222501D01*
X131622591Y-130046561D01*
X131683610Y-129858763D01*
X131690742Y-129813736D01*
X131714500Y-129663736D01*
X131714500Y-129466263D01*
X133705500Y-129466263D01*
X133705500Y-129663736D01*
X133736389Y-129858763D01*
X133785128Y-130008763D01*
X133797409Y-130046561D01*
X133887056Y-130222501D01*
X133887058Y-130222504D01*
X134003115Y-130382246D01*
X134142753Y-130521884D01*
X134292234Y-130630486D01*
X134302499Y-130637944D01*
X134478439Y-130727591D01*
X134587236Y-130762941D01*
X134666236Y-130788610D01*
X134861264Y-130819500D01*
X134861269Y-130819500D01*
X135058736Y-130819500D01*
X135253763Y-130788610D01*
X135255822Y-130787941D01*
X135441561Y-130727591D01*
X135617501Y-130637944D01*
X135707192Y-130572779D01*
X135777246Y-130521884D01*
X135777248Y-130521881D01*
X135777252Y-130521879D01*
X135916879Y-130382252D01*
X135916881Y-130382248D01*
X135916884Y-130382246D01*
X135967779Y-130312192D01*
X136032944Y-130222501D01*
X136122591Y-130046561D01*
X136183610Y-129858763D01*
X136190742Y-129813736D01*
X136214500Y-129663736D01*
X136214500Y-129616263D01*
X137155500Y-129616263D01*
X137155500Y-129813736D01*
X137186389Y-130008763D01*
X137239285Y-130171558D01*
X137247409Y-130196561D01*
X137337056Y-130372501D01*
X137337058Y-130372504D01*
X137453115Y-130532246D01*
X137592753Y-130671884D01*
X137718085Y-130762941D01*
X137752499Y-130787944D01*
X137928439Y-130877591D01*
X138013467Y-130905218D01*
X138116236Y-130938610D01*
X138311264Y-130969500D01*
X138311269Y-130969500D01*
X138508736Y-130969500D01*
X138703763Y-130938610D01*
X138891561Y-130877591D01*
X139067501Y-130787944D01*
X139199598Y-130691971D01*
X139227246Y-130671884D01*
X139227248Y-130671881D01*
X139227252Y-130671879D01*
X139366879Y-130532252D01*
X139366881Y-130532248D01*
X139366884Y-130532246D01*
X139417779Y-130462192D01*
X139482944Y-130372501D01*
X139572591Y-130196561D01*
X139633610Y-130008763D01*
X139657368Y-129858763D01*
X139664500Y-129813736D01*
X139664500Y-129616263D01*
X141655500Y-129616263D01*
X141655500Y-129813736D01*
X141686389Y-130008763D01*
X141739285Y-130171558D01*
X141747409Y-130196561D01*
X141837056Y-130372501D01*
X141837058Y-130372504D01*
X141953115Y-130532246D01*
X142092753Y-130671884D01*
X142218085Y-130762941D01*
X142252499Y-130787944D01*
X142428439Y-130877591D01*
X142513467Y-130905218D01*
X142616236Y-130938610D01*
X142811264Y-130969500D01*
X142811269Y-130969500D01*
X143008736Y-130969500D01*
X143203763Y-130938610D01*
X143391561Y-130877591D01*
X143567501Y-130787944D01*
X143699598Y-130691971D01*
X143727246Y-130671884D01*
X143727248Y-130671881D01*
X143727252Y-130671879D01*
X143866879Y-130532252D01*
X143866881Y-130532248D01*
X143866884Y-130532246D01*
X143917779Y-130462192D01*
X143982944Y-130372501D01*
X144072591Y-130196561D01*
X144133610Y-130008763D01*
X144157368Y-129858763D01*
X144164500Y-129813736D01*
X144164500Y-129616263D01*
X144133610Y-129421236D01*
X144084872Y-129271237D01*
X144072591Y-129233439D01*
X143982944Y-129057499D01*
X143954527Y-129018386D01*
X143866884Y-128897753D01*
X143727246Y-128758115D01*
X143567504Y-128642058D01*
X143567503Y-128642057D01*
X143567501Y-128642056D01*
X143391561Y-128552409D01*
X143391558Y-128552408D01*
X143203763Y-128491389D01*
X143008736Y-128460500D01*
X143008731Y-128460500D01*
X142811269Y-128460500D01*
X142811264Y-128460500D01*
X142616236Y-128491389D01*
X142428441Y-128552408D01*
X142252495Y-128642058D01*
X142092753Y-128758115D01*
X141953115Y-128897753D01*
X141837058Y-129057495D01*
X141747408Y-129233441D01*
X141686389Y-129421236D01*
X141655500Y-129616263D01*
X139664500Y-129616263D01*
X139633610Y-129421236D01*
X139584872Y-129271237D01*
X139572591Y-129233439D01*
X139482944Y-129057499D01*
X139454527Y-129018386D01*
X139366884Y-128897753D01*
X139227246Y-128758115D01*
X139067504Y-128642058D01*
X139067503Y-128642057D01*
X139067501Y-128642056D01*
X138891561Y-128552409D01*
X138891558Y-128552408D01*
X138703763Y-128491389D01*
X138508736Y-128460500D01*
X138508731Y-128460500D01*
X138311269Y-128460500D01*
X138311264Y-128460500D01*
X138116236Y-128491389D01*
X137928441Y-128552408D01*
X137752495Y-128642058D01*
X137592753Y-128758115D01*
X137453115Y-128897753D01*
X137337058Y-129057495D01*
X137247408Y-129233441D01*
X137186389Y-129421236D01*
X137155500Y-129616263D01*
X136214500Y-129616263D01*
X136214500Y-129466263D01*
X136183610Y-129271236D01*
X136160716Y-129200776D01*
X136122591Y-129083439D01*
X136032944Y-128907499D01*
X135993193Y-128852786D01*
X135916884Y-128747753D01*
X135777246Y-128608115D01*
X135617504Y-128492058D01*
X135617503Y-128492057D01*
X135617501Y-128492056D01*
X135441561Y-128402409D01*
X135432608Y-128399500D01*
X135253763Y-128341389D01*
X135058736Y-128310500D01*
X135058731Y-128310500D01*
X134861269Y-128310500D01*
X134861264Y-128310500D01*
X134666236Y-128341389D01*
X134478441Y-128402408D01*
X134302495Y-128492058D01*
X134142753Y-128608115D01*
X134003115Y-128747753D01*
X133887058Y-128907495D01*
X133797408Y-129083441D01*
X133736389Y-129271236D01*
X133705500Y-129466263D01*
X131714500Y-129466263D01*
X131683610Y-129271236D01*
X131660716Y-129200776D01*
X131622591Y-129083439D01*
X131532944Y-128907499D01*
X131493193Y-128852786D01*
X131416884Y-128747753D01*
X131277246Y-128608115D01*
X131117504Y-128492058D01*
X131117503Y-128492057D01*
X131117501Y-128492056D01*
X130941561Y-128402409D01*
X130932608Y-128399500D01*
X130753763Y-128341389D01*
X130558736Y-128310500D01*
X130558731Y-128310500D01*
X130361269Y-128310500D01*
X130361264Y-128310500D01*
X130166236Y-128341389D01*
X129978441Y-128402408D01*
X129802495Y-128492058D01*
X129642753Y-128608115D01*
X129503115Y-128747753D01*
X129387058Y-128907495D01*
X129297408Y-129083441D01*
X129236389Y-129271236D01*
X129205500Y-129466263D01*
X128232201Y-129466263D01*
X128221110Y-129396236D01*
X128180495Y-129271236D01*
X128160091Y-129208439D01*
X128070444Y-129032499D01*
X128060190Y-129018386D01*
X127954384Y-128872753D01*
X127814746Y-128733115D01*
X127655004Y-128617058D01*
X127655003Y-128617057D01*
X127655001Y-128617056D01*
X127479061Y-128527409D01*
X127479058Y-128527408D01*
X127291263Y-128466389D01*
X127096236Y-128435500D01*
X127096231Y-128435500D01*
X126898769Y-128435500D01*
X126898764Y-128435500D01*
X126703736Y-128466389D01*
X126515941Y-128527408D01*
X126339995Y-128617058D01*
X126180253Y-128733115D01*
X126040615Y-128872753D01*
X125924558Y-129032495D01*
X125834908Y-129208441D01*
X125773889Y-129396236D01*
X125743000Y-129591263D01*
X123752000Y-129591263D01*
X123721110Y-129396236D01*
X123680495Y-129271236D01*
X123660091Y-129208439D01*
X123570444Y-129032499D01*
X123560190Y-129018386D01*
X123454384Y-128872753D01*
X123314746Y-128733115D01*
X123155004Y-128617058D01*
X123155003Y-128617057D01*
X123155001Y-128617056D01*
X122979061Y-128527409D01*
X122979058Y-128527408D01*
X122791263Y-128466389D01*
X122596236Y-128435500D01*
X122596231Y-128435500D01*
X122398769Y-128435500D01*
X122398764Y-128435500D01*
X122203736Y-128466389D01*
X122015941Y-128527408D01*
X121839995Y-128617058D01*
X121680253Y-128733115D01*
X121540615Y-128872753D01*
X121424558Y-129032495D01*
X121334908Y-129208441D01*
X121273889Y-129396236D01*
X121243000Y-129591263D01*
X115299489Y-129591263D01*
X115268477Y-129395466D01*
X115205220Y-129200781D01*
X115205218Y-129200778D01*
X115205218Y-129200776D01*
X115145431Y-129083439D01*
X115112287Y-129018390D01*
X115104556Y-129007749D01*
X114991971Y-128852786D01*
X114847213Y-128708028D01*
X114681613Y-128587715D01*
X114681612Y-128587714D01*
X114681610Y-128587713D01*
X114612320Y-128552408D01*
X114499223Y-128494781D01*
X114304534Y-128431522D01*
X114120712Y-128402408D01*
X114102352Y-128399500D01*
X113897648Y-128399500D01*
X113879288Y-128402408D01*
X113695465Y-128431522D01*
X113500776Y-128494781D01*
X113318386Y-128587715D01*
X113152786Y-128708028D01*
X113008028Y-128852786D01*
X112887715Y-129018386D01*
X112794781Y-129200776D01*
X112731522Y-129395465D01*
X112699500Y-129597648D01*
X110585500Y-129597648D01*
X110585500Y-123091263D01*
X121243000Y-123091263D01*
X121243000Y-123288736D01*
X121273889Y-123483763D01*
X121334908Y-123671558D01*
X121334909Y-123671561D01*
X121424556Y-123847501D01*
X121424558Y-123847504D01*
X121540615Y-124007246D01*
X121680253Y-124146884D01*
X121791339Y-124227591D01*
X121839999Y-124262944D01*
X122015939Y-124352591D01*
X122122917Y-124387350D01*
X122203736Y-124413610D01*
X122398764Y-124444500D01*
X122398769Y-124444500D01*
X122596236Y-124444500D01*
X122791263Y-124413610D01*
X122795141Y-124412350D01*
X122979061Y-124352591D01*
X123155001Y-124262944D01*
X123274413Y-124176187D01*
X123314746Y-124146884D01*
X123314748Y-124146881D01*
X123314752Y-124146879D01*
X123454379Y-124007252D01*
X123454381Y-124007248D01*
X123454384Y-124007246D01*
X123552278Y-123872504D01*
X123570444Y-123847501D01*
X123660091Y-123671561D01*
X123721110Y-123483763D01*
X123724082Y-123465000D01*
X123739249Y-123369240D01*
X123739249Y-123369239D01*
X123752000Y-123288735D01*
X123752000Y-123091263D01*
X123721110Y-122896236D01*
X123673294Y-122749075D01*
X123660091Y-122708439D01*
X123570444Y-122532499D01*
X123516126Y-122457736D01*
X123516125Y-122457733D01*
X123465574Y-122388155D01*
X125743500Y-122388155D01*
X125743500Y-122940000D01*
X126564488Y-122940000D01*
X126531575Y-122997007D01*
X126497500Y-123124174D01*
X126497500Y-123255826D01*
X126531575Y-123382993D01*
X126564488Y-123440000D01*
X125743500Y-123440000D01*
X125743500Y-123991844D01*
X125749901Y-124051372D01*
X125749903Y-124051379D01*
X125800145Y-124186086D01*
X125800149Y-124186093D01*
X125886309Y-124301187D01*
X125886312Y-124301190D01*
X126001406Y-124387350D01*
X126001413Y-124387354D01*
X126136120Y-124437596D01*
X126136127Y-124437598D01*
X126195655Y-124443999D01*
X126195672Y-124444000D01*
X126747500Y-124444000D01*
X126747500Y-123623012D01*
X126804507Y-123655925D01*
X126931674Y-123690000D01*
X127063326Y-123690000D01*
X127190493Y-123655925D01*
X127247500Y-123623012D01*
X127247500Y-124444000D01*
X127799328Y-124444000D01*
X127799344Y-124443999D01*
X127858872Y-124437598D01*
X127858879Y-124437596D01*
X127993586Y-124387354D01*
X127993593Y-124387350D01*
X128108687Y-124301190D01*
X128108690Y-124301187D01*
X128194850Y-124186093D01*
X128194854Y-124186086D01*
X128245096Y-124051379D01*
X128245098Y-124051372D01*
X128251499Y-123991844D01*
X128251500Y-123991827D01*
X128251500Y-123440000D01*
X127430512Y-123440000D01*
X127463425Y-123382993D01*
X127497500Y-123255826D01*
X127497500Y-123124174D01*
X127463425Y-122997007D01*
X127445675Y-122966263D01*
X129205500Y-122966263D01*
X129205500Y-123163736D01*
X129236389Y-123358763D01*
X129297408Y-123546558D01*
X129297409Y-123546561D01*
X129373839Y-123696561D01*
X129387058Y-123722504D01*
X129503115Y-123882246D01*
X129642753Y-124021884D01*
X129792234Y-124130486D01*
X129802499Y-124137944D01*
X129978439Y-124227591D01*
X130085417Y-124262350D01*
X130166236Y-124288610D01*
X130361264Y-124319500D01*
X130361269Y-124319500D01*
X130558736Y-124319500D01*
X130753763Y-124288610D01*
X130755822Y-124287941D01*
X130941561Y-124227591D01*
X131117501Y-124137944D01*
X131223288Y-124061086D01*
X131277246Y-124021884D01*
X131277248Y-124021881D01*
X131277252Y-124021879D01*
X131416879Y-123882252D01*
X131416881Y-123882248D01*
X131416884Y-123882246D01*
X131467779Y-123812192D01*
X131532944Y-123722501D01*
X131622591Y-123546561D01*
X131683610Y-123358763D01*
X131714500Y-123163731D01*
X131714500Y-122966269D01*
X131714500Y-122966263D01*
X131683610Y-122771236D01*
X131627671Y-122599075D01*
X131622591Y-122583439D01*
X131532944Y-122407499D01*
X131518890Y-122388155D01*
X131478626Y-122332736D01*
X131478625Y-122332733D01*
X131428074Y-122263155D01*
X133706000Y-122263155D01*
X133706000Y-122815000D01*
X134526988Y-122815000D01*
X134494075Y-122872007D01*
X134460000Y-122999174D01*
X134460000Y-123130826D01*
X134494075Y-123257993D01*
X134526988Y-123315000D01*
X133706000Y-123315000D01*
X133706000Y-123866844D01*
X133712401Y-123926372D01*
X133712403Y-123926379D01*
X133762645Y-124061086D01*
X133762649Y-124061093D01*
X133848809Y-124176187D01*
X133848812Y-124176190D01*
X133963906Y-124262350D01*
X133963913Y-124262354D01*
X134098620Y-124312596D01*
X134098627Y-124312598D01*
X134158155Y-124318999D01*
X134158172Y-124319000D01*
X134710000Y-124319000D01*
X134710000Y-123498012D01*
X134767007Y-123530925D01*
X134894174Y-123565000D01*
X135025826Y-123565000D01*
X135152993Y-123530925D01*
X135210000Y-123498012D01*
X135210000Y-124319000D01*
X135761828Y-124319000D01*
X135761844Y-124318999D01*
X135821372Y-124312598D01*
X135821379Y-124312596D01*
X135956086Y-124262354D01*
X135956093Y-124262350D01*
X136071187Y-124176190D01*
X136071190Y-124176187D01*
X136157350Y-124061093D01*
X136157354Y-124061086D01*
X136207596Y-123926379D01*
X136207598Y-123926372D01*
X136213999Y-123866844D01*
X136214000Y-123866827D01*
X136214000Y-123315000D01*
X135393012Y-123315000D01*
X135425925Y-123257993D01*
X135460000Y-123130826D01*
X135460000Y-123116263D01*
X137155500Y-123116263D01*
X137155500Y-123313736D01*
X137186389Y-123508763D01*
X137245277Y-123690000D01*
X137247409Y-123696561D01*
X137334165Y-123866827D01*
X137337058Y-123872504D01*
X137453115Y-124032246D01*
X137592753Y-124171884D01*
X137717277Y-124262354D01*
X137752499Y-124287944D01*
X137928439Y-124377591D01*
X138035417Y-124412350D01*
X138116236Y-124438610D01*
X138311264Y-124469500D01*
X138311269Y-124469500D01*
X138508736Y-124469500D01*
X138703763Y-124438610D01*
X138706884Y-124437596D01*
X138891561Y-124377591D01*
X139067501Y-124287944D01*
X139173288Y-124211086D01*
X139227246Y-124171884D01*
X139227248Y-124171881D01*
X139227252Y-124171879D01*
X139366879Y-124032252D01*
X139366881Y-124032248D01*
X139366884Y-124032246D01*
X139417779Y-123962192D01*
X139482944Y-123872501D01*
X139572591Y-123696561D01*
X139633610Y-123508763D01*
X139640526Y-123465099D01*
X139651749Y-123394240D01*
X139651749Y-123394239D01*
X139664500Y-123313735D01*
X139664500Y-123116263D01*
X139633610Y-122921236D01*
X139613270Y-122858637D01*
X139572591Y-122733439D01*
X139482944Y-122557499D01*
X139428626Y-122482736D01*
X139428625Y-122482733D01*
X139378074Y-122413155D01*
X141656000Y-122413155D01*
X141656000Y-122965000D01*
X142476988Y-122965000D01*
X142444075Y-123022007D01*
X142410000Y-123149174D01*
X142410000Y-123280826D01*
X142444075Y-123407993D01*
X142476988Y-123465000D01*
X141656000Y-123465000D01*
X141656000Y-124016844D01*
X141662401Y-124076372D01*
X141662403Y-124076379D01*
X141712645Y-124211086D01*
X141712649Y-124211093D01*
X141798809Y-124326187D01*
X141798812Y-124326190D01*
X141913906Y-124412350D01*
X141913913Y-124412354D01*
X142048620Y-124462596D01*
X142048627Y-124462598D01*
X142108155Y-124468999D01*
X142108172Y-124469000D01*
X142660000Y-124469000D01*
X142660000Y-123648012D01*
X142717007Y-123680925D01*
X142844174Y-123715000D01*
X142975826Y-123715000D01*
X143102993Y-123680925D01*
X143160000Y-123648012D01*
X143160000Y-124469000D01*
X143711828Y-124469000D01*
X143711844Y-124468999D01*
X143771372Y-124462598D01*
X143771379Y-124462596D01*
X143906086Y-124412354D01*
X143906093Y-124412350D01*
X144021187Y-124326190D01*
X144021190Y-124326187D01*
X144107350Y-124211093D01*
X144107354Y-124211086D01*
X144157596Y-124076379D01*
X144157598Y-124076372D01*
X144163999Y-124016844D01*
X144164000Y-124016827D01*
X144164000Y-123465000D01*
X143343012Y-123465000D01*
X143375925Y-123407993D01*
X143410000Y-123280826D01*
X143410000Y-123149174D01*
X143375925Y-123022007D01*
X143343012Y-122965000D01*
X144164000Y-122965000D01*
X144164000Y-122413172D01*
X144163999Y-122413155D01*
X144157598Y-122353627D01*
X144157596Y-122353620D01*
X144107354Y-122218913D01*
X144107350Y-122218906D01*
X144021190Y-122103812D01*
X144021187Y-122103809D01*
X143906093Y-122017649D01*
X143906086Y-122017645D01*
X143771379Y-121967403D01*
X143771372Y-121967401D01*
X143711844Y-121961000D01*
X143160000Y-121961000D01*
X143160000Y-122781988D01*
X143102993Y-122749075D01*
X142975826Y-122715000D01*
X142844174Y-122715000D01*
X142717007Y-122749075D01*
X142660000Y-122781988D01*
X142660000Y-121961000D01*
X142108155Y-121961000D01*
X142048627Y-121967401D01*
X142048620Y-121967403D01*
X141913913Y-122017645D01*
X141913906Y-122017649D01*
X141798812Y-122103809D01*
X141798809Y-122103812D01*
X141712649Y-122218906D01*
X141712645Y-122218913D01*
X141662403Y-122353620D01*
X141662401Y-122353627D01*
X141656000Y-122413155D01*
X139378074Y-122413155D01*
X139366884Y-122397754D01*
X139366880Y-122397749D01*
X139227246Y-122258115D01*
X139067504Y-122142058D01*
X139067503Y-122142057D01*
X139067501Y-122142056D01*
X138891561Y-122052409D01*
X138891558Y-122052408D01*
X138703763Y-121991389D01*
X138508736Y-121960500D01*
X138508731Y-121960500D01*
X138311269Y-121960500D01*
X138311264Y-121960500D01*
X138116236Y-121991389D01*
X137928441Y-122052408D01*
X137752495Y-122142058D01*
X137592753Y-122258115D01*
X137453115Y-122397753D01*
X137337058Y-122557495D01*
X137247408Y-122733441D01*
X137186389Y-122921236D01*
X137155500Y-123116263D01*
X135460000Y-123116263D01*
X135460000Y-122999174D01*
X135425925Y-122872007D01*
X135393012Y-122815000D01*
X136214000Y-122815000D01*
X136214000Y-122263172D01*
X136213999Y-122263155D01*
X136207598Y-122203627D01*
X136207596Y-122203620D01*
X136157354Y-122068913D01*
X136157350Y-122068906D01*
X136071190Y-121953812D01*
X136071187Y-121953809D01*
X135956093Y-121867649D01*
X135956086Y-121867645D01*
X135821379Y-121817403D01*
X135821372Y-121817401D01*
X135761844Y-121811000D01*
X135210000Y-121811000D01*
X135210000Y-122631988D01*
X135152993Y-122599075D01*
X135025826Y-122565000D01*
X134894174Y-122565000D01*
X134767007Y-122599075D01*
X134710000Y-122631988D01*
X134710000Y-121811000D01*
X134158155Y-121811000D01*
X134098627Y-121817401D01*
X134098620Y-121817403D01*
X133963913Y-121867645D01*
X133963906Y-121867649D01*
X133848812Y-121953809D01*
X133848809Y-121953812D01*
X133762649Y-122068906D01*
X133762645Y-122068913D01*
X133712403Y-122203620D01*
X133712401Y-122203627D01*
X133706000Y-122263155D01*
X131428074Y-122263155D01*
X131416884Y-122247754D01*
X131416880Y-122247749D01*
X131277246Y-122108115D01*
X131117504Y-121992058D01*
X131117503Y-121992057D01*
X131117501Y-121992056D01*
X130941561Y-121902409D01*
X130941558Y-121902408D01*
X130753763Y-121841389D01*
X130558736Y-121810500D01*
X130558731Y-121810500D01*
X130361269Y-121810500D01*
X130361264Y-121810500D01*
X130166236Y-121841389D01*
X129978441Y-121902408D01*
X129802495Y-121992058D01*
X129642753Y-122108115D01*
X129503115Y-122247753D01*
X129387058Y-122407495D01*
X129297408Y-122583441D01*
X129236389Y-122771236D01*
X129205500Y-122966263D01*
X127445675Y-122966263D01*
X127430512Y-122940000D01*
X128251500Y-122940000D01*
X128251500Y-122388172D01*
X128251499Y-122388155D01*
X128245098Y-122328627D01*
X128245096Y-122328620D01*
X128194854Y-122193913D01*
X128194850Y-122193906D01*
X128108690Y-122078812D01*
X128108687Y-122078809D01*
X127993593Y-121992649D01*
X127993586Y-121992645D01*
X127858879Y-121942403D01*
X127858872Y-121942401D01*
X127799344Y-121936000D01*
X127247500Y-121936000D01*
X127247500Y-122756988D01*
X127190493Y-122724075D01*
X127063326Y-122690000D01*
X126931674Y-122690000D01*
X126804507Y-122724075D01*
X126747500Y-122756988D01*
X126747500Y-121936000D01*
X126195655Y-121936000D01*
X126136127Y-121942401D01*
X126136120Y-121942403D01*
X126001413Y-121992645D01*
X126001406Y-121992649D01*
X125886312Y-122078809D01*
X125886309Y-122078812D01*
X125800149Y-122193906D01*
X125800145Y-122193913D01*
X125749903Y-122328620D01*
X125749901Y-122328627D01*
X125743500Y-122388155D01*
X123465574Y-122388155D01*
X123454384Y-122372754D01*
X123454380Y-122372749D01*
X123314746Y-122233115D01*
X123155004Y-122117058D01*
X123155003Y-122117057D01*
X123155001Y-122117056D01*
X122979061Y-122027409D01*
X122949023Y-122017649D01*
X122791263Y-121966389D01*
X122596236Y-121935500D01*
X122596231Y-121935500D01*
X122398769Y-121935500D01*
X122398764Y-121935500D01*
X122203736Y-121966389D01*
X122015941Y-122027408D01*
X121839995Y-122117058D01*
X121680253Y-122233115D01*
X121540615Y-122372753D01*
X121424558Y-122532495D01*
X121334908Y-122708441D01*
X121273889Y-122896236D01*
X121243000Y-123091263D01*
X110585500Y-123091263D01*
X110585500Y-116963214D01*
X110605185Y-116896175D01*
X110657989Y-116850420D01*
X110727147Y-116840476D01*
X110790703Y-116869501D01*
X110827431Y-116924896D01*
X110847213Y-116985780D01*
X110860485Y-117011827D01*
X110937647Y-117163266D01*
X111054731Y-117324418D01*
X111195582Y-117465269D01*
X111356734Y-117582353D01*
X111534217Y-117672785D01*
X111534219Y-117672786D01*
X111723657Y-117734338D01*
X111723658Y-117734338D01*
X111723661Y-117734339D01*
X111920403Y-117765500D01*
X111920404Y-117765500D01*
X112119596Y-117765500D01*
X112119597Y-117765500D01*
X112316339Y-117734339D01*
X112316342Y-117734338D01*
X112316343Y-117734338D01*
X112505780Y-117672786D01*
X112505780Y-117672785D01*
X112505783Y-117672785D01*
X112683266Y-117582353D01*
X112844418Y-117465269D01*
X112985269Y-117324418D01*
X113102353Y-117163266D01*
X113179515Y-117011827D01*
X113227490Y-116961031D01*
X113295311Y-116944236D01*
X113361446Y-116966773D01*
X113400485Y-117011827D01*
X113477647Y-117163266D01*
X113594731Y-117324418D01*
X113735582Y-117465269D01*
X113896734Y-117582353D01*
X114074217Y-117672785D01*
X114074219Y-117672786D01*
X114263657Y-117734338D01*
X114263658Y-117734338D01*
X114263661Y-117734339D01*
X114460403Y-117765500D01*
X114460404Y-117765500D01*
X114659596Y-117765500D01*
X114659597Y-117765500D01*
X114856339Y-117734339D01*
X114856342Y-117734338D01*
X114856343Y-117734338D01*
X115045780Y-117672786D01*
X115045780Y-117672785D01*
X115045783Y-117672785D01*
X115223266Y-117582353D01*
X115384418Y-117465269D01*
X115525269Y-117324418D01*
X115642353Y-117163266D01*
X115719515Y-117011827D01*
X115767490Y-116961031D01*
X115835311Y-116944236D01*
X115901446Y-116966773D01*
X115940485Y-117011827D01*
X116017647Y-117163266D01*
X116134731Y-117324418D01*
X116275582Y-117465269D01*
X116436734Y-117582353D01*
X116614217Y-117672785D01*
X116614219Y-117672786D01*
X116803657Y-117734338D01*
X116803658Y-117734338D01*
X116803661Y-117734339D01*
X117000403Y-117765500D01*
X117000404Y-117765500D01*
X117199596Y-117765500D01*
X117199597Y-117765500D01*
X117396339Y-117734339D01*
X117396342Y-117734338D01*
X117396343Y-117734338D01*
X117585780Y-117672786D01*
X117585780Y-117672785D01*
X117585783Y-117672785D01*
X117763266Y-117582353D01*
X117924418Y-117465269D01*
X118065269Y-117324418D01*
X118182353Y-117163266D01*
X118259515Y-117011827D01*
X118307490Y-116961031D01*
X118375311Y-116944236D01*
X118441446Y-116966773D01*
X118480485Y-117011827D01*
X118557647Y-117163266D01*
X118674731Y-117324418D01*
X118815582Y-117465269D01*
X118976734Y-117582353D01*
X119154217Y-117672785D01*
X119154219Y-117672786D01*
X119343657Y-117734338D01*
X119343658Y-117734338D01*
X119343661Y-117734339D01*
X119540403Y-117765500D01*
X119540404Y-117765500D01*
X119739596Y-117765500D01*
X119739597Y-117765500D01*
X119936339Y-117734339D01*
X119936342Y-117734338D01*
X119936343Y-117734338D01*
X120125780Y-117672786D01*
X120125780Y-117672785D01*
X120125783Y-117672785D01*
X120303266Y-117582353D01*
X120464418Y-117465269D01*
X120605269Y-117324418D01*
X120722353Y-117163266D01*
X120799515Y-117011827D01*
X120847490Y-116961031D01*
X120915311Y-116944236D01*
X120981446Y-116966773D01*
X121020485Y-117011827D01*
X121097647Y-117163266D01*
X121214731Y-117324418D01*
X121355582Y-117465269D01*
X121516734Y-117582353D01*
X121694217Y-117672785D01*
X121694219Y-117672786D01*
X121883657Y-117734338D01*
X121883658Y-117734338D01*
X121883661Y-117734339D01*
X122080403Y-117765500D01*
X122080404Y-117765500D01*
X122279596Y-117765500D01*
X122279597Y-117765500D01*
X122476339Y-117734339D01*
X122476342Y-117734338D01*
X122476343Y-117734338D01*
X122665780Y-117672786D01*
X122665780Y-117672785D01*
X122665783Y-117672785D01*
X122843266Y-117582353D01*
X123004418Y-117465269D01*
X123145269Y-117324418D01*
X123262353Y-117163266D01*
X123339515Y-117011827D01*
X123387490Y-116961031D01*
X123455311Y-116944236D01*
X123521446Y-116966773D01*
X123560485Y-117011827D01*
X123637647Y-117163266D01*
X123754731Y-117324418D01*
X123895582Y-117465269D01*
X124056734Y-117582353D01*
X124234217Y-117672785D01*
X124234219Y-117672786D01*
X124423657Y-117734338D01*
X124423658Y-117734338D01*
X124423661Y-117734339D01*
X124620403Y-117765500D01*
X124620404Y-117765500D01*
X124819596Y-117765500D01*
X124819597Y-117765500D01*
X125016339Y-117734339D01*
X125016342Y-117734338D01*
X125016343Y-117734338D01*
X125205780Y-117672786D01*
X125205780Y-117672785D01*
X125205783Y-117672785D01*
X125383266Y-117582353D01*
X125544418Y-117465269D01*
X125685269Y-117324418D01*
X125802353Y-117163266D01*
X125879515Y-117011827D01*
X125927490Y-116961031D01*
X125995311Y-116944236D01*
X126061446Y-116966773D01*
X126100485Y-117011827D01*
X126177647Y-117163266D01*
X126294731Y-117324418D01*
X126435582Y-117465269D01*
X126596734Y-117582353D01*
X126774217Y-117672785D01*
X126774219Y-117672786D01*
X126963657Y-117734338D01*
X126963658Y-117734338D01*
X126963661Y-117734339D01*
X127160403Y-117765500D01*
X127160404Y-117765500D01*
X127359596Y-117765500D01*
X127359597Y-117765500D01*
X127556339Y-117734339D01*
X127556342Y-117734338D01*
X127556343Y-117734338D01*
X127745780Y-117672786D01*
X127745780Y-117672785D01*
X127745783Y-117672785D01*
X127923266Y-117582353D01*
X128084418Y-117465269D01*
X128225269Y-117324418D01*
X128342353Y-117163266D01*
X128419515Y-117011827D01*
X128467490Y-116961031D01*
X128535311Y-116944236D01*
X128601446Y-116966773D01*
X128640485Y-117011827D01*
X128717647Y-117163266D01*
X128834731Y-117324418D01*
X128975582Y-117465269D01*
X129136734Y-117582353D01*
X129314217Y-117672785D01*
X129314219Y-117672786D01*
X129503657Y-117734338D01*
X129503658Y-117734338D01*
X129503661Y-117734339D01*
X129700403Y-117765500D01*
X129700404Y-117765500D01*
X129899596Y-117765500D01*
X129899597Y-117765500D01*
X130096339Y-117734339D01*
X130096342Y-117734338D01*
X130096343Y-117734338D01*
X130285780Y-117672786D01*
X130285780Y-117672785D01*
X130285783Y-117672785D01*
X130463266Y-117582353D01*
X130624418Y-117465269D01*
X130765269Y-117324418D01*
X130882353Y-117163266D01*
X130959515Y-117011827D01*
X131007490Y-116961031D01*
X131075311Y-116944236D01*
X131141446Y-116966773D01*
X131180485Y-117011827D01*
X131257647Y-117163266D01*
X131374731Y-117324418D01*
X131515582Y-117465269D01*
X131676734Y-117582353D01*
X131854217Y-117672785D01*
X131854219Y-117672786D01*
X132043657Y-117734338D01*
X132043658Y-117734338D01*
X132043661Y-117734339D01*
X132240403Y-117765500D01*
X132240404Y-117765500D01*
X132439596Y-117765500D01*
X132439597Y-117765500D01*
X132636339Y-117734339D01*
X132636342Y-117734338D01*
X132636343Y-117734338D01*
X132825780Y-117672786D01*
X132825780Y-117672785D01*
X132825783Y-117672785D01*
X133003266Y-117582353D01*
X133164418Y-117465269D01*
X133305269Y-117324418D01*
X133422353Y-117163266D01*
X133499515Y-117011827D01*
X133547490Y-116961031D01*
X133615311Y-116944236D01*
X133681446Y-116966773D01*
X133720485Y-117011827D01*
X133797647Y-117163266D01*
X133914731Y-117324418D01*
X134055582Y-117465269D01*
X134216734Y-117582353D01*
X134394217Y-117672785D01*
X134394219Y-117672786D01*
X134583657Y-117734338D01*
X134583658Y-117734338D01*
X134583661Y-117734339D01*
X134780403Y-117765500D01*
X134780404Y-117765500D01*
X134979596Y-117765500D01*
X134979597Y-117765500D01*
X135176339Y-117734339D01*
X135176342Y-117734338D01*
X135176343Y-117734338D01*
X135365780Y-117672786D01*
X135365780Y-117672785D01*
X135365783Y-117672785D01*
X135543266Y-117582353D01*
X135704418Y-117465269D01*
X135845269Y-117324418D01*
X135962353Y-117163266D01*
X136039515Y-117011827D01*
X136087490Y-116961031D01*
X136155311Y-116944236D01*
X136221446Y-116966773D01*
X136260485Y-117011827D01*
X136337647Y-117163266D01*
X136454731Y-117324418D01*
X136595582Y-117465269D01*
X136756734Y-117582353D01*
X136934217Y-117672785D01*
X136934219Y-117672786D01*
X137123657Y-117734338D01*
X137123658Y-117734338D01*
X137123661Y-117734339D01*
X137320403Y-117765500D01*
X137320404Y-117765500D01*
X137519596Y-117765500D01*
X137519597Y-117765500D01*
X137716339Y-117734339D01*
X137716342Y-117734338D01*
X137716343Y-117734338D01*
X137905780Y-117672786D01*
X137905780Y-117672785D01*
X137905783Y-117672785D01*
X138083266Y-117582353D01*
X138244418Y-117465269D01*
X138385269Y-117324418D01*
X138502353Y-117163266D01*
X138579515Y-117011827D01*
X138627490Y-116961031D01*
X138695311Y-116944236D01*
X138761446Y-116966773D01*
X138800485Y-117011827D01*
X138877647Y-117163266D01*
X138994731Y-117324418D01*
X139135582Y-117465269D01*
X139296734Y-117582353D01*
X139474217Y-117672785D01*
X139474219Y-117672786D01*
X139663657Y-117734338D01*
X139663658Y-117734338D01*
X139663661Y-117734339D01*
X139860403Y-117765500D01*
X139860404Y-117765500D01*
X140059596Y-117765500D01*
X140059597Y-117765500D01*
X140256339Y-117734339D01*
X140256342Y-117734338D01*
X140256343Y-117734338D01*
X140445780Y-117672786D01*
X140445780Y-117672785D01*
X140445783Y-117672785D01*
X140623266Y-117582353D01*
X140784418Y-117465269D01*
X140925269Y-117324418D01*
X141042353Y-117163266D01*
X141119515Y-117011827D01*
X141167490Y-116961031D01*
X141235311Y-116944236D01*
X141301446Y-116966773D01*
X141340485Y-117011827D01*
X141417647Y-117163266D01*
X141534731Y-117324418D01*
X141675582Y-117465269D01*
X141836734Y-117582353D01*
X142014217Y-117672785D01*
X142014219Y-117672786D01*
X142203657Y-117734338D01*
X142203658Y-117734338D01*
X142203661Y-117734339D01*
X142400403Y-117765500D01*
X142400404Y-117765500D01*
X142599596Y-117765500D01*
X142599597Y-117765500D01*
X142796339Y-117734339D01*
X142796342Y-117734338D01*
X142796343Y-117734338D01*
X142985780Y-117672786D01*
X142985780Y-117672785D01*
X142985783Y-117672785D01*
X143163266Y-117582353D01*
X143324418Y-117465269D01*
X143465269Y-117324418D01*
X143582353Y-117163266D01*
X143659515Y-117011827D01*
X143707490Y-116961031D01*
X143775311Y-116944236D01*
X143841446Y-116966773D01*
X143880485Y-117011827D01*
X143957647Y-117163266D01*
X144074731Y-117324418D01*
X144215582Y-117465269D01*
X144376734Y-117582353D01*
X144554217Y-117672785D01*
X144554219Y-117672786D01*
X144743657Y-117734338D01*
X144743658Y-117734338D01*
X144743661Y-117734339D01*
X144940403Y-117765500D01*
X144940404Y-117765500D01*
X145139596Y-117765500D01*
X145139597Y-117765500D01*
X145336339Y-117734339D01*
X145336342Y-117734338D01*
X145336343Y-117734338D01*
X145525780Y-117672786D01*
X145525780Y-117672785D01*
X145525783Y-117672785D01*
X145703266Y-117582353D01*
X145864418Y-117465269D01*
X146005269Y-117324418D01*
X146122353Y-117163266D01*
X146212785Y-116985783D01*
X146223713Y-116952150D01*
X146274338Y-116796343D01*
X146274338Y-116796342D01*
X146274339Y-116796339D01*
X146305500Y-116599597D01*
X146305500Y-116400403D01*
X146274339Y-116203661D01*
X146274338Y-116203657D01*
X146274338Y-116203656D01*
X146212786Y-116014219D01*
X146122352Y-115836732D01*
X146111929Y-115822387D01*
X146107696Y-115810525D01*
X146099452Y-115801011D01*
X146096178Y-115778246D01*
X146088448Y-115756581D01*
X146091299Y-115744315D01*
X146089508Y-115731853D01*
X146099062Y-115710931D01*
X146104272Y-115688527D01*
X146113302Y-115679750D01*
X146118533Y-115668297D01*
X146137881Y-115655862D01*
X146154377Y-115639831D01*
X146168125Y-115636426D01*
X146177311Y-115630523D01*
X146212246Y-115625500D01*
X146357650Y-115625500D01*
X146424689Y-115645185D01*
X146426541Y-115646398D01*
X146520821Y-115709394D01*
X146520823Y-115709395D01*
X146520827Y-115709397D01*
X146605128Y-115744315D01*
X146666503Y-115769737D01*
X146775641Y-115791446D01*
X146821153Y-115800499D01*
X146821156Y-115800500D01*
X146821158Y-115800500D01*
X146978844Y-115800500D01*
X146978845Y-115800499D01*
X147133497Y-115769737D01*
X147246166Y-115723067D01*
X147279172Y-115709397D01*
X147279172Y-115709396D01*
X147279179Y-115709394D01*
X147410289Y-115621789D01*
X147521789Y-115510289D01*
X147609394Y-115379179D01*
X147669737Y-115233497D01*
X147700500Y-115078842D01*
X147700500Y-114921158D01*
X147700500Y-114921155D01*
X147700499Y-114921153D01*
X147686013Y-114848327D01*
X147669737Y-114766503D01*
X147628314Y-114666498D01*
X147609397Y-114620827D01*
X147609390Y-114620814D01*
X147521789Y-114489711D01*
X147521786Y-114489707D01*
X147410292Y-114378213D01*
X147410288Y-114378210D01*
X147279185Y-114290609D01*
X147279172Y-114290602D01*
X147133501Y-114230264D01*
X147133489Y-114230261D01*
X146978845Y-114199500D01*
X146978842Y-114199500D01*
X146821158Y-114199500D01*
X146821155Y-114199500D01*
X146666510Y-114230261D01*
X146666498Y-114230264D01*
X146520827Y-114290602D01*
X146520809Y-114290612D01*
X146474807Y-114321350D01*
X146408130Y-114342228D01*
X146340750Y-114323743D01*
X146294060Y-114271764D01*
X146282884Y-114202794D01*
X146283444Y-114198850D01*
X146284750Y-114190609D01*
X146305500Y-114059597D01*
X146305500Y-113860403D01*
X146302936Y-113844213D01*
X159364500Y-113844213D01*
X159364500Y-114056786D01*
X159396105Y-114256337D01*
X159397754Y-114266743D01*
X159433972Y-114378211D01*
X159463444Y-114468914D01*
X159559951Y-114658320D01*
X159684890Y-114830286D01*
X159835213Y-114980609D01*
X160007182Y-115105550D01*
X160015946Y-115110016D01*
X160066742Y-115157991D01*
X160083536Y-115225812D01*
X160060998Y-115291947D01*
X160015946Y-115330984D01*
X160007182Y-115335449D01*
X159835213Y-115460390D01*
X159684890Y-115610713D01*
X159559951Y-115782679D01*
X159463444Y-115972085D01*
X159397753Y-116174260D01*
X159364500Y-116384213D01*
X159364500Y-116596786D01*
X159396106Y-116796343D01*
X159397754Y-116806743D01*
X159447885Y-116961031D01*
X159463444Y-117008914D01*
X159559951Y-117198320D01*
X159684890Y-117370286D01*
X159835213Y-117520609D01*
X160007179Y-117645548D01*
X160007181Y-117645549D01*
X160007184Y-117645551D01*
X160196588Y-117742057D01*
X160398757Y-117807746D01*
X160608713Y-117841000D01*
X160608714Y-117841000D01*
X160821286Y-117841000D01*
X160821287Y-117841000D01*
X161031243Y-117807746D01*
X161233412Y-117742057D01*
X161422816Y-117645551D01*
X161444789Y-117629586D01*
X161594786Y-117520609D01*
X161594788Y-117520606D01*
X161594792Y-117520604D01*
X161745104Y-117370292D01*
X161745106Y-117370288D01*
X161745109Y-117370286D01*
X161870048Y-117198320D01*
X161870047Y-117198320D01*
X161870051Y-117198316D01*
X161874514Y-117189554D01*
X161922488Y-117138759D01*
X161990308Y-117121963D01*
X162056444Y-117144499D01*
X162095486Y-117189556D01*
X162099951Y-117198320D01*
X162224890Y-117370286D01*
X162375213Y-117520609D01*
X162547179Y-117645548D01*
X162547181Y-117645549D01*
X162547184Y-117645551D01*
X162736588Y-117742057D01*
X162938757Y-117807746D01*
X163148713Y-117841000D01*
X163148714Y-117841000D01*
X163361286Y-117841000D01*
X163361287Y-117841000D01*
X163571243Y-117807746D01*
X163773412Y-117742057D01*
X163962816Y-117645551D01*
X163984789Y-117629586D01*
X164134786Y-117520609D01*
X164134788Y-117520606D01*
X164134792Y-117520604D01*
X164285104Y-117370292D01*
X164285106Y-117370288D01*
X164285109Y-117370286D01*
X164410048Y-117198320D01*
X164410047Y-117198320D01*
X164410051Y-117198316D01*
X164414514Y-117189554D01*
X164462488Y-117138759D01*
X164530308Y-117121963D01*
X164596444Y-117144499D01*
X164635486Y-117189556D01*
X164639951Y-117198320D01*
X164764890Y-117370286D01*
X164915213Y-117520609D01*
X165087179Y-117645548D01*
X165087181Y-117645549D01*
X165087184Y-117645551D01*
X165276588Y-117742057D01*
X165478757Y-117807746D01*
X165688713Y-117841000D01*
X165688714Y-117841000D01*
X165901286Y-117841000D01*
X165901287Y-117841000D01*
X166111243Y-117807746D01*
X166313412Y-117742057D01*
X166502816Y-117645551D01*
X166524789Y-117629586D01*
X166674786Y-117520609D01*
X166674788Y-117520606D01*
X166674792Y-117520604D01*
X166825104Y-117370292D01*
X166825106Y-117370288D01*
X166825109Y-117370286D01*
X166950048Y-117198320D01*
X166950047Y-117198320D01*
X166950051Y-117198316D01*
X166954514Y-117189554D01*
X167002488Y-117138759D01*
X167070308Y-117121963D01*
X167136444Y-117144499D01*
X167175486Y-117189556D01*
X167179951Y-117198320D01*
X167304890Y-117370286D01*
X167455213Y-117520609D01*
X167627179Y-117645548D01*
X167627181Y-117645549D01*
X167627184Y-117645551D01*
X167816588Y-117742057D01*
X168018757Y-117807746D01*
X168228713Y-117841000D01*
X168228714Y-117841000D01*
X168441286Y-117841000D01*
X168441287Y-117841000D01*
X168651243Y-117807746D01*
X168853412Y-117742057D01*
X169042816Y-117645551D01*
X169064789Y-117629586D01*
X169214786Y-117520609D01*
X169214788Y-117520606D01*
X169214792Y-117520604D01*
X169365104Y-117370292D01*
X169365106Y-117370288D01*
X169365109Y-117370286D01*
X169490048Y-117198320D01*
X169490047Y-117198320D01*
X169490051Y-117198316D01*
X169586557Y-117008912D01*
X169652246Y-116806743D01*
X169685500Y-116596787D01*
X169685500Y-116384213D01*
X169652246Y-116174257D01*
X169586557Y-115972088D01*
X169490051Y-115782684D01*
X169490049Y-115782681D01*
X169490048Y-115782679D01*
X169365109Y-115610713D01*
X169251181Y-115496785D01*
X169217696Y-115435462D01*
X169222680Y-115365770D01*
X169264552Y-115309837D01*
X169295529Y-115292922D01*
X169427086Y-115243854D01*
X169427093Y-115243850D01*
X169542187Y-115157690D01*
X169542190Y-115157687D01*
X169628350Y-115042593D01*
X169628354Y-115042586D01*
X169678596Y-114907879D01*
X169678598Y-114907872D01*
X169684999Y-114848344D01*
X169685000Y-114848327D01*
X169685000Y-114200500D01*
X168768012Y-114200500D01*
X168800925Y-114143493D01*
X168835000Y-114016326D01*
X168835000Y-113884674D01*
X168800925Y-113757507D01*
X168768012Y-113700500D01*
X169685000Y-113700500D01*
X169685000Y-113052672D01*
X169684999Y-113052655D01*
X169678598Y-112993127D01*
X169678596Y-112993120D01*
X169628354Y-112858413D01*
X169628350Y-112858406D01*
X169542190Y-112743312D01*
X169542187Y-112743309D01*
X169427093Y-112657149D01*
X169427086Y-112657145D01*
X169292379Y-112606903D01*
X169292372Y-112606901D01*
X169232844Y-112600500D01*
X168585000Y-112600500D01*
X168585000Y-113517488D01*
X168527993Y-113484575D01*
X168400826Y-113450500D01*
X168269174Y-113450500D01*
X168142007Y-113484575D01*
X168085000Y-113517488D01*
X168085000Y-112600500D01*
X167437155Y-112600500D01*
X167377627Y-112606901D01*
X167377620Y-112606903D01*
X167242913Y-112657145D01*
X167242906Y-112657149D01*
X167127812Y-112743309D01*
X167127809Y-112743312D01*
X167041649Y-112858406D01*
X167041646Y-112858412D01*
X166992577Y-112989971D01*
X166950705Y-113045904D01*
X166885241Y-113070321D01*
X166816968Y-113055469D01*
X166788714Y-113034318D01*
X166674786Y-112920390D01*
X166502820Y-112795451D01*
X166313414Y-112698944D01*
X166313413Y-112698943D01*
X166313412Y-112698943D01*
X166111243Y-112633254D01*
X166111241Y-112633253D01*
X166111240Y-112633253D01*
X165949957Y-112607708D01*
X165901287Y-112600000D01*
X165688713Y-112600000D01*
X165640042Y-112607708D01*
X165478760Y-112633253D01*
X165276585Y-112698944D01*
X165087179Y-112795451D01*
X164915213Y-112920390D01*
X164764890Y-113070713D01*
X164639949Y-113242682D01*
X164635484Y-113251446D01*
X164587509Y-113302242D01*
X164519688Y-113319036D01*
X164453553Y-113296498D01*
X164414516Y-113251446D01*
X164410050Y-113242682D01*
X164285109Y-113070713D01*
X164134786Y-112920390D01*
X163962820Y-112795451D01*
X163773414Y-112698944D01*
X163773413Y-112698943D01*
X163773412Y-112698943D01*
X163571243Y-112633254D01*
X163571241Y-112633253D01*
X163571240Y-112633253D01*
X163409957Y-112607708D01*
X163361287Y-112600000D01*
X163148713Y-112600000D01*
X163100042Y-112607708D01*
X162938760Y-112633253D01*
X162736585Y-112698944D01*
X162547179Y-112795451D01*
X162375213Y-112920390D01*
X162224890Y-113070713D01*
X162099949Y-113242682D01*
X162095484Y-113251446D01*
X162047509Y-113302242D01*
X161979688Y-113319036D01*
X161913553Y-113296498D01*
X161874516Y-113251446D01*
X161870050Y-113242682D01*
X161745109Y-113070713D01*
X161594786Y-112920390D01*
X161422820Y-112795451D01*
X161233414Y-112698944D01*
X161233413Y-112698943D01*
X161233412Y-112698943D01*
X161031243Y-112633254D01*
X161031241Y-112633253D01*
X161031240Y-112633253D01*
X160869957Y-112607708D01*
X160821287Y-112600000D01*
X160608713Y-112600000D01*
X160560042Y-112607708D01*
X160398760Y-112633253D01*
X160196585Y-112698944D01*
X160007179Y-112795451D01*
X159835213Y-112920390D01*
X159684890Y-113070713D01*
X159559951Y-113242679D01*
X159463444Y-113432085D01*
X159397753Y-113634260D01*
X159364500Y-113844213D01*
X146302936Y-113844213D01*
X146274339Y-113663661D01*
X146274338Y-113663657D01*
X146274338Y-113663656D01*
X146212786Y-113474219D01*
X146122352Y-113296733D01*
X146005269Y-113135582D01*
X145864418Y-112994731D01*
X145703266Y-112877647D01*
X145551827Y-112800485D01*
X145501031Y-112752510D01*
X145484236Y-112684689D01*
X145506773Y-112618554D01*
X145551827Y-112579515D01*
X145561116Y-112574781D01*
X145703266Y-112502353D01*
X145864418Y-112385269D01*
X146005269Y-112244418D01*
X146122353Y-112083266D01*
X146212785Y-111905783D01*
X146274339Y-111716339D01*
X146305500Y-111519597D01*
X146305500Y-111320403D01*
X146274339Y-111123661D01*
X146274338Y-111123657D01*
X146274338Y-111123656D01*
X146212786Y-110934219D01*
X146212785Y-110934217D01*
X146122353Y-110756734D01*
X146005269Y-110595582D01*
X145930840Y-110521153D01*
X151899500Y-110521153D01*
X151899500Y-110678846D01*
X151930261Y-110833489D01*
X151930264Y-110833501D01*
X151990602Y-110979172D01*
X151990609Y-110979185D01*
X152078210Y-111110288D01*
X152078213Y-111110292D01*
X152189707Y-111221786D01*
X152189711Y-111221789D01*
X152320814Y-111309390D01*
X152320827Y-111309397D01*
X152466498Y-111369735D01*
X152466503Y-111369737D01*
X152621153Y-111400499D01*
X152621156Y-111400500D01*
X152621158Y-111400500D01*
X152778844Y-111400500D01*
X152778845Y-111400499D01*
X152933497Y-111369737D01*
X153079179Y-111309394D01*
X153079185Y-111309390D01*
X153210875Y-111221398D01*
X153277553Y-111200520D01*
X153279766Y-111200500D01*
X160520234Y-111200500D01*
X160587273Y-111220185D01*
X160589125Y-111221398D01*
X160720814Y-111309390D01*
X160720827Y-111309397D01*
X160866498Y-111369735D01*
X160866503Y-111369737D01*
X161021153Y-111400499D01*
X161021156Y-111400500D01*
X161021158Y-111400500D01*
X161178844Y-111400500D01*
X161178845Y-111400499D01*
X161333497Y-111369737D01*
X161479179Y-111309394D01*
X161610289Y-111221789D01*
X161721789Y-111110289D01*
X161809394Y-110979179D01*
X161869737Y-110833497D01*
X161900500Y-110678842D01*
X161900500Y-110521158D01*
X161900500Y-110521155D01*
X161900499Y-110521153D01*
X161869738Y-110366510D01*
X161869737Y-110366503D01*
X161857785Y-110337647D01*
X161809397Y-110220827D01*
X161809390Y-110220814D01*
X161721789Y-110089711D01*
X161721786Y-110089707D01*
X161669760Y-110037681D01*
X161636275Y-109976358D01*
X161641259Y-109906666D01*
X161669760Y-109862319D01*
X161721786Y-109810292D01*
X161721789Y-109810289D01*
X161809394Y-109679179D01*
X161869737Y-109533497D01*
X161900500Y-109378842D01*
X161900500Y-109221158D01*
X161900500Y-109221155D01*
X161900499Y-109221153D01*
X161869738Y-109066510D01*
X161869737Y-109066503D01*
X161833740Y-108979597D01*
X161809397Y-108920827D01*
X161809390Y-108920814D01*
X161721789Y-108789711D01*
X161721786Y-108789707D01*
X161610292Y-108678213D01*
X161610288Y-108678210D01*
X161479185Y-108590609D01*
X161479172Y-108590602D01*
X161333501Y-108530264D01*
X161333489Y-108530261D01*
X161178845Y-108499500D01*
X161178842Y-108499500D01*
X161021158Y-108499500D01*
X161021155Y-108499500D01*
X160866510Y-108530261D01*
X160866498Y-108530264D01*
X160720827Y-108590602D01*
X160720814Y-108590609D01*
X160589125Y-108678602D01*
X160522447Y-108699480D01*
X160520234Y-108699500D01*
X157379766Y-108699500D01*
X157312727Y-108679815D01*
X157310875Y-108678602D01*
X157179185Y-108590609D01*
X157179172Y-108590602D01*
X157033501Y-108530264D01*
X157033489Y-108530261D01*
X156878845Y-108499500D01*
X156878842Y-108499500D01*
X156721158Y-108499500D01*
X156721155Y-108499500D01*
X156566510Y-108530261D01*
X156566498Y-108530264D01*
X156420827Y-108590602D01*
X156420814Y-108590609D01*
X156289711Y-108678210D01*
X156289707Y-108678213D01*
X156178213Y-108789707D01*
X156178210Y-108789711D01*
X156090609Y-108920814D01*
X156090602Y-108920827D01*
X156030264Y-109066498D01*
X156030261Y-109066510D01*
X155999500Y-109221153D01*
X155999500Y-109378846D01*
X156030261Y-109533489D01*
X156030264Y-109533501D01*
X156090602Y-109679172D01*
X156090609Y-109679185D01*
X156175752Y-109806609D01*
X156196630Y-109873286D01*
X156178146Y-109940666D01*
X156126167Y-109987357D01*
X156072650Y-109999500D01*
X153279766Y-109999500D01*
X153212727Y-109979815D01*
X153210875Y-109978602D01*
X153079185Y-109890609D01*
X153079172Y-109890602D01*
X152933501Y-109830264D01*
X152933489Y-109830261D01*
X152778845Y-109799500D01*
X152778842Y-109799500D01*
X152621158Y-109799500D01*
X152621155Y-109799500D01*
X152466510Y-109830261D01*
X152466498Y-109830264D01*
X152320827Y-109890602D01*
X152320814Y-109890609D01*
X152189711Y-109978210D01*
X152189707Y-109978213D01*
X152078213Y-110089707D01*
X152078210Y-110089711D01*
X151990609Y-110220814D01*
X151990602Y-110220827D01*
X151930264Y-110366498D01*
X151930261Y-110366510D01*
X151899500Y-110521153D01*
X145930840Y-110521153D01*
X145864418Y-110454731D01*
X145703266Y-110337647D01*
X145551827Y-110260485D01*
X145501031Y-110212510D01*
X145484236Y-110144689D01*
X145506773Y-110078554D01*
X145551827Y-110039515D01*
X145561116Y-110034781D01*
X145703266Y-109962353D01*
X145864418Y-109845269D01*
X146005269Y-109704418D01*
X146122353Y-109543266D01*
X146212785Y-109365783D01*
X146212786Y-109365780D01*
X146274338Y-109176343D01*
X146274338Y-109176342D01*
X146274339Y-109176339D01*
X146305500Y-108979597D01*
X146305500Y-108780403D01*
X146274339Y-108583661D01*
X146274338Y-108583657D01*
X146274338Y-108583656D01*
X146212786Y-108394219D01*
X146122352Y-108216733D01*
X146005269Y-108055582D01*
X145864418Y-107914731D01*
X145703266Y-107797647D01*
X145551827Y-107720485D01*
X145501031Y-107672510D01*
X145484236Y-107604689D01*
X145506773Y-107538554D01*
X145551827Y-107499515D01*
X145561116Y-107494781D01*
X145703266Y-107422353D01*
X145864418Y-107305269D01*
X146005269Y-107164418D01*
X146122353Y-107003266D01*
X146212785Y-106825783D01*
X146274339Y-106636339D01*
X146305500Y-106439597D01*
X146305500Y-106240403D01*
X146274339Y-106043661D01*
X146274338Y-106043657D01*
X146274338Y-106043656D01*
X146212786Y-105854219D01*
X146122352Y-105676733D01*
X146005269Y-105515582D01*
X145864418Y-105374731D01*
X145703266Y-105257647D01*
X145551827Y-105180485D01*
X145501031Y-105132510D01*
X145484236Y-105064689D01*
X145506773Y-104998554D01*
X145551827Y-104959515D01*
X145561116Y-104954781D01*
X145703266Y-104882353D01*
X145864418Y-104765269D01*
X146005269Y-104624418D01*
X146122353Y-104463266D01*
X146212785Y-104285783D01*
X146274339Y-104096339D01*
X146305500Y-103899597D01*
X146305500Y-103700403D01*
X146274339Y-103503661D01*
X146274338Y-103503657D01*
X146274338Y-103503656D01*
X146212786Y-103314219D01*
X146122352Y-103136733D01*
X146005269Y-102975582D01*
X145864418Y-102834731D01*
X145703266Y-102717647D01*
X145551827Y-102640485D01*
X145501031Y-102592510D01*
X145484236Y-102524689D01*
X145506773Y-102458554D01*
X145551827Y-102419515D01*
X145561116Y-102414781D01*
X145703266Y-102342353D01*
X145864418Y-102225269D01*
X146005269Y-102084418D01*
X146122353Y-101923266D01*
X146212785Y-101745783D01*
X146221006Y-101720481D01*
X146274338Y-101556343D01*
X146274338Y-101556342D01*
X146274339Y-101556339D01*
X146305500Y-101359597D01*
X146305500Y-101160403D01*
X146274339Y-100963661D01*
X146274338Y-100963657D01*
X146274338Y-100963656D01*
X146212786Y-100774219D01*
X146122485Y-100596994D01*
X146122353Y-100596734D01*
X146005269Y-100435582D01*
X145864418Y-100294731D01*
X145703266Y-100177647D01*
X145649192Y-100150095D01*
X145525780Y-100087213D01*
X145336342Y-100025661D01*
X145188782Y-100002290D01*
X145139597Y-99994500D01*
X144940403Y-99994500D01*
X144874822Y-100004887D01*
X144743659Y-100025661D01*
X144743656Y-100025661D01*
X144554219Y-100087213D01*
X144376733Y-100177647D01*
X144338286Y-100205581D01*
X144215582Y-100294731D01*
X144215580Y-100294733D01*
X144215579Y-100294733D01*
X144074733Y-100435579D01*
X144074733Y-100435580D01*
X144074731Y-100435582D01*
X144024447Y-100504790D01*
X143957647Y-100596733D01*
X143880485Y-100748172D01*
X143832510Y-100798968D01*
X143764689Y-100815763D01*
X143698554Y-100793225D01*
X143659515Y-100748172D01*
X143582485Y-100596994D01*
X143582353Y-100596734D01*
X143465269Y-100435582D01*
X143324418Y-100294731D01*
X143163266Y-100177647D01*
X143109192Y-100150095D01*
X142985780Y-100087213D01*
X142796342Y-100025661D01*
X142648782Y-100002290D01*
X142599597Y-99994500D01*
X142400403Y-99994500D01*
X142334822Y-100004887D01*
X142203659Y-100025661D01*
X142203656Y-100025661D01*
X142014219Y-100087213D01*
X141836733Y-100177647D01*
X141798286Y-100205581D01*
X141675582Y-100294731D01*
X141675580Y-100294733D01*
X141675579Y-100294733D01*
X141534733Y-100435579D01*
X141534733Y-100435580D01*
X141534731Y-100435582D01*
X141484447Y-100504790D01*
X141417647Y-100596733D01*
X141340485Y-100748172D01*
X141292510Y-100798968D01*
X141224689Y-100815763D01*
X141158554Y-100793225D01*
X141119515Y-100748172D01*
X141042485Y-100596994D01*
X141042353Y-100596734D01*
X140925269Y-100435582D01*
X140784418Y-100294731D01*
X140623266Y-100177647D01*
X140569192Y-100150095D01*
X140445780Y-100087213D01*
X140256342Y-100025661D01*
X140108782Y-100002290D01*
X140059597Y-99994500D01*
X139860403Y-99994500D01*
X139794822Y-100004887D01*
X139663659Y-100025661D01*
X139663656Y-100025661D01*
X139474219Y-100087213D01*
X139296733Y-100177647D01*
X139258286Y-100205581D01*
X139135582Y-100294731D01*
X139135580Y-100294733D01*
X139135579Y-100294733D01*
X138994733Y-100435579D01*
X138994733Y-100435580D01*
X138994731Y-100435582D01*
X138944447Y-100504790D01*
X138877647Y-100596733D01*
X138800485Y-100748172D01*
X138752510Y-100798968D01*
X138684689Y-100815763D01*
X138618554Y-100793225D01*
X138579515Y-100748172D01*
X138502485Y-100596994D01*
X138502353Y-100596734D01*
X138385269Y-100435582D01*
X138244418Y-100294731D01*
X138083266Y-100177647D01*
X138029192Y-100150095D01*
X137905780Y-100087213D01*
X137716342Y-100025661D01*
X137568782Y-100002290D01*
X137519597Y-99994500D01*
X137320403Y-99994500D01*
X137254822Y-100004887D01*
X137123659Y-100025661D01*
X137123656Y-100025661D01*
X136934219Y-100087213D01*
X136756733Y-100177647D01*
X136718286Y-100205581D01*
X136595582Y-100294731D01*
X136595580Y-100294733D01*
X136595579Y-100294733D01*
X136454733Y-100435579D01*
X136454733Y-100435580D01*
X136454731Y-100435582D01*
X136404447Y-100504790D01*
X136337647Y-100596733D01*
X136260485Y-100748172D01*
X136212510Y-100798968D01*
X136144689Y-100815763D01*
X136078554Y-100793225D01*
X136039515Y-100748172D01*
X135962485Y-100596994D01*
X135962353Y-100596734D01*
X135845269Y-100435582D01*
X135704418Y-100294731D01*
X135543266Y-100177647D01*
X135489192Y-100150095D01*
X135365780Y-100087213D01*
X135176342Y-100025661D01*
X135028782Y-100002290D01*
X134979597Y-99994500D01*
X134780403Y-99994500D01*
X134714822Y-100004887D01*
X134583659Y-100025661D01*
X134583656Y-100025661D01*
X134394219Y-100087213D01*
X134216733Y-100177647D01*
X134178286Y-100205581D01*
X134055582Y-100294731D01*
X134055580Y-100294733D01*
X134055579Y-100294733D01*
X133914733Y-100435579D01*
X133914733Y-100435580D01*
X133914731Y-100435582D01*
X133864447Y-100504790D01*
X133797647Y-100596733D01*
X133720485Y-100748172D01*
X133672510Y-100798968D01*
X133604689Y-100815763D01*
X133538554Y-100793225D01*
X133499515Y-100748172D01*
X133422485Y-100596994D01*
X133422353Y-100596734D01*
X133305269Y-100435582D01*
X133164418Y-100294731D01*
X133126869Y-100267450D01*
X133084206Y-100212122D01*
X133078227Y-100142508D01*
X133096656Y-100098242D01*
X133104024Y-100087215D01*
X133109394Y-100079179D01*
X133169737Y-99933497D01*
X133189630Y-99833489D01*
X133200638Y-99778150D01*
X133233023Y-99716239D01*
X133234518Y-99714716D01*
X133512416Y-99436819D01*
X133573739Y-99403334D01*
X133600097Y-99400500D01*
X139313331Y-99400500D01*
X139313347Y-99400501D01*
X139320943Y-99400501D01*
X139479054Y-99400501D01*
X139479057Y-99400501D01*
X139631785Y-99359577D01*
X139698912Y-99320821D01*
X139768716Y-99280520D01*
X139880520Y-99168716D01*
X139880520Y-99168714D01*
X139890724Y-99158511D01*
X139890727Y-99158506D01*
X141214662Y-97834572D01*
X141275983Y-97801089D01*
X141278150Y-97800638D01*
X141336085Y-97789113D01*
X141433497Y-97769737D01*
X141579179Y-97709394D01*
X141710289Y-97621789D01*
X141821789Y-97510289D01*
X141909394Y-97379179D01*
X141969737Y-97233497D01*
X142000500Y-97078842D01*
X142000500Y-96921158D01*
X142000500Y-96921155D01*
X142000499Y-96921153D01*
X141969738Y-96766510D01*
X141969738Y-96766508D01*
X141969737Y-96766503D01*
X141969735Y-96766498D01*
X141909397Y-96620827D01*
X141909390Y-96620814D01*
X141821789Y-96489711D01*
X141821786Y-96489707D01*
X141710292Y-96378213D01*
X141710288Y-96378210D01*
X141579185Y-96290609D01*
X141579172Y-96290602D01*
X141433501Y-96230264D01*
X141433489Y-96230261D01*
X141278845Y-96199500D01*
X141278842Y-96199500D01*
X141121158Y-96199500D01*
X141121155Y-96199500D01*
X140966510Y-96230261D01*
X140966498Y-96230264D01*
X140820827Y-96290602D01*
X140820814Y-96290609D01*
X140689711Y-96378210D01*
X140689707Y-96378213D01*
X140578213Y-96489707D01*
X140578210Y-96489711D01*
X140490609Y-96620814D01*
X140490602Y-96620827D01*
X140430264Y-96766498D01*
X140430261Y-96766508D01*
X140399361Y-96921850D01*
X140366976Y-96983761D01*
X140365425Y-96985339D01*
X139412181Y-97938584D01*
X139350858Y-97972069D01*
X139281167Y-97967085D01*
X139225233Y-97925213D01*
X139200816Y-97859749D01*
X139200500Y-97850903D01*
X139200500Y-97821155D01*
X139200499Y-97821153D01*
X139178269Y-97709397D01*
X139169737Y-97666503D01*
X139151215Y-97621786D01*
X139109397Y-97520827D01*
X139109390Y-97520814D01*
X139021789Y-97389711D01*
X139021786Y-97389707D01*
X138910292Y-97278213D01*
X138910288Y-97278210D01*
X138779185Y-97190609D01*
X138779172Y-97190602D01*
X138633501Y-97130264D01*
X138633489Y-97130261D01*
X138478845Y-97099500D01*
X138478842Y-97099500D01*
X138321158Y-97099500D01*
X138321155Y-97099500D01*
X138166510Y-97130261D01*
X138166498Y-97130264D01*
X138020827Y-97190602D01*
X138020814Y-97190609D01*
X137889712Y-97278209D01*
X137847227Y-97320695D01*
X137804739Y-97363182D01*
X137743419Y-97396666D01*
X137717060Y-97399500D01*
X130179057Y-97399500D01*
X130020943Y-97399500D01*
X129868215Y-97440423D01*
X129868214Y-97440423D01*
X129868212Y-97440424D01*
X129868209Y-97440425D01*
X129818096Y-97469359D01*
X129818095Y-97469360D01*
X129774689Y-97494420D01*
X129731285Y-97519479D01*
X129731282Y-97519481D01*
X129319481Y-97931282D01*
X129319477Y-97931287D01*
X129300553Y-97964067D01*
X129300552Y-97964069D01*
X129240423Y-98068215D01*
X129199499Y-98220943D01*
X129199499Y-98220945D01*
X129199499Y-98389046D01*
X129199500Y-98389059D01*
X129199500Y-99020234D01*
X129179815Y-99087273D01*
X129178602Y-99089125D01*
X129090609Y-99220814D01*
X129090602Y-99220827D01*
X129030264Y-99366498D01*
X129030261Y-99366510D01*
X128999500Y-99521153D01*
X128999500Y-99678846D01*
X129030261Y-99833489D01*
X129030264Y-99833501D01*
X129090602Y-99979172D01*
X129090606Y-99979179D01*
X129128717Y-100036217D01*
X129149595Y-100102893D01*
X129131111Y-100170273D01*
X129098501Y-100205424D01*
X128975582Y-100294731D01*
X128975580Y-100294733D01*
X128975579Y-100294733D01*
X128834733Y-100435579D01*
X128834733Y-100435580D01*
X128834731Y-100435582D01*
X128784447Y-100504790D01*
X128717647Y-100596733D01*
X128640485Y-100748172D01*
X128592510Y-100798968D01*
X128524689Y-100815763D01*
X128458554Y-100793225D01*
X128419515Y-100748172D01*
X128342485Y-100596994D01*
X128342353Y-100596734D01*
X128225269Y-100435582D01*
X128084418Y-100294731D01*
X127923266Y-100177647D01*
X127869192Y-100150095D01*
X127745780Y-100087213D01*
X127556342Y-100025661D01*
X127408782Y-100002290D01*
X127359597Y-99994500D01*
X127160403Y-99994500D01*
X127094822Y-100004887D01*
X126963659Y-100025661D01*
X126963656Y-100025661D01*
X126774219Y-100087213D01*
X126596733Y-100177647D01*
X126558286Y-100205581D01*
X126435582Y-100294731D01*
X126435580Y-100294733D01*
X126435579Y-100294733D01*
X126294733Y-100435579D01*
X126294733Y-100435580D01*
X126294731Y-100435582D01*
X126244447Y-100504790D01*
X126177647Y-100596733D01*
X126100485Y-100748172D01*
X126052510Y-100798968D01*
X125984689Y-100815763D01*
X125918554Y-100793225D01*
X125879515Y-100748172D01*
X125802485Y-100596994D01*
X125802353Y-100596734D01*
X125685269Y-100435582D01*
X125544418Y-100294731D01*
X125383266Y-100177647D01*
X125329192Y-100150095D01*
X125205780Y-100087213D01*
X125016342Y-100025661D01*
X124868782Y-100002290D01*
X124819597Y-99994500D01*
X124620403Y-99994500D01*
X124554822Y-100004887D01*
X124423659Y-100025661D01*
X124423656Y-100025661D01*
X124234219Y-100087213D01*
X124056733Y-100177647D01*
X124018286Y-100205581D01*
X123895582Y-100294731D01*
X123895580Y-100294733D01*
X123895579Y-100294733D01*
X123754733Y-100435579D01*
X123754733Y-100435580D01*
X123754731Y-100435582D01*
X123704447Y-100504790D01*
X123637647Y-100596733D01*
X123560485Y-100748172D01*
X123512510Y-100798968D01*
X123444689Y-100815763D01*
X123378554Y-100793225D01*
X123339515Y-100748172D01*
X123262485Y-100596994D01*
X123262353Y-100596734D01*
X123145269Y-100435582D01*
X123004418Y-100294731D01*
X122843266Y-100177647D01*
X122789192Y-100150095D01*
X122665780Y-100087213D01*
X122476342Y-100025661D01*
X122328782Y-100002290D01*
X122279597Y-99994500D01*
X122080403Y-99994500D01*
X122014822Y-100004887D01*
X121883659Y-100025661D01*
X121883656Y-100025661D01*
X121694219Y-100087213D01*
X121516733Y-100177647D01*
X121478286Y-100205581D01*
X121355582Y-100294731D01*
X121355580Y-100294733D01*
X121355579Y-100294733D01*
X121214733Y-100435579D01*
X121214733Y-100435580D01*
X121214731Y-100435582D01*
X121164447Y-100504790D01*
X121097647Y-100596733D01*
X121020485Y-100748172D01*
X120972510Y-100798968D01*
X120904689Y-100815763D01*
X120838554Y-100793225D01*
X120799515Y-100748172D01*
X120722485Y-100596994D01*
X120722353Y-100596734D01*
X120605269Y-100435582D01*
X120464418Y-100294731D01*
X120303266Y-100177647D01*
X120249192Y-100150095D01*
X120125780Y-100087213D01*
X119936342Y-100025661D01*
X119788782Y-100002290D01*
X119739597Y-99994500D01*
X119540403Y-99994500D01*
X119474822Y-100004887D01*
X119343659Y-100025661D01*
X119343656Y-100025661D01*
X119154219Y-100087213D01*
X118976733Y-100177647D01*
X118938286Y-100205581D01*
X118815582Y-100294731D01*
X118815580Y-100294733D01*
X118815579Y-100294733D01*
X118674733Y-100435579D01*
X118674733Y-100435580D01*
X118674731Y-100435582D01*
X118624447Y-100504790D01*
X118557647Y-100596733D01*
X118480485Y-100748172D01*
X118432510Y-100798968D01*
X118364689Y-100815763D01*
X118298554Y-100793225D01*
X118259515Y-100748172D01*
X118182485Y-100596994D01*
X118182353Y-100596734D01*
X118065269Y-100435582D01*
X117924418Y-100294731D01*
X117763266Y-100177647D01*
X117709192Y-100150095D01*
X117585780Y-100087213D01*
X117396342Y-100025661D01*
X117248782Y-100002290D01*
X117199597Y-99994500D01*
X117000403Y-99994500D01*
X116934822Y-100004887D01*
X116803659Y-100025661D01*
X116803656Y-100025661D01*
X116614219Y-100087213D01*
X116436733Y-100177647D01*
X116398286Y-100205581D01*
X116275582Y-100294731D01*
X116275580Y-100294733D01*
X116275579Y-100294733D01*
X116134733Y-100435579D01*
X116134733Y-100435580D01*
X116134731Y-100435582D01*
X116099555Y-100483997D01*
X116017645Y-100596735D01*
X115940203Y-100748723D01*
X115892229Y-100799518D01*
X115824408Y-100816313D01*
X115758273Y-100793775D01*
X115719234Y-100748722D01*
X115641924Y-100596994D01*
X115614417Y-100559135D01*
X115614417Y-100559134D01*
X115051128Y-101122424D01*
X115035245Y-101063147D01*
X114968102Y-100946853D01*
X114873147Y-100851898D01*
X114756853Y-100784755D01*
X114697574Y-100768871D01*
X115260864Y-100205581D01*
X115260863Y-100205580D01*
X115223008Y-100178077D01*
X115045594Y-100087679D01*
X114856222Y-100026147D01*
X114659563Y-99995000D01*
X114460437Y-99995000D01*
X114263777Y-100026147D01*
X114074405Y-100087679D01*
X113896990Y-100178077D01*
X113859135Y-100205580D01*
X113859135Y-100205581D01*
X114422425Y-100768871D01*
X114363147Y-100784755D01*
X114246853Y-100851898D01*
X114151898Y-100946853D01*
X114084755Y-101063147D01*
X114068871Y-101122425D01*
X113505581Y-100559135D01*
X113505580Y-100559135D01*
X113478075Y-100596993D01*
X113400764Y-100748723D01*
X113352790Y-100799518D01*
X113284969Y-100816313D01*
X113218834Y-100793775D01*
X113179795Y-100748722D01*
X113102485Y-100596994D01*
X113102353Y-100596734D01*
X112985269Y-100435582D01*
X112844418Y-100294731D01*
X112683266Y-100177647D01*
X112629192Y-100150095D01*
X112505780Y-100087213D01*
X112316342Y-100025661D01*
X112168782Y-100002290D01*
X112119597Y-99994500D01*
X111920403Y-99994500D01*
X111854822Y-100004887D01*
X111723659Y-100025661D01*
X111723656Y-100025661D01*
X111534219Y-100087213D01*
X111356733Y-100177647D01*
X111318286Y-100205581D01*
X111195582Y-100294731D01*
X111195580Y-100294733D01*
X111195579Y-100294733D01*
X111054733Y-100435579D01*
X111054733Y-100435580D01*
X111054731Y-100435582D01*
X111004447Y-100504790D01*
X110937647Y-100596733D01*
X110847214Y-100774218D01*
X110827431Y-100835104D01*
X110787993Y-100892779D01*
X110723634Y-100919977D01*
X110654788Y-100908062D01*
X110603312Y-100860818D01*
X110585500Y-100796785D01*
X110585500Y-92602135D01*
X116429500Y-92602135D01*
X116429500Y-94397870D01*
X116429501Y-94397876D01*
X116435908Y-94457483D01*
X116486202Y-94592328D01*
X116486206Y-94592335D01*
X116572452Y-94707544D01*
X116572455Y-94707547D01*
X116687664Y-94793793D01*
X116687671Y-94793797D01*
X116822517Y-94844091D01*
X116822516Y-94844091D01*
X116829444Y-94844835D01*
X116882127Y-94850500D01*
X118677872Y-94850499D01*
X118737483Y-94844091D01*
X118872331Y-94793796D01*
X118987546Y-94707546D01*
X119073796Y-94592331D01*
X119122810Y-94460916D01*
X119164681Y-94404984D01*
X119230145Y-94380566D01*
X119298418Y-94395417D01*
X119326673Y-94416569D01*
X119440213Y-94530109D01*
X119612179Y-94655048D01*
X119612181Y-94655049D01*
X119612184Y-94655051D01*
X119801588Y-94751557D01*
X120003757Y-94817246D01*
X120213713Y-94850500D01*
X120213714Y-94850500D01*
X120426286Y-94850500D01*
X120426287Y-94850500D01*
X120636243Y-94817246D01*
X120838412Y-94751557D01*
X121027816Y-94655051D01*
X121114138Y-94592335D01*
X121199786Y-94530109D01*
X121199788Y-94530106D01*
X121199792Y-94530104D01*
X121350104Y-94379792D01*
X121350106Y-94379788D01*
X121350109Y-94379786D01*
X121475048Y-94207820D01*
X121475047Y-94207820D01*
X121475051Y-94207816D01*
X121479514Y-94199054D01*
X121527488Y-94148259D01*
X121595308Y-94131463D01*
X121661444Y-94153999D01*
X121700486Y-94199056D01*
X121704951Y-94207820D01*
X121829890Y-94379786D01*
X121980213Y-94530109D01*
X122152179Y-94655048D01*
X122152181Y-94655049D01*
X122152184Y-94655051D01*
X122341588Y-94751557D01*
X122543757Y-94817246D01*
X122753713Y-94850500D01*
X122753714Y-94850500D01*
X122966286Y-94850500D01*
X122966287Y-94850500D01*
X123176243Y-94817246D01*
X123378412Y-94751557D01*
X123567816Y-94655051D01*
X123654138Y-94592335D01*
X123739786Y-94530109D01*
X123739788Y-94530106D01*
X123739792Y-94530104D01*
X123890104Y-94379792D01*
X123890106Y-94379788D01*
X123890109Y-94379786D01*
X124015048Y-94207820D01*
X124015047Y-94207820D01*
X124015051Y-94207816D01*
X124019514Y-94199054D01*
X124067488Y-94148259D01*
X124135308Y-94131463D01*
X124201444Y-94153999D01*
X124240486Y-94199056D01*
X124244951Y-94207820D01*
X124369890Y-94379786D01*
X124520213Y-94530109D01*
X124692179Y-94655048D01*
X124692181Y-94655049D01*
X124692184Y-94655051D01*
X124881588Y-94751557D01*
X125083757Y-94817246D01*
X125293713Y-94850500D01*
X125293714Y-94850500D01*
X125506286Y-94850500D01*
X125506287Y-94850500D01*
X125716243Y-94817246D01*
X125918412Y-94751557D01*
X126107816Y-94655051D01*
X126194138Y-94592335D01*
X126279786Y-94530109D01*
X126279788Y-94530106D01*
X126279792Y-94530104D01*
X126430104Y-94379792D01*
X126430106Y-94379788D01*
X126430109Y-94379786D01*
X126555048Y-94207820D01*
X126555047Y-94207820D01*
X126555051Y-94207816D01*
X126559514Y-94199054D01*
X126607488Y-94148259D01*
X126675308Y-94131463D01*
X126741444Y-94153999D01*
X126780486Y-94199056D01*
X126784951Y-94207820D01*
X126909890Y-94379786D01*
X127060213Y-94530109D01*
X127232179Y-94655048D01*
X127232181Y-94655049D01*
X127232184Y-94655051D01*
X127421588Y-94751557D01*
X127623757Y-94817246D01*
X127833713Y-94850500D01*
X127833714Y-94850500D01*
X128046286Y-94850500D01*
X128046287Y-94850500D01*
X128256243Y-94817246D01*
X128458412Y-94751557D01*
X128647816Y-94655051D01*
X128734138Y-94592335D01*
X128819786Y-94530109D01*
X128819788Y-94530106D01*
X128819792Y-94530104D01*
X128970104Y-94379792D01*
X128970106Y-94379788D01*
X128970109Y-94379786D01*
X129095048Y-94207820D01*
X129095047Y-94207820D01*
X129095051Y-94207816D01*
X129099514Y-94199054D01*
X129147488Y-94148259D01*
X129215308Y-94131463D01*
X129281444Y-94153999D01*
X129320486Y-94199056D01*
X129324951Y-94207820D01*
X129449890Y-94379786D01*
X129600213Y-94530109D01*
X129772179Y-94655048D01*
X129772181Y-94655049D01*
X129772184Y-94655051D01*
X129961588Y-94751557D01*
X130163757Y-94817246D01*
X130373713Y-94850500D01*
X130373714Y-94850500D01*
X130586286Y-94850500D01*
X130586287Y-94850500D01*
X130796243Y-94817246D01*
X130998412Y-94751557D01*
X131187816Y-94655051D01*
X131274138Y-94592335D01*
X131359786Y-94530109D01*
X131359788Y-94530106D01*
X131359792Y-94530104D01*
X131510104Y-94379792D01*
X131510106Y-94379788D01*
X131510109Y-94379786D01*
X131635048Y-94207820D01*
X131635047Y-94207820D01*
X131635051Y-94207816D01*
X131731557Y-94018412D01*
X131797246Y-93816243D01*
X131830500Y-93606287D01*
X131830500Y-93393713D01*
X131797246Y-93183757D01*
X131731557Y-92981588D01*
X131635051Y-92792184D01*
X131586389Y-92725206D01*
X131586388Y-92725203D01*
X131536379Y-92656372D01*
X134699500Y-92656372D01*
X134699500Y-92918627D01*
X134726123Y-93120839D01*
X134733730Y-93178616D01*
X134791365Y-93393713D01*
X134801602Y-93431918D01*
X134801605Y-93431928D01*
X134901953Y-93674190D01*
X134901958Y-93674200D01*
X135033075Y-93901303D01*
X135192718Y-94109351D01*
X135192726Y-94109360D01*
X135378140Y-94294774D01*
X135378148Y-94294781D01*
X135586196Y-94454424D01*
X135813299Y-94585541D01*
X135813309Y-94585546D01*
X136055571Y-94685894D01*
X136055581Y-94685898D01*
X136308884Y-94753770D01*
X136568880Y-94788000D01*
X136568887Y-94788000D01*
X136831113Y-94788000D01*
X136831120Y-94788000D01*
X137091116Y-94753770D01*
X137344419Y-94685898D01*
X137570300Y-94592335D01*
X137586690Y-94585546D01*
X137586691Y-94585545D01*
X137586697Y-94585543D01*
X137813803Y-94454424D01*
X138021851Y-94294782D01*
X138021855Y-94294777D01*
X138021860Y-94294774D01*
X138207274Y-94109360D01*
X138207277Y-94109355D01*
X138207282Y-94109351D01*
X138366924Y-93901303D01*
X138498043Y-93674197D01*
X138598398Y-93431919D01*
X138663551Y-93188763D01*
X142635500Y-93188763D01*
X142635500Y-93386236D01*
X142666389Y-93581263D01*
X142727408Y-93769058D01*
X142727409Y-93769061D01*
X142817056Y-93945001D01*
X142817058Y-93945004D01*
X142933115Y-94104746D01*
X143072753Y-94244384D01*
X143222234Y-94352986D01*
X143232499Y-94360444D01*
X143408439Y-94450091D01*
X143515417Y-94484850D01*
X143596236Y-94511110D01*
X143791264Y-94542000D01*
X143791269Y-94542000D01*
X143988736Y-94542000D01*
X144183763Y-94511110D01*
X144371561Y-94450091D01*
X144547501Y-94360444D01*
X144653288Y-94283586D01*
X144707246Y-94244384D01*
X144707248Y-94244381D01*
X144707252Y-94244379D01*
X144846879Y-94104752D01*
X144846881Y-94104748D01*
X144846884Y-94104746D01*
X144962941Y-93945005D01*
X144962942Y-93945004D01*
X144962944Y-93945001D01*
X145049517Y-93775093D01*
X145097490Y-93724300D01*
X145165311Y-93707505D01*
X145231446Y-93730042D01*
X145270482Y-93775093D01*
X145340168Y-93911857D01*
X145357058Y-93945005D01*
X145473115Y-94104746D01*
X145612753Y-94244384D01*
X145762234Y-94352986D01*
X145772499Y-94360444D01*
X145948439Y-94450091D01*
X146055417Y-94484850D01*
X146136236Y-94511110D01*
X146331264Y-94542000D01*
X146331269Y-94542000D01*
X146528736Y-94542000D01*
X146723763Y-94511110D01*
X146911561Y-94450091D01*
X147087501Y-94360444D01*
X147193288Y-94283586D01*
X147247246Y-94244384D01*
X147247248Y-94244381D01*
X147247252Y-94244379D01*
X147386879Y-94104752D01*
X147386881Y-94104748D01*
X147386884Y-94104746D01*
X147502941Y-93945005D01*
X147502942Y-93945004D01*
X147502944Y-93945001D01*
X147589517Y-93775093D01*
X147637490Y-93724300D01*
X147705311Y-93707505D01*
X147771446Y-93730042D01*
X147810482Y-93775093D01*
X147880168Y-93911857D01*
X147897058Y-93945005D01*
X148013115Y-94104746D01*
X148152753Y-94244384D01*
X148302234Y-94352986D01*
X148312499Y-94360444D01*
X148488439Y-94450091D01*
X148595417Y-94484850D01*
X148676236Y-94511110D01*
X148871264Y-94542000D01*
X148871269Y-94542000D01*
X149068736Y-94542000D01*
X149263763Y-94511110D01*
X149451561Y-94450091D01*
X149627501Y-94360444D01*
X149733288Y-94283586D01*
X149787246Y-94244384D01*
X149787248Y-94244381D01*
X149787252Y-94244379D01*
X149926879Y-94104752D01*
X150031683Y-93960500D01*
X150087011Y-93917836D01*
X150156624Y-93911857D01*
X150218420Y-93944462D01*
X150252777Y-94005300D01*
X150256000Y-94033387D01*
X150256000Y-94089344D01*
X150262401Y-94148872D01*
X150262403Y-94148879D01*
X150312645Y-94283586D01*
X150312649Y-94283593D01*
X150398809Y-94398687D01*
X150398812Y-94398690D01*
X150513906Y-94484850D01*
X150513913Y-94484854D01*
X150648620Y-94535096D01*
X150648627Y-94535098D01*
X150708155Y-94541499D01*
X150708172Y-94541500D01*
X151260000Y-94541500D01*
X151260000Y-93720512D01*
X151317007Y-93753425D01*
X151444174Y-93787500D01*
X151575826Y-93787500D01*
X151702993Y-93753425D01*
X151760000Y-93720512D01*
X151760000Y-94541500D01*
X152311828Y-94541500D01*
X152311844Y-94541499D01*
X152371372Y-94535098D01*
X152371379Y-94535096D01*
X152506086Y-94484854D01*
X152506093Y-94484850D01*
X152621187Y-94398690D01*
X152621190Y-94398687D01*
X152707350Y-94283593D01*
X152707354Y-94283586D01*
X152757596Y-94148879D01*
X152757598Y-94148872D01*
X152763999Y-94089344D01*
X152764000Y-94089327D01*
X152764000Y-93537500D01*
X151943012Y-93537500D01*
X151975925Y-93480493D01*
X152010000Y-93353326D01*
X152010000Y-93221674D01*
X151975925Y-93094507D01*
X151943012Y-93037500D01*
X152764000Y-93037500D01*
X152764000Y-92656372D01*
X156699500Y-92656372D01*
X156699500Y-92918627D01*
X156726123Y-93120839D01*
X156733730Y-93178616D01*
X156791365Y-93393713D01*
X156801602Y-93431918D01*
X156801605Y-93431928D01*
X156901953Y-93674190D01*
X156901958Y-93674200D01*
X157033075Y-93901303D01*
X157192718Y-94109351D01*
X157192726Y-94109360D01*
X157378140Y-94294774D01*
X157378148Y-94294781D01*
X157586196Y-94454424D01*
X157813299Y-94585541D01*
X157813309Y-94585546D01*
X158055571Y-94685894D01*
X158055581Y-94685898D01*
X158308884Y-94753770D01*
X158568880Y-94788000D01*
X158568887Y-94788000D01*
X158831113Y-94788000D01*
X158831120Y-94788000D01*
X159091116Y-94753770D01*
X159344419Y-94685898D01*
X159570300Y-94592335D01*
X159586690Y-94585546D01*
X159586691Y-94585545D01*
X159586697Y-94585543D01*
X159813803Y-94454424D01*
X160021851Y-94294782D01*
X160021855Y-94294777D01*
X160021860Y-94294774D01*
X160207274Y-94109360D01*
X160207277Y-94109355D01*
X160207282Y-94109351D01*
X160366924Y-93901303D01*
X160498043Y-93674197D01*
X160598398Y-93431919D01*
X160666270Y-93178616D01*
X160700500Y-92918620D01*
X160700500Y-92656380D01*
X160666270Y-92396384D01*
X160598398Y-92143081D01*
X160590871Y-92124909D01*
X160498046Y-91900809D01*
X160498041Y-91900799D01*
X160366924Y-91673696D01*
X160207281Y-91465648D01*
X160207274Y-91465640D01*
X160021860Y-91280226D01*
X160021851Y-91280218D01*
X159813803Y-91120575D01*
X159586700Y-90989458D01*
X159586690Y-90989453D01*
X159344428Y-90889105D01*
X159344421Y-90889103D01*
X159344419Y-90889102D01*
X159091116Y-90821230D01*
X159033339Y-90813623D01*
X158831127Y-90787000D01*
X158831120Y-90787000D01*
X158568880Y-90787000D01*
X158568872Y-90787000D01*
X158337772Y-90817426D01*
X158308884Y-90821230D01*
X158055581Y-90889102D01*
X158055571Y-90889105D01*
X157813309Y-90989453D01*
X157813299Y-90989458D01*
X157586196Y-91120575D01*
X157378148Y-91280218D01*
X157192718Y-91465648D01*
X157033075Y-91673696D01*
X156901958Y-91900799D01*
X156901953Y-91900809D01*
X156801605Y-92143071D01*
X156801602Y-92143081D01*
X156747512Y-92344951D01*
X156733730Y-92396385D01*
X156699500Y-92656372D01*
X152764000Y-92656372D01*
X152764000Y-92485672D01*
X152763999Y-92485655D01*
X152757598Y-92426127D01*
X152757596Y-92426120D01*
X152707354Y-92291413D01*
X152707350Y-92291406D01*
X152621190Y-92176312D01*
X152621187Y-92176309D01*
X152506093Y-92090149D01*
X152506086Y-92090145D01*
X152371379Y-92039903D01*
X152371372Y-92039901D01*
X152311844Y-92033500D01*
X151760000Y-92033500D01*
X151760000Y-92854488D01*
X151702993Y-92821575D01*
X151575826Y-92787500D01*
X151444174Y-92787500D01*
X151317007Y-92821575D01*
X151260000Y-92854488D01*
X151260000Y-92033500D01*
X150708155Y-92033500D01*
X150648627Y-92039901D01*
X150648620Y-92039903D01*
X150513913Y-92090145D01*
X150513906Y-92090149D01*
X150398812Y-92176309D01*
X150398809Y-92176312D01*
X150312649Y-92291406D01*
X150312645Y-92291413D01*
X150262403Y-92426120D01*
X150262401Y-92426127D01*
X150256000Y-92485655D01*
X150256000Y-92541612D01*
X150236315Y-92608651D01*
X150183511Y-92654406D01*
X150114353Y-92664350D01*
X150050797Y-92635325D01*
X150031682Y-92614497D01*
X149926884Y-92470253D01*
X149787246Y-92330615D01*
X149627504Y-92214558D01*
X149627503Y-92214557D01*
X149627501Y-92214556D01*
X149451561Y-92124909D01*
X149451558Y-92124908D01*
X149263763Y-92063889D01*
X149068736Y-92033000D01*
X149068731Y-92033000D01*
X148871269Y-92033000D01*
X148871264Y-92033000D01*
X148676236Y-92063889D01*
X148488441Y-92124908D01*
X148312495Y-92214558D01*
X148152753Y-92330615D01*
X148013115Y-92470253D01*
X147897058Y-92629995D01*
X147897056Y-92629999D01*
X147816805Y-92787500D01*
X147810485Y-92799903D01*
X147762510Y-92850699D01*
X147694689Y-92867494D01*
X147628554Y-92844956D01*
X147589515Y-92799903D01*
X147585581Y-92792182D01*
X147502944Y-92629999D01*
X147469111Y-92583431D01*
X147386884Y-92470253D01*
X147247246Y-92330615D01*
X147087504Y-92214558D01*
X147087503Y-92214557D01*
X147087501Y-92214556D01*
X146911561Y-92124909D01*
X146911558Y-92124908D01*
X146723763Y-92063889D01*
X146528736Y-92033000D01*
X146528731Y-92033000D01*
X146331269Y-92033000D01*
X146331264Y-92033000D01*
X146136236Y-92063889D01*
X145948441Y-92124908D01*
X145772495Y-92214558D01*
X145612753Y-92330615D01*
X145473115Y-92470253D01*
X145357058Y-92629995D01*
X145357056Y-92629999D01*
X145276805Y-92787500D01*
X145270485Y-92799903D01*
X145222510Y-92850699D01*
X145154689Y-92867494D01*
X145088554Y-92844956D01*
X145049515Y-92799903D01*
X145045581Y-92792182D01*
X144962944Y-92629999D01*
X144929111Y-92583431D01*
X144846884Y-92470253D01*
X144707246Y-92330615D01*
X144547504Y-92214558D01*
X144547503Y-92214557D01*
X144547501Y-92214556D01*
X144371561Y-92124909D01*
X144371558Y-92124908D01*
X144183763Y-92063889D01*
X143988736Y-92033000D01*
X143988731Y-92033000D01*
X143791269Y-92033000D01*
X143791264Y-92033000D01*
X143596236Y-92063889D01*
X143408441Y-92124908D01*
X143232495Y-92214558D01*
X143072753Y-92330615D01*
X142933115Y-92470253D01*
X142817058Y-92629995D01*
X142727408Y-92805941D01*
X142666389Y-92993736D01*
X142635500Y-93188763D01*
X138663551Y-93188763D01*
X138666270Y-93178616D01*
X138700500Y-92918620D01*
X138700500Y-92656380D01*
X138666270Y-92396384D01*
X138598398Y-92143081D01*
X138590871Y-92124909D01*
X138498046Y-91900809D01*
X138498041Y-91900799D01*
X138366924Y-91673696D01*
X138207281Y-91465648D01*
X138207274Y-91465640D01*
X138021860Y-91280226D01*
X138021851Y-91280218D01*
X137813803Y-91120575D01*
X137586700Y-90989458D01*
X137586690Y-90989453D01*
X137344428Y-90889105D01*
X137344421Y-90889103D01*
X137344419Y-90889102D01*
X137091116Y-90821230D01*
X137033339Y-90813623D01*
X136831127Y-90787000D01*
X136831120Y-90787000D01*
X136568880Y-90787000D01*
X136568872Y-90787000D01*
X136337772Y-90817426D01*
X136308884Y-90821230D01*
X136055581Y-90889102D01*
X136055571Y-90889105D01*
X135813309Y-90989453D01*
X135813299Y-90989458D01*
X135586196Y-91120575D01*
X135378148Y-91280218D01*
X135192718Y-91465648D01*
X135033075Y-91673696D01*
X134901958Y-91900799D01*
X134901953Y-91900809D01*
X134801605Y-92143071D01*
X134801602Y-92143081D01*
X134747512Y-92344951D01*
X134733730Y-92396385D01*
X134699500Y-92656372D01*
X131536379Y-92656372D01*
X131510109Y-92620214D01*
X131510105Y-92620209D01*
X131359786Y-92469890D01*
X131187820Y-92344951D01*
X130998414Y-92248444D01*
X130998413Y-92248443D01*
X130998412Y-92248443D01*
X130796243Y-92182754D01*
X130796241Y-92182753D01*
X130796240Y-92182753D01*
X130634957Y-92157208D01*
X130586287Y-92149500D01*
X130373713Y-92149500D01*
X130325042Y-92157208D01*
X130163760Y-92182753D01*
X129961585Y-92248444D01*
X129772179Y-92344951D01*
X129600213Y-92469890D01*
X129449890Y-92620213D01*
X129324949Y-92792182D01*
X129320484Y-92800946D01*
X129272509Y-92851742D01*
X129204688Y-92868536D01*
X129138553Y-92845998D01*
X129099516Y-92800946D01*
X129095050Y-92792182D01*
X128970109Y-92620213D01*
X128819786Y-92469890D01*
X128647820Y-92344951D01*
X128458414Y-92248444D01*
X128458413Y-92248443D01*
X128458412Y-92248443D01*
X128256243Y-92182754D01*
X128256241Y-92182753D01*
X128256240Y-92182753D01*
X128094957Y-92157208D01*
X128046287Y-92149500D01*
X127833713Y-92149500D01*
X127785042Y-92157208D01*
X127623760Y-92182753D01*
X127421585Y-92248444D01*
X127232179Y-92344951D01*
X127060213Y-92469890D01*
X126909890Y-92620213D01*
X126784949Y-92792182D01*
X126780484Y-92800946D01*
X126732509Y-92851742D01*
X126664688Y-92868536D01*
X126598553Y-92845998D01*
X126559516Y-92800946D01*
X126555050Y-92792182D01*
X126430109Y-92620213D01*
X126279786Y-92469890D01*
X126107820Y-92344951D01*
X125918414Y-92248444D01*
X125918413Y-92248443D01*
X125918412Y-92248443D01*
X125716243Y-92182754D01*
X125716241Y-92182753D01*
X125716240Y-92182753D01*
X125554957Y-92157208D01*
X125506287Y-92149500D01*
X125293713Y-92149500D01*
X125245042Y-92157208D01*
X125083760Y-92182753D01*
X124881585Y-92248444D01*
X124692179Y-92344951D01*
X124520213Y-92469890D01*
X124369890Y-92620213D01*
X124244949Y-92792182D01*
X124240484Y-92800946D01*
X124192509Y-92851742D01*
X124124688Y-92868536D01*
X124058553Y-92845998D01*
X124019516Y-92800946D01*
X124015050Y-92792182D01*
X123890109Y-92620213D01*
X123739786Y-92469890D01*
X123567820Y-92344951D01*
X123378414Y-92248444D01*
X123378413Y-92248443D01*
X123378412Y-92248443D01*
X123176243Y-92182754D01*
X123176241Y-92182753D01*
X123176240Y-92182753D01*
X123014957Y-92157208D01*
X122966287Y-92149500D01*
X122753713Y-92149500D01*
X122705042Y-92157208D01*
X122543760Y-92182753D01*
X122341585Y-92248444D01*
X122152179Y-92344951D01*
X121980213Y-92469890D01*
X121829890Y-92620213D01*
X121704949Y-92792182D01*
X121700484Y-92800946D01*
X121652509Y-92851742D01*
X121584688Y-92868536D01*
X121518553Y-92845998D01*
X121479516Y-92800946D01*
X121475050Y-92792182D01*
X121350109Y-92620213D01*
X121199786Y-92469890D01*
X121027820Y-92344951D01*
X120838414Y-92248444D01*
X120838413Y-92248443D01*
X120838412Y-92248443D01*
X120636243Y-92182754D01*
X120636241Y-92182753D01*
X120636240Y-92182753D01*
X120474957Y-92157208D01*
X120426287Y-92149500D01*
X120213713Y-92149500D01*
X120165042Y-92157208D01*
X120003760Y-92182753D01*
X119801585Y-92248444D01*
X119612179Y-92344951D01*
X119440215Y-92469889D01*
X119326673Y-92583431D01*
X119265350Y-92616915D01*
X119195658Y-92611931D01*
X119139725Y-92570059D01*
X119122810Y-92539082D01*
X119073797Y-92407671D01*
X119073793Y-92407664D01*
X118987547Y-92292455D01*
X118987544Y-92292452D01*
X118872335Y-92206206D01*
X118872328Y-92206202D01*
X118737482Y-92155908D01*
X118737483Y-92155908D01*
X118677883Y-92149501D01*
X118677881Y-92149500D01*
X118677873Y-92149500D01*
X118677864Y-92149500D01*
X116882129Y-92149500D01*
X116882123Y-92149501D01*
X116822516Y-92155908D01*
X116687671Y-92206202D01*
X116687664Y-92206206D01*
X116572455Y-92292452D01*
X116572452Y-92292455D01*
X116486206Y-92407664D01*
X116486202Y-92407671D01*
X116435908Y-92542517D01*
X116429501Y-92602116D01*
X116429500Y-92602135D01*
X110585500Y-92602135D01*
X110585500Y-88121153D01*
X121999500Y-88121153D01*
X121999500Y-88278846D01*
X122030261Y-88433489D01*
X122030264Y-88433501D01*
X122090602Y-88579172D01*
X122090609Y-88579185D01*
X122178210Y-88710288D01*
X122178213Y-88710292D01*
X122289707Y-88821786D01*
X122289711Y-88821789D01*
X122420814Y-88909390D01*
X122420827Y-88909397D01*
X122566498Y-88969735D01*
X122566503Y-88969737D01*
X122721153Y-89000499D01*
X122721156Y-89000500D01*
X122721158Y-89000500D01*
X122878844Y-89000500D01*
X122878845Y-89000499D01*
X123033497Y-88969737D01*
X123179179Y-88909394D01*
X123179185Y-88909390D01*
X123310875Y-88821398D01*
X123377553Y-88800520D01*
X123379766Y-88800500D01*
X124013331Y-88800500D01*
X124013347Y-88800501D01*
X124020943Y-88800501D01*
X124179054Y-88800501D01*
X124179057Y-88800501D01*
X124331785Y-88759577D01*
X124381904Y-88730639D01*
X124468716Y-88680520D01*
X124580520Y-88568716D01*
X124580520Y-88568714D01*
X124780520Y-88368716D01*
X124859577Y-88231784D01*
X124900501Y-88079057D01*
X124900501Y-87920942D01*
X124900501Y-87913347D01*
X124900500Y-87913329D01*
X124900500Y-86679765D01*
X124920185Y-86612726D01*
X124921398Y-86610874D01*
X125009390Y-86479185D01*
X125009390Y-86479184D01*
X125009394Y-86479179D01*
X125069737Y-86333497D01*
X125100500Y-86178842D01*
X125100500Y-86021158D01*
X125100500Y-86021155D01*
X125100499Y-86021153D01*
X125999500Y-86021153D01*
X125999500Y-86178846D01*
X126030261Y-86333489D01*
X126030264Y-86333501D01*
X126090602Y-86479172D01*
X126090609Y-86479185D01*
X126178210Y-86610288D01*
X126178213Y-86610292D01*
X126289707Y-86721786D01*
X126289711Y-86721789D01*
X126420814Y-86809390D01*
X126420827Y-86809397D01*
X126566498Y-86869735D01*
X126566503Y-86869737D01*
X126721153Y-86900499D01*
X126721156Y-86900500D01*
X126721158Y-86900500D01*
X126878844Y-86900500D01*
X126878845Y-86900499D01*
X127033497Y-86869737D01*
X127150199Y-86821398D01*
X127177864Y-86809939D01*
X127225316Y-86800500D01*
X128820234Y-86800500D01*
X128887273Y-86820185D01*
X128889125Y-86821398D01*
X129020814Y-86909390D01*
X129020827Y-86909397D01*
X129166498Y-86969735D01*
X129166503Y-86969737D01*
X129321153Y-87000499D01*
X129321156Y-87000500D01*
X129321158Y-87000500D01*
X129478844Y-87000500D01*
X129478845Y-87000499D01*
X129633497Y-86969737D01*
X129779179Y-86909394D01*
X129910289Y-86821789D01*
X130021789Y-86710289D01*
X130109394Y-86579179D01*
X130169737Y-86433497D01*
X130200500Y-86278842D01*
X130200500Y-86121158D01*
X130200500Y-86121155D01*
X130200499Y-86121153D01*
X130169737Y-85966503D01*
X130128314Y-85866498D01*
X130109397Y-85820827D01*
X130109390Y-85820814D01*
X130021789Y-85689711D01*
X130021786Y-85689707D01*
X129910292Y-85578213D01*
X129910288Y-85578210D01*
X129779185Y-85490609D01*
X129779172Y-85490602D01*
X129633501Y-85430264D01*
X129633489Y-85430261D01*
X129478845Y-85399500D01*
X129478842Y-85399500D01*
X129321158Y-85399500D01*
X129321155Y-85399500D01*
X129166510Y-85430261D01*
X129166498Y-85430264D01*
X129020827Y-85490602D01*
X129020814Y-85490609D01*
X128889125Y-85578602D01*
X128822447Y-85599480D01*
X128820234Y-85599500D01*
X127482940Y-85599500D01*
X127415901Y-85579815D01*
X127395263Y-85563185D01*
X127310289Y-85478211D01*
X127310288Y-85478210D01*
X127310287Y-85478209D01*
X127179185Y-85390609D01*
X127179172Y-85390602D01*
X127033501Y-85330264D01*
X127033489Y-85330261D01*
X126878845Y-85299500D01*
X126878842Y-85299500D01*
X126721158Y-85299500D01*
X126721155Y-85299500D01*
X126566510Y-85330261D01*
X126566498Y-85330264D01*
X126420827Y-85390602D01*
X126420814Y-85390609D01*
X126289711Y-85478210D01*
X126289707Y-85478213D01*
X126178213Y-85589707D01*
X126178210Y-85589711D01*
X126090609Y-85720814D01*
X126090602Y-85720827D01*
X126030264Y-85866498D01*
X126030261Y-85866510D01*
X125999500Y-86021153D01*
X125100499Y-86021153D01*
X125069738Y-85866510D01*
X125069737Y-85866503D01*
X125050812Y-85820814D01*
X125009397Y-85720827D01*
X125009390Y-85720814D01*
X124921789Y-85589711D01*
X124921786Y-85589707D01*
X124810292Y-85478213D01*
X124810288Y-85478210D01*
X124679185Y-85390609D01*
X124679172Y-85390602D01*
X124533501Y-85330264D01*
X124533489Y-85330261D01*
X124378845Y-85299500D01*
X124378842Y-85299500D01*
X124221158Y-85299500D01*
X124221155Y-85299500D01*
X124066510Y-85330261D01*
X124066498Y-85330264D01*
X123920827Y-85390602D01*
X123920814Y-85390609D01*
X123789711Y-85478210D01*
X123789707Y-85478213D01*
X123678213Y-85589707D01*
X123678210Y-85589711D01*
X123590609Y-85720814D01*
X123590602Y-85720827D01*
X123530264Y-85866498D01*
X123530261Y-85866510D01*
X123499500Y-86021153D01*
X123499500Y-86178846D01*
X123530261Y-86333489D01*
X123530264Y-86333501D01*
X123590602Y-86479172D01*
X123590609Y-86479185D01*
X123678602Y-86610874D01*
X123699480Y-86677551D01*
X123699500Y-86679765D01*
X123699500Y-87475500D01*
X123696949Y-87484185D01*
X123698238Y-87493147D01*
X123687259Y-87517187D01*
X123679815Y-87542539D01*
X123672974Y-87548466D01*
X123669213Y-87556703D01*
X123646978Y-87570992D01*
X123627011Y-87588294D01*
X123616496Y-87590581D01*
X123610435Y-87594477D01*
X123575500Y-87599500D01*
X123379766Y-87599500D01*
X123312727Y-87579815D01*
X123310875Y-87578602D01*
X123179185Y-87490609D01*
X123179172Y-87490602D01*
X123033501Y-87430264D01*
X123033489Y-87430261D01*
X122878845Y-87399500D01*
X122878842Y-87399500D01*
X122721158Y-87399500D01*
X122721155Y-87399500D01*
X122566510Y-87430261D01*
X122566498Y-87430264D01*
X122420827Y-87490602D01*
X122420814Y-87490609D01*
X122289711Y-87578210D01*
X122289707Y-87578213D01*
X122178213Y-87689707D01*
X122178210Y-87689711D01*
X122090609Y-87820814D01*
X122090602Y-87820827D01*
X122030264Y-87966498D01*
X122030261Y-87966510D01*
X121999500Y-88121153D01*
X110585500Y-88121153D01*
X110585500Y-81602135D01*
X114849500Y-81602135D01*
X114849500Y-83397870D01*
X114849501Y-83397876D01*
X114855908Y-83457483D01*
X114906202Y-83592328D01*
X114906206Y-83592335D01*
X114992452Y-83707544D01*
X114992455Y-83707547D01*
X115107664Y-83793793D01*
X115107671Y-83793797D01*
X115242517Y-83844091D01*
X115242516Y-83844091D01*
X115249444Y-83844835D01*
X115302127Y-83850500D01*
X117097872Y-83850499D01*
X117157483Y-83844091D01*
X117292331Y-83793796D01*
X117407546Y-83707546D01*
X117493796Y-83592331D01*
X117544091Y-83457483D01*
X117550500Y-83397873D01*
X117550499Y-81602128D01*
X117544091Y-81542517D01*
X117493796Y-81407669D01*
X117493795Y-81407668D01*
X117493793Y-81407664D01*
X117407547Y-81292455D01*
X117407544Y-81292452D01*
X117292335Y-81206206D01*
X117292328Y-81206202D01*
X117160401Y-81156997D01*
X117104467Y-81115126D01*
X117080050Y-81049662D01*
X117094902Y-80981389D01*
X117116053Y-80953133D01*
X117229728Y-80839458D01*
X117354620Y-80667557D01*
X117451095Y-80478217D01*
X117516757Y-80276129D01*
X117516757Y-80276126D01*
X117527231Y-80210000D01*
X116633012Y-80210000D01*
X116665925Y-80152993D01*
X116700000Y-80025826D01*
X116700000Y-79894174D01*
X116665925Y-79767007D01*
X116633012Y-79710000D01*
X117527231Y-79710000D01*
X117516757Y-79643873D01*
X117516757Y-79643870D01*
X117451095Y-79441782D01*
X117354620Y-79252442D01*
X117229727Y-79080540D01*
X117229723Y-79080535D01*
X117079464Y-78930276D01*
X117079459Y-78930272D01*
X116907557Y-78805379D01*
X116718215Y-78708903D01*
X116516124Y-78643241D01*
X116450000Y-78632768D01*
X116450000Y-79526988D01*
X116392993Y-79494075D01*
X116265826Y-79460000D01*
X116134174Y-79460000D01*
X116007007Y-79494075D01*
X115950000Y-79526988D01*
X115950000Y-78632768D01*
X115949999Y-78632768D01*
X115883875Y-78643241D01*
X115681784Y-78708903D01*
X115492442Y-78805379D01*
X115320540Y-78930272D01*
X115320535Y-78930276D01*
X115170276Y-79080535D01*
X115170272Y-79080540D01*
X115045379Y-79252442D01*
X114948904Y-79441782D01*
X114883242Y-79643870D01*
X114883242Y-79643873D01*
X114872769Y-79710000D01*
X115766988Y-79710000D01*
X115734075Y-79767007D01*
X115700000Y-79894174D01*
X115700000Y-80025826D01*
X115734075Y-80152993D01*
X115766988Y-80210000D01*
X114872769Y-80210000D01*
X114883242Y-80276126D01*
X114883242Y-80276129D01*
X114948904Y-80478217D01*
X115045379Y-80667557D01*
X115170272Y-80839459D01*
X115170276Y-80839464D01*
X115283946Y-80953134D01*
X115317431Y-81014457D01*
X115312447Y-81084149D01*
X115270575Y-81140082D01*
X115239598Y-81156997D01*
X115107671Y-81206202D01*
X115107664Y-81206206D01*
X114992455Y-81292452D01*
X114992452Y-81292455D01*
X114906206Y-81407664D01*
X114906202Y-81407671D01*
X114855908Y-81542517D01*
X114849501Y-81602116D01*
X114849501Y-81602123D01*
X114849500Y-81602135D01*
X110585500Y-81602135D01*
X110585500Y-70656372D01*
X134699500Y-70656372D01*
X134699500Y-70918627D01*
X134726123Y-71120839D01*
X134733730Y-71178616D01*
X134740675Y-71204534D01*
X134801602Y-71431918D01*
X134801605Y-71431928D01*
X134901953Y-71674190D01*
X134901958Y-71674200D01*
X135033075Y-71901303D01*
X135192718Y-72109351D01*
X135192726Y-72109360D01*
X135378140Y-72294774D01*
X135378148Y-72294781D01*
X135586196Y-72454424D01*
X135813299Y-72585541D01*
X135813309Y-72585546D01*
X136055571Y-72685894D01*
X136055581Y-72685898D01*
X136308884Y-72753770D01*
X136568880Y-72788000D01*
X136568887Y-72788000D01*
X136831113Y-72788000D01*
X136831120Y-72788000D01*
X137091116Y-72753770D01*
X137344419Y-72685898D01*
X137586697Y-72585543D01*
X137813803Y-72454424D01*
X138021851Y-72294782D01*
X138021855Y-72294777D01*
X138021860Y-72294774D01*
X138207274Y-72109360D01*
X138207277Y-72109355D01*
X138207282Y-72109351D01*
X138366924Y-71901303D01*
X138498043Y-71674197D01*
X138598398Y-71431919D01*
X138666270Y-71178616D01*
X138700500Y-70918620D01*
X138700500Y-70656380D01*
X138700499Y-70656372D01*
X156699500Y-70656372D01*
X156699500Y-70918627D01*
X156726123Y-71120839D01*
X156733730Y-71178616D01*
X156740675Y-71204534D01*
X156801602Y-71431918D01*
X156801605Y-71431928D01*
X156901953Y-71674190D01*
X156901958Y-71674200D01*
X157033075Y-71901303D01*
X157192718Y-72109351D01*
X157192726Y-72109360D01*
X157378140Y-72294774D01*
X157378148Y-72294781D01*
X157586196Y-72454424D01*
X157813299Y-72585541D01*
X157813309Y-72585546D01*
X158055571Y-72685894D01*
X158055581Y-72685898D01*
X158308884Y-72753770D01*
X158568880Y-72788000D01*
X158568887Y-72788000D01*
X158831113Y-72788000D01*
X158831120Y-72788000D01*
X159091116Y-72753770D01*
X159344419Y-72685898D01*
X159586697Y-72585543D01*
X159813803Y-72454424D01*
X160021851Y-72294782D01*
X160021855Y-72294777D01*
X160021860Y-72294774D01*
X160207274Y-72109360D01*
X160207277Y-72109355D01*
X160207282Y-72109351D01*
X160366924Y-71901303D01*
X160498043Y-71674197D01*
X160598398Y-71431919D01*
X160666270Y-71178616D01*
X160700500Y-70918620D01*
X160700500Y-70797648D01*
X166599500Y-70797648D01*
X166599500Y-71002351D01*
X166631522Y-71204534D01*
X166694781Y-71399223D01*
X166787715Y-71581613D01*
X166908028Y-71747213D01*
X167052786Y-71891971D01*
X167207749Y-72004556D01*
X167218390Y-72012287D01*
X167334607Y-72071503D01*
X167400776Y-72105218D01*
X167400778Y-72105218D01*
X167400781Y-72105220D01*
X167505137Y-72139127D01*
X167595465Y-72168477D01*
X167696557Y-72184488D01*
X167797648Y-72200500D01*
X167797649Y-72200500D01*
X168002351Y-72200500D01*
X168002352Y-72200500D01*
X168204534Y-72168477D01*
X168399219Y-72105220D01*
X168581610Y-72012287D01*
X168734368Y-71901303D01*
X168747213Y-71891971D01*
X168747215Y-71891968D01*
X168747219Y-71891966D01*
X168891966Y-71747219D01*
X168891968Y-71747215D01*
X168891971Y-71747213D01*
X168945024Y-71674190D01*
X169012287Y-71581610D01*
X169105220Y-71399219D01*
X169168477Y-71204534D01*
X169200500Y-71002352D01*
X169200500Y-70797648D01*
X169168477Y-70595466D01*
X169105220Y-70400781D01*
X169105218Y-70400778D01*
X169105218Y-70400776D01*
X169071503Y-70334607D01*
X169012287Y-70218390D01*
X169004556Y-70207749D01*
X168891971Y-70052786D01*
X168747213Y-69908028D01*
X168581613Y-69787715D01*
X168581612Y-69787714D01*
X168581610Y-69787713D01*
X168524653Y-69758691D01*
X168399223Y-69694781D01*
X168204534Y-69631522D01*
X168029995Y-69603878D01*
X168002352Y-69599500D01*
X167797648Y-69599500D01*
X167773329Y-69603351D01*
X167595465Y-69631522D01*
X167400776Y-69694781D01*
X167218386Y-69787715D01*
X167052786Y-69908028D01*
X166908028Y-70052786D01*
X166787715Y-70218386D01*
X166694781Y-70400776D01*
X166631522Y-70595465D01*
X166599500Y-70797648D01*
X160700500Y-70797648D01*
X160700500Y-70656380D01*
X160666270Y-70396384D01*
X160598398Y-70143081D01*
X160560997Y-70052786D01*
X160498046Y-69900809D01*
X160498041Y-69900799D01*
X160366924Y-69673696D01*
X160207281Y-69465648D01*
X160207274Y-69465640D01*
X160021860Y-69280226D01*
X160021851Y-69280218D01*
X159813803Y-69120575D01*
X159586700Y-68989458D01*
X159586690Y-68989453D01*
X159344428Y-68889105D01*
X159344421Y-68889103D01*
X159344419Y-68889102D01*
X159091116Y-68821230D01*
X159033339Y-68813623D01*
X158831127Y-68787000D01*
X158831120Y-68787000D01*
X158568880Y-68787000D01*
X158568872Y-68787000D01*
X158337772Y-68817426D01*
X158308884Y-68821230D01*
X158055581Y-68889102D01*
X158055571Y-68889105D01*
X157813309Y-68989453D01*
X157813299Y-68989458D01*
X157586196Y-69120575D01*
X157378148Y-69280218D01*
X157192718Y-69465648D01*
X157033075Y-69673696D01*
X156901958Y-69900799D01*
X156901953Y-69900809D01*
X156801605Y-70143071D01*
X156801602Y-70143081D01*
X156733730Y-70396385D01*
X156699500Y-70656372D01*
X138700499Y-70656372D01*
X138666270Y-70396384D01*
X138598398Y-70143081D01*
X138560997Y-70052786D01*
X138498046Y-69900809D01*
X138498041Y-69900799D01*
X138366924Y-69673696D01*
X138207281Y-69465648D01*
X138207274Y-69465640D01*
X138021860Y-69280226D01*
X138021851Y-69280218D01*
X137813803Y-69120575D01*
X137586700Y-68989458D01*
X137586690Y-68989453D01*
X137344428Y-68889105D01*
X137344421Y-68889103D01*
X137344419Y-68889102D01*
X137091116Y-68821230D01*
X137033339Y-68813623D01*
X136831127Y-68787000D01*
X136831120Y-68787000D01*
X136568880Y-68787000D01*
X136568872Y-68787000D01*
X136337772Y-68817426D01*
X136308884Y-68821230D01*
X136055581Y-68889102D01*
X136055571Y-68889105D01*
X135813309Y-68989453D01*
X135813299Y-68989458D01*
X135586196Y-69120575D01*
X135378148Y-69280218D01*
X135192718Y-69465648D01*
X135033075Y-69673696D01*
X134901958Y-69900799D01*
X134901953Y-69900809D01*
X134801605Y-70143071D01*
X134801602Y-70143081D01*
X134733730Y-70396385D01*
X134699500Y-70656372D01*
X110585500Y-70656372D01*
X110585500Y-66939500D01*
X110605185Y-66872461D01*
X110657989Y-66826706D01*
X110709500Y-66815500D01*
X172110500Y-66815500D01*
X172177539Y-66835185D01*
G37*
%TD.AperFunction*%
%TA.AperFunction,Conductor*%
G36*
X115614417Y-101960863D02*
G01*
X115614418Y-101960863D01*
X115641924Y-101923005D01*
X115719234Y-101771277D01*
X115767208Y-101720481D01*
X115835029Y-101703686D01*
X115901164Y-101726223D01*
X115940204Y-101771277D01*
X116017514Y-101923005D01*
X116017647Y-101923266D01*
X116134731Y-102084418D01*
X116275582Y-102225269D01*
X116436734Y-102342353D01*
X116588173Y-102419515D01*
X116614219Y-102432786D01*
X116803657Y-102494338D01*
X116803658Y-102494338D01*
X116803661Y-102494339D01*
X117000403Y-102525500D01*
X117000404Y-102525500D01*
X117199596Y-102525500D01*
X117199597Y-102525500D01*
X117396339Y-102494339D01*
X117396342Y-102494338D01*
X117396343Y-102494338D01*
X117585780Y-102432786D01*
X117585780Y-102432785D01*
X117585783Y-102432785D01*
X117763266Y-102342353D01*
X117924418Y-102225269D01*
X118065269Y-102084418D01*
X118182353Y-101923266D01*
X118259515Y-101771827D01*
X118307490Y-101721031D01*
X118375311Y-101704236D01*
X118441446Y-101726773D01*
X118480485Y-101771827D01*
X118557647Y-101923266D01*
X118674731Y-102084418D01*
X118815582Y-102225269D01*
X118976734Y-102342353D01*
X119128173Y-102419515D01*
X119154219Y-102432786D01*
X119343657Y-102494338D01*
X119343658Y-102494338D01*
X119343661Y-102494339D01*
X119540403Y-102525500D01*
X119540404Y-102525500D01*
X119739596Y-102525500D01*
X119739597Y-102525500D01*
X119936339Y-102494339D01*
X119936342Y-102494338D01*
X119936343Y-102494338D01*
X120125780Y-102432786D01*
X120125780Y-102432785D01*
X120125783Y-102432785D01*
X120303266Y-102342353D01*
X120464418Y-102225269D01*
X120605269Y-102084418D01*
X120722353Y-101923266D01*
X120799515Y-101771827D01*
X120847490Y-101721031D01*
X120915311Y-101704236D01*
X120981446Y-101726773D01*
X121020485Y-101771827D01*
X121097647Y-101923266D01*
X121214731Y-102084418D01*
X121355582Y-102225269D01*
X121516734Y-102342353D01*
X121668173Y-102419515D01*
X121694219Y-102432786D01*
X121883657Y-102494338D01*
X121883658Y-102494338D01*
X121883661Y-102494339D01*
X122080403Y-102525500D01*
X122080404Y-102525500D01*
X122279596Y-102525500D01*
X122279597Y-102525500D01*
X122476339Y-102494339D01*
X122476342Y-102494338D01*
X122476343Y-102494338D01*
X122665780Y-102432786D01*
X122665780Y-102432785D01*
X122665783Y-102432785D01*
X122843266Y-102342353D01*
X123004418Y-102225269D01*
X123145269Y-102084418D01*
X123262353Y-101923266D01*
X123339515Y-101771827D01*
X123387490Y-101721031D01*
X123455311Y-101704236D01*
X123521446Y-101726773D01*
X123560485Y-101771827D01*
X123637647Y-101923266D01*
X123754731Y-102084418D01*
X123895582Y-102225269D01*
X124056734Y-102342353D01*
X124208173Y-102419515D01*
X124234219Y-102432786D01*
X124423657Y-102494338D01*
X124423658Y-102494338D01*
X124423661Y-102494339D01*
X124620403Y-102525500D01*
X124620404Y-102525500D01*
X124819596Y-102525500D01*
X124819597Y-102525500D01*
X125016339Y-102494339D01*
X125016342Y-102494338D01*
X125016343Y-102494338D01*
X125205780Y-102432786D01*
X125205780Y-102432785D01*
X125205783Y-102432785D01*
X125383266Y-102342353D01*
X125544418Y-102225269D01*
X125685269Y-102084418D01*
X125802353Y-101923266D01*
X125879515Y-101771827D01*
X125927490Y-101721031D01*
X125995311Y-101704236D01*
X126061446Y-101726773D01*
X126100485Y-101771827D01*
X126177647Y-101923266D01*
X126294731Y-102084418D01*
X126435582Y-102225269D01*
X126596734Y-102342353D01*
X126748173Y-102419515D01*
X126774219Y-102432786D01*
X126963657Y-102494338D01*
X126963658Y-102494338D01*
X126963661Y-102494339D01*
X127160403Y-102525500D01*
X127160404Y-102525500D01*
X127359596Y-102525500D01*
X127359597Y-102525500D01*
X127556339Y-102494339D01*
X127556342Y-102494338D01*
X127556343Y-102494338D01*
X127745780Y-102432786D01*
X127745780Y-102432785D01*
X127745783Y-102432785D01*
X127923266Y-102342353D01*
X128084418Y-102225269D01*
X128225269Y-102084418D01*
X128342353Y-101923266D01*
X128419515Y-101771827D01*
X128467490Y-101721031D01*
X128535311Y-101704236D01*
X128601446Y-101726773D01*
X128640485Y-101771827D01*
X128717647Y-101923266D01*
X128834731Y-102084418D01*
X128975582Y-102225269D01*
X129136734Y-102342353D01*
X129288173Y-102419515D01*
X129314219Y-102432786D01*
X129503657Y-102494338D01*
X129503658Y-102494338D01*
X129503661Y-102494339D01*
X129700403Y-102525500D01*
X129700404Y-102525500D01*
X129899596Y-102525500D01*
X129899597Y-102525500D01*
X130096339Y-102494339D01*
X130096342Y-102494338D01*
X130096343Y-102494338D01*
X130285780Y-102432786D01*
X130285780Y-102432785D01*
X130285783Y-102432785D01*
X130463266Y-102342353D01*
X130624418Y-102225269D01*
X130765269Y-102084418D01*
X130882353Y-101923266D01*
X130959515Y-101771827D01*
X131007490Y-101721031D01*
X131075311Y-101704236D01*
X131141446Y-101726773D01*
X131180485Y-101771827D01*
X131257647Y-101923266D01*
X131374731Y-102084418D01*
X131515582Y-102225269D01*
X131676734Y-102342353D01*
X131828173Y-102419515D01*
X131854219Y-102432786D01*
X132043657Y-102494338D01*
X132043658Y-102494338D01*
X132043661Y-102494339D01*
X132240403Y-102525500D01*
X132240404Y-102525500D01*
X132439596Y-102525500D01*
X132439597Y-102525500D01*
X132636339Y-102494339D01*
X132636342Y-102494338D01*
X132636343Y-102494338D01*
X132825780Y-102432786D01*
X132825780Y-102432785D01*
X132825783Y-102432785D01*
X133003266Y-102342353D01*
X133164418Y-102225269D01*
X133305269Y-102084418D01*
X133422353Y-101923266D01*
X133499515Y-101771827D01*
X133547490Y-101721031D01*
X133615311Y-101704236D01*
X133681446Y-101726773D01*
X133720485Y-101771827D01*
X133797647Y-101923266D01*
X133914731Y-102084418D01*
X134055582Y-102225269D01*
X134216734Y-102342353D01*
X134368173Y-102419515D01*
X134394219Y-102432786D01*
X134583657Y-102494338D01*
X134583658Y-102494338D01*
X134583661Y-102494339D01*
X134780403Y-102525500D01*
X134780404Y-102525500D01*
X134979596Y-102525500D01*
X134979597Y-102525500D01*
X135176339Y-102494339D01*
X135176342Y-102494338D01*
X135176343Y-102494338D01*
X135365780Y-102432786D01*
X135365780Y-102432785D01*
X135365783Y-102432785D01*
X135543266Y-102342353D01*
X135704418Y-102225269D01*
X135845269Y-102084418D01*
X135962353Y-101923266D01*
X136039515Y-101771827D01*
X136087490Y-101721031D01*
X136155311Y-101704236D01*
X136221446Y-101726773D01*
X136260485Y-101771827D01*
X136337647Y-101923266D01*
X136454731Y-102084418D01*
X136595582Y-102225269D01*
X136756734Y-102342353D01*
X136908173Y-102419515D01*
X136934219Y-102432786D01*
X137123657Y-102494338D01*
X137123658Y-102494338D01*
X137123661Y-102494339D01*
X137320403Y-102525500D01*
X137320404Y-102525500D01*
X137519596Y-102525500D01*
X137519597Y-102525500D01*
X137716339Y-102494339D01*
X137716342Y-102494338D01*
X137716343Y-102494338D01*
X137905780Y-102432786D01*
X137905780Y-102432785D01*
X137905783Y-102432785D01*
X138083266Y-102342353D01*
X138244418Y-102225269D01*
X138385269Y-102084418D01*
X138502353Y-101923266D01*
X138579515Y-101771827D01*
X138627490Y-101721031D01*
X138695311Y-101704236D01*
X138761446Y-101726773D01*
X138800485Y-101771827D01*
X138877647Y-101923266D01*
X138994731Y-102084418D01*
X139135582Y-102225269D01*
X139296734Y-102342353D01*
X139448173Y-102419515D01*
X139474219Y-102432786D01*
X139663657Y-102494338D01*
X139663658Y-102494338D01*
X139663661Y-102494339D01*
X139860403Y-102525500D01*
X139860404Y-102525500D01*
X140059596Y-102525500D01*
X140059597Y-102525500D01*
X140256339Y-102494339D01*
X140256342Y-102494338D01*
X140256343Y-102494338D01*
X140445780Y-102432786D01*
X140445780Y-102432785D01*
X140445783Y-102432785D01*
X140623266Y-102342353D01*
X140784418Y-102225269D01*
X140925269Y-102084418D01*
X141042353Y-101923266D01*
X141119515Y-101771827D01*
X141167490Y-101721031D01*
X141235311Y-101704236D01*
X141301446Y-101726773D01*
X141340485Y-101771827D01*
X141417647Y-101923266D01*
X141534731Y-102084418D01*
X141675582Y-102225269D01*
X141836734Y-102342353D01*
X141988173Y-102419515D01*
X142014219Y-102432786D01*
X142203657Y-102494338D01*
X142203658Y-102494338D01*
X142203661Y-102494339D01*
X142400403Y-102525500D01*
X142400404Y-102525500D01*
X142599596Y-102525500D01*
X142599597Y-102525500D01*
X142796339Y-102494339D01*
X142796342Y-102494338D01*
X142796343Y-102494338D01*
X142985780Y-102432786D01*
X142985780Y-102432785D01*
X142985783Y-102432785D01*
X143163266Y-102342353D01*
X143324418Y-102225269D01*
X143465269Y-102084418D01*
X143582353Y-101923266D01*
X143659515Y-101771827D01*
X143707490Y-101721031D01*
X143775311Y-101704236D01*
X143841446Y-101726773D01*
X143880485Y-101771827D01*
X143957647Y-101923266D01*
X144074731Y-102084418D01*
X144215582Y-102225269D01*
X144376734Y-102342353D01*
X144446453Y-102377877D01*
X144528172Y-102419515D01*
X144578968Y-102467490D01*
X144595763Y-102535311D01*
X144573225Y-102601446D01*
X144528172Y-102640485D01*
X144376733Y-102717647D01*
X144284790Y-102784447D01*
X144215582Y-102834731D01*
X144215580Y-102834733D01*
X144215579Y-102834733D01*
X144074733Y-102975579D01*
X144074733Y-102975580D01*
X144074731Y-102975582D01*
X144024447Y-103044790D01*
X143957647Y-103136733D01*
X143867213Y-103314219D01*
X143805661Y-103503656D01*
X143805661Y-103503659D01*
X143774500Y-103700403D01*
X143774500Y-103899596D01*
X143805661Y-104096340D01*
X143805661Y-104096343D01*
X143867213Y-104285780D01*
X143867215Y-104285783D01*
X143957647Y-104463266D01*
X144074731Y-104624418D01*
X144215582Y-104765269D01*
X144376734Y-104882353D01*
X144446453Y-104917877D01*
X144528172Y-104959515D01*
X144578968Y-105007490D01*
X144595763Y-105075311D01*
X144573225Y-105141446D01*
X144528172Y-105180485D01*
X144376733Y-105257647D01*
X144284790Y-105324447D01*
X144215582Y-105374731D01*
X144215580Y-105374733D01*
X144215579Y-105374733D01*
X144074733Y-105515579D01*
X144074733Y-105515580D01*
X144074731Y-105515582D01*
X144024447Y-105584790D01*
X143957647Y-105676733D01*
X143867213Y-105854219D01*
X143805661Y-106043656D01*
X143805661Y-106043659D01*
X143774500Y-106240403D01*
X143774500Y-106439596D01*
X143805661Y-106636340D01*
X143805661Y-106636343D01*
X143867213Y-106825780D01*
X143867215Y-106825783D01*
X143957647Y-107003266D01*
X144074731Y-107164418D01*
X144215582Y-107305269D01*
X144376734Y-107422353D01*
X144446453Y-107457877D01*
X144528172Y-107499515D01*
X144578968Y-107547490D01*
X144595763Y-107615311D01*
X144573225Y-107681446D01*
X144528172Y-107720485D01*
X144376733Y-107797647D01*
X144284790Y-107864447D01*
X144215582Y-107914731D01*
X144215580Y-107914733D01*
X144215579Y-107914733D01*
X144074733Y-108055579D01*
X144074733Y-108055580D01*
X144074731Y-108055582D01*
X144024447Y-108124790D01*
X143957647Y-108216733D01*
X143867213Y-108394219D01*
X143805661Y-108583656D01*
X143805661Y-108583659D01*
X143774500Y-108780403D01*
X143774500Y-108979596D01*
X143805661Y-109176340D01*
X143805661Y-109176343D01*
X143867213Y-109365780D01*
X143952665Y-109533489D01*
X143957647Y-109543266D01*
X144074731Y-109704418D01*
X144215582Y-109845269D01*
X144376734Y-109962353D01*
X144425807Y-109987357D01*
X144528172Y-110039515D01*
X144578968Y-110087490D01*
X144595763Y-110155311D01*
X144573225Y-110221446D01*
X144528172Y-110260485D01*
X144376733Y-110337647D01*
X144284790Y-110404447D01*
X144215582Y-110454731D01*
X144215580Y-110454733D01*
X144215579Y-110454733D01*
X144074733Y-110595579D01*
X144074733Y-110595580D01*
X144074731Y-110595582D01*
X144074729Y-110595585D01*
X143957647Y-110756733D01*
X143867213Y-110934219D01*
X143805661Y-111123656D01*
X143805661Y-111123659D01*
X143774500Y-111320403D01*
X143774500Y-111519596D01*
X143805661Y-111716340D01*
X143805661Y-111716343D01*
X143867213Y-111905780D01*
X143867215Y-111905783D01*
X143957647Y-112083266D01*
X144074731Y-112244418D01*
X144215582Y-112385269D01*
X144376734Y-112502353D01*
X144446453Y-112537877D01*
X144528172Y-112579515D01*
X144578968Y-112627490D01*
X144595763Y-112695311D01*
X144573225Y-112761446D01*
X144528172Y-112800485D01*
X144376733Y-112877647D01*
X144317903Y-112920390D01*
X144215582Y-112994731D01*
X144215580Y-112994733D01*
X144215579Y-112994733D01*
X144074733Y-113135579D01*
X144074733Y-113135580D01*
X144074731Y-113135582D01*
X144024447Y-113204790D01*
X143957647Y-113296733D01*
X143867213Y-113474219D01*
X143805661Y-113663656D01*
X143805661Y-113663659D01*
X143774500Y-113860403D01*
X143774500Y-114059596D01*
X143805660Y-114256337D01*
X143807559Y-114262180D01*
X143809555Y-114332022D01*
X143773475Y-114391855D01*
X143710774Y-114422684D01*
X143689628Y-114424500D01*
X141307941Y-114424500D01*
X141240902Y-114404815D01*
X141220260Y-114388181D01*
X141110292Y-114278213D01*
X141110288Y-114278210D01*
X140979185Y-114190609D01*
X140979172Y-114190602D01*
X140833501Y-114130264D01*
X140833489Y-114130261D01*
X140678845Y-114099500D01*
X140678842Y-114099500D01*
X140521158Y-114099500D01*
X140521155Y-114099500D01*
X140366510Y-114130261D01*
X140366498Y-114130264D01*
X140220827Y-114190602D01*
X140220814Y-114190609D01*
X140089711Y-114278210D01*
X140089707Y-114278213D01*
X139978213Y-114389707D01*
X139978210Y-114389711D01*
X139890609Y-114520814D01*
X139890602Y-114520827D01*
X139830264Y-114666498D01*
X139830261Y-114666510D01*
X139799500Y-114821153D01*
X139799500Y-114978846D01*
X139825499Y-115109554D01*
X139819272Y-115179146D01*
X139776408Y-115234323D01*
X139723280Y-115256218D01*
X139663659Y-115265661D01*
X139663656Y-115265661D01*
X139474219Y-115327213D01*
X139296733Y-115417647D01*
X139237903Y-115460390D01*
X139135582Y-115534731D01*
X139135580Y-115534733D01*
X139135579Y-115534733D01*
X138994733Y-115675579D01*
X138994733Y-115675580D01*
X138994731Y-115675582D01*
X138953848Y-115731853D01*
X138877647Y-115836733D01*
X138800485Y-115988172D01*
X138752510Y-116038968D01*
X138684689Y-116055763D01*
X138618554Y-116033225D01*
X138579515Y-115988172D01*
X138502352Y-115836733D01*
X138385269Y-115675582D01*
X138244418Y-115534731D01*
X138083266Y-115417647D01*
X138007780Y-115379185D01*
X137905780Y-115327213D01*
X137716342Y-115265661D01*
X137568782Y-115242290D01*
X137519597Y-115234500D01*
X137320403Y-115234500D01*
X137254822Y-115244887D01*
X137123659Y-115265661D01*
X137123656Y-115265661D01*
X136934219Y-115327213D01*
X136756733Y-115417647D01*
X136697903Y-115460390D01*
X136595582Y-115534731D01*
X136595580Y-115534733D01*
X136595579Y-115534733D01*
X136454733Y-115675579D01*
X136454733Y-115675580D01*
X136454731Y-115675582D01*
X136413848Y-115731853D01*
X136337647Y-115836733D01*
X136260485Y-115988172D01*
X136212510Y-116038968D01*
X136144689Y-116055763D01*
X136078554Y-116033225D01*
X136039515Y-115988172D01*
X135962352Y-115836733D01*
X135845269Y-115675582D01*
X135704418Y-115534731D01*
X135543266Y-115417647D01*
X135467780Y-115379185D01*
X135365780Y-115327213D01*
X135176342Y-115265661D01*
X135028782Y-115242290D01*
X134979597Y-115234500D01*
X134780403Y-115234500D01*
X134714822Y-115244887D01*
X134583659Y-115265661D01*
X134583656Y-115265661D01*
X134394219Y-115327213D01*
X134216733Y-115417647D01*
X134157903Y-115460390D01*
X134055582Y-115534731D01*
X134055580Y-115534733D01*
X134055579Y-115534733D01*
X133914733Y-115675579D01*
X133914733Y-115675580D01*
X133914731Y-115675582D01*
X133873848Y-115731853D01*
X133797647Y-115836733D01*
X133720485Y-115988172D01*
X133672510Y-116038968D01*
X133604689Y-116055763D01*
X133538554Y-116033225D01*
X133499515Y-115988172D01*
X133422352Y-115836733D01*
X133305269Y-115675582D01*
X133164418Y-115534731D01*
X133003266Y-115417647D01*
X132927780Y-115379185D01*
X132825780Y-115327213D01*
X132636342Y-115265661D01*
X132488782Y-115242290D01*
X132439597Y-115234500D01*
X132240403Y-115234500D01*
X132174822Y-115244887D01*
X132043659Y-115265661D01*
X132043656Y-115265661D01*
X131854219Y-115327213D01*
X131676733Y-115417647D01*
X131617903Y-115460390D01*
X131515582Y-115534731D01*
X131515580Y-115534733D01*
X131515579Y-115534733D01*
X131374733Y-115675579D01*
X131374733Y-115675580D01*
X131374731Y-115675582D01*
X131333848Y-115731853D01*
X131257647Y-115836733D01*
X131180485Y-115988172D01*
X131132510Y-116038968D01*
X131064689Y-116055763D01*
X130998554Y-116033225D01*
X130959515Y-115988172D01*
X130882352Y-115836733D01*
X130765269Y-115675582D01*
X130624418Y-115534731D01*
X130463266Y-115417647D01*
X130387780Y-115379185D01*
X130285780Y-115327213D01*
X130096342Y-115265661D01*
X129948782Y-115242290D01*
X129899597Y-115234500D01*
X129700403Y-115234500D01*
X129634822Y-115244887D01*
X129503659Y-115265661D01*
X129503656Y-115265661D01*
X129314219Y-115327213D01*
X129136733Y-115417647D01*
X129077903Y-115460390D01*
X128975582Y-115534731D01*
X128975580Y-115534733D01*
X128975579Y-115534733D01*
X128834733Y-115675579D01*
X128834733Y-115675580D01*
X128834731Y-115675582D01*
X128793848Y-115731853D01*
X128717647Y-115836733D01*
X128640485Y-115988172D01*
X128592510Y-116038968D01*
X128524689Y-116055763D01*
X128458554Y-116033225D01*
X128419515Y-115988172D01*
X128342352Y-115836733D01*
X128225269Y-115675582D01*
X128084418Y-115534731D01*
X127923266Y-115417647D01*
X127847780Y-115379185D01*
X127745780Y-115327213D01*
X127556342Y-115265661D01*
X127408782Y-115242290D01*
X127359597Y-115234500D01*
X127160403Y-115234500D01*
X127094822Y-115244887D01*
X126963659Y-115265661D01*
X126963656Y-115265661D01*
X126774219Y-115327213D01*
X126596733Y-115417647D01*
X126537903Y-115460390D01*
X126435582Y-115534731D01*
X126435580Y-115534733D01*
X126435579Y-115534733D01*
X126294733Y-115675579D01*
X126294733Y-115675580D01*
X126294731Y-115675582D01*
X126253848Y-115731853D01*
X126177647Y-115836733D01*
X126100485Y-115988172D01*
X126052510Y-116038968D01*
X125984689Y-116055763D01*
X125918554Y-116033225D01*
X125879515Y-115988172D01*
X125802352Y-115836733D01*
X125685269Y-115675582D01*
X125544418Y-115534731D01*
X125383266Y-115417647D01*
X125307780Y-115379185D01*
X125205780Y-115327213D01*
X125016342Y-115265661D01*
X124868782Y-115242290D01*
X124819597Y-115234500D01*
X124620403Y-115234500D01*
X124554822Y-115244887D01*
X124423659Y-115265661D01*
X124423656Y-115265661D01*
X124234219Y-115327213D01*
X124056733Y-115417647D01*
X123997903Y-115460390D01*
X123895582Y-115534731D01*
X123895580Y-115534733D01*
X123895579Y-115534733D01*
X123754733Y-115675579D01*
X123754733Y-115675580D01*
X123754731Y-115675582D01*
X123713848Y-115731853D01*
X123637647Y-115836733D01*
X123560485Y-115988172D01*
X123512510Y-116038968D01*
X123444689Y-116055763D01*
X123378554Y-116033225D01*
X123339515Y-115988172D01*
X123262352Y-115836733D01*
X123145269Y-115675582D01*
X123004418Y-115534731D01*
X122843266Y-115417647D01*
X122767780Y-115379185D01*
X122665780Y-115327213D01*
X122476342Y-115265661D01*
X122328782Y-115242290D01*
X122279597Y-115234500D01*
X122080403Y-115234500D01*
X122014822Y-115244887D01*
X121883659Y-115265661D01*
X121883656Y-115265661D01*
X121694219Y-115327213D01*
X121516733Y-115417647D01*
X121457903Y-115460390D01*
X121355582Y-115534731D01*
X121355580Y-115534733D01*
X121355579Y-115534733D01*
X121214733Y-115675579D01*
X121214733Y-115675580D01*
X121214731Y-115675582D01*
X121173848Y-115731853D01*
X121097647Y-115836733D01*
X121020485Y-115988172D01*
X120972510Y-116038968D01*
X120904689Y-116055763D01*
X120838554Y-116033225D01*
X120799515Y-115988172D01*
X120722352Y-115836733D01*
X120605269Y-115675582D01*
X120464418Y-115534731D01*
X120303266Y-115417647D01*
X120227780Y-115379185D01*
X120125780Y-115327213D01*
X119936342Y-115265661D01*
X119788782Y-115242290D01*
X119739597Y-115234500D01*
X119540403Y-115234500D01*
X119474822Y-115244887D01*
X119343659Y-115265661D01*
X119343656Y-115265661D01*
X119154219Y-115327213D01*
X118976733Y-115417647D01*
X118917903Y-115460390D01*
X118815582Y-115534731D01*
X118815580Y-115534733D01*
X118815579Y-115534733D01*
X118674733Y-115675579D01*
X118674733Y-115675580D01*
X118674731Y-115675582D01*
X118633848Y-115731853D01*
X118557647Y-115836733D01*
X118480485Y-115988172D01*
X118432510Y-116038968D01*
X118364689Y-116055763D01*
X118298554Y-116033225D01*
X118259515Y-115988172D01*
X118182352Y-115836733D01*
X118065269Y-115675582D01*
X117924418Y-115534731D01*
X117763266Y-115417647D01*
X117687780Y-115379185D01*
X117585780Y-115327213D01*
X117396342Y-115265661D01*
X117248782Y-115242290D01*
X117199597Y-115234500D01*
X117000403Y-115234500D01*
X116934822Y-115244887D01*
X116803659Y-115265661D01*
X116803656Y-115265661D01*
X116614219Y-115327213D01*
X116436733Y-115417647D01*
X116377903Y-115460390D01*
X116275582Y-115534731D01*
X116275580Y-115534733D01*
X116275579Y-115534733D01*
X116134733Y-115675579D01*
X116134733Y-115675580D01*
X116134731Y-115675582D01*
X116093848Y-115731853D01*
X116017647Y-115836733D01*
X115940485Y-115988172D01*
X115892510Y-116038968D01*
X115824689Y-116055763D01*
X115758554Y-116033225D01*
X115719515Y-115988172D01*
X115642352Y-115836733D01*
X115525269Y-115675582D01*
X115384418Y-115534731D01*
X115223266Y-115417647D01*
X115147780Y-115379185D01*
X115045780Y-115327213D01*
X114856342Y-115265661D01*
X114708782Y-115242290D01*
X114659597Y-115234500D01*
X114460403Y-115234500D01*
X114394822Y-115244887D01*
X114263659Y-115265661D01*
X114263656Y-115265661D01*
X114074219Y-115327213D01*
X113896733Y-115417647D01*
X113837903Y-115460390D01*
X113735582Y-115534731D01*
X113735580Y-115534733D01*
X113735579Y-115534733D01*
X113594733Y-115675579D01*
X113594733Y-115675580D01*
X113594731Y-115675582D01*
X113553848Y-115731853D01*
X113477647Y-115836733D01*
X113400485Y-115988172D01*
X113352510Y-116038968D01*
X113284689Y-116055763D01*
X113218554Y-116033225D01*
X113179515Y-115988172D01*
X113102352Y-115836733D01*
X112985269Y-115675582D01*
X112844418Y-115534731D01*
X112683266Y-115417647D01*
X112607780Y-115379185D01*
X112505780Y-115327213D01*
X112316342Y-115265661D01*
X112168782Y-115242290D01*
X112119597Y-115234500D01*
X111920403Y-115234500D01*
X111854822Y-115244887D01*
X111723659Y-115265661D01*
X111723656Y-115265661D01*
X111534219Y-115327213D01*
X111356733Y-115417647D01*
X111297903Y-115460390D01*
X111195582Y-115534731D01*
X111195580Y-115534733D01*
X111195579Y-115534733D01*
X111054733Y-115675579D01*
X111054733Y-115675580D01*
X111054731Y-115675582D01*
X111013848Y-115731853D01*
X110937647Y-115836733D01*
X110847214Y-116014218D01*
X110827431Y-116075104D01*
X110787993Y-116132779D01*
X110723634Y-116159977D01*
X110654788Y-116148062D01*
X110603312Y-116100818D01*
X110585500Y-116036785D01*
X110585500Y-101723214D01*
X110605185Y-101656175D01*
X110657989Y-101610420D01*
X110727147Y-101600476D01*
X110790703Y-101629501D01*
X110827431Y-101684896D01*
X110847213Y-101745780D01*
X110860485Y-101771827D01*
X110937647Y-101923266D01*
X111054731Y-102084418D01*
X111195582Y-102225269D01*
X111356734Y-102342353D01*
X111508173Y-102419515D01*
X111534219Y-102432786D01*
X111723657Y-102494338D01*
X111723658Y-102494338D01*
X111723661Y-102494339D01*
X111920403Y-102525500D01*
X111920404Y-102525500D01*
X112119596Y-102525500D01*
X112119597Y-102525500D01*
X112316339Y-102494339D01*
X112316342Y-102494338D01*
X112316343Y-102494338D01*
X112505780Y-102432786D01*
X112505780Y-102432785D01*
X112505783Y-102432785D01*
X112683266Y-102342353D01*
X112844418Y-102225269D01*
X112985269Y-102084418D01*
X113102353Y-101923266D01*
X113179795Y-101771276D01*
X113227769Y-101720481D01*
X113295590Y-101703686D01*
X113361725Y-101726223D01*
X113400765Y-101771277D01*
X113478077Y-101923008D01*
X113505580Y-101960863D01*
X113505581Y-101960864D01*
X114068871Y-101397574D01*
X114084755Y-101456853D01*
X114151898Y-101573147D01*
X114246853Y-101668102D01*
X114363147Y-101735245D01*
X114422425Y-101751128D01*
X113859134Y-102314417D01*
X113896994Y-102341924D01*
X114074405Y-102432320D01*
X114263777Y-102493852D01*
X114460437Y-102525000D01*
X114659563Y-102525000D01*
X114856222Y-102493852D01*
X115045594Y-102432320D01*
X115223005Y-102341924D01*
X115260863Y-102314418D01*
X115260863Y-102314417D01*
X114697574Y-101751128D01*
X114756853Y-101735245D01*
X114873147Y-101668102D01*
X114968102Y-101573147D01*
X115035245Y-101456853D01*
X115051128Y-101397574D01*
X115614417Y-101960863D01*
G37*
%TD.AperFunction*%
%TD*%
M02*
