%TF.GenerationSoftware,KiCad,Pcbnew,9.0.9-9.0.9~ubuntu24.04.1*%
%TF.CreationDate,2026-05-14T17:49:19+05:30*%
%TF.ProjectId,controller_board,636f6e74-726f-46c6-9c65-725f626f6172,rev?*%
%TF.SameCoordinates,Original*%
%TF.FileFunction,Copper,L1,Top*%
%TF.FilePolarity,Positive*%
%FSLAX46Y46*%
G04 Gerber Fmt 4.6, Leading zero omitted, Abs format (unit mm)*
G04 Created by KiCad (PCBNEW 9.0.9-9.0.9~ubuntu24.04.1) date 2026-05-14 17:49:19*
%MOMM*%
%LPD*%
G01*
G04 APERTURE LIST*
G04 Aperture macros list*
%AMRoundRect*
0 Rectangle with rounded corners*
0 $1 Rounding radius*
0 $2 $3 $4 $5 $6 $7 $8 $9 X,Y pos of 4 corners*
0 Add a 4 corners polygon primitive as box body*
4,1,4,$2,$3,$4,$5,$6,$7,$8,$9,$2,$3,0*
0 Add four circle primitives for the rounded corners*
1,1,$1+$1,$2,$3*
1,1,$1+$1,$4,$5*
1,1,$1+$1,$6,$7*
1,1,$1+$1,$8,$9*
0 Add four rect primitives between the rounded corners*
20,1,$1+$1,$2,$3,$4,$5,0*
20,1,$1+$1,$4,$5,$6,$7,0*
20,1,$1+$1,$6,$7,$8,$9,0*
20,1,$1+$1,$8,$9,$2,$3,0*%
G04 Aperture macros list end*
%TA.AperFunction,SMDPad,CuDef*%
%ADD10RoundRect,0.237500X0.237500X-0.287500X0.237500X0.287500X-0.237500X0.287500X-0.237500X-0.287500X0*%
%TD*%
%TA.AperFunction,ComponentPad*%
%ADD11R,1.508000X1.508000*%
%TD*%
%TA.AperFunction,ComponentPad*%
%ADD12C,1.508000*%
%TD*%
%TA.AperFunction,SMDPad,CuDef*%
%ADD13R,0.970000X0.920000*%
%TD*%
%TA.AperFunction,SMDPad,CuDef*%
%ADD14R,0.950000X2.150000*%
%TD*%
%TA.AperFunction,SMDPad,CuDef*%
%ADD15R,3.250000X2.150000*%
%TD*%
%TA.AperFunction,ComponentPad*%
%ADD16C,1.530000*%
%TD*%
%TA.AperFunction,ComponentPad*%
%ADD17C,3.000000*%
%TD*%
%TA.AperFunction,ComponentPad*%
%ADD18R,1.700000X1.700000*%
%TD*%
%TA.AperFunction,ComponentPad*%
%ADD19O,1.700000X1.700000*%
%TD*%
%TA.AperFunction,ComponentPad*%
%ADD20C,1.700000*%
%TD*%
%TA.AperFunction,SMDPad,CuDef*%
%ADD21RoundRect,0.237500X0.237500X-0.250000X0.237500X0.250000X-0.237500X0.250000X-0.237500X-0.250000X0*%
%TD*%
%TA.AperFunction,ViaPad*%
%ADD22C,0.600000*%
%TD*%
%TA.AperFunction,Conductor*%
%ADD23C,0.200000*%
%TD*%
G04 APERTURE END LIST*
D10*
%TO.P,D1,1,K*%
%TO.N,GND*%
X116100000Y-74850000D03*
%TO.P,D1,2,A*%
%TO.N,Net-(D1-A)*%
X116100000Y-73100000D03*
%TD*%
D11*
%TO.P,S1,1*%
%TO.N,GND*%
X126997500Y-123190000D03*
D12*
%TO.P,S1,2*%
%TO.N,unconnected-(S1-Pad2)*%
X126997500Y-129690000D03*
%TO.P,S1,3*%
%TO.N,unconnected-(S1-Pad3)*%
X122497500Y-123190000D03*
%TO.P,S1,4*%
%TO.N,GPIO 0*%
X122497500Y-129690000D03*
%TD*%
D13*
%TO.P,C2,1*%
%TO.N,+5V*%
X129100000Y-85050000D03*
%TO.P,C2,2*%
%TO.N,GND*%
X129100000Y-83500000D03*
%TD*%
D14*
%TO.P,U4,1,GND*%
%TO.N,GND*%
X124500000Y-79200000D03*
%TO.P,U4,2,OUT_2*%
%TO.N,+3.3V*%
X126800000Y-79200000D03*
%TO.P,U4,3,IN*%
%TO.N,+5V*%
X129100000Y-79200000D03*
D15*
%TO.P,U4,4,OUT_4*%
%TO.N,unconnected-(U4-OUT_4-Pad4)*%
X126800000Y-73400000D03*
%TD*%
D16*
%TO.P,U2,0,0*%
%TO.N,GPIO 0*%
X114560000Y-116500000D03*
%TO.P,U2,1,1*%
%TO.N,unconnected-(U2-Pad1)*%
X117100000Y-116500000D03*
%TO.P,U2,2,2*%
%TO.N,unconnected-(U2-Pad2)*%
X119640000Y-116500000D03*
%TO.P,U2,3,3*%
%TO.N,GPIO 3*%
X122180000Y-116500000D03*
%TO.P,U2,3.3V_1,3.3V_1*%
%TO.N,unconnected-(U2-Pad3.3V_1)*%
X145040000Y-111420000D03*
%TO.P,U2,3.3V_2,3.3V_2*%
%TO.N,unconnected-(U2-Pad3.3V_2)*%
X117100000Y-101260000D03*
%TO.P,U2,4,4*%
%TO.N,unconnected-(U2-Pad4)*%
X124720000Y-116500000D03*
%TO.P,U2,5,5*%
%TO.N,unconnected-(U2-Pad5)*%
X127260000Y-116500000D03*
%TO.P,U2,6,6*%
%TO.N,unconnected-(U2-Pad6)*%
X129800000Y-116500000D03*
%TO.P,U2,7,7*%
%TO.N,GPIO 7*%
X132340000Y-116500000D03*
%TO.P,U2,8,8*%
%TO.N,Net-(U1-~{CSN})*%
X134880000Y-116500000D03*
%TO.P,U2,9,9*%
%TO.N,Net-(U1-IRQ)*%
X137420000Y-116500000D03*
%TO.P,U2,10,10*%
%TO.N,Net-(U1-CE)*%
X139960000Y-116500000D03*
%TO.P,U2,11,11*%
%TO.N,Net-(U1-MOSI)*%
X142500000Y-116500000D03*
%TO.P,U2,12,12*%
%TO.N,Net-(U1-MISO)*%
X145040000Y-116500000D03*
%TO.P,U2,13,13*%
%TO.N,Net-(U1-SCK)*%
X145040000Y-101260000D03*
%TO.P,U2,14,14*%
%TO.N,unconnected-(U2-Pad14)*%
X142500000Y-101260000D03*
%TO.P,U2,15,15*%
%TO.N,GPIO 15*%
X139960000Y-101260000D03*
%TO.P,U2,16,16*%
%TO.N,GPIO 16*%
X137420000Y-101260000D03*
%TO.P,U2,17,17*%
%TO.N,GPIO 17*%
X134880000Y-101260000D03*
%TO.P,U2,18,18*%
%TO.N,GPIO 18*%
X132340000Y-101260000D03*
%TO.P,U2,19,19*%
%TO.N,GPIO 19*%
X129800000Y-101260000D03*
%TO.P,U2,20,20*%
%TO.N,unconnected-(U2-Pad20)*%
X127260000Y-101260000D03*
%TO.P,U2,21,21*%
%TO.N,GPIO 21*%
X124720000Y-101260000D03*
%TO.P,U2,22,22*%
%TO.N,GPIO 22*%
X122180000Y-101260000D03*
%TO.P,U2,23,23*%
%TO.N,GPIO 23*%
X119640000Y-101260000D03*
%TO.P,U2,G1,G1*%
%TO.N,unconnected-(U2-PadG1)*%
X112020000Y-116500000D03*
%TO.P,U2,G2,G2*%
%TO.N,unconnected-(U2-PadG2)*%
X145040000Y-108880000D03*
%TO.P,U2,G3,G3*%
%TO.N,GND*%
X114560000Y-101260000D03*
%TO.P,U2,ON-OFF,ON/OFF*%
%TO.N,unconnected-(U2-ON{slash}OFF-PadON-OFF)*%
X145040000Y-103800000D03*
%TO.P,U2,PGM,PROGRAM*%
%TO.N,unconnected-(U2-PROGRAM-PadPGM)*%
X145040000Y-106340000D03*
%TO.P,U2,VBAT,VBAT*%
%TO.N,unconnected-(U2-PadVBAT)*%
X145040000Y-113960000D03*
%TO.P,U2,VIN,VIN*%
%TO.N,+3.3V*%
X112020000Y-101260000D03*
%TD*%
D11*
%TO.P,U3,1,GND*%
%TO.N,GND*%
X151510000Y-93287500D03*
D12*
%TO.P,U3,2,VCC_IN*%
%TO.N,+3.3V*%
X148970000Y-93287500D03*
%TO.P,U3,3,SCL*%
%TO.N,GPIO 19*%
X146430000Y-93287500D03*
%TO.P,U3,4,SDA*%
%TO.N,GPIO 18*%
X143890000Y-93287500D03*
D17*
%TO.P,U3,S1*%
%TO.N,N/C*%
X158700000Y-92787500D03*
%TO.P,U3,S2*%
X136700000Y-92787500D03*
%TO.P,U3,S3*%
X136700000Y-70787500D03*
%TO.P,U3,S4*%
X158700000Y-70787500D03*
%TD*%
D18*
%TO.P,J1,1,Pin_1*%
%TO.N,+5V*%
X116200000Y-82500000D03*
D19*
%TO.P,J1,2,Pin_2*%
%TO.N,GND*%
X116200000Y-79960000D03*
%TD*%
D18*
%TO.P,U1,1,GND*%
%TO.N,GND*%
X168335000Y-113950500D03*
D20*
%TO.P,U1,2,VCC*%
%TO.N,+3.3V*%
X168335000Y-116490500D03*
%TO.P,U1,3,CE*%
%TO.N,Net-(U1-CE)*%
X165795000Y-113950500D03*
%TO.P,U1,4,~{CSN}*%
%TO.N,Net-(U1-~{CSN})*%
X165795000Y-116490500D03*
%TO.P,U1,5,SCK*%
%TO.N,Net-(U1-SCK)*%
X163255000Y-113950500D03*
%TO.P,U1,6,MOSI*%
%TO.N,Net-(U1-MOSI)*%
X163255000Y-116490500D03*
%TO.P,U1,7,MISO*%
%TO.N,Net-(U1-MISO)*%
X160715000Y-113950500D03*
%TO.P,U1,8,IRQ*%
%TO.N,Net-(U1-IRQ)*%
X160715000Y-116490500D03*
%TD*%
D21*
%TO.P,R1,1*%
%TO.N,Net-(D1-A)*%
X118650000Y-74932500D03*
%TO.P,R1,2*%
%TO.N,+3.3V*%
X118650000Y-73107500D03*
%TD*%
D18*
%TO.P,J2,1,Pin_1*%
%TO.N,GPIO 23*%
X117780000Y-93500000D03*
D19*
%TO.P,J2,2,Pin_2*%
%TO.N,GPIO 22*%
X120320000Y-93500000D03*
%TO.P,J2,3,Pin_3*%
%TO.N,GPIO 21*%
X122860000Y-93500000D03*
%TO.P,J2,4,Pin_4*%
%TO.N,GPIO 17*%
X125400000Y-93500000D03*
%TO.P,J2,5,Pin_5*%
%TO.N,GPIO 16*%
X127940000Y-93500000D03*
%TO.P,J2,6,Pin_6*%
%TO.N,GPIO 15*%
X130480000Y-93500000D03*
%TD*%
D11*
%TO.P,S3,1*%
%TO.N,GND*%
X142910000Y-123215000D03*
D12*
%TO.P,S3,2*%
%TO.N,unconnected-(S3-Pad2)*%
X142910000Y-129715000D03*
%TO.P,S3,3*%
%TO.N,unconnected-(S3-Pad3)*%
X138410000Y-123215000D03*
%TO.P,S3,4*%
%TO.N,GPIO 7*%
X138410000Y-129715000D03*
%TD*%
D13*
%TO.P,C3,1*%
%TO.N,GND*%
X169300000Y-108425000D03*
%TO.P,C3,2*%
%TO.N,+3.3V*%
X169300000Y-109975000D03*
%TD*%
%TO.P,C1,1*%
%TO.N,+3.3V*%
X125300000Y-84900000D03*
%TO.P,C1,2*%
%TO.N,GND*%
X125300000Y-83350000D03*
%TD*%
D11*
%TO.P,S2,1*%
%TO.N,GND*%
X134960000Y-123065000D03*
D12*
%TO.P,S2,2*%
%TO.N,unconnected-(S2-Pad2)*%
X134960000Y-129565000D03*
%TO.P,S2,3*%
%TO.N,unconnected-(S2-Pad3)*%
X130460000Y-123065000D03*
%TO.P,S2,4*%
%TO.N,GPIO 3*%
X130460000Y-129565000D03*
%TD*%
D22*
%TO.N,GND*%
X170800000Y-111400000D03*
X169200000Y-111500000D03*
X122600000Y-79100000D03*
X120400000Y-79900000D03*
X124500000Y-82100000D03*
X124500000Y-80800000D03*
%TO.N,+3.3V*%
X124300000Y-86100000D03*
X126800000Y-86100000D03*
X129400000Y-86200000D03*
X122800000Y-88200000D03*
%TO.N,Net-(U1-CE)*%
X140600000Y-114900000D03*
X161100000Y-109300000D03*
X146900000Y-115000000D03*
X156800000Y-109300000D03*
%TO.N,Net-(U1-MOSI)*%
X161100000Y-110600000D03*
X152700000Y-110600000D03*
%TO.N,GPIO 19*%
X138400000Y-97900000D03*
X129800000Y-99600000D03*
%TO.N,GPIO 18*%
X141200000Y-97000000D03*
X132400000Y-99700000D03*
%TD*%
D23*
%TO.N,GND*%
X124500000Y-82100000D02*
X124500000Y-82550000D01*
X170800000Y-109925000D02*
X170800000Y-111400000D01*
X169200000Y-111500000D02*
X168335000Y-112365000D01*
X116100000Y-79860000D02*
X116200000Y-79960000D01*
X122600000Y-79100000D02*
X124400000Y-79100000D01*
X168335000Y-112365000D02*
X168335000Y-113950500D01*
X116200000Y-79960000D02*
X120340000Y-79960000D01*
X116100000Y-74850000D02*
X116100000Y-79860000D01*
X128950000Y-83350000D02*
X129100000Y-83500000D01*
X124500000Y-79200000D02*
X124500000Y-80800000D01*
X124400000Y-79100000D02*
X124500000Y-79200000D01*
X120340000Y-79960000D02*
X120400000Y-79900000D01*
X125300000Y-83350000D02*
X128950000Y-83350000D01*
X124500000Y-82550000D02*
X125300000Y-83350000D01*
X169300000Y-108425000D02*
X170800000Y-109925000D01*
%TO.N,+5V*%
X126850000Y-87300000D02*
X129100000Y-85050000D01*
X129450000Y-85050000D02*
X129100000Y-85050000D01*
X129100000Y-79200000D02*
X130600000Y-80700000D01*
X130600000Y-80700000D02*
X130600000Y-83900000D01*
X116200000Y-82500000D02*
X121000000Y-87300000D01*
X121000000Y-87300000D02*
X126850000Y-87300000D01*
X130600000Y-83900000D02*
X129450000Y-85050000D01*
%TO.N,+3.3V*%
X124300000Y-84900000D02*
X123500000Y-84100000D01*
X165657500Y-109975000D02*
X169300000Y-109975000D01*
X121300000Y-75757500D02*
X121300000Y-79300000D01*
X126800000Y-80600000D02*
X126800000Y-79200000D01*
X148970000Y-93287500D02*
X165657500Y-109975000D01*
X124300000Y-84900000D02*
X124300000Y-86100000D01*
X112900000Y-89400000D02*
X112900000Y-100380000D01*
X143700000Y-86200000D02*
X148970000Y-91470000D01*
X170000000Y-114825500D02*
X168335000Y-116490500D01*
X122800000Y-88200000D02*
X114100000Y-88200000D01*
X125600000Y-86200000D02*
X126700000Y-86200000D01*
X125300000Y-84900000D02*
X125300000Y-85900000D01*
X123500000Y-81500000D02*
X125900000Y-81500000D01*
X129400000Y-86200000D02*
X143700000Y-86200000D01*
X125900000Y-81500000D02*
X126800000Y-80600000D01*
X148970000Y-91470000D02*
X148970000Y-93287500D01*
X125300000Y-84900000D02*
X124300000Y-84900000D01*
X169300000Y-109975000D02*
X170000000Y-110675000D01*
X126700000Y-86200000D02*
X126800000Y-86100000D01*
X170000000Y-110675000D02*
X170000000Y-114825500D01*
X114100000Y-88200000D02*
X112900000Y-89400000D01*
X118650000Y-73107500D02*
X121300000Y-75757500D01*
X125300000Y-85900000D02*
X125600000Y-86200000D01*
X121300000Y-79300000D02*
X123500000Y-81500000D01*
X123500000Y-84100000D02*
X123500000Y-81500000D01*
X112900000Y-100380000D02*
X112020000Y-101260000D01*
%TO.N,Net-(U1-CE)*%
X139960000Y-116500000D02*
X139960000Y-115540000D01*
X146900000Y-115000000D02*
X151100000Y-115000000D01*
X151100000Y-115000000D02*
X156800000Y-109300000D01*
X165795000Y-113950500D02*
X161144500Y-109300000D01*
X139960000Y-115540000D02*
X140600000Y-114900000D01*
X161144500Y-109300000D02*
X161100000Y-109300000D01*
%TO.N,Net-(U1-~{CSN})*%
X134880000Y-117480000D02*
X134880000Y-116500000D01*
X136000000Y-118600000D02*
X134880000Y-117480000D01*
X165795000Y-116490500D02*
X163685500Y-118600000D01*
X163685500Y-118600000D02*
X136000000Y-118600000D01*
%TO.N,Net-(U1-SCK)*%
X150564500Y-101260000D02*
X163255000Y-113950500D01*
X145040000Y-101260000D02*
X150564500Y-101260000D01*
%TO.N,Net-(U1-MOSI)*%
X164405000Y-115340500D02*
X164405000Y-113474154D01*
X164405000Y-113474154D02*
X161530846Y-110600000D01*
X142500000Y-116500000D02*
X142500000Y-114993862D01*
X163255000Y-116490500D02*
X164405000Y-115340500D01*
X142500000Y-114993862D02*
X145008862Y-112485000D01*
X145008862Y-112485000D02*
X150815000Y-112485000D01*
X161530846Y-110600000D02*
X161100000Y-110600000D01*
X150815000Y-112485000D02*
X152700000Y-110600000D01*
%TO.N,Net-(U1-MISO)*%
X160715000Y-113950500D02*
X158165500Y-116500000D01*
X158165500Y-116500000D02*
X145040000Y-116500000D01*
%TO.N,Net-(U1-IRQ)*%
X137420000Y-116500000D02*
X138720000Y-117800000D01*
X138720000Y-117800000D02*
X159405500Y-117800000D01*
X159405500Y-117800000D02*
X160715000Y-116490500D01*
%TO.N,GPIO 7*%
X136700000Y-120500000D02*
X135000000Y-118800000D01*
X132340000Y-118340000D02*
X132340000Y-116500000D01*
X136700000Y-128005000D02*
X136700000Y-120500000D01*
X135000000Y-118800000D02*
X132800000Y-118800000D01*
X132800000Y-118800000D02*
X132340000Y-118340000D01*
X138410000Y-129715000D02*
X136700000Y-128005000D01*
%TO.N,GPIO 17*%
X125400000Y-98200000D02*
X126200000Y-99000000D01*
X132620000Y-99000000D02*
X134880000Y-101260000D01*
X125400000Y-93500000D02*
X125400000Y-98200000D01*
X126200000Y-99000000D02*
X132620000Y-99000000D01*
%TO.N,GPIO 23*%
X117780000Y-99400000D02*
X119640000Y-101260000D01*
X117780000Y-93500000D02*
X117780000Y-99400000D01*
%TO.N,GPIO 3*%
X126600000Y-119800000D02*
X123400000Y-119800000D01*
X130460000Y-129565000D02*
X128800000Y-127905000D01*
X122180000Y-118580000D02*
X122180000Y-116500000D01*
X123400000Y-119800000D02*
X122180000Y-118580000D01*
X128800000Y-127905000D02*
X128800000Y-122000000D01*
X128800000Y-122000000D02*
X126600000Y-119800000D01*
%TO.N,GPIO 21*%
X122860000Y-93500000D02*
X124720000Y-95360000D01*
X124720000Y-95360000D02*
X124720000Y-101260000D01*
%TO.N,GPIO 0*%
X122497500Y-129690000D02*
X114560000Y-121752500D01*
X114560000Y-121752500D02*
X114560000Y-116500000D01*
%TO.N,GPIO 16*%
X128700000Y-97400000D02*
X133560000Y-97400000D01*
X127940000Y-96640000D02*
X128700000Y-97400000D01*
X127940000Y-93500000D02*
X127940000Y-96640000D01*
X133560000Y-97400000D02*
X137420000Y-101260000D01*
%TO.N,GPIO 22*%
X122180000Y-95360000D02*
X122180000Y-101260000D01*
X120320000Y-93500000D02*
X122180000Y-95360000D01*
%TO.N,GPIO 15*%
X130480000Y-93500000D02*
X130480000Y-95480000D01*
X134900000Y-96200000D02*
X139960000Y-101260000D01*
X130480000Y-95480000D02*
X131200000Y-96200000D01*
X131200000Y-96200000D02*
X134900000Y-96200000D01*
%TO.N,GPIO 19*%
X138400000Y-97900000D02*
X141817500Y-97900000D01*
X129800000Y-101260000D02*
X129800000Y-99600000D01*
X141817500Y-97900000D02*
X146430000Y-93287500D01*
%TO.N,GPIO 18*%
X143700000Y-94500000D02*
X143700000Y-93477500D01*
X141200000Y-97000000D02*
X143700000Y-94500000D01*
X132340000Y-101260000D02*
X132340000Y-99760000D01*
X132340000Y-99760000D02*
X132400000Y-99700000D01*
X143700000Y-93477500D02*
X143890000Y-93287500D01*
%TO.N,Net-(D1-A)*%
X116100000Y-73100000D02*
X116817500Y-73100000D01*
X116817500Y-73100000D02*
X118650000Y-74932500D01*
%TD*%
M02*
