%TF.GenerationSoftware,KiCad,Pcbnew,7.0.11+dfsg-1build4*%
%TF.CreationDate,2026-04-04T13:50:09+05:30*%
%TF.ProjectId,controller_board,636f6e74-726f-46c6-9c65-725f626f6172,rev?*%
%TF.SameCoordinates,Original*%
%TF.FileFunction,Soldermask,Bot*%
%TF.FilePolarity,Negative*%
%FSLAX46Y46*%
G04 Gerber Fmt 4.6, Leading zero omitted, Abs format (unit mm)*
G04 Created by KiCad (PCBNEW 7.0.11+dfsg-1build4) date 2026-04-04 13:50:09*
%MOMM*%
%LPD*%
G01*
G04 APERTURE LIST*
G04 Aperture macros list*
%AMRoundRect*
0 Rectangle with rounded corners*
0 $1 Rounding radius*
0 $2 $3 $4 $5 $6 $7 $8 $9 X,Y pos of 4 corners*
0 Add a 4 corners polygon primitive as box body*
4,1,4,$2,$3,$4,$5,$6,$7,$8,$9,$2,$3,0*
0 Add four circle primitives for the rounded corners*
1,1,$1+$1,$2,$3*
1,1,$1+$1,$4,$5*
1,1,$1+$1,$6,$7*
1,1,$1+$1,$8,$9*
0 Add four rect primitives between the rounded corners*
20,1,$1+$1,$2,$3,$4,$5,0*
20,1,$1+$1,$4,$5,$6,$7,0*
20,1,$1+$1,$6,$7,$8,$9,0*
20,1,$1+$1,$8,$9,$2,$3,0*%
G04 Aperture macros list end*
%ADD10RoundRect,0.102000X0.754000X0.754000X-0.754000X0.754000X-0.754000X-0.754000X0.754000X-0.754000X0*%
%ADD11C,1.712000*%
%ADD12RoundRect,0.102000X0.754000X-0.754000X0.754000X0.754000X-0.754000X0.754000X-0.754000X-0.754000X0*%
%ADD13C,3.204000*%
%ADD14C,1.734000*%
%ADD15R,0.850000X0.850000*%
%ADD16O,0.850000X0.850000*%
%ADD17R,1.700000X1.700000*%
%ADD18C,1.700000*%
G04 APERTURE END LIST*
D10*
%TO.C,S1*%
X109910000Y-81497500D03*
D11*
X103410000Y-81497500D03*
X109910000Y-76997500D03*
X103410000Y-76997500D03*
%TD*%
D12*
%TO.C,U3*%
X137985000Y-94995000D03*
D11*
X137985000Y-92455000D03*
X137985000Y-89915000D03*
X137985000Y-87375000D03*
D13*
X138485000Y-102185000D03*
X138485000Y-80185000D03*
X160485000Y-80185000D03*
X160485000Y-102185000D03*
%TD*%
D14*
%TO.C,U2*%
X116365000Y-73165000D03*
X116365000Y-75705000D03*
X116365000Y-78245000D03*
X116365000Y-80785000D03*
X121445000Y-103645000D03*
X131605000Y-75705000D03*
X116365000Y-83325000D03*
X116365000Y-85865000D03*
X116365000Y-88405000D03*
X116365000Y-90945000D03*
X116365000Y-93485000D03*
X116365000Y-96025000D03*
X116365000Y-98565000D03*
X116365000Y-101105000D03*
X116365000Y-103645000D03*
X131605000Y-103645000D03*
X131605000Y-101105000D03*
X131605000Y-98565000D03*
X131605000Y-96025000D03*
X131605000Y-93485000D03*
X131605000Y-90945000D03*
X131605000Y-88405000D03*
X131605000Y-85865000D03*
X131605000Y-83325000D03*
X131605000Y-80785000D03*
X131605000Y-78245000D03*
X116365000Y-70625000D03*
X123985000Y-103645000D03*
X131605000Y-73165000D03*
X129065000Y-103645000D03*
X126525000Y-103645000D03*
X118905000Y-103645000D03*
X131605000Y-70625000D03*
%TD*%
D15*
%TO.C,J1*%
X138260000Y-66510000D03*
D16*
X137260000Y-66510000D03*
%TD*%
D17*
%TO.C,U1*%
X119149500Y-122835000D03*
D18*
X116609500Y-122835000D03*
X119149500Y-120295000D03*
X116609500Y-120295000D03*
X119149500Y-117755000D03*
X116609500Y-117755000D03*
X119149500Y-115215000D03*
X116609500Y-115215000D03*
%TD*%
D10*
%TO.C,S3*%
X109885000Y-97410000D03*
D11*
X103385000Y-97410000D03*
X109885000Y-92910000D03*
X103385000Y-92910000D03*
%TD*%
D10*
%TO.C,S2*%
X110035000Y-89460000D03*
D11*
X103535000Y-89460000D03*
X110035000Y-84960000D03*
X103535000Y-84960000D03*
%TD*%
M02*
