%TF.GenerationSoftware,KiCad,Pcbnew,7.0.11+dfsg-1build4*%
%TF.CreationDate,2026-04-04T13:50:09+05:30*%
%TF.ProjectId,controller_board,636f6e74-726f-46c6-9c65-725f626f6172,rev?*%
%TF.SameCoordinates,Original*%
%TF.FileFunction,Legend,Top*%
%TF.FilePolarity,Positive*%
%FSLAX46Y46*%
G04 Gerber Fmt 4.6, Leading zero omitted, Abs format (unit mm)*
G04 Created by KiCad (PCBNEW 7.0.11+dfsg-1build4) date 2026-04-04 13:50:09*
%MOMM*%
%LPD*%
G01*
G04 APERTURE LIST*
%ADD10C,0.300000*%
%ADD11C,0.150000*%
%ADD12C,0.098425*%
%ADD13C,0.127000*%
%ADD14C,0.200000*%
%ADD15C,0.120000*%
G04 APERTURE END LIST*
D10*
X139911653Y-116357971D02*
X139840225Y-116429400D01*
X139840225Y-116429400D02*
X139625939Y-116500828D01*
X139625939Y-116500828D02*
X139483082Y-116500828D01*
X139483082Y-116500828D02*
X139268796Y-116429400D01*
X139268796Y-116429400D02*
X139125939Y-116286542D01*
X139125939Y-116286542D02*
X139054510Y-116143685D01*
X139054510Y-116143685D02*
X138983082Y-115857971D01*
X138983082Y-115857971D02*
X138983082Y-115643685D01*
X138983082Y-115643685D02*
X139054510Y-115357971D01*
X139054510Y-115357971D02*
X139125939Y-115215114D01*
X139125939Y-115215114D02*
X139268796Y-115072257D01*
X139268796Y-115072257D02*
X139483082Y-115000828D01*
X139483082Y-115000828D02*
X139625939Y-115000828D01*
X139625939Y-115000828D02*
X139840225Y-115072257D01*
X139840225Y-115072257D02*
X139911653Y-115143685D01*
X140840225Y-115000828D02*
X141125939Y-115000828D01*
X141125939Y-115000828D02*
X141268796Y-115072257D01*
X141268796Y-115072257D02*
X141411653Y-115215114D01*
X141411653Y-115215114D02*
X141483082Y-115500828D01*
X141483082Y-115500828D02*
X141483082Y-116000828D01*
X141483082Y-116000828D02*
X141411653Y-116286542D01*
X141411653Y-116286542D02*
X141268796Y-116429400D01*
X141268796Y-116429400D02*
X141125939Y-116500828D01*
X141125939Y-116500828D02*
X140840225Y-116500828D01*
X140840225Y-116500828D02*
X140697368Y-116429400D01*
X140697368Y-116429400D02*
X140554510Y-116286542D01*
X140554510Y-116286542D02*
X140483082Y-116000828D01*
X140483082Y-116000828D02*
X140483082Y-115500828D01*
X140483082Y-115500828D02*
X140554510Y-115215114D01*
X140554510Y-115215114D02*
X140697368Y-115072257D01*
X140697368Y-115072257D02*
X140840225Y-115000828D01*
X142125939Y-116500828D02*
X142125939Y-115000828D01*
X142125939Y-115000828D02*
X142983082Y-116500828D01*
X142983082Y-116500828D02*
X142983082Y-115000828D01*
X143483083Y-115000828D02*
X144340226Y-115000828D01*
X143911654Y-116500828D02*
X143911654Y-115000828D01*
X145697368Y-116500828D02*
X145197368Y-115786542D01*
X144840225Y-116500828D02*
X144840225Y-115000828D01*
X144840225Y-115000828D02*
X145411654Y-115000828D01*
X145411654Y-115000828D02*
X145554511Y-115072257D01*
X145554511Y-115072257D02*
X145625940Y-115143685D01*
X145625940Y-115143685D02*
X145697368Y-115286542D01*
X145697368Y-115286542D02*
X145697368Y-115500828D01*
X145697368Y-115500828D02*
X145625940Y-115643685D01*
X145625940Y-115643685D02*
X145554511Y-115715114D01*
X145554511Y-115715114D02*
X145411654Y-115786542D01*
X145411654Y-115786542D02*
X144840225Y-115786542D01*
X146625940Y-115000828D02*
X146911654Y-115000828D01*
X146911654Y-115000828D02*
X147054511Y-115072257D01*
X147054511Y-115072257D02*
X147197368Y-115215114D01*
X147197368Y-115215114D02*
X147268797Y-115500828D01*
X147268797Y-115500828D02*
X147268797Y-116000828D01*
X147268797Y-116000828D02*
X147197368Y-116286542D01*
X147197368Y-116286542D02*
X147054511Y-116429400D01*
X147054511Y-116429400D02*
X146911654Y-116500828D01*
X146911654Y-116500828D02*
X146625940Y-116500828D01*
X146625940Y-116500828D02*
X146483083Y-116429400D01*
X146483083Y-116429400D02*
X146340225Y-116286542D01*
X146340225Y-116286542D02*
X146268797Y-116000828D01*
X146268797Y-116000828D02*
X146268797Y-115500828D01*
X146268797Y-115500828D02*
X146340225Y-115215114D01*
X146340225Y-115215114D02*
X146483083Y-115072257D01*
X146483083Y-115072257D02*
X146625940Y-115000828D01*
X148625940Y-116500828D02*
X147911654Y-116500828D01*
X147911654Y-116500828D02*
X147911654Y-115000828D01*
X149840226Y-116500828D02*
X149125940Y-116500828D01*
X149125940Y-116500828D02*
X149125940Y-115000828D01*
X150340226Y-115715114D02*
X150840226Y-115715114D01*
X151054512Y-116500828D02*
X150340226Y-116500828D01*
X150340226Y-116500828D02*
X150340226Y-115000828D01*
X150340226Y-115000828D02*
X151054512Y-115000828D01*
X152554512Y-116500828D02*
X152054512Y-115786542D01*
X151697369Y-116500828D02*
X151697369Y-115000828D01*
X151697369Y-115000828D02*
X152268798Y-115000828D01*
X152268798Y-115000828D02*
X152411655Y-115072257D01*
X152411655Y-115072257D02*
X152483084Y-115143685D01*
X152483084Y-115143685D02*
X152554512Y-115286542D01*
X152554512Y-115286542D02*
X152554512Y-115500828D01*
X152554512Y-115500828D02*
X152483084Y-115643685D01*
X152483084Y-115643685D02*
X152411655Y-115715114D01*
X152411655Y-115715114D02*
X152268798Y-115786542D01*
X152268798Y-115786542D02*
X151697369Y-115786542D01*
X154840226Y-115715114D02*
X155054512Y-115786542D01*
X155054512Y-115786542D02*
X155125941Y-115857971D01*
X155125941Y-115857971D02*
X155197369Y-116000828D01*
X155197369Y-116000828D02*
X155197369Y-116215114D01*
X155197369Y-116215114D02*
X155125941Y-116357971D01*
X155125941Y-116357971D02*
X155054512Y-116429400D01*
X155054512Y-116429400D02*
X154911655Y-116500828D01*
X154911655Y-116500828D02*
X154340226Y-116500828D01*
X154340226Y-116500828D02*
X154340226Y-115000828D01*
X154340226Y-115000828D02*
X154840226Y-115000828D01*
X154840226Y-115000828D02*
X154983084Y-115072257D01*
X154983084Y-115072257D02*
X155054512Y-115143685D01*
X155054512Y-115143685D02*
X155125941Y-115286542D01*
X155125941Y-115286542D02*
X155125941Y-115429400D01*
X155125941Y-115429400D02*
X155054512Y-115572257D01*
X155054512Y-115572257D02*
X154983084Y-115643685D01*
X154983084Y-115643685D02*
X154840226Y-115715114D01*
X154840226Y-115715114D02*
X154340226Y-115715114D01*
X156125941Y-115000828D02*
X156411655Y-115000828D01*
X156411655Y-115000828D02*
X156554512Y-115072257D01*
X156554512Y-115072257D02*
X156697369Y-115215114D01*
X156697369Y-115215114D02*
X156768798Y-115500828D01*
X156768798Y-115500828D02*
X156768798Y-116000828D01*
X156768798Y-116000828D02*
X156697369Y-116286542D01*
X156697369Y-116286542D02*
X156554512Y-116429400D01*
X156554512Y-116429400D02*
X156411655Y-116500828D01*
X156411655Y-116500828D02*
X156125941Y-116500828D01*
X156125941Y-116500828D02*
X155983084Y-116429400D01*
X155983084Y-116429400D02*
X155840226Y-116286542D01*
X155840226Y-116286542D02*
X155768798Y-116000828D01*
X155768798Y-116000828D02*
X155768798Y-115500828D01*
X155768798Y-115500828D02*
X155840226Y-115215114D01*
X155840226Y-115215114D02*
X155983084Y-115072257D01*
X155983084Y-115072257D02*
X156125941Y-115000828D01*
X157340227Y-116072257D02*
X158054513Y-116072257D01*
X157197370Y-116500828D02*
X157697370Y-115000828D01*
X157697370Y-115000828D02*
X158197370Y-116500828D01*
X159554512Y-116500828D02*
X159054512Y-115786542D01*
X158697369Y-116500828D02*
X158697369Y-115000828D01*
X158697369Y-115000828D02*
X159268798Y-115000828D01*
X159268798Y-115000828D02*
X159411655Y-115072257D01*
X159411655Y-115072257D02*
X159483084Y-115143685D01*
X159483084Y-115143685D02*
X159554512Y-115286542D01*
X159554512Y-115286542D02*
X159554512Y-115500828D01*
X159554512Y-115500828D02*
X159483084Y-115643685D01*
X159483084Y-115643685D02*
X159411655Y-115715114D01*
X159411655Y-115715114D02*
X159268798Y-115786542D01*
X159268798Y-115786542D02*
X158697369Y-115786542D01*
X160197369Y-116500828D02*
X160197369Y-115000828D01*
X160197369Y-115000828D02*
X160554512Y-115000828D01*
X160554512Y-115000828D02*
X160768798Y-115072257D01*
X160768798Y-115072257D02*
X160911655Y-115215114D01*
X160911655Y-115215114D02*
X160983084Y-115357971D01*
X160983084Y-115357971D02*
X161054512Y-115643685D01*
X161054512Y-115643685D02*
X161054512Y-115857971D01*
X161054512Y-115857971D02*
X160983084Y-116143685D01*
X160983084Y-116143685D02*
X160911655Y-116286542D01*
X160911655Y-116286542D02*
X160768798Y-116429400D01*
X160768798Y-116429400D02*
X160554512Y-116500828D01*
X160554512Y-116500828D02*
X160197369Y-116500828D01*
X138954510Y-119500828D02*
X138954510Y-118000828D01*
X138954510Y-118000828D02*
X139811653Y-119500828D01*
X139811653Y-119500828D02*
X139811653Y-118000828D01*
X140525939Y-119500828D02*
X140525939Y-118000828D01*
X141240225Y-119500828D02*
X141240225Y-118000828D01*
X141240225Y-118000828D02*
X141597368Y-118000828D01*
X141597368Y-118000828D02*
X141811654Y-118072257D01*
X141811654Y-118072257D02*
X141954511Y-118215114D01*
X141954511Y-118215114D02*
X142025940Y-118357971D01*
X142025940Y-118357971D02*
X142097368Y-118643685D01*
X142097368Y-118643685D02*
X142097368Y-118857971D01*
X142097368Y-118857971D02*
X142025940Y-119143685D01*
X142025940Y-119143685D02*
X141954511Y-119286542D01*
X141954511Y-119286542D02*
X141811654Y-119429400D01*
X141811654Y-119429400D02*
X141597368Y-119500828D01*
X141597368Y-119500828D02*
X141240225Y-119500828D01*
X142740225Y-118929400D02*
X143883083Y-118929400D01*
X144525940Y-118143685D02*
X144597368Y-118072257D01*
X144597368Y-118072257D02*
X144740226Y-118000828D01*
X144740226Y-118000828D02*
X145097368Y-118000828D01*
X145097368Y-118000828D02*
X145240226Y-118072257D01*
X145240226Y-118072257D02*
X145311654Y-118143685D01*
X145311654Y-118143685D02*
X145383083Y-118286542D01*
X145383083Y-118286542D02*
X145383083Y-118429400D01*
X145383083Y-118429400D02*
X145311654Y-118643685D01*
X145311654Y-118643685D02*
X144454511Y-119500828D01*
X144454511Y-119500828D02*
X145383083Y-119500828D01*
X146668797Y-118500828D02*
X146668797Y-119500828D01*
X146311654Y-117929400D02*
X145954511Y-119000828D01*
X145954511Y-119000828D02*
X146883082Y-119000828D01*
D11*
X106977095Y-84543700D02*
X107119952Y-84591319D01*
X107119952Y-84591319D02*
X107358047Y-84591319D01*
X107358047Y-84591319D02*
X107453285Y-84543700D01*
X107453285Y-84543700D02*
X107500904Y-84496080D01*
X107500904Y-84496080D02*
X107548523Y-84400842D01*
X107548523Y-84400842D02*
X107548523Y-84305604D01*
X107548523Y-84305604D02*
X107500904Y-84210366D01*
X107500904Y-84210366D02*
X107453285Y-84162747D01*
X107453285Y-84162747D02*
X107358047Y-84115128D01*
X107358047Y-84115128D02*
X107167571Y-84067509D01*
X107167571Y-84067509D02*
X107072333Y-84019890D01*
X107072333Y-84019890D02*
X107024714Y-83972271D01*
X107024714Y-83972271D02*
X106977095Y-83877033D01*
X106977095Y-83877033D02*
X106977095Y-83781795D01*
X106977095Y-83781795D02*
X107024714Y-83686557D01*
X107024714Y-83686557D02*
X107072333Y-83638938D01*
X107072333Y-83638938D02*
X107167571Y-83591319D01*
X107167571Y-83591319D02*
X107405666Y-83591319D01*
X107405666Y-83591319D02*
X107548523Y-83638938D01*
X108500904Y-84591319D02*
X107929476Y-84591319D01*
X108215190Y-84591319D02*
X108215190Y-83591319D01*
X108215190Y-83591319D02*
X108119952Y-83734176D01*
X108119952Y-83734176D02*
X108024714Y-83829414D01*
X108024714Y-83829414D02*
X107929476Y-83877033D01*
D12*
X135454383Y-73404519D02*
X135435635Y-73423267D01*
X135435635Y-73423267D02*
X135379392Y-73442014D01*
X135379392Y-73442014D02*
X135341897Y-73442014D01*
X135341897Y-73442014D02*
X135285654Y-73423267D01*
X135285654Y-73423267D02*
X135248159Y-73385771D01*
X135248159Y-73385771D02*
X135229411Y-73348276D01*
X135229411Y-73348276D02*
X135210663Y-73273285D01*
X135210663Y-73273285D02*
X135210663Y-73217042D01*
X135210663Y-73217042D02*
X135229411Y-73142052D01*
X135229411Y-73142052D02*
X135248159Y-73104556D01*
X135248159Y-73104556D02*
X135285654Y-73067061D01*
X135285654Y-73067061D02*
X135341897Y-73048313D01*
X135341897Y-73048313D02*
X135379392Y-73048313D01*
X135379392Y-73048313D02*
X135435635Y-73067061D01*
X135435635Y-73067061D02*
X135454383Y-73085809D01*
X135604364Y-73085809D02*
X135623112Y-73067061D01*
X135623112Y-73067061D02*
X135660607Y-73048313D01*
X135660607Y-73048313D02*
X135754346Y-73048313D01*
X135754346Y-73048313D02*
X135791841Y-73067061D01*
X135791841Y-73067061D02*
X135810589Y-73085809D01*
X135810589Y-73085809D02*
X135829336Y-73123304D01*
X135829336Y-73123304D02*
X135829336Y-73160799D01*
X135829336Y-73160799D02*
X135810589Y-73217042D01*
X135810589Y-73217042D02*
X135585617Y-73442014D01*
X135585617Y-73442014D02*
X135829336Y-73442014D01*
D11*
X134969819Y-101471904D02*
X135779342Y-101471904D01*
X135779342Y-101471904D02*
X135874580Y-101424285D01*
X135874580Y-101424285D02*
X135922200Y-101376666D01*
X135922200Y-101376666D02*
X135969819Y-101281428D01*
X135969819Y-101281428D02*
X135969819Y-101090952D01*
X135969819Y-101090952D02*
X135922200Y-100995714D01*
X135922200Y-100995714D02*
X135874580Y-100948095D01*
X135874580Y-100948095D02*
X135779342Y-100900476D01*
X135779342Y-100900476D02*
X134969819Y-100900476D01*
X134969819Y-100519523D02*
X134969819Y-99900476D01*
X134969819Y-99900476D02*
X135350771Y-100233809D01*
X135350771Y-100233809D02*
X135350771Y-100090952D01*
X135350771Y-100090952D02*
X135398390Y-99995714D01*
X135398390Y-99995714D02*
X135446009Y-99948095D01*
X135446009Y-99948095D02*
X135541247Y-99900476D01*
X135541247Y-99900476D02*
X135779342Y-99900476D01*
X135779342Y-99900476D02*
X135874580Y-99948095D01*
X135874580Y-99948095D02*
X135922200Y-99995714D01*
X135922200Y-99995714D02*
X135969819Y-100090952D01*
X135969819Y-100090952D02*
X135969819Y-100376666D01*
X135969819Y-100376666D02*
X135922200Y-100471904D01*
X135922200Y-100471904D02*
X135874580Y-100519523D01*
X142948095Y-66735819D02*
X142948095Y-67545342D01*
X142948095Y-67545342D02*
X142995714Y-67640580D01*
X142995714Y-67640580D02*
X143043333Y-67688200D01*
X143043333Y-67688200D02*
X143138571Y-67735819D01*
X143138571Y-67735819D02*
X143329047Y-67735819D01*
X143329047Y-67735819D02*
X143424285Y-67688200D01*
X143424285Y-67688200D02*
X143471904Y-67640580D01*
X143471904Y-67640580D02*
X143519523Y-67545342D01*
X143519523Y-67545342D02*
X143519523Y-66735819D01*
X144424285Y-67069152D02*
X144424285Y-67735819D01*
X144186190Y-66688200D02*
X143948095Y-67402485D01*
X143948095Y-67402485D02*
X144567142Y-67402485D01*
X117508095Y-66904819D02*
X117508095Y-67714342D01*
X117508095Y-67714342D02*
X117555714Y-67809580D01*
X117555714Y-67809580D02*
X117603333Y-67857200D01*
X117603333Y-67857200D02*
X117698571Y-67904819D01*
X117698571Y-67904819D02*
X117889047Y-67904819D01*
X117889047Y-67904819D02*
X117984285Y-67857200D01*
X117984285Y-67857200D02*
X118031904Y-67809580D01*
X118031904Y-67809580D02*
X118079523Y-67714342D01*
X118079523Y-67714342D02*
X118079523Y-66904819D01*
X118508095Y-67000057D02*
X118555714Y-66952438D01*
X118555714Y-66952438D02*
X118650952Y-66904819D01*
X118650952Y-66904819D02*
X118889047Y-66904819D01*
X118889047Y-66904819D02*
X118984285Y-66952438D01*
X118984285Y-66952438D02*
X119031904Y-67000057D01*
X119031904Y-67000057D02*
X119079523Y-67095295D01*
X119079523Y-67095295D02*
X119079523Y-67190533D01*
X119079523Y-67190533D02*
X119031904Y-67333390D01*
X119031904Y-67333390D02*
X118460476Y-67904819D01*
X118460476Y-67904819D02*
X119079523Y-67904819D01*
X111532381Y-79670252D02*
X111471428Y-79639776D01*
X111471428Y-79639776D02*
X111380000Y-79639776D01*
X111380000Y-79639776D02*
X111288571Y-79670252D01*
X111288571Y-79670252D02*
X111227619Y-79731204D01*
X111227619Y-79731204D02*
X111197142Y-79792157D01*
X111197142Y-79792157D02*
X111166666Y-79914061D01*
X111166666Y-79914061D02*
X111166666Y-80005490D01*
X111166666Y-80005490D02*
X111197142Y-80127395D01*
X111197142Y-80127395D02*
X111227619Y-80188347D01*
X111227619Y-80188347D02*
X111288571Y-80249300D01*
X111288571Y-80249300D02*
X111380000Y-80279776D01*
X111380000Y-80279776D02*
X111440952Y-80279776D01*
X111440952Y-80279776D02*
X111532381Y-80249300D01*
X111532381Y-80249300D02*
X111562857Y-80218823D01*
X111562857Y-80218823D02*
X111562857Y-80005490D01*
X111562857Y-80005490D02*
X111440952Y-80005490D01*
X111837142Y-80279776D02*
X111837142Y-79639776D01*
X111837142Y-79639776D02*
X112202857Y-80279776D01*
X112202857Y-80279776D02*
X112202857Y-79639776D01*
X112507618Y-80279776D02*
X112507618Y-79639776D01*
X112507618Y-79639776D02*
X112659999Y-79639776D01*
X112659999Y-79639776D02*
X112751428Y-79670252D01*
X112751428Y-79670252D02*
X112812380Y-79731204D01*
X112812380Y-79731204D02*
X112842857Y-79792157D01*
X112842857Y-79792157D02*
X112873333Y-79914061D01*
X112873333Y-79914061D02*
X112873333Y-80005490D01*
X112873333Y-80005490D02*
X112842857Y-80127395D01*
X112842857Y-80127395D02*
X112812380Y-80188347D01*
X112812380Y-80188347D02*
X112751428Y-80249300D01*
X112751428Y-80249300D02*
X112659999Y-80279776D01*
X112659999Y-80279776D02*
X112507618Y-80279776D01*
X139274819Y-66843333D02*
X139989104Y-66843333D01*
X139989104Y-66843333D02*
X140131961Y-66890952D01*
X140131961Y-66890952D02*
X140227200Y-66986190D01*
X140227200Y-66986190D02*
X140274819Y-67129047D01*
X140274819Y-67129047D02*
X140274819Y-67224285D01*
X140274819Y-65843333D02*
X140274819Y-66414761D01*
X140274819Y-66129047D02*
X139274819Y-66129047D01*
X139274819Y-66129047D02*
X139417676Y-66224285D01*
X139417676Y-66224285D02*
X139512914Y-66319523D01*
X139512914Y-66319523D02*
X139560533Y-66414761D01*
X118387595Y-125289819D02*
X118387595Y-126099342D01*
X118387595Y-126099342D02*
X118435214Y-126194580D01*
X118435214Y-126194580D02*
X118482833Y-126242200D01*
X118482833Y-126242200D02*
X118578071Y-126289819D01*
X118578071Y-126289819D02*
X118768547Y-126289819D01*
X118768547Y-126289819D02*
X118863785Y-126242200D01*
X118863785Y-126242200D02*
X118911404Y-126194580D01*
X118911404Y-126194580D02*
X118959023Y-126099342D01*
X118959023Y-126099342D02*
X118959023Y-125289819D01*
X119959023Y-126289819D02*
X119387595Y-126289819D01*
X119673309Y-126289819D02*
X119673309Y-125289819D01*
X119673309Y-125289819D02*
X119578071Y-125432676D01*
X119578071Y-125432676D02*
X119482833Y-125527914D01*
X119482833Y-125527914D02*
X119387595Y-125575533D01*
X106952095Y-100456200D02*
X107094952Y-100503819D01*
X107094952Y-100503819D02*
X107333047Y-100503819D01*
X107333047Y-100503819D02*
X107428285Y-100456200D01*
X107428285Y-100456200D02*
X107475904Y-100408580D01*
X107475904Y-100408580D02*
X107523523Y-100313342D01*
X107523523Y-100313342D02*
X107523523Y-100218104D01*
X107523523Y-100218104D02*
X107475904Y-100122866D01*
X107475904Y-100122866D02*
X107428285Y-100075247D01*
X107428285Y-100075247D02*
X107333047Y-100027628D01*
X107333047Y-100027628D02*
X107142571Y-99980009D01*
X107142571Y-99980009D02*
X107047333Y-99932390D01*
X107047333Y-99932390D02*
X106999714Y-99884771D01*
X106999714Y-99884771D02*
X106952095Y-99789533D01*
X106952095Y-99789533D02*
X106952095Y-99694295D01*
X106952095Y-99694295D02*
X106999714Y-99599057D01*
X106999714Y-99599057D02*
X107047333Y-99551438D01*
X107047333Y-99551438D02*
X107142571Y-99503819D01*
X107142571Y-99503819D02*
X107380666Y-99503819D01*
X107380666Y-99503819D02*
X107523523Y-99551438D01*
X107856857Y-99503819D02*
X108475904Y-99503819D01*
X108475904Y-99503819D02*
X108142571Y-99884771D01*
X108142571Y-99884771D02*
X108285428Y-99884771D01*
X108285428Y-99884771D02*
X108380666Y-99932390D01*
X108380666Y-99932390D02*
X108428285Y-99980009D01*
X108428285Y-99980009D02*
X108475904Y-100075247D01*
X108475904Y-100075247D02*
X108475904Y-100313342D01*
X108475904Y-100313342D02*
X108428285Y-100408580D01*
X108428285Y-100408580D02*
X108380666Y-100456200D01*
X108380666Y-100456200D02*
X108285428Y-100503819D01*
X108285428Y-100503819D02*
X107999714Y-100503819D01*
X107999714Y-100503819D02*
X107904476Y-100456200D01*
X107904476Y-100456200D02*
X107856857Y-100408580D01*
D12*
X135604383Y-69604519D02*
X135585635Y-69623267D01*
X135585635Y-69623267D02*
X135529392Y-69642014D01*
X135529392Y-69642014D02*
X135491897Y-69642014D01*
X135491897Y-69642014D02*
X135435654Y-69623267D01*
X135435654Y-69623267D02*
X135398159Y-69585771D01*
X135398159Y-69585771D02*
X135379411Y-69548276D01*
X135379411Y-69548276D02*
X135360663Y-69473285D01*
X135360663Y-69473285D02*
X135360663Y-69417042D01*
X135360663Y-69417042D02*
X135379411Y-69342052D01*
X135379411Y-69342052D02*
X135398159Y-69304556D01*
X135398159Y-69304556D02*
X135435654Y-69267061D01*
X135435654Y-69267061D02*
X135491897Y-69248313D01*
X135491897Y-69248313D02*
X135529392Y-69248313D01*
X135529392Y-69248313D02*
X135585635Y-69267061D01*
X135585635Y-69267061D02*
X135604383Y-69285809D01*
X135979336Y-69642014D02*
X135754364Y-69642014D01*
X135866850Y-69642014D02*
X135866850Y-69248313D01*
X135866850Y-69248313D02*
X135829355Y-69304556D01*
X135829355Y-69304556D02*
X135791860Y-69342052D01*
X135791860Y-69342052D02*
X135754364Y-69360799D01*
D11*
X107102095Y-92506200D02*
X107244952Y-92553819D01*
X107244952Y-92553819D02*
X107483047Y-92553819D01*
X107483047Y-92553819D02*
X107578285Y-92506200D01*
X107578285Y-92506200D02*
X107625904Y-92458580D01*
X107625904Y-92458580D02*
X107673523Y-92363342D01*
X107673523Y-92363342D02*
X107673523Y-92268104D01*
X107673523Y-92268104D02*
X107625904Y-92172866D01*
X107625904Y-92172866D02*
X107578285Y-92125247D01*
X107578285Y-92125247D02*
X107483047Y-92077628D01*
X107483047Y-92077628D02*
X107292571Y-92030009D01*
X107292571Y-92030009D02*
X107197333Y-91982390D01*
X107197333Y-91982390D02*
X107149714Y-91934771D01*
X107149714Y-91934771D02*
X107102095Y-91839533D01*
X107102095Y-91839533D02*
X107102095Y-91744295D01*
X107102095Y-91744295D02*
X107149714Y-91649057D01*
X107149714Y-91649057D02*
X107197333Y-91601438D01*
X107197333Y-91601438D02*
X107292571Y-91553819D01*
X107292571Y-91553819D02*
X107530666Y-91553819D01*
X107530666Y-91553819D02*
X107673523Y-91601438D01*
X108054476Y-91649057D02*
X108102095Y-91601438D01*
X108102095Y-91601438D02*
X108197333Y-91553819D01*
X108197333Y-91553819D02*
X108435428Y-91553819D01*
X108435428Y-91553819D02*
X108530666Y-91601438D01*
X108530666Y-91601438D02*
X108578285Y-91649057D01*
X108578285Y-91649057D02*
X108625904Y-91744295D01*
X108625904Y-91744295D02*
X108625904Y-91839533D01*
X108625904Y-91839533D02*
X108578285Y-91982390D01*
X108578285Y-91982390D02*
X108006857Y-92553819D01*
X108006857Y-92553819D02*
X108625904Y-92553819D01*
D13*
%TO.C,S1*%
X109660000Y-80423500D02*
X109660000Y-78071500D01*
X108836000Y-82247500D02*
X104484000Y-82247500D01*
X108836000Y-76247500D02*
X104484000Y-76247500D01*
X103660000Y-80423500D02*
X103660000Y-78071500D01*
D14*
X110010000Y-83251500D02*
G75*
G03*
X109810000Y-83251500I-100000J0D01*
G01*
X109810000Y-83251500D02*
G75*
G03*
X110010000Y-83251500I100000J0D01*
G01*
D13*
%TO.C,U3*%
X136485000Y-104185000D02*
X136485000Y-78185000D01*
X162485000Y-104185000D02*
X136485000Y-104185000D01*
X160485000Y-98185000D02*
X162485000Y-98185000D01*
X162485000Y-98185000D02*
X162485000Y-104185000D01*
X160485000Y-84185000D02*
X160485000Y-98185000D01*
X162485000Y-84185000D02*
X160485000Y-84185000D01*
X136485000Y-78185000D02*
X162485000Y-78185000D01*
X162485000Y-78185000D02*
X162485000Y-84185000D01*
D14*
X136085000Y-95185000D02*
G75*
G03*
X135885000Y-95185000I-100000J0D01*
G01*
X135885000Y-95185000D02*
G75*
G03*
X136085000Y-95185000I100000J0D01*
G01*
D13*
%TO.C,U4*%
X141985000Y-68785000D02*
X145485000Y-68785000D01*
X141985000Y-75285000D02*
X145485000Y-75285000D01*
X145485000Y-68785000D02*
X145485000Y-70025000D01*
X145485000Y-75285000D02*
X145485000Y-74045000D01*
D14*
X139235000Y-69735000D02*
G75*
G03*
X139035000Y-69735000I-100000J0D01*
G01*
X139035000Y-69735000D02*
G75*
G03*
X139235000Y-69735000I100000J0D01*
G01*
D13*
%TO.C,U2*%
X115095000Y-68655000D02*
X132875000Y-68655000D01*
X115095000Y-104915000D02*
X115095000Y-68655000D01*
X132875000Y-68655000D02*
X132875000Y-104915000D01*
X132875000Y-104915000D02*
X115095000Y-104915000D01*
D15*
%TO.C,J1*%
X138945000Y-65815000D02*
X138945000Y-66510000D01*
X138260000Y-65815000D02*
X138945000Y-65815000D01*
X137575000Y-65815000D02*
X136700000Y-65815000D01*
X137575000Y-65815000D02*
X137575000Y-65901724D01*
X136700000Y-65815000D02*
X136700000Y-66115507D01*
X136700000Y-66904493D02*
X136700000Y-67205000D01*
X137575000Y-67118276D02*
X137575000Y-67205000D01*
X137575000Y-67205000D02*
X136700000Y-67205000D01*
%TO.C,U1*%
X120749500Y-124935000D02*
X120749500Y-124935000D01*
X120749500Y-124935000D02*
X91549500Y-124935000D01*
X120749500Y-109485000D02*
X120749500Y-124935000D01*
X120419500Y-124359000D02*
X120419500Y-124359000D01*
X120419500Y-124359000D02*
X115085500Y-124359000D01*
X120419500Y-113691000D02*
X120419500Y-124359000D01*
X120419500Y-113691000D02*
X120419500Y-113691000D01*
X115085500Y-124359000D02*
X115085500Y-113691000D01*
X115085500Y-113691000D02*
X120419500Y-113691000D01*
X91549500Y-124935000D02*
X91549500Y-109485000D01*
X91549500Y-109485000D02*
X120749500Y-109485000D01*
X121285500Y-123075000D02*
X120949500Y-122835000D01*
X121285500Y-122595000D01*
X121285500Y-123075000D01*
G36*
X121285500Y-123075000D02*
G01*
X120949500Y-122835000D01*
X121285500Y-122595000D01*
X121285500Y-123075000D01*
G37*
D13*
%TO.C,S3*%
X109635000Y-96336000D02*
X109635000Y-93984000D01*
X108811000Y-98160000D02*
X104459000Y-98160000D01*
X108811000Y-92160000D02*
X104459000Y-92160000D01*
X103635000Y-96336000D02*
X103635000Y-93984000D01*
D14*
X109985000Y-99164000D02*
G75*
G03*
X109785000Y-99164000I-100000J0D01*
G01*
X109785000Y-99164000D02*
G75*
G03*
X109985000Y-99164000I100000J0D01*
G01*
D13*
%TO.C,S2*%
X109785000Y-88386000D02*
X109785000Y-86034000D01*
X108961000Y-90210000D02*
X104609000Y-90210000D01*
X108961000Y-84210000D02*
X104609000Y-84210000D01*
X103785000Y-88386000D02*
X103785000Y-86034000D01*
D14*
X110135000Y-91214000D02*
G75*
G03*
X109935000Y-91214000I-100000J0D01*
G01*
X109935000Y-91214000D02*
G75*
G03*
X110135000Y-91214000I100000J0D01*
G01*
%TD*%
M02*
