%TF.GenerationSoftware,KiCad,Pcbnew,7.0.11+dfsg-1build4*%
%TF.CreationDate,2026-04-04T13:50:09+05:30*%
%TF.ProjectId,controller_board,636f6e74-726f-46c6-9c65-725f626f6172,rev?*%
%TF.SameCoordinates,Original*%
%TF.FileFunction,Copper,L2,Bot*%
%TF.FilePolarity,Positive*%
%FSLAX46Y46*%
G04 Gerber Fmt 4.6, Leading zero omitted, Abs format (unit mm)*
G04 Created by KiCad (PCBNEW 7.0.11+dfsg-1build4) date 2026-04-04 13:50:09*
%MOMM*%
%LPD*%
G01*
G04 APERTURE LIST*
%TA.AperFunction,ComponentPad*%
%ADD10R,1.508000X1.508000*%
%TD*%
%TA.AperFunction,ComponentPad*%
%ADD11C,1.508000*%
%TD*%
%TA.AperFunction,ComponentPad*%
%ADD12C,3.000000*%
%TD*%
%TA.AperFunction,ComponentPad*%
%ADD13C,1.530000*%
%TD*%
%TA.AperFunction,ComponentPad*%
%ADD14R,0.850000X0.850000*%
%TD*%
%TA.AperFunction,ComponentPad*%
%ADD15O,0.850000X0.850000*%
%TD*%
%TA.AperFunction,ComponentPad*%
%ADD16R,1.700000X1.700000*%
%TD*%
%TA.AperFunction,ComponentPad*%
%ADD17C,1.700000*%
%TD*%
%TA.AperFunction,ViaPad*%
%ADD18C,0.600000*%
%TD*%
%TA.AperFunction,Conductor*%
%ADD19C,0.200000*%
%TD*%
G04 APERTURE END LIST*
D10*
%TO.P,S1,1*%
%TO.N,GND*%
X109910000Y-81497500D03*
D11*
%TO.P,S1,2*%
%TO.N,unconnected-(S1-Pad2)*%
X103410000Y-81497500D03*
%TO.P,S1,3*%
%TO.N,unconnected-(S1-Pad3)*%
X109910000Y-76997500D03*
%TO.P,S1,4*%
%TO.N,GPIO 0*%
X103410000Y-76997500D03*
%TD*%
D10*
%TO.P,U3,1,GND*%
%TO.N,GND*%
X137985000Y-94995000D03*
D11*
%TO.P,U3,2,VCC_IN*%
%TO.N,+3.3V*%
X137985000Y-92455000D03*
%TO.P,U3,3,SCL*%
%TO.N,Net-(U3-SCL)*%
X137985000Y-89915000D03*
%TO.P,U3,4,SDA*%
X137985000Y-87375000D03*
D12*
%TO.P,U3,S1*%
%TO.N,N/C*%
X138485000Y-102185000D03*
%TO.P,U3,S2*%
X138485000Y-80185000D03*
%TO.P,U3,S3*%
X160485000Y-80185000D03*
%TO.P,U3,S4*%
X160485000Y-102185000D03*
%TD*%
D13*
%TO.P,U2,0,0*%
%TO.N,GPIO 0*%
X116365000Y-73165000D03*
%TO.P,U2,1,1*%
%TO.N,unconnected-(U2-Pad1)*%
X116365000Y-75705000D03*
%TO.P,U2,2,2*%
%TO.N,unconnected-(U2-Pad2)*%
X116365000Y-78245000D03*
%TO.P,U2,3,3*%
%TO.N,GPIO 3*%
X116365000Y-80785000D03*
%TO.P,U2,3.3V_1,3.3V_1*%
%TO.N,unconnected-(U2-Pad3.3V_1)*%
X121445000Y-103645000D03*
%TO.P,U2,3.3V_2,3.3V_2*%
%TO.N,unconnected-(U2-Pad3.3V_2)*%
X131605000Y-75705000D03*
%TO.P,U2,4,4*%
%TO.N,unconnected-(U2-Pad4)*%
X116365000Y-83325000D03*
%TO.P,U2,5,5*%
%TO.N,unconnected-(U2-Pad5)*%
X116365000Y-85865000D03*
%TO.P,U2,6,6*%
%TO.N,unconnected-(U2-Pad6)*%
X116365000Y-88405000D03*
%TO.P,U2,7,7*%
%TO.N,GPIO 7*%
X116365000Y-90945000D03*
%TO.P,U2,8,8*%
%TO.N,Net-(U1-~{CSN})*%
X116365000Y-93485000D03*
%TO.P,U2,9,9*%
%TO.N,Net-(U1-IRQ)*%
X116365000Y-96025000D03*
%TO.P,U2,10,10*%
%TO.N,Net-(U1-CE)*%
X116365000Y-98565000D03*
%TO.P,U2,11,11*%
%TO.N,Net-(U1-MOSI)*%
X116365000Y-101105000D03*
%TO.P,U2,12,12*%
%TO.N,Net-(U1-MISO)*%
X116365000Y-103645000D03*
%TO.P,U2,13,13*%
%TO.N,Net-(U1-SCK)*%
X131605000Y-103645000D03*
%TO.P,U2,14,14*%
%TO.N,unconnected-(U2-Pad14)*%
X131605000Y-101105000D03*
%TO.P,U2,15,15*%
%TO.N,unconnected-(U2-Pad15)*%
X131605000Y-98565000D03*
%TO.P,U2,16,16*%
%TO.N,unconnected-(U2-Pad16)*%
X131605000Y-96025000D03*
%TO.P,U2,17,17*%
%TO.N,unconnected-(U2-Pad17)*%
X131605000Y-93485000D03*
%TO.P,U2,18,18*%
%TO.N,Net-(U3-SCL)*%
X131605000Y-90945000D03*
%TO.P,U2,19,19*%
X131605000Y-88405000D03*
%TO.P,U2,20,20*%
%TO.N,unconnected-(U2-Pad20)*%
X131605000Y-85865000D03*
%TO.P,U2,21,21*%
%TO.N,unconnected-(U2-Pad21)*%
X131605000Y-83325000D03*
%TO.P,U2,22,22*%
%TO.N,unconnected-(U2-Pad22)*%
X131605000Y-80785000D03*
%TO.P,U2,23,23*%
%TO.N,unconnected-(U2-Pad23)*%
X131605000Y-78245000D03*
%TO.P,U2,G1,G1*%
%TO.N,unconnected-(U2-PadG1)*%
X116365000Y-70625000D03*
%TO.P,U2,G2,G2*%
%TO.N,unconnected-(U2-PadG2)*%
X123985000Y-103645000D03*
%TO.P,U2,G3,G3*%
%TO.N,GND*%
X131605000Y-73165000D03*
%TO.P,U2,ON-OFF,ON/OFF*%
%TO.N,unconnected-(U2-ON{slash}OFF-PadON-OFF)*%
X129065000Y-103645000D03*
%TO.P,U2,PGM,PROGRAM*%
%TO.N,unconnected-(U2-PROGRAM-PadPGM)*%
X126525000Y-103645000D03*
%TO.P,U2,VBAT,VBAT*%
%TO.N,unconnected-(U2-PadVBAT)*%
X118905000Y-103645000D03*
%TO.P,U2,VIN,VIN*%
%TO.N,+3.3V*%
X131605000Y-70625000D03*
%TD*%
D14*
%TO.P,J1,1,Pin_1*%
%TO.N,+5V*%
X138260000Y-66510000D03*
D15*
%TO.P,J1,2,Pin_2*%
%TO.N,GND*%
X137260000Y-66510000D03*
%TD*%
D16*
%TO.P,U1,1,GND*%
%TO.N,GND*%
X119149500Y-122835000D03*
D17*
%TO.P,U1,2,VCC*%
%TO.N,+3.3V*%
X116609500Y-122835000D03*
%TO.P,U1,3,CE*%
%TO.N,Net-(U1-CE)*%
X119149500Y-120295000D03*
%TO.P,U1,4,~{CSN}*%
%TO.N,Net-(U1-~{CSN})*%
X116609500Y-120295000D03*
%TO.P,U1,5,SCK*%
%TO.N,Net-(U1-SCK)*%
X119149500Y-117755000D03*
%TO.P,U1,6,MOSI*%
%TO.N,Net-(U1-MOSI)*%
X116609500Y-117755000D03*
%TO.P,U1,7,MISO*%
%TO.N,Net-(U1-MISO)*%
X119149500Y-115215000D03*
%TO.P,U1,8,IRQ*%
%TO.N,Net-(U1-IRQ)*%
X116609500Y-115215000D03*
%TD*%
D10*
%TO.P,S3,1*%
%TO.N,GND*%
X109885000Y-97410000D03*
D11*
%TO.P,S3,2*%
%TO.N,unconnected-(S3-Pad2)*%
X103385000Y-97410000D03*
%TO.P,S3,3*%
%TO.N,unconnected-(S3-Pad3)*%
X109885000Y-92910000D03*
%TO.P,S3,4*%
%TO.N,GPIO 7*%
X103385000Y-92910000D03*
%TD*%
D10*
%TO.P,S2,1*%
%TO.N,GND*%
X110035000Y-89460000D03*
D11*
%TO.P,S2,2*%
%TO.N,unconnected-(S2-Pad2)*%
X103535000Y-89460000D03*
%TO.P,S2,3*%
%TO.N,unconnected-(S2-Pad3)*%
X110035000Y-84960000D03*
%TO.P,S2,4*%
%TO.N,GPIO 3*%
X103535000Y-84960000D03*
%TD*%
D18*
%TO.N,GND*%
X112185000Y-96910000D03*
X113035000Y-81535000D03*
X138235000Y-75985000D03*
X112185000Y-89435000D03*
X112785000Y-90260000D03*
X138210000Y-74285000D03*
%TO.N,+3.3V*%
X140260000Y-90210000D03*
X138310000Y-72385000D03*
X138860000Y-73010000D03*
X135560000Y-72360000D03*
%TO.N,Net-(U1-MOSI)*%
X114960000Y-102310000D03*
X115460000Y-107710000D03*
%TO.N,Net-(U1-IRQ)*%
X116560000Y-109510000D03*
X119360000Y-96610000D03*
%TO.N,Net-(U3-SCL)*%
X134935000Y-89910000D03*
X136685000Y-89910000D03*
%TD*%
D19*
%TO.N,GND*%
X138210000Y-74285000D02*
X138210000Y-75960000D01*
X113035000Y-88585000D02*
X112185000Y-89435000D01*
X112785000Y-96460000D02*
X112335000Y-96910000D01*
X112785000Y-90260000D02*
X112785000Y-96460000D01*
X138210000Y-75960000D02*
X138235000Y-75985000D01*
X113035000Y-81535000D02*
X113035000Y-88585000D01*
X112335000Y-96910000D02*
X112185000Y-96910000D01*
%TO.N,+3.3V*%
X138285000Y-72360000D02*
X138310000Y-72385000D01*
X140285000Y-74435000D02*
X140285000Y-90185000D01*
X135560000Y-72360000D02*
X138285000Y-72360000D01*
X138860000Y-73010000D02*
X140285000Y-74435000D01*
X140285000Y-90185000D02*
X140260000Y-90210000D01*
%TO.N,Net-(U1-MOSI)*%
X115460000Y-107710000D02*
X114960000Y-107210000D01*
X114960000Y-107210000D02*
X114960000Y-102310000D01*
%TO.N,Net-(U1-IRQ)*%
X120060000Y-106010000D02*
X120060000Y-97310000D01*
X116560000Y-109510000D02*
X120060000Y-106010000D01*
X120060000Y-97310000D02*
X119360000Y-96610000D01*
%TO.N,Net-(U3-SCL)*%
X136685000Y-89910000D02*
X134935000Y-89910000D01*
%TD*%
%TA.AperFunction,Conductor*%
%TO.N,GND*%
G36*
X166227539Y-65105185D02*
G01*
X166273294Y-65157989D01*
X166284500Y-65209500D01*
X166284500Y-126610500D01*
X166264815Y-126677539D01*
X166212011Y-126723294D01*
X166160500Y-126734500D01*
X100209500Y-126734500D01*
X100142461Y-126714815D01*
X100096706Y-126662011D01*
X100085500Y-126610500D01*
X100085500Y-122835000D01*
X115253841Y-122835000D01*
X115274436Y-123070403D01*
X115274438Y-123070413D01*
X115335594Y-123298655D01*
X115335596Y-123298659D01*
X115335597Y-123298663D01*
X115435465Y-123512830D01*
X115435467Y-123512834D01*
X115543781Y-123667521D01*
X115571005Y-123706401D01*
X115738099Y-123873495D01*
X115814635Y-123927086D01*
X115931665Y-124009032D01*
X115931667Y-124009033D01*
X115931670Y-124009035D01*
X116145837Y-124108903D01*
X116374092Y-124170063D01*
X116544819Y-124185000D01*
X116609499Y-124190659D01*
X116609500Y-124190659D01*
X116609501Y-124190659D01*
X116674181Y-124185000D01*
X116844908Y-124170063D01*
X117073163Y-124108903D01*
X117287330Y-124009035D01*
X117480901Y-123873495D01*
X117603217Y-123751178D01*
X117664536Y-123717696D01*
X117734228Y-123722680D01*
X117790162Y-123764551D01*
X117807077Y-123795528D01*
X117856146Y-123927088D01*
X117856149Y-123927093D01*
X117942309Y-124042187D01*
X117942312Y-124042190D01*
X118057406Y-124128350D01*
X118057413Y-124128354D01*
X118192120Y-124178596D01*
X118192127Y-124178598D01*
X118251655Y-124184999D01*
X118251672Y-124185000D01*
X118899500Y-124185000D01*
X118899500Y-123270501D01*
X119007185Y-123319680D01*
X119113737Y-123335000D01*
X119185263Y-123335000D01*
X119291815Y-123319680D01*
X119399500Y-123270501D01*
X119399500Y-124185000D01*
X120047328Y-124185000D01*
X120047344Y-124184999D01*
X120106872Y-124178598D01*
X120106879Y-124178596D01*
X120241586Y-124128354D01*
X120241593Y-124128350D01*
X120356687Y-124042190D01*
X120356690Y-124042187D01*
X120442850Y-123927093D01*
X120442854Y-123927086D01*
X120493096Y-123792379D01*
X120493098Y-123792372D01*
X120499499Y-123732844D01*
X120499500Y-123732827D01*
X120499500Y-123085000D01*
X119583186Y-123085000D01*
X119608993Y-123044844D01*
X119649500Y-122906889D01*
X119649500Y-122763111D01*
X119608993Y-122625156D01*
X119583186Y-122585000D01*
X120499500Y-122585000D01*
X120499500Y-121937172D01*
X120499499Y-121937155D01*
X120493098Y-121877627D01*
X120493096Y-121877620D01*
X120442854Y-121742913D01*
X120442850Y-121742906D01*
X120356690Y-121627812D01*
X120356687Y-121627809D01*
X120241593Y-121541649D01*
X120241588Y-121541646D01*
X120110028Y-121492577D01*
X120054095Y-121450705D01*
X120029678Y-121385241D01*
X120044530Y-121316968D01*
X120065675Y-121288720D01*
X120187995Y-121166401D01*
X120323535Y-120972830D01*
X120423403Y-120758663D01*
X120484563Y-120530408D01*
X120505159Y-120295000D01*
X120484563Y-120059592D01*
X120423403Y-119831337D01*
X120323535Y-119617171D01*
X120317925Y-119609158D01*
X120187994Y-119423597D01*
X120020902Y-119256506D01*
X120020896Y-119256501D01*
X119835342Y-119126575D01*
X119791717Y-119071998D01*
X119784523Y-119002500D01*
X119816046Y-118940145D01*
X119835342Y-118923425D01*
X119857526Y-118907891D01*
X120020901Y-118793495D01*
X120187995Y-118626401D01*
X120323535Y-118432830D01*
X120423403Y-118218663D01*
X120484563Y-117990408D01*
X120505159Y-117755000D01*
X120484563Y-117519592D01*
X120423403Y-117291337D01*
X120323535Y-117077171D01*
X120317925Y-117069158D01*
X120187994Y-116883597D01*
X120020902Y-116716506D01*
X120020896Y-116716501D01*
X119835342Y-116586575D01*
X119791717Y-116531998D01*
X119784523Y-116462500D01*
X119816046Y-116400145D01*
X119835342Y-116383425D01*
X119857526Y-116367891D01*
X120020901Y-116253495D01*
X120187995Y-116086401D01*
X120323535Y-115892830D01*
X120423403Y-115678663D01*
X120484563Y-115450408D01*
X120505159Y-115215000D01*
X120484563Y-114979592D01*
X120423403Y-114751337D01*
X120323535Y-114537171D01*
X120317925Y-114529158D01*
X120187994Y-114343597D01*
X120020902Y-114176506D01*
X120020895Y-114176501D01*
X119827334Y-114040967D01*
X119827330Y-114040965D01*
X119827328Y-114040964D01*
X119613163Y-113941097D01*
X119613159Y-113941096D01*
X119613155Y-113941094D01*
X119384913Y-113879938D01*
X119384903Y-113879936D01*
X119149501Y-113859341D01*
X119149499Y-113859341D01*
X118914096Y-113879936D01*
X118914086Y-113879938D01*
X118685844Y-113941094D01*
X118685835Y-113941098D01*
X118471671Y-114040964D01*
X118471669Y-114040965D01*
X118278097Y-114176505D01*
X118111005Y-114343597D01*
X117981075Y-114529158D01*
X117926498Y-114572783D01*
X117857000Y-114579977D01*
X117794645Y-114548454D01*
X117777925Y-114529158D01*
X117647994Y-114343597D01*
X117480902Y-114176506D01*
X117480895Y-114176501D01*
X117287334Y-114040967D01*
X117287330Y-114040965D01*
X117287328Y-114040964D01*
X117073163Y-113941097D01*
X117073159Y-113941096D01*
X117073155Y-113941094D01*
X116844913Y-113879938D01*
X116844903Y-113879936D01*
X116609501Y-113859341D01*
X116609499Y-113859341D01*
X116374096Y-113879936D01*
X116374086Y-113879938D01*
X116145844Y-113941094D01*
X116145835Y-113941098D01*
X115931671Y-114040964D01*
X115931669Y-114040965D01*
X115738097Y-114176505D01*
X115571005Y-114343597D01*
X115435465Y-114537169D01*
X115435464Y-114537171D01*
X115335598Y-114751335D01*
X115335594Y-114751344D01*
X115274438Y-114979586D01*
X115274436Y-114979596D01*
X115253841Y-115214999D01*
X115253841Y-115215000D01*
X115274436Y-115450403D01*
X115274438Y-115450413D01*
X115335594Y-115678655D01*
X115335596Y-115678659D01*
X115335597Y-115678663D01*
X115339500Y-115687032D01*
X115435465Y-115892830D01*
X115435467Y-115892834D01*
X115543781Y-116047521D01*
X115571001Y-116086396D01*
X115571006Y-116086402D01*
X115738097Y-116253493D01*
X115738103Y-116253498D01*
X115923658Y-116383425D01*
X115967283Y-116438002D01*
X115974477Y-116507500D01*
X115942954Y-116569855D01*
X115923658Y-116586575D01*
X115738097Y-116716505D01*
X115571005Y-116883597D01*
X115435465Y-117077169D01*
X115435464Y-117077171D01*
X115335598Y-117291335D01*
X115335594Y-117291344D01*
X115274438Y-117519586D01*
X115274436Y-117519596D01*
X115253841Y-117754999D01*
X115253841Y-117755000D01*
X115274436Y-117990403D01*
X115274438Y-117990413D01*
X115335594Y-118218655D01*
X115335596Y-118218659D01*
X115335597Y-118218663D01*
X115339500Y-118227032D01*
X115435465Y-118432830D01*
X115435467Y-118432834D01*
X115543781Y-118587521D01*
X115571001Y-118626396D01*
X115571006Y-118626402D01*
X115738097Y-118793493D01*
X115738103Y-118793498D01*
X115923658Y-118923425D01*
X115967283Y-118978002D01*
X115974477Y-119047500D01*
X115942954Y-119109855D01*
X115923658Y-119126575D01*
X115738097Y-119256505D01*
X115571005Y-119423597D01*
X115435465Y-119617169D01*
X115435464Y-119617171D01*
X115335598Y-119831335D01*
X115335594Y-119831344D01*
X115274438Y-120059586D01*
X115274436Y-120059596D01*
X115253841Y-120294999D01*
X115253841Y-120295000D01*
X115274436Y-120530403D01*
X115274438Y-120530413D01*
X115335594Y-120758655D01*
X115335596Y-120758659D01*
X115335597Y-120758663D01*
X115339500Y-120767032D01*
X115435465Y-120972830D01*
X115435467Y-120972834D01*
X115543781Y-121127521D01*
X115571001Y-121166396D01*
X115571006Y-121166402D01*
X115738097Y-121333493D01*
X115738103Y-121333498D01*
X115923658Y-121463425D01*
X115967283Y-121518002D01*
X115974477Y-121587500D01*
X115942954Y-121649855D01*
X115923658Y-121666575D01*
X115738097Y-121796505D01*
X115571005Y-121963597D01*
X115435465Y-122157169D01*
X115435464Y-122157171D01*
X115335598Y-122371335D01*
X115335594Y-122371344D01*
X115274438Y-122599586D01*
X115274436Y-122599596D01*
X115253841Y-122834999D01*
X115253841Y-122835000D01*
X100085500Y-122835000D01*
X100085500Y-102310003D01*
X114154435Y-102310003D01*
X114174630Y-102489249D01*
X114174631Y-102489254D01*
X114234211Y-102659523D01*
X114330185Y-102812263D01*
X114332445Y-102815097D01*
X114333334Y-102817275D01*
X114333889Y-102818158D01*
X114333734Y-102818255D01*
X114358855Y-102879783D01*
X114359500Y-102892412D01*
X114359500Y-107162512D01*
X114358439Y-107178697D01*
X114354318Y-107209998D01*
X114354318Y-107210000D01*
X114359500Y-107249360D01*
X114359500Y-107249361D01*
X114374955Y-107366760D01*
X114374956Y-107366762D01*
X114435464Y-107512841D01*
X114531718Y-107638282D01*
X114531719Y-107638283D01*
X114556769Y-107657504D01*
X114568964Y-107668199D01*
X114629298Y-107728533D01*
X114662783Y-107789856D01*
X114664837Y-107802330D01*
X114674630Y-107889249D01*
X114734210Y-108059521D01*
X114830184Y-108212262D01*
X114957738Y-108339816D01*
X115110478Y-108435789D01*
X115280745Y-108495368D01*
X115280750Y-108495369D01*
X115459996Y-108515565D01*
X115460000Y-108515565D01*
X115460004Y-108515565D01*
X115639249Y-108495369D01*
X115639252Y-108495368D01*
X115639255Y-108495368D01*
X115809522Y-108435789D01*
X115962262Y-108339816D01*
X116089816Y-108212262D01*
X116185789Y-108059522D01*
X116245368Y-107889255D01*
X116255162Y-107802330D01*
X116265565Y-107710003D01*
X116265565Y-107709996D01*
X116245369Y-107530750D01*
X116245368Y-107530745D01*
X116185788Y-107360476D01*
X116089815Y-107207737D01*
X115962262Y-107080184D01*
X115809521Y-106984210D01*
X115716845Y-106951781D01*
X115643544Y-106926132D01*
X115586770Y-106885412D01*
X115561022Y-106820460D01*
X115560500Y-106809092D01*
X115560500Y-104860821D01*
X115580185Y-104793782D01*
X115632989Y-104748027D01*
X115702147Y-104738083D01*
X115736900Y-104748437D01*
X115930520Y-104838723D01*
X116144409Y-104896035D01*
X116301974Y-104909820D01*
X116364998Y-104915334D01*
X116365000Y-104915334D01*
X116365002Y-104915334D01*
X116420147Y-104910509D01*
X116585591Y-104896035D01*
X116799480Y-104838723D01*
X117000167Y-104745142D01*
X117181555Y-104618132D01*
X117338132Y-104461555D01*
X117465142Y-104280167D01*
X117522618Y-104156907D01*
X117568790Y-104104468D01*
X117635983Y-104085316D01*
X117702864Y-104105531D01*
X117747381Y-104156907D01*
X117804858Y-104280167D01*
X117931868Y-104461555D01*
X118088445Y-104618132D01*
X118269833Y-104745142D01*
X118374143Y-104793782D01*
X118470513Y-104838720D01*
X118470515Y-104838720D01*
X118470520Y-104838723D01*
X118684409Y-104896035D01*
X118841974Y-104909820D01*
X118904998Y-104915334D01*
X118905000Y-104915334D01*
X118905002Y-104915334D01*
X118960147Y-104910509D01*
X119125591Y-104896035D01*
X119303406Y-104848389D01*
X119373256Y-104850052D01*
X119431119Y-104889214D01*
X119458623Y-104953443D01*
X119459500Y-104968164D01*
X119459500Y-105709902D01*
X119439815Y-105776941D01*
X119423181Y-105797583D01*
X116541465Y-108679298D01*
X116480142Y-108712783D01*
X116467668Y-108714837D01*
X116380750Y-108724630D01*
X116210478Y-108784210D01*
X116057737Y-108880184D01*
X115930184Y-109007737D01*
X115834211Y-109160476D01*
X115774631Y-109330745D01*
X115774630Y-109330750D01*
X115754435Y-109509996D01*
X115754435Y-109510003D01*
X115774630Y-109689249D01*
X115774631Y-109689254D01*
X115834211Y-109859523D01*
X115930184Y-110012262D01*
X116057738Y-110139816D01*
X116210478Y-110235789D01*
X116380745Y-110295368D01*
X116380750Y-110295369D01*
X116559996Y-110315565D01*
X116560000Y-110315565D01*
X116560004Y-110315565D01*
X116739249Y-110295369D01*
X116739252Y-110295368D01*
X116739255Y-110295368D01*
X116909522Y-110235789D01*
X117062262Y-110139816D01*
X117189816Y-110012262D01*
X117285789Y-109859522D01*
X117345368Y-109689255D01*
X117355161Y-109602329D01*
X117382226Y-109537918D01*
X117390690Y-109528543D01*
X120451045Y-106468189D01*
X120463230Y-106457503D01*
X120488282Y-106438282D01*
X120584536Y-106312841D01*
X120645044Y-106166762D01*
X120660500Y-106049361D01*
X120665682Y-106010000D01*
X120661561Y-105978697D01*
X120660500Y-105962512D01*
X120660500Y-104870147D01*
X120680185Y-104803108D01*
X120732989Y-104757353D01*
X120802147Y-104747409D01*
X120836900Y-104757763D01*
X121010520Y-104838723D01*
X121224409Y-104896035D01*
X121381974Y-104909820D01*
X121444998Y-104915334D01*
X121445000Y-104915334D01*
X121445002Y-104915334D01*
X121500147Y-104910509D01*
X121665591Y-104896035D01*
X121879480Y-104838723D01*
X122080167Y-104745142D01*
X122261555Y-104618132D01*
X122418132Y-104461555D01*
X122545142Y-104280167D01*
X122602618Y-104156907D01*
X122648790Y-104104468D01*
X122715983Y-104085316D01*
X122782864Y-104105531D01*
X122827381Y-104156907D01*
X122884858Y-104280167D01*
X123011868Y-104461555D01*
X123168445Y-104618132D01*
X123349833Y-104745142D01*
X123454143Y-104793782D01*
X123550513Y-104838720D01*
X123550515Y-104838720D01*
X123550520Y-104838723D01*
X123764409Y-104896035D01*
X123921974Y-104909820D01*
X123984998Y-104915334D01*
X123985000Y-104915334D01*
X123985002Y-104915334D01*
X124040147Y-104910509D01*
X124205591Y-104896035D01*
X124419480Y-104838723D01*
X124620167Y-104745142D01*
X124801555Y-104618132D01*
X124958132Y-104461555D01*
X125085142Y-104280167D01*
X125142618Y-104156907D01*
X125188790Y-104104468D01*
X125255983Y-104085316D01*
X125322864Y-104105531D01*
X125367381Y-104156907D01*
X125424858Y-104280167D01*
X125551868Y-104461555D01*
X125708445Y-104618132D01*
X125889833Y-104745142D01*
X125994143Y-104793782D01*
X126090513Y-104838720D01*
X126090515Y-104838720D01*
X126090520Y-104838723D01*
X126304409Y-104896035D01*
X126461974Y-104909820D01*
X126524998Y-104915334D01*
X126525000Y-104915334D01*
X126525002Y-104915334D01*
X126580147Y-104910509D01*
X126745591Y-104896035D01*
X126959480Y-104838723D01*
X127160167Y-104745142D01*
X127341555Y-104618132D01*
X127498132Y-104461555D01*
X127625142Y-104280167D01*
X127682618Y-104156907D01*
X127728790Y-104104468D01*
X127795983Y-104085316D01*
X127862864Y-104105531D01*
X127907381Y-104156907D01*
X127964858Y-104280167D01*
X128091868Y-104461555D01*
X128248445Y-104618132D01*
X128429833Y-104745142D01*
X128534143Y-104793782D01*
X128630513Y-104838720D01*
X128630515Y-104838720D01*
X128630520Y-104838723D01*
X128844409Y-104896035D01*
X129001974Y-104909820D01*
X129064998Y-104915334D01*
X129065000Y-104915334D01*
X129065002Y-104915334D01*
X129120147Y-104910509D01*
X129285591Y-104896035D01*
X129499480Y-104838723D01*
X129700167Y-104745142D01*
X129881555Y-104618132D01*
X130038132Y-104461555D01*
X130165142Y-104280167D01*
X130222618Y-104156907D01*
X130268790Y-104104468D01*
X130335983Y-104085316D01*
X130402864Y-104105531D01*
X130447381Y-104156907D01*
X130504858Y-104280167D01*
X130631868Y-104461555D01*
X130788445Y-104618132D01*
X130969833Y-104745142D01*
X131074143Y-104793782D01*
X131170513Y-104838720D01*
X131170515Y-104838720D01*
X131170520Y-104838723D01*
X131384409Y-104896035D01*
X131541974Y-104909820D01*
X131604998Y-104915334D01*
X131605000Y-104915334D01*
X131605002Y-104915334D01*
X131660147Y-104910509D01*
X131825591Y-104896035D01*
X132039480Y-104838723D01*
X132240167Y-104745142D01*
X132421555Y-104618132D01*
X132578132Y-104461555D01*
X132705142Y-104280167D01*
X132798723Y-104079480D01*
X132856035Y-103865591D01*
X132875334Y-103645000D01*
X132856035Y-103424409D01*
X132798723Y-103210520D01*
X132786574Y-103184467D01*
X132761443Y-103130572D01*
X132705142Y-103009833D01*
X132578132Y-102828445D01*
X132421555Y-102671868D01*
X132240167Y-102544858D01*
X132213094Y-102532234D01*
X132116908Y-102487382D01*
X132064468Y-102441210D01*
X132045316Y-102374017D01*
X132065531Y-102307136D01*
X132116908Y-102262618D01*
X132240167Y-102205142D01*
X132268931Y-102185001D01*
X136479390Y-102185001D01*
X136499804Y-102470433D01*
X136560628Y-102750037D01*
X136560630Y-102750043D01*
X136560631Y-102750046D01*
X136594771Y-102841578D01*
X136660635Y-103018166D01*
X136797770Y-103269309D01*
X136797775Y-103269317D01*
X136969254Y-103498387D01*
X136969270Y-103498405D01*
X137171594Y-103700729D01*
X137171612Y-103700745D01*
X137400682Y-103872224D01*
X137400690Y-103872229D01*
X137651833Y-104009364D01*
X137651832Y-104009364D01*
X137651836Y-104009365D01*
X137651839Y-104009367D01*
X137919954Y-104109369D01*
X137919960Y-104109370D01*
X137919962Y-104109371D01*
X138199566Y-104170195D01*
X138199568Y-104170195D01*
X138199572Y-104170196D01*
X138453220Y-104188337D01*
X138484999Y-104190610D01*
X138485000Y-104190610D01*
X138485001Y-104190610D01*
X138513595Y-104188564D01*
X138770428Y-104170196D01*
X139050046Y-104109369D01*
X139318161Y-104009367D01*
X139569315Y-103872226D01*
X139798395Y-103700739D01*
X140000739Y-103498395D01*
X140172226Y-103269315D01*
X140309367Y-103018161D01*
X140409369Y-102750046D01*
X140462188Y-102507242D01*
X140470195Y-102470433D01*
X140470195Y-102470432D01*
X140470196Y-102470428D01*
X140490610Y-102185001D01*
X158479390Y-102185001D01*
X158499804Y-102470433D01*
X158560628Y-102750037D01*
X158560630Y-102750043D01*
X158560631Y-102750046D01*
X158594771Y-102841578D01*
X158660635Y-103018166D01*
X158797770Y-103269309D01*
X158797775Y-103269317D01*
X158969254Y-103498387D01*
X158969270Y-103498405D01*
X159171594Y-103700729D01*
X159171612Y-103700745D01*
X159400682Y-103872224D01*
X159400690Y-103872229D01*
X159651833Y-104009364D01*
X159651832Y-104009364D01*
X159651836Y-104009365D01*
X159651839Y-104009367D01*
X159919954Y-104109369D01*
X159919960Y-104109370D01*
X159919962Y-104109371D01*
X160199566Y-104170195D01*
X160199568Y-104170195D01*
X160199572Y-104170196D01*
X160453220Y-104188337D01*
X160484999Y-104190610D01*
X160485000Y-104190610D01*
X160485001Y-104190610D01*
X160513595Y-104188564D01*
X160770428Y-104170196D01*
X161050046Y-104109369D01*
X161318161Y-104009367D01*
X161569315Y-103872226D01*
X161798395Y-103700739D01*
X162000739Y-103498395D01*
X162172226Y-103269315D01*
X162309367Y-103018161D01*
X162409369Y-102750046D01*
X162462188Y-102507242D01*
X162470195Y-102470433D01*
X162470195Y-102470432D01*
X162470196Y-102470428D01*
X162490610Y-102185000D01*
X162470196Y-101899572D01*
X162435519Y-101740165D01*
X162409371Y-101619962D01*
X162409370Y-101619960D01*
X162409369Y-101619954D01*
X162309367Y-101351839D01*
X162295034Y-101325591D01*
X162172229Y-101100690D01*
X162172224Y-101100682D01*
X162000745Y-100871612D01*
X162000729Y-100871594D01*
X161798405Y-100669270D01*
X161798387Y-100669254D01*
X161569317Y-100497775D01*
X161569309Y-100497770D01*
X161318166Y-100360635D01*
X161318167Y-100360635D01*
X161124615Y-100288444D01*
X161050046Y-100260631D01*
X161050043Y-100260630D01*
X161050037Y-100260628D01*
X160770433Y-100199804D01*
X160485001Y-100179390D01*
X160484999Y-100179390D01*
X160199566Y-100199804D01*
X159919962Y-100260628D01*
X159651833Y-100360635D01*
X159400690Y-100497770D01*
X159400682Y-100497775D01*
X159171612Y-100669254D01*
X159171594Y-100669270D01*
X158969270Y-100871594D01*
X158969254Y-100871612D01*
X158797775Y-101100682D01*
X158797770Y-101100690D01*
X158660635Y-101351833D01*
X158560628Y-101619962D01*
X158499804Y-101899566D01*
X158479390Y-102184998D01*
X158479390Y-102185001D01*
X140490610Y-102185001D01*
X140490610Y-102185000D01*
X140470196Y-101899572D01*
X140435519Y-101740165D01*
X140409371Y-101619962D01*
X140409370Y-101619960D01*
X140409369Y-101619954D01*
X140309367Y-101351839D01*
X140295034Y-101325591D01*
X140172229Y-101100690D01*
X140172224Y-101100682D01*
X140000745Y-100871612D01*
X140000729Y-100871594D01*
X139798405Y-100669270D01*
X139798387Y-100669254D01*
X139569317Y-100497775D01*
X139569309Y-100497770D01*
X139318166Y-100360635D01*
X139318167Y-100360635D01*
X139124615Y-100288444D01*
X139050046Y-100260631D01*
X139050043Y-100260630D01*
X139050037Y-100260628D01*
X138770433Y-100199804D01*
X138485001Y-100179390D01*
X138484999Y-100179390D01*
X138199566Y-100199804D01*
X137919962Y-100260628D01*
X137651833Y-100360635D01*
X137400690Y-100497770D01*
X137400682Y-100497775D01*
X137171612Y-100669254D01*
X137171594Y-100669270D01*
X136969270Y-100871594D01*
X136969254Y-100871612D01*
X136797775Y-101100682D01*
X136797770Y-101100690D01*
X136660635Y-101351833D01*
X136560628Y-101619962D01*
X136499804Y-101899566D01*
X136479390Y-102184998D01*
X136479390Y-102185001D01*
X132268931Y-102185001D01*
X132421555Y-102078132D01*
X132578132Y-101921555D01*
X132705142Y-101740167D01*
X132798723Y-101539480D01*
X132856035Y-101325591D01*
X132875334Y-101105000D01*
X132874956Y-101100685D01*
X132856035Y-100884414D01*
X132856035Y-100884409D01*
X132798723Y-100670520D01*
X132705142Y-100469833D01*
X132578132Y-100288445D01*
X132421555Y-100131868D01*
X132240167Y-100004858D01*
X132116907Y-99947381D01*
X132064468Y-99901210D01*
X132045316Y-99834017D01*
X132065531Y-99767136D01*
X132116908Y-99722618D01*
X132240167Y-99665142D01*
X132421555Y-99538132D01*
X132578132Y-99381555D01*
X132705142Y-99200167D01*
X132798723Y-98999480D01*
X132856035Y-98785591D01*
X132875334Y-98565000D01*
X132856035Y-98344409D01*
X132798723Y-98130520D01*
X132705142Y-97929833D01*
X132578132Y-97748445D01*
X132421555Y-97591868D01*
X132240167Y-97464858D01*
X132116907Y-97407381D01*
X132064468Y-97361210D01*
X132045316Y-97294017D01*
X132065531Y-97227136D01*
X132116908Y-97182618D01*
X132240167Y-97125142D01*
X132421555Y-96998132D01*
X132578132Y-96841555D01*
X132705142Y-96660167D01*
X132798723Y-96459480D01*
X132856035Y-96245591D01*
X132875334Y-96025000D01*
X132856035Y-95804409D01*
X132798723Y-95590520D01*
X132705142Y-95389833D01*
X132578132Y-95208445D01*
X132421555Y-95051868D01*
X132240167Y-94924858D01*
X132116907Y-94867381D01*
X132064468Y-94821210D01*
X132045316Y-94754017D01*
X132065531Y-94687136D01*
X132116908Y-94642618D01*
X132240167Y-94585142D01*
X132421555Y-94458132D01*
X132578132Y-94301555D01*
X132705142Y-94120167D01*
X132798723Y-93919480D01*
X132856035Y-93705591D01*
X132875334Y-93485000D01*
X132856035Y-93264409D01*
X132798723Y-93050520D01*
X132705142Y-92849833D01*
X132578132Y-92668445D01*
X132421555Y-92511868D01*
X132240167Y-92384858D01*
X132116907Y-92327381D01*
X132064468Y-92281210D01*
X132045316Y-92214017D01*
X132065531Y-92147136D01*
X132116908Y-92102618D01*
X132121362Y-92100541D01*
X132240167Y-92045142D01*
X132421555Y-91918132D01*
X132578132Y-91761555D01*
X132705142Y-91580167D01*
X132798723Y-91379480D01*
X132856035Y-91165591D01*
X132875334Y-90945000D01*
X132856035Y-90724409D01*
X132798723Y-90510520D01*
X132705142Y-90309833D01*
X132578132Y-90128445D01*
X132421555Y-89971868D01*
X132333203Y-89910003D01*
X134129435Y-89910003D01*
X134149630Y-90089249D01*
X134149631Y-90089254D01*
X134209211Y-90259523D01*
X134290727Y-90389254D01*
X134305184Y-90412262D01*
X134432738Y-90539816D01*
X134585478Y-90635789D01*
X134724655Y-90684489D01*
X134755745Y-90695368D01*
X134755750Y-90695369D01*
X134934996Y-90715565D01*
X134935000Y-90715565D01*
X134935004Y-90715565D01*
X135114249Y-90695369D01*
X135114252Y-90695368D01*
X135114255Y-90695368D01*
X135284522Y-90635789D01*
X135437262Y-90539816D01*
X135437267Y-90539810D01*
X135440097Y-90537555D01*
X135442275Y-90536665D01*
X135443158Y-90536111D01*
X135443255Y-90536265D01*
X135504783Y-90511145D01*
X135517412Y-90510500D01*
X136102588Y-90510500D01*
X136169627Y-90530185D01*
X136179903Y-90537555D01*
X136182736Y-90539814D01*
X136182738Y-90539816D01*
X136335478Y-90635789D01*
X136474655Y-90684489D01*
X136505745Y-90695368D01*
X136505750Y-90695369D01*
X136684996Y-90715565D01*
X136685000Y-90715565D01*
X136685004Y-90715565D01*
X136864249Y-90695369D01*
X136864250Y-90695368D01*
X136864255Y-90695368D01*
X136885162Y-90688051D01*
X136954940Y-90684489D01*
X137015568Y-90719218D01*
X137019796Y-90723927D01*
X137175541Y-90879672D01*
X137175547Y-90879677D01*
X137355349Y-91005576D01*
X137355351Y-91005577D01*
X137355354Y-91005579D01*
X137439963Y-91045032D01*
X137499120Y-91072618D01*
X137551560Y-91118790D01*
X137570712Y-91185983D01*
X137550496Y-91252865D01*
X137499120Y-91297382D01*
X137355357Y-91364419D01*
X137355349Y-91364423D01*
X137175547Y-91490322D01*
X137175541Y-91490327D01*
X137020327Y-91645541D01*
X137020322Y-91645547D01*
X136894423Y-91825349D01*
X136894419Y-91825357D01*
X136801655Y-92024291D01*
X136801653Y-92024295D01*
X136801653Y-92024297D01*
X136781223Y-92100541D01*
X136744839Y-92236324D01*
X136744838Y-92236331D01*
X136725708Y-92454997D01*
X136725708Y-92455002D01*
X136744381Y-92668445D01*
X136744839Y-92673674D01*
X136801653Y-92885703D01*
X136801654Y-92885706D01*
X136801655Y-92885708D01*
X136894419Y-93084642D01*
X136894423Y-93084650D01*
X137020322Y-93264452D01*
X137020326Y-93264457D01*
X137175543Y-93419674D01*
X137248866Y-93471015D01*
X137312289Y-93515425D01*
X137355914Y-93570002D01*
X137363107Y-93639500D01*
X137331585Y-93701855D01*
X137271355Y-93737269D01*
X137241166Y-93741000D01*
X137183155Y-93741000D01*
X137123627Y-93747401D01*
X137123620Y-93747403D01*
X136988913Y-93797645D01*
X136988906Y-93797649D01*
X136873812Y-93883809D01*
X136873809Y-93883812D01*
X136787649Y-93998906D01*
X136787645Y-93998913D01*
X136737403Y-94133620D01*
X136737401Y-94133627D01*
X136731000Y-94193155D01*
X136731000Y-94745000D01*
X137551314Y-94745000D01*
X137525507Y-94785156D01*
X137485000Y-94923111D01*
X137485000Y-95066889D01*
X137525507Y-95204844D01*
X137551314Y-95245000D01*
X136731000Y-95245000D01*
X136731000Y-95796844D01*
X136737401Y-95856372D01*
X136737403Y-95856379D01*
X136787645Y-95991086D01*
X136787649Y-95991093D01*
X136873809Y-96106187D01*
X136873812Y-96106190D01*
X136988906Y-96192350D01*
X136988913Y-96192354D01*
X137123620Y-96242596D01*
X137123627Y-96242598D01*
X137183155Y-96248999D01*
X137183172Y-96249000D01*
X137735000Y-96249000D01*
X137735000Y-95430501D01*
X137842685Y-95479680D01*
X137949237Y-95495000D01*
X138020763Y-95495000D01*
X138127315Y-95479680D01*
X138235000Y-95430501D01*
X138235000Y-96249000D01*
X138786828Y-96249000D01*
X138786844Y-96248999D01*
X138846372Y-96242598D01*
X138846379Y-96242596D01*
X138981086Y-96192354D01*
X138981093Y-96192350D01*
X139096187Y-96106190D01*
X139096190Y-96106187D01*
X139182350Y-95991093D01*
X139182354Y-95991086D01*
X139232596Y-95856379D01*
X139232598Y-95856372D01*
X139238999Y-95796844D01*
X139239000Y-95796827D01*
X139239000Y-95245000D01*
X138418686Y-95245000D01*
X138444493Y-95204844D01*
X138485000Y-95066889D01*
X138485000Y-94923111D01*
X138444493Y-94785156D01*
X138418686Y-94745000D01*
X139239000Y-94745000D01*
X139239000Y-94193172D01*
X139238999Y-94193155D01*
X139232598Y-94133627D01*
X139232596Y-94133620D01*
X139182354Y-93998913D01*
X139182350Y-93998906D01*
X139096190Y-93883812D01*
X139096187Y-93883809D01*
X138981093Y-93797649D01*
X138981086Y-93797645D01*
X138846379Y-93747403D01*
X138846372Y-93747401D01*
X138786844Y-93741000D01*
X138728834Y-93741000D01*
X138661795Y-93721315D01*
X138616040Y-93668511D01*
X138606096Y-93599353D01*
X138635121Y-93535797D01*
X138657711Y-93515425D01*
X138701165Y-93484998D01*
X138794457Y-93419674D01*
X138949674Y-93264457D01*
X139075579Y-93084646D01*
X139168347Y-92885703D01*
X139225161Y-92673674D01*
X139244292Y-92455000D01*
X139225161Y-92236326D01*
X139168347Y-92024297D01*
X139075579Y-91825354D01*
X139075577Y-91825351D01*
X139075576Y-91825349D01*
X138949677Y-91645547D01*
X138949672Y-91645541D01*
X138794458Y-91490327D01*
X138794452Y-91490322D01*
X138614650Y-91364423D01*
X138614642Y-91364419D01*
X138470879Y-91297382D01*
X138418439Y-91251210D01*
X138399287Y-91184017D01*
X138419502Y-91117136D01*
X138470879Y-91072618D01*
X138614646Y-91005579D01*
X138794457Y-90879674D01*
X138949674Y-90724457D01*
X139075579Y-90544646D01*
X139168347Y-90345703D01*
X139210893Y-90186921D01*
X139247256Y-90127265D01*
X139310103Y-90096736D01*
X139379479Y-90105031D01*
X139433357Y-90149516D01*
X139453886Y-90205135D01*
X139474630Y-90389250D01*
X139474631Y-90389254D01*
X139534211Y-90559523D01*
X139586880Y-90643344D01*
X139630184Y-90712262D01*
X139757738Y-90839816D01*
X139910478Y-90935789D01*
X140080745Y-90995368D01*
X140080750Y-90995369D01*
X140259996Y-91015565D01*
X140260000Y-91015565D01*
X140260004Y-91015565D01*
X140439249Y-90995369D01*
X140439252Y-90995368D01*
X140439255Y-90995368D01*
X140609522Y-90935789D01*
X140762262Y-90839816D01*
X140889816Y-90712262D01*
X140985789Y-90559522D01*
X141045368Y-90389255D01*
X141053017Y-90321372D01*
X141065565Y-90210003D01*
X141065565Y-90209996D01*
X141045369Y-90030750D01*
X141045368Y-90030745D01*
X141020613Y-89960000D01*
X140985789Y-89860478D01*
X140975974Y-89844858D01*
X140904506Y-89731117D01*
X140885500Y-89665145D01*
X140885500Y-80185001D01*
X158479390Y-80185001D01*
X158499804Y-80470433D01*
X158560628Y-80750037D01*
X158560630Y-80750043D01*
X158560631Y-80750046D01*
X158655945Y-81005591D01*
X158660635Y-81018166D01*
X158797770Y-81269309D01*
X158797775Y-81269317D01*
X158969254Y-81498387D01*
X158969270Y-81498405D01*
X159171594Y-81700729D01*
X159171612Y-81700745D01*
X159400682Y-81872224D01*
X159400690Y-81872229D01*
X159651833Y-82009364D01*
X159651832Y-82009364D01*
X159651836Y-82009365D01*
X159651839Y-82009367D01*
X159919954Y-82109369D01*
X159919960Y-82109370D01*
X159919962Y-82109371D01*
X160199566Y-82170195D01*
X160199568Y-82170195D01*
X160199572Y-82170196D01*
X160453220Y-82188337D01*
X160484999Y-82190610D01*
X160485000Y-82190610D01*
X160485001Y-82190610D01*
X160513595Y-82188564D01*
X160770428Y-82170196D01*
X160949337Y-82131277D01*
X161050037Y-82109371D01*
X161050037Y-82109370D01*
X161050046Y-82109369D01*
X161318161Y-82009367D01*
X161569315Y-81872226D01*
X161798395Y-81700739D01*
X162000739Y-81498395D01*
X162001408Y-81497502D01*
X162165106Y-81278826D01*
X162172226Y-81269315D01*
X162309367Y-81018161D01*
X162409369Y-80750046D01*
X162422857Y-80688041D01*
X162470195Y-80470433D01*
X162470195Y-80470432D01*
X162470196Y-80470428D01*
X162490610Y-80185000D01*
X162470196Y-79899572D01*
X162451117Y-79811868D01*
X162409371Y-79619962D01*
X162409370Y-79619960D01*
X162409369Y-79619954D01*
X162309367Y-79351839D01*
X162172226Y-79100685D01*
X162142934Y-79061555D01*
X162000745Y-78871612D01*
X162000729Y-78871594D01*
X161798405Y-78669270D01*
X161798387Y-78669254D01*
X161569317Y-78497775D01*
X161569309Y-78497770D01*
X161318166Y-78360635D01*
X161318167Y-78360635D01*
X161210915Y-78320632D01*
X161050046Y-78260631D01*
X161050043Y-78260630D01*
X161050037Y-78260628D01*
X160770433Y-78199804D01*
X160485001Y-78179390D01*
X160484999Y-78179390D01*
X160199566Y-78199804D01*
X159919962Y-78260628D01*
X159651833Y-78360635D01*
X159400690Y-78497770D01*
X159400682Y-78497775D01*
X159171612Y-78669254D01*
X159171594Y-78669270D01*
X158969270Y-78871594D01*
X158969254Y-78871612D01*
X158797775Y-79100682D01*
X158797770Y-79100690D01*
X158660635Y-79351833D01*
X158560628Y-79619962D01*
X158499804Y-79899566D01*
X158479390Y-80184998D01*
X158479390Y-80185001D01*
X140885500Y-80185001D01*
X140885500Y-74482487D01*
X140886561Y-74466301D01*
X140890682Y-74435000D01*
X140890682Y-74434998D01*
X140870044Y-74278239D01*
X140870042Y-74278234D01*
X140864439Y-74264708D01*
X140809536Y-74132159D01*
X140737450Y-74038215D01*
X140723761Y-74020375D01*
X140713281Y-74006716D01*
X140688229Y-73987494D01*
X140676034Y-73976799D01*
X139690700Y-72991465D01*
X139657215Y-72930142D01*
X139655163Y-72917686D01*
X139645368Y-72830745D01*
X139585789Y-72660478D01*
X139489816Y-72507738D01*
X139362262Y-72380184D01*
X139209524Y-72284212D01*
X139209525Y-72284212D01*
X139167090Y-72269363D01*
X139110315Y-72228640D01*
X139091005Y-72193276D01*
X139035789Y-72035478D01*
X138948138Y-71895983D01*
X138939816Y-71882738D01*
X138812262Y-71755184D01*
X138788883Y-71740494D01*
X138659523Y-71659211D01*
X138489254Y-71599631D01*
X138489249Y-71599630D01*
X138310004Y-71579435D01*
X138309996Y-71579435D01*
X138130750Y-71599630D01*
X138130745Y-71599631D01*
X137960476Y-71659211D01*
X137831117Y-71740494D01*
X137765145Y-71759500D01*
X136142412Y-71759500D01*
X136075373Y-71739815D01*
X136065097Y-71732445D01*
X136062263Y-71730185D01*
X136062262Y-71730184D01*
X136005496Y-71694515D01*
X135909523Y-71634211D01*
X135739254Y-71574631D01*
X135739249Y-71574630D01*
X135560004Y-71554435D01*
X135559996Y-71554435D01*
X135380750Y-71574630D01*
X135380745Y-71574631D01*
X135210476Y-71634211D01*
X135057737Y-71730184D01*
X134930184Y-71857737D01*
X134834211Y-72010476D01*
X134774631Y-72180745D01*
X134774630Y-72180750D01*
X134754435Y-72359996D01*
X134754435Y-72360003D01*
X134774630Y-72539249D01*
X134774631Y-72539254D01*
X134834211Y-72709523D01*
X134930184Y-72862262D01*
X135057738Y-72989816D01*
X135210478Y-73085789D01*
X135227294Y-73091673D01*
X135380745Y-73145368D01*
X135380750Y-73145369D01*
X135559996Y-73165565D01*
X135560000Y-73165565D01*
X135560004Y-73165565D01*
X135739249Y-73145369D01*
X135739252Y-73145368D01*
X135739255Y-73145368D01*
X135909522Y-73085789D01*
X136062262Y-72989816D01*
X136062267Y-72989810D01*
X136065097Y-72987555D01*
X136067275Y-72986665D01*
X136068158Y-72986111D01*
X136068255Y-72986265D01*
X136129783Y-72961145D01*
X136142412Y-72960500D01*
X137702060Y-72960500D01*
X137769099Y-72980185D01*
X137789741Y-72996819D01*
X137807738Y-73014816D01*
X137960478Y-73110789D01*
X137960480Y-73110790D01*
X138002908Y-73125637D01*
X138059684Y-73166358D01*
X138078995Y-73201724D01*
X138134210Y-73359521D01*
X138150587Y-73385585D01*
X138230184Y-73512262D01*
X138357738Y-73639816D01*
X138510478Y-73735789D01*
X138680745Y-73795368D01*
X138767669Y-73805161D01*
X138832080Y-73832226D01*
X138841465Y-73840700D01*
X139648181Y-74647416D01*
X139681666Y-74708739D01*
X139684500Y-74735097D01*
X139684500Y-78351678D01*
X139664815Y-78418717D01*
X139612011Y-78464472D01*
X139542853Y-78474416D01*
X139501073Y-78460510D01*
X139318166Y-78360635D01*
X139318167Y-78360635D01*
X139210915Y-78320632D01*
X139050046Y-78260631D01*
X139050043Y-78260630D01*
X139050037Y-78260628D01*
X138770433Y-78199804D01*
X138485001Y-78179390D01*
X138484999Y-78179390D01*
X138199566Y-78199804D01*
X137919962Y-78260628D01*
X137651833Y-78360635D01*
X137400690Y-78497770D01*
X137400682Y-78497775D01*
X137171612Y-78669254D01*
X137171594Y-78669270D01*
X136969270Y-78871594D01*
X136969254Y-78871612D01*
X136797775Y-79100682D01*
X136797770Y-79100690D01*
X136660635Y-79351833D01*
X136560628Y-79619962D01*
X136499804Y-79899566D01*
X136479390Y-80184998D01*
X136479390Y-80185001D01*
X136499804Y-80470433D01*
X136560628Y-80750037D01*
X136560630Y-80750043D01*
X136560631Y-80750046D01*
X136655945Y-81005591D01*
X136660635Y-81018166D01*
X136797770Y-81269309D01*
X136797775Y-81269317D01*
X136969254Y-81498387D01*
X136969270Y-81498405D01*
X137171594Y-81700729D01*
X137171612Y-81700745D01*
X137400682Y-81872224D01*
X137400690Y-81872229D01*
X137651833Y-82009364D01*
X137651832Y-82009364D01*
X137651836Y-82009365D01*
X137651839Y-82009367D01*
X137919954Y-82109369D01*
X137919960Y-82109370D01*
X137919962Y-82109371D01*
X138199566Y-82170195D01*
X138199568Y-82170195D01*
X138199572Y-82170196D01*
X138453220Y-82188337D01*
X138484999Y-82190610D01*
X138485000Y-82190610D01*
X138485001Y-82190610D01*
X138513595Y-82188564D01*
X138770428Y-82170196D01*
X138949337Y-82131277D01*
X139050037Y-82109371D01*
X139050037Y-82109370D01*
X139050046Y-82109369D01*
X139318161Y-82009367D01*
X139501073Y-81909488D01*
X139569346Y-81894637D01*
X139634810Y-81919054D01*
X139676682Y-81974987D01*
X139684500Y-82018321D01*
X139684500Y-89602060D01*
X139664815Y-89669099D01*
X139648181Y-89689741D01*
X139630184Y-89707737D01*
X139534209Y-89860480D01*
X139480807Y-90013092D01*
X139440085Y-90069868D01*
X139375132Y-90095615D01*
X139306571Y-90082158D01*
X139256168Y-90033771D01*
X139239927Y-89965815D01*
X139240234Y-89961379D01*
X139244292Y-89915000D01*
X139242166Y-89890703D01*
X139229968Y-89751277D01*
X139225161Y-89696326D01*
X139168347Y-89484297D01*
X139075579Y-89285354D01*
X139075577Y-89285351D01*
X139075576Y-89285349D01*
X138949677Y-89105547D01*
X138949672Y-89105541D01*
X138794458Y-88950327D01*
X138794452Y-88950322D01*
X138614650Y-88824423D01*
X138614642Y-88824419D01*
X138470879Y-88757382D01*
X138418439Y-88711210D01*
X138399287Y-88644017D01*
X138419502Y-88577136D01*
X138470879Y-88532618D01*
X138614646Y-88465579D01*
X138794457Y-88339674D01*
X138949674Y-88184457D01*
X139075579Y-88004646D01*
X139168347Y-87805703D01*
X139225161Y-87593674D01*
X139244292Y-87375000D01*
X139225161Y-87156326D01*
X139168347Y-86944297D01*
X139075579Y-86745354D01*
X139075577Y-86745351D01*
X139075576Y-86745349D01*
X138949677Y-86565547D01*
X138949672Y-86565541D01*
X138794458Y-86410327D01*
X138794452Y-86410322D01*
X138614650Y-86284423D01*
X138614642Y-86284419D01*
X138415708Y-86191655D01*
X138415706Y-86191654D01*
X138415703Y-86191653D01*
X138235415Y-86143344D01*
X138203675Y-86134839D01*
X138203668Y-86134838D01*
X137985002Y-86115708D01*
X137984998Y-86115708D01*
X137766331Y-86134838D01*
X137766324Y-86134839D01*
X137643902Y-86167642D01*
X137554297Y-86191653D01*
X137554295Y-86191653D01*
X137554291Y-86191655D01*
X137355357Y-86284419D01*
X137355349Y-86284423D01*
X137175547Y-86410322D01*
X137175541Y-86410327D01*
X137020327Y-86565541D01*
X137020322Y-86565547D01*
X136894423Y-86745349D01*
X136894419Y-86745357D01*
X136801655Y-86944291D01*
X136801653Y-86944295D01*
X136801653Y-86944297D01*
X136780667Y-87022618D01*
X136744839Y-87156324D01*
X136744838Y-87156331D01*
X136725708Y-87374997D01*
X136725708Y-87375002D01*
X136744381Y-87588445D01*
X136744839Y-87593674D01*
X136801653Y-87805703D01*
X136801654Y-87805706D01*
X136801655Y-87805708D01*
X136894419Y-88004642D01*
X136894423Y-88004650D01*
X137020322Y-88184452D01*
X137020327Y-88184458D01*
X137175541Y-88339672D01*
X137175547Y-88339677D01*
X137355349Y-88465576D01*
X137355351Y-88465577D01*
X137355354Y-88465579D01*
X137419139Y-88495322D01*
X137499120Y-88532618D01*
X137551560Y-88578790D01*
X137570712Y-88645983D01*
X137550496Y-88712865D01*
X137499120Y-88757382D01*
X137355357Y-88824419D01*
X137355349Y-88824423D01*
X137175547Y-88950322D01*
X137020823Y-89105046D01*
X136959500Y-89138530D01*
X136892188Y-89134406D01*
X136882189Y-89130907D01*
X136864255Y-89124632D01*
X136864254Y-89124631D01*
X136864252Y-89124631D01*
X136685004Y-89104435D01*
X136684996Y-89104435D01*
X136505750Y-89124630D01*
X136505745Y-89124631D01*
X136335476Y-89184211D01*
X136182736Y-89280185D01*
X136179903Y-89282445D01*
X136177724Y-89283334D01*
X136176842Y-89283889D01*
X136176744Y-89283734D01*
X136115217Y-89308855D01*
X136102588Y-89309500D01*
X135517412Y-89309500D01*
X135450373Y-89289815D01*
X135440097Y-89282445D01*
X135437263Y-89280185D01*
X135437262Y-89280184D01*
X135325565Y-89210000D01*
X135284523Y-89184211D01*
X135114254Y-89124631D01*
X135114249Y-89124630D01*
X134935004Y-89104435D01*
X134934996Y-89104435D01*
X134755750Y-89124630D01*
X134755745Y-89124631D01*
X134585476Y-89184211D01*
X134432737Y-89280184D01*
X134305184Y-89407737D01*
X134209211Y-89560476D01*
X134149631Y-89730745D01*
X134149630Y-89730750D01*
X134129435Y-89909996D01*
X134129435Y-89910003D01*
X132333203Y-89910003D01*
X132240167Y-89844858D01*
X132116907Y-89787381D01*
X132064468Y-89741210D01*
X132045316Y-89674017D01*
X132065531Y-89607136D01*
X132116908Y-89562618D01*
X132121502Y-89560476D01*
X132240167Y-89505142D01*
X132421555Y-89378132D01*
X132578132Y-89221555D01*
X132705142Y-89040167D01*
X132798723Y-88839480D01*
X132856035Y-88625591D01*
X132875334Y-88405000D01*
X132872221Y-88369423D01*
X132862880Y-88262649D01*
X132856035Y-88184409D01*
X132798723Y-87970520D01*
X132705142Y-87769833D01*
X132578132Y-87588445D01*
X132421555Y-87431868D01*
X132240167Y-87304858D01*
X132116907Y-87247381D01*
X132064468Y-87201210D01*
X132045316Y-87134017D01*
X132065531Y-87067136D01*
X132116908Y-87022618D01*
X132240167Y-86965142D01*
X132421555Y-86838132D01*
X132578132Y-86681555D01*
X132705142Y-86500167D01*
X132798723Y-86299480D01*
X132856035Y-86085591D01*
X132875334Y-85865000D01*
X132856035Y-85644409D01*
X132798723Y-85430520D01*
X132705142Y-85229833D01*
X132578132Y-85048445D01*
X132421555Y-84891868D01*
X132240167Y-84764858D01*
X132116907Y-84707381D01*
X132064468Y-84661210D01*
X132045316Y-84594017D01*
X132065531Y-84527136D01*
X132116908Y-84482618D01*
X132240167Y-84425142D01*
X132421555Y-84298132D01*
X132578132Y-84141555D01*
X132705142Y-83960167D01*
X132798723Y-83759480D01*
X132856035Y-83545591D01*
X132875334Y-83325000D01*
X132856035Y-83104409D01*
X132798723Y-82890520D01*
X132705142Y-82689833D01*
X132578132Y-82508445D01*
X132421555Y-82351868D01*
X132240167Y-82224858D01*
X132116907Y-82167381D01*
X132064468Y-82121210D01*
X132045316Y-82054017D01*
X132065531Y-81987136D01*
X132116908Y-81942618D01*
X132240167Y-81885142D01*
X132421555Y-81758132D01*
X132578132Y-81601555D01*
X132705142Y-81420167D01*
X132798723Y-81219480D01*
X132856035Y-81005591D01*
X132875334Y-80785000D01*
X132856035Y-80564409D01*
X132798723Y-80350520D01*
X132705142Y-80149833D01*
X132578132Y-79968445D01*
X132421555Y-79811868D01*
X132240167Y-79684858D01*
X132116907Y-79627381D01*
X132064468Y-79581210D01*
X132045316Y-79514017D01*
X132065531Y-79447136D01*
X132116908Y-79402618D01*
X132240167Y-79345142D01*
X132421555Y-79218132D01*
X132578132Y-79061555D01*
X132705142Y-78880167D01*
X132798723Y-78679480D01*
X132856035Y-78465591D01*
X132872577Y-78276513D01*
X132875334Y-78245001D01*
X132875334Y-78244998D01*
X132856035Y-78024414D01*
X132856035Y-78024409D01*
X132798723Y-77810520D01*
X132705142Y-77609833D01*
X132578132Y-77428445D01*
X132421555Y-77271868D01*
X132240167Y-77144858D01*
X132116907Y-77087381D01*
X132064468Y-77041210D01*
X132045316Y-76974017D01*
X132065531Y-76907136D01*
X132116908Y-76862618D01*
X132240167Y-76805142D01*
X132421555Y-76678132D01*
X132578132Y-76521555D01*
X132705142Y-76340167D01*
X132798723Y-76139480D01*
X132856035Y-75925591D01*
X132875334Y-75705000D01*
X132856035Y-75484409D01*
X132798723Y-75270520D01*
X132705142Y-75069833D01*
X132578132Y-74888445D01*
X132421555Y-74731868D01*
X132240167Y-74604858D01*
X132240163Y-74604856D01*
X132116317Y-74547106D01*
X132063877Y-74500934D01*
X132044725Y-74433741D01*
X132064941Y-74366859D01*
X132116317Y-74322342D01*
X132239912Y-74264708D01*
X132239914Y-74264707D01*
X132305342Y-74218894D01*
X131746366Y-73659918D01*
X131750161Y-73659373D01*
X131883562Y-73598451D01*
X131994395Y-73502413D01*
X132073682Y-73379040D01*
X132096133Y-73302580D01*
X132658894Y-73865342D01*
X132704706Y-73799915D01*
X132798250Y-73599309D01*
X132798254Y-73599300D01*
X132855538Y-73385509D01*
X132855540Y-73385499D01*
X132874832Y-73165000D01*
X132874832Y-73164999D01*
X132855540Y-72944500D01*
X132855538Y-72944490D01*
X132798254Y-72730699D01*
X132798250Y-72730690D01*
X132704707Y-72530085D01*
X132704706Y-72530083D01*
X132658894Y-72464657D01*
X132658894Y-72464656D01*
X132096132Y-73027418D01*
X132073682Y-72950960D01*
X131994395Y-72827587D01*
X131883562Y-72731549D01*
X131750161Y-72670627D01*
X131746366Y-72670081D01*
X132305342Y-72111105D01*
X132305341Y-72111103D01*
X132239919Y-72065295D01*
X132116316Y-72007657D01*
X132063877Y-71961484D01*
X132044725Y-71894291D01*
X132064941Y-71827410D01*
X132116312Y-71782895D01*
X132240167Y-71725142D01*
X132421555Y-71598132D01*
X132578132Y-71441555D01*
X132705142Y-71260167D01*
X132798723Y-71059480D01*
X132856035Y-70845591D01*
X132875334Y-70625000D01*
X132856035Y-70404409D01*
X132798723Y-70190520D01*
X132705142Y-69989833D01*
X132578132Y-69808445D01*
X132421555Y-69651868D01*
X132240167Y-69524858D01*
X132240163Y-69524856D01*
X132039486Y-69431279D01*
X132039475Y-69431275D01*
X131825592Y-69373965D01*
X131825585Y-69373964D01*
X131605002Y-69354666D01*
X131604998Y-69354666D01*
X131384414Y-69373964D01*
X131384407Y-69373965D01*
X131170524Y-69431275D01*
X131170513Y-69431279D01*
X130969836Y-69524856D01*
X130969834Y-69524857D01*
X130788444Y-69651868D01*
X130631868Y-69808444D01*
X130504857Y-69989834D01*
X130504856Y-69989836D01*
X130411279Y-70190513D01*
X130411275Y-70190524D01*
X130353965Y-70404407D01*
X130353964Y-70404414D01*
X130334666Y-70624998D01*
X130334666Y-70625001D01*
X130353964Y-70845585D01*
X130353965Y-70845592D01*
X130411275Y-71059475D01*
X130411279Y-71059486D01*
X130504856Y-71260163D01*
X130504858Y-71260167D01*
X130631868Y-71441555D01*
X130788445Y-71598132D01*
X130969833Y-71725142D01*
X131093682Y-71782893D01*
X131146122Y-71829065D01*
X131165274Y-71896258D01*
X131145059Y-71963139D01*
X131093683Y-72007657D01*
X130970084Y-72065293D01*
X130904657Y-72111104D01*
X131463634Y-72670081D01*
X131459839Y-72670627D01*
X131326438Y-72731549D01*
X131215605Y-72827587D01*
X131136318Y-72950960D01*
X131113866Y-73027419D01*
X130551104Y-72464657D01*
X130505293Y-72530084D01*
X130411749Y-72730690D01*
X130411745Y-72730699D01*
X130354461Y-72944490D01*
X130354459Y-72944500D01*
X130335168Y-73164999D01*
X130335168Y-73165000D01*
X130354459Y-73385499D01*
X130354461Y-73385509D01*
X130411745Y-73599300D01*
X130411749Y-73599309D01*
X130505295Y-73799919D01*
X130551103Y-73865341D01*
X130551105Y-73865342D01*
X131113866Y-73302580D01*
X131136318Y-73379040D01*
X131215605Y-73502413D01*
X131326438Y-73598451D01*
X131459839Y-73659373D01*
X131463633Y-73659918D01*
X130904656Y-74218894D01*
X130970083Y-74264706D01*
X130970085Y-74264707D01*
X131093683Y-74322342D01*
X131146122Y-74368514D01*
X131165274Y-74435708D01*
X131145058Y-74502589D01*
X131093683Y-74547106D01*
X130969833Y-74604857D01*
X130788444Y-74731868D01*
X130631868Y-74888444D01*
X130504857Y-75069834D01*
X130504856Y-75069836D01*
X130411279Y-75270513D01*
X130411275Y-75270524D01*
X130353965Y-75484407D01*
X130353964Y-75484414D01*
X130334666Y-75704998D01*
X130334666Y-75705001D01*
X130353964Y-75925585D01*
X130353965Y-75925592D01*
X130411275Y-76139475D01*
X130411279Y-76139486D01*
X130504856Y-76340163D01*
X130504858Y-76340167D01*
X130631868Y-76521555D01*
X130788445Y-76678132D01*
X130969833Y-76805142D01*
X131031828Y-76834050D01*
X131093091Y-76862618D01*
X131145531Y-76908790D01*
X131164683Y-76975983D01*
X131144467Y-77042865D01*
X131093091Y-77087382D01*
X130969836Y-77144856D01*
X130969834Y-77144857D01*
X130788444Y-77271868D01*
X130631868Y-77428444D01*
X130504857Y-77609834D01*
X130504856Y-77609836D01*
X130411279Y-77810513D01*
X130411275Y-77810524D01*
X130353965Y-78024407D01*
X130353964Y-78024414D01*
X130334666Y-78244998D01*
X130334666Y-78245001D01*
X130353964Y-78465585D01*
X130353965Y-78465592D01*
X130411275Y-78679475D01*
X130411279Y-78679486D01*
X130500869Y-78871612D01*
X130504858Y-78880167D01*
X130631868Y-79061555D01*
X130788445Y-79218132D01*
X130969833Y-79345142D01*
X131031828Y-79374050D01*
X131093091Y-79402618D01*
X131145531Y-79448790D01*
X131164683Y-79515983D01*
X131144467Y-79582865D01*
X131093091Y-79627382D01*
X130969836Y-79684856D01*
X130969834Y-79684857D01*
X130788444Y-79811868D01*
X130631868Y-79968444D01*
X130504857Y-80149834D01*
X130504856Y-80149836D01*
X130411279Y-80350513D01*
X130411275Y-80350524D01*
X130353965Y-80564407D01*
X130353964Y-80564414D01*
X130334666Y-80784998D01*
X130334666Y-80785001D01*
X130353964Y-81005585D01*
X130353965Y-81005592D01*
X130411275Y-81219475D01*
X130411279Y-81219486D01*
X130504856Y-81420163D01*
X130504858Y-81420167D01*
X130631868Y-81601555D01*
X130788445Y-81758132D01*
X130969833Y-81885142D01*
X131022046Y-81909489D01*
X131093091Y-81942618D01*
X131145531Y-81988790D01*
X131164683Y-82055983D01*
X131144467Y-82122865D01*
X131093091Y-82167382D01*
X130969836Y-82224856D01*
X130969834Y-82224857D01*
X130788444Y-82351868D01*
X130631868Y-82508444D01*
X130504857Y-82689834D01*
X130504856Y-82689836D01*
X130411279Y-82890513D01*
X130411275Y-82890524D01*
X130353965Y-83104407D01*
X130353964Y-83104414D01*
X130334666Y-83324998D01*
X130334666Y-83325001D01*
X130353964Y-83545585D01*
X130353965Y-83545592D01*
X130411275Y-83759475D01*
X130411279Y-83759486D01*
X130504856Y-83960163D01*
X130504858Y-83960167D01*
X130631868Y-84141555D01*
X130788445Y-84298132D01*
X130969833Y-84425142D01*
X131031828Y-84454050D01*
X131093091Y-84482618D01*
X131145531Y-84528790D01*
X131164683Y-84595983D01*
X131144467Y-84662865D01*
X131093091Y-84707382D01*
X130969836Y-84764856D01*
X130969834Y-84764857D01*
X130788444Y-84891868D01*
X130631868Y-85048444D01*
X130504857Y-85229834D01*
X130504856Y-85229836D01*
X130411279Y-85430513D01*
X130411275Y-85430524D01*
X130353965Y-85644407D01*
X130353964Y-85644414D01*
X130334666Y-85864998D01*
X130334666Y-85865001D01*
X130353964Y-86085585D01*
X130353965Y-86085592D01*
X130411275Y-86299475D01*
X130411279Y-86299486D01*
X130462965Y-86410327D01*
X130504858Y-86500167D01*
X130631868Y-86681555D01*
X130788445Y-86838132D01*
X130969833Y-86965142D01*
X131031828Y-86994050D01*
X131093091Y-87022618D01*
X131145531Y-87068790D01*
X131164683Y-87135983D01*
X131144467Y-87202865D01*
X131093091Y-87247382D01*
X130969836Y-87304856D01*
X130969834Y-87304857D01*
X130788444Y-87431868D01*
X130631868Y-87588444D01*
X130504857Y-87769834D01*
X130504856Y-87769836D01*
X130411279Y-87970513D01*
X130411275Y-87970524D01*
X130353965Y-88184407D01*
X130353964Y-88184414D01*
X130334666Y-88404998D01*
X130334666Y-88405001D01*
X130353964Y-88625585D01*
X130353965Y-88625592D01*
X130411275Y-88839475D01*
X130411279Y-88839486D01*
X130499786Y-89029291D01*
X130504858Y-89040167D01*
X130631868Y-89221555D01*
X130788445Y-89378132D01*
X130969833Y-89505142D01*
X131027193Y-89531889D01*
X131093091Y-89562618D01*
X131145531Y-89608790D01*
X131164683Y-89675983D01*
X131144467Y-89742865D01*
X131093091Y-89787382D01*
X130969836Y-89844856D01*
X130969834Y-89844857D01*
X130788444Y-89971868D01*
X130631868Y-90128444D01*
X130504857Y-90309834D01*
X130504856Y-90309836D01*
X130411279Y-90510513D01*
X130411275Y-90510524D01*
X130353965Y-90724407D01*
X130353964Y-90724414D01*
X130334666Y-90944998D01*
X130334666Y-90945001D01*
X130353964Y-91165585D01*
X130353965Y-91165592D01*
X130411275Y-91379475D01*
X130411279Y-91379486D01*
X130462965Y-91490327D01*
X130504858Y-91580167D01*
X130631868Y-91761555D01*
X130788445Y-91918132D01*
X130969833Y-92045142D01*
X131031828Y-92074050D01*
X131093091Y-92102618D01*
X131145531Y-92148790D01*
X131164683Y-92215983D01*
X131144467Y-92282865D01*
X131093091Y-92327382D01*
X130969836Y-92384856D01*
X130969834Y-92384857D01*
X130788444Y-92511868D01*
X130631868Y-92668444D01*
X130504857Y-92849834D01*
X130504856Y-92849836D01*
X130411279Y-93050513D01*
X130411275Y-93050524D01*
X130353965Y-93264407D01*
X130353964Y-93264414D01*
X130334666Y-93484998D01*
X130334666Y-93485001D01*
X130353964Y-93705585D01*
X130353965Y-93705592D01*
X130411275Y-93919475D01*
X130411279Y-93919486D01*
X130449094Y-94000580D01*
X130504858Y-94120167D01*
X130631868Y-94301555D01*
X130788445Y-94458132D01*
X130969833Y-94585142D01*
X131031828Y-94614050D01*
X131093091Y-94642618D01*
X131145531Y-94688790D01*
X131164683Y-94755983D01*
X131144467Y-94822865D01*
X131093091Y-94867382D01*
X130969836Y-94924856D01*
X130969834Y-94924857D01*
X130788444Y-95051868D01*
X130631868Y-95208444D01*
X130504857Y-95389834D01*
X130504856Y-95389836D01*
X130411279Y-95590513D01*
X130411275Y-95590524D01*
X130353965Y-95804407D01*
X130353964Y-95804414D01*
X130334666Y-96024998D01*
X130334666Y-96025001D01*
X130353964Y-96245585D01*
X130353965Y-96245592D01*
X130411275Y-96459475D01*
X130411279Y-96459486D01*
X130481463Y-96609996D01*
X130504858Y-96660167D01*
X130631868Y-96841555D01*
X130788445Y-96998132D01*
X130969833Y-97125142D01*
X131030086Y-97153238D01*
X131093091Y-97182618D01*
X131145531Y-97228790D01*
X131164683Y-97295983D01*
X131144467Y-97362865D01*
X131093091Y-97407382D01*
X130969836Y-97464856D01*
X130969834Y-97464857D01*
X130788444Y-97591868D01*
X130631868Y-97748444D01*
X130504857Y-97929834D01*
X130504856Y-97929836D01*
X130411279Y-98130513D01*
X130411275Y-98130524D01*
X130353965Y-98344407D01*
X130353964Y-98344414D01*
X130334666Y-98564998D01*
X130334666Y-98565001D01*
X130353964Y-98785585D01*
X130353965Y-98785592D01*
X130411275Y-98999475D01*
X130411279Y-98999486D01*
X130504856Y-99200163D01*
X130504858Y-99200167D01*
X130631868Y-99381555D01*
X130788445Y-99538132D01*
X130969833Y-99665142D01*
X131031828Y-99694050D01*
X131093091Y-99722618D01*
X131145531Y-99768790D01*
X131164683Y-99835983D01*
X131144467Y-99902865D01*
X131093091Y-99947382D01*
X130969836Y-100004856D01*
X130969834Y-100004857D01*
X130788444Y-100131868D01*
X130631868Y-100288444D01*
X130504857Y-100469834D01*
X130504856Y-100469836D01*
X130411279Y-100670513D01*
X130411275Y-100670524D01*
X130353965Y-100884407D01*
X130353964Y-100884414D01*
X130334666Y-101104998D01*
X130334666Y-101105001D01*
X130353964Y-101325585D01*
X130353965Y-101325592D01*
X130411275Y-101539475D01*
X130411279Y-101539486D01*
X130504856Y-101740163D01*
X130504858Y-101740167D01*
X130631868Y-101921555D01*
X130788445Y-102078132D01*
X130969833Y-102205142D01*
X131031828Y-102234050D01*
X131093091Y-102262618D01*
X131145531Y-102308790D01*
X131164683Y-102375983D01*
X131144467Y-102442865D01*
X131093091Y-102487382D01*
X130969836Y-102544856D01*
X130969834Y-102544857D01*
X130788444Y-102671868D01*
X130631868Y-102828444D01*
X130504857Y-103009834D01*
X130504856Y-103009836D01*
X130447382Y-103133091D01*
X130401210Y-103185531D01*
X130334017Y-103204683D01*
X130267135Y-103184467D01*
X130222618Y-103133091D01*
X130194050Y-103071828D01*
X130165142Y-103009833D01*
X130038132Y-102828445D01*
X129881555Y-102671868D01*
X129700167Y-102544858D01*
X129695595Y-102542726D01*
X129499486Y-102451279D01*
X129499475Y-102451275D01*
X129285592Y-102393965D01*
X129285585Y-102393964D01*
X129065002Y-102374666D01*
X129064998Y-102374666D01*
X128844414Y-102393964D01*
X128844407Y-102393965D01*
X128630524Y-102451275D01*
X128630513Y-102451279D01*
X128429836Y-102544856D01*
X128429834Y-102544857D01*
X128248444Y-102671868D01*
X128091868Y-102828444D01*
X127964857Y-103009834D01*
X127964856Y-103009836D01*
X127907382Y-103133091D01*
X127861210Y-103185531D01*
X127794017Y-103204683D01*
X127727135Y-103184467D01*
X127682618Y-103133091D01*
X127654050Y-103071828D01*
X127625142Y-103009833D01*
X127498132Y-102828445D01*
X127341555Y-102671868D01*
X127160167Y-102544858D01*
X127155595Y-102542726D01*
X126959486Y-102451279D01*
X126959475Y-102451275D01*
X126745592Y-102393965D01*
X126745585Y-102393964D01*
X126525002Y-102374666D01*
X126524998Y-102374666D01*
X126304414Y-102393964D01*
X126304407Y-102393965D01*
X126090524Y-102451275D01*
X126090513Y-102451279D01*
X125889836Y-102544856D01*
X125889834Y-102544857D01*
X125708444Y-102671868D01*
X125551868Y-102828444D01*
X125424857Y-103009834D01*
X125424856Y-103009836D01*
X125367382Y-103133091D01*
X125321210Y-103185531D01*
X125254017Y-103204683D01*
X125187135Y-103184467D01*
X125142618Y-103133091D01*
X125114050Y-103071828D01*
X125085142Y-103009833D01*
X124958132Y-102828445D01*
X124801555Y-102671868D01*
X124620167Y-102544858D01*
X124615595Y-102542726D01*
X124419486Y-102451279D01*
X124419475Y-102451275D01*
X124205592Y-102393965D01*
X124205585Y-102393964D01*
X123985002Y-102374666D01*
X123984998Y-102374666D01*
X123764414Y-102393964D01*
X123764407Y-102393965D01*
X123550524Y-102451275D01*
X123550513Y-102451279D01*
X123349836Y-102544856D01*
X123349834Y-102544857D01*
X123168444Y-102671868D01*
X123011868Y-102828444D01*
X122884857Y-103009834D01*
X122884856Y-103009836D01*
X122827382Y-103133091D01*
X122781210Y-103185531D01*
X122714017Y-103204683D01*
X122647135Y-103184467D01*
X122602618Y-103133091D01*
X122574050Y-103071828D01*
X122545142Y-103009833D01*
X122418132Y-102828445D01*
X122261555Y-102671868D01*
X122080167Y-102544858D01*
X122075595Y-102542726D01*
X121879486Y-102451279D01*
X121879475Y-102451275D01*
X121665592Y-102393965D01*
X121665585Y-102393964D01*
X121445002Y-102374666D01*
X121444998Y-102374666D01*
X121224414Y-102393964D01*
X121224407Y-102393965D01*
X121010524Y-102451275D01*
X121010513Y-102451279D01*
X120836904Y-102532234D01*
X120767827Y-102542726D01*
X120704043Y-102514206D01*
X120665804Y-102455729D01*
X120660500Y-102419852D01*
X120660500Y-97357487D01*
X120661561Y-97341301D01*
X120665682Y-97310000D01*
X120665682Y-97309998D01*
X120645044Y-97153239D01*
X120645044Y-97153238D01*
X120584536Y-97007159D01*
X120584535Y-97007158D01*
X120584535Y-97007157D01*
X120509987Y-96910003D01*
X120509970Y-96909983D01*
X120488281Y-96881717D01*
X120463232Y-96862496D01*
X120451038Y-96851802D01*
X120190700Y-96591465D01*
X120157215Y-96530142D01*
X120155163Y-96517686D01*
X120145368Y-96430745D01*
X120085789Y-96260478D01*
X119989816Y-96107738D01*
X119862262Y-95980184D01*
X119709523Y-95884211D01*
X119539254Y-95824631D01*
X119539249Y-95824630D01*
X119360004Y-95804435D01*
X119359996Y-95804435D01*
X119180750Y-95824630D01*
X119180745Y-95824631D01*
X119010476Y-95884211D01*
X118857737Y-95980184D01*
X118730184Y-96107737D01*
X118634211Y-96260476D01*
X118574631Y-96430745D01*
X118574630Y-96430750D01*
X118554435Y-96609996D01*
X118554435Y-96610003D01*
X118574630Y-96789249D01*
X118574631Y-96789254D01*
X118634211Y-96959523D01*
X118658471Y-96998132D01*
X118730184Y-97112262D01*
X118857738Y-97239816D01*
X119010478Y-97335789D01*
X119180745Y-97395368D01*
X119267669Y-97405161D01*
X119332080Y-97432226D01*
X119341465Y-97440700D01*
X119423181Y-97522416D01*
X119456666Y-97583739D01*
X119459500Y-97610097D01*
X119459500Y-102321835D01*
X119439815Y-102388874D01*
X119387011Y-102434629D01*
X119317853Y-102444573D01*
X119303407Y-102441610D01*
X119125596Y-102393966D01*
X119125592Y-102393965D01*
X119125591Y-102393965D01*
X119125590Y-102393964D01*
X119125585Y-102393964D01*
X118905002Y-102374666D01*
X118904998Y-102374666D01*
X118684414Y-102393964D01*
X118684407Y-102393965D01*
X118470524Y-102451275D01*
X118470513Y-102451279D01*
X118269836Y-102544856D01*
X118269834Y-102544857D01*
X118088444Y-102671868D01*
X117931868Y-102828444D01*
X117804857Y-103009834D01*
X117804856Y-103009836D01*
X117747382Y-103133091D01*
X117701210Y-103185531D01*
X117634017Y-103204683D01*
X117567135Y-103184467D01*
X117522618Y-103133091D01*
X117494050Y-103071828D01*
X117465142Y-103009833D01*
X117338132Y-102828445D01*
X117181555Y-102671868D01*
X117000167Y-102544858D01*
X116973094Y-102532234D01*
X116876908Y-102487382D01*
X116824468Y-102441210D01*
X116805316Y-102374017D01*
X116825531Y-102307136D01*
X116876908Y-102262618D01*
X117000167Y-102205142D01*
X117181555Y-102078132D01*
X117338132Y-101921555D01*
X117465142Y-101740167D01*
X117558723Y-101539480D01*
X117616035Y-101325591D01*
X117635334Y-101105000D01*
X117634956Y-101100685D01*
X117616035Y-100884414D01*
X117616035Y-100884409D01*
X117558723Y-100670520D01*
X117465142Y-100469833D01*
X117338132Y-100288445D01*
X117181555Y-100131868D01*
X117000167Y-100004858D01*
X116876907Y-99947381D01*
X116824468Y-99901210D01*
X116805316Y-99834017D01*
X116825531Y-99767136D01*
X116876908Y-99722618D01*
X117000167Y-99665142D01*
X117181555Y-99538132D01*
X117338132Y-99381555D01*
X117465142Y-99200167D01*
X117558723Y-98999480D01*
X117616035Y-98785591D01*
X117635334Y-98565000D01*
X117616035Y-98344409D01*
X117558723Y-98130520D01*
X117465142Y-97929833D01*
X117338132Y-97748445D01*
X117181555Y-97591868D01*
X117000167Y-97464858D01*
X116876907Y-97407381D01*
X116824468Y-97361210D01*
X116805316Y-97294017D01*
X116825531Y-97227136D01*
X116876908Y-97182618D01*
X117000167Y-97125142D01*
X117181555Y-96998132D01*
X117338132Y-96841555D01*
X117465142Y-96660167D01*
X117558723Y-96459480D01*
X117616035Y-96245591D01*
X117635334Y-96025000D01*
X117616035Y-95804409D01*
X117558723Y-95590520D01*
X117465142Y-95389833D01*
X117338132Y-95208445D01*
X117181555Y-95051868D01*
X117000167Y-94924858D01*
X116876907Y-94867381D01*
X116824468Y-94821210D01*
X116805316Y-94754017D01*
X116825531Y-94687136D01*
X116876908Y-94642618D01*
X117000167Y-94585142D01*
X117181555Y-94458132D01*
X117338132Y-94301555D01*
X117465142Y-94120167D01*
X117558723Y-93919480D01*
X117616035Y-93705591D01*
X117635334Y-93485000D01*
X117616035Y-93264409D01*
X117558723Y-93050520D01*
X117465142Y-92849833D01*
X117338132Y-92668445D01*
X117181555Y-92511868D01*
X117000167Y-92384858D01*
X116876907Y-92327381D01*
X116824468Y-92281210D01*
X116805316Y-92214017D01*
X116825531Y-92147136D01*
X116876908Y-92102618D01*
X116881362Y-92100541D01*
X117000167Y-92045142D01*
X117181555Y-91918132D01*
X117338132Y-91761555D01*
X117465142Y-91580167D01*
X117558723Y-91379480D01*
X117616035Y-91165591D01*
X117635334Y-90945000D01*
X117616035Y-90724409D01*
X117558723Y-90510520D01*
X117465142Y-90309833D01*
X117338132Y-90128445D01*
X117181555Y-89971868D01*
X117000167Y-89844858D01*
X116876907Y-89787381D01*
X116824468Y-89741210D01*
X116805316Y-89674017D01*
X116825531Y-89607136D01*
X116876908Y-89562618D01*
X116881502Y-89560476D01*
X117000167Y-89505142D01*
X117181555Y-89378132D01*
X117338132Y-89221555D01*
X117465142Y-89040167D01*
X117558723Y-88839480D01*
X117616035Y-88625591D01*
X117635334Y-88405000D01*
X117632221Y-88369423D01*
X117622880Y-88262649D01*
X117616035Y-88184409D01*
X117558723Y-87970520D01*
X117465142Y-87769833D01*
X117338132Y-87588445D01*
X117181555Y-87431868D01*
X117000167Y-87304858D01*
X116876907Y-87247381D01*
X116824468Y-87201210D01*
X116805316Y-87134017D01*
X116825531Y-87067136D01*
X116876908Y-87022618D01*
X117000167Y-86965142D01*
X117181555Y-86838132D01*
X117338132Y-86681555D01*
X117465142Y-86500167D01*
X117558723Y-86299480D01*
X117616035Y-86085591D01*
X117635334Y-85865000D01*
X117616035Y-85644409D01*
X117558723Y-85430520D01*
X117465142Y-85229833D01*
X117338132Y-85048445D01*
X117181555Y-84891868D01*
X117000167Y-84764858D01*
X116876907Y-84707381D01*
X116824468Y-84661210D01*
X116805316Y-84594017D01*
X116825531Y-84527136D01*
X116876908Y-84482618D01*
X117000167Y-84425142D01*
X117181555Y-84298132D01*
X117338132Y-84141555D01*
X117465142Y-83960167D01*
X117558723Y-83759480D01*
X117616035Y-83545591D01*
X117635334Y-83325000D01*
X117616035Y-83104409D01*
X117558723Y-82890520D01*
X117465142Y-82689833D01*
X117338132Y-82508445D01*
X117181555Y-82351868D01*
X117000167Y-82224858D01*
X116876907Y-82167381D01*
X116824468Y-82121210D01*
X116805316Y-82054017D01*
X116825531Y-81987136D01*
X116876908Y-81942618D01*
X117000167Y-81885142D01*
X117181555Y-81758132D01*
X117338132Y-81601555D01*
X117465142Y-81420167D01*
X117558723Y-81219480D01*
X117616035Y-81005591D01*
X117635334Y-80785000D01*
X117616035Y-80564409D01*
X117558723Y-80350520D01*
X117465142Y-80149833D01*
X117338132Y-79968445D01*
X117181555Y-79811868D01*
X117000167Y-79684858D01*
X116876907Y-79627381D01*
X116824468Y-79581210D01*
X116805316Y-79514017D01*
X116825531Y-79447136D01*
X116876908Y-79402618D01*
X117000167Y-79345142D01*
X117181555Y-79218132D01*
X117338132Y-79061555D01*
X117465142Y-78880167D01*
X117558723Y-78679480D01*
X117616035Y-78465591D01*
X117632577Y-78276513D01*
X117635334Y-78245001D01*
X117635334Y-78244998D01*
X117616035Y-78024414D01*
X117616035Y-78024409D01*
X117558723Y-77810520D01*
X117465142Y-77609833D01*
X117338132Y-77428445D01*
X117181555Y-77271868D01*
X117000167Y-77144858D01*
X116876907Y-77087381D01*
X116824468Y-77041210D01*
X116805316Y-76974017D01*
X116825531Y-76907136D01*
X116876908Y-76862618D01*
X117000167Y-76805142D01*
X117181555Y-76678132D01*
X117338132Y-76521555D01*
X117465142Y-76340167D01*
X117558723Y-76139480D01*
X117616035Y-75925591D01*
X117635334Y-75705000D01*
X117616035Y-75484409D01*
X117558723Y-75270520D01*
X117465142Y-75069833D01*
X117338132Y-74888445D01*
X117181555Y-74731868D01*
X117000167Y-74604858D01*
X116876907Y-74547381D01*
X116824468Y-74501210D01*
X116805316Y-74434017D01*
X116825531Y-74367136D01*
X116876908Y-74322618D01*
X116877500Y-74322342D01*
X117000167Y-74265142D01*
X117181555Y-74138132D01*
X117338132Y-73981555D01*
X117465142Y-73800167D01*
X117558723Y-73599480D01*
X117616035Y-73385591D01*
X117635334Y-73165000D01*
X117633947Y-73149152D01*
X117622195Y-73014816D01*
X117616035Y-72944409D01*
X117558723Y-72730520D01*
X117465142Y-72529833D01*
X117338132Y-72348445D01*
X117181555Y-72191868D01*
X117000167Y-72064858D01*
X116876907Y-72007381D01*
X116824468Y-71961210D01*
X116805316Y-71894017D01*
X116825531Y-71827136D01*
X116876908Y-71782618D01*
X117000167Y-71725142D01*
X117181555Y-71598132D01*
X117338132Y-71441555D01*
X117465142Y-71260167D01*
X117558723Y-71059480D01*
X117616035Y-70845591D01*
X117635334Y-70625000D01*
X117616035Y-70404409D01*
X117558723Y-70190520D01*
X117465142Y-69989833D01*
X117338132Y-69808445D01*
X117181555Y-69651868D01*
X117000167Y-69524858D01*
X117000163Y-69524856D01*
X116799486Y-69431279D01*
X116799475Y-69431275D01*
X116585592Y-69373965D01*
X116585585Y-69373964D01*
X116365002Y-69354666D01*
X116364998Y-69354666D01*
X116144414Y-69373964D01*
X116144407Y-69373965D01*
X115930524Y-69431275D01*
X115930513Y-69431279D01*
X115729836Y-69524856D01*
X115729834Y-69524857D01*
X115548444Y-69651868D01*
X115391868Y-69808444D01*
X115264857Y-69989834D01*
X115264856Y-69989836D01*
X115171279Y-70190513D01*
X115171275Y-70190524D01*
X115113965Y-70404407D01*
X115113964Y-70404414D01*
X115094666Y-70624998D01*
X115094666Y-70625001D01*
X115113964Y-70845585D01*
X115113965Y-70845592D01*
X115171275Y-71059475D01*
X115171279Y-71059486D01*
X115264856Y-71260163D01*
X115264858Y-71260167D01*
X115391868Y-71441555D01*
X115548445Y-71598132D01*
X115729833Y-71725142D01*
X115761300Y-71739815D01*
X115853091Y-71782618D01*
X115905531Y-71828790D01*
X115924683Y-71895983D01*
X115904467Y-71962865D01*
X115853091Y-72007382D01*
X115729836Y-72064856D01*
X115729834Y-72064857D01*
X115548444Y-72191868D01*
X115391868Y-72348444D01*
X115264857Y-72529834D01*
X115264856Y-72529836D01*
X115171279Y-72730513D01*
X115171275Y-72730524D01*
X115113965Y-72944407D01*
X115113964Y-72944414D01*
X115094666Y-73164998D01*
X115094666Y-73165001D01*
X115113964Y-73385585D01*
X115113965Y-73385592D01*
X115171275Y-73599475D01*
X115171279Y-73599486D01*
X115199205Y-73659373D01*
X115264858Y-73800167D01*
X115391868Y-73981555D01*
X115548445Y-74138132D01*
X115729833Y-74265142D01*
X115757918Y-74278238D01*
X115853091Y-74322618D01*
X115905531Y-74368790D01*
X115924683Y-74435983D01*
X115904467Y-74502865D01*
X115853091Y-74547382D01*
X115729836Y-74604856D01*
X115729834Y-74604857D01*
X115548444Y-74731868D01*
X115391868Y-74888444D01*
X115264857Y-75069834D01*
X115264856Y-75069836D01*
X115171279Y-75270513D01*
X115171275Y-75270524D01*
X115113965Y-75484407D01*
X115113964Y-75484414D01*
X115094666Y-75704998D01*
X115094666Y-75705001D01*
X115113964Y-75925585D01*
X115113965Y-75925592D01*
X115171275Y-76139475D01*
X115171279Y-76139486D01*
X115264856Y-76340163D01*
X115264858Y-76340167D01*
X115391868Y-76521555D01*
X115548445Y-76678132D01*
X115729833Y-76805142D01*
X115791828Y-76834050D01*
X115853091Y-76862618D01*
X115905531Y-76908790D01*
X115924683Y-76975983D01*
X115904467Y-77042865D01*
X115853091Y-77087382D01*
X115729836Y-77144856D01*
X115729834Y-77144857D01*
X115548444Y-77271868D01*
X115391868Y-77428444D01*
X115264857Y-77609834D01*
X115264856Y-77609836D01*
X115171279Y-77810513D01*
X115171275Y-77810524D01*
X115113965Y-78024407D01*
X115113964Y-78024414D01*
X115094666Y-78244998D01*
X115094666Y-78245001D01*
X115113964Y-78465585D01*
X115113965Y-78465592D01*
X115171275Y-78679475D01*
X115171279Y-78679486D01*
X115260869Y-78871612D01*
X115264858Y-78880167D01*
X115391868Y-79061555D01*
X115548445Y-79218132D01*
X115729833Y-79345142D01*
X115791828Y-79374050D01*
X115853091Y-79402618D01*
X115905531Y-79448790D01*
X115924683Y-79515983D01*
X115904467Y-79582865D01*
X115853091Y-79627382D01*
X115729836Y-79684856D01*
X115729834Y-79684857D01*
X115548444Y-79811868D01*
X115391868Y-79968444D01*
X115264857Y-80149834D01*
X115264856Y-80149836D01*
X115171279Y-80350513D01*
X115171275Y-80350524D01*
X115113965Y-80564407D01*
X115113964Y-80564414D01*
X115094666Y-80784998D01*
X115094666Y-80785001D01*
X115113964Y-81005585D01*
X115113965Y-81005592D01*
X115171275Y-81219475D01*
X115171279Y-81219486D01*
X115264856Y-81420163D01*
X115264858Y-81420167D01*
X115391868Y-81601555D01*
X115548445Y-81758132D01*
X115729833Y-81885142D01*
X115782046Y-81909489D01*
X115853091Y-81942618D01*
X115905531Y-81988790D01*
X115924683Y-82055983D01*
X115904467Y-82122865D01*
X115853091Y-82167382D01*
X115729836Y-82224856D01*
X115729834Y-82224857D01*
X115548444Y-82351868D01*
X115391868Y-82508444D01*
X115264857Y-82689834D01*
X115264856Y-82689836D01*
X115171279Y-82890513D01*
X115171275Y-82890524D01*
X115113965Y-83104407D01*
X115113964Y-83104414D01*
X115094666Y-83324998D01*
X115094666Y-83325001D01*
X115113964Y-83545585D01*
X115113965Y-83545592D01*
X115171275Y-83759475D01*
X115171279Y-83759486D01*
X115264856Y-83960163D01*
X115264858Y-83960167D01*
X115391868Y-84141555D01*
X115548445Y-84298132D01*
X115729833Y-84425142D01*
X115791828Y-84454050D01*
X115853091Y-84482618D01*
X115905531Y-84528790D01*
X115924683Y-84595983D01*
X115904467Y-84662865D01*
X115853091Y-84707382D01*
X115729836Y-84764856D01*
X115729834Y-84764857D01*
X115548444Y-84891868D01*
X115391868Y-85048444D01*
X115264857Y-85229834D01*
X115264856Y-85229836D01*
X115171279Y-85430513D01*
X115171275Y-85430524D01*
X115113965Y-85644407D01*
X115113964Y-85644414D01*
X115094666Y-85864998D01*
X115094666Y-85865001D01*
X115113964Y-86085585D01*
X115113965Y-86085592D01*
X115171275Y-86299475D01*
X115171279Y-86299486D01*
X115222965Y-86410327D01*
X115264858Y-86500167D01*
X115391868Y-86681555D01*
X115548445Y-86838132D01*
X115729833Y-86965142D01*
X115791828Y-86994050D01*
X115853091Y-87022618D01*
X115905531Y-87068790D01*
X115924683Y-87135983D01*
X115904467Y-87202865D01*
X115853091Y-87247382D01*
X115729836Y-87304856D01*
X115729834Y-87304857D01*
X115548444Y-87431868D01*
X115391868Y-87588444D01*
X115264857Y-87769834D01*
X115264856Y-87769836D01*
X115171279Y-87970513D01*
X115171275Y-87970524D01*
X115113965Y-88184407D01*
X115113964Y-88184414D01*
X115094666Y-88404998D01*
X115094666Y-88405001D01*
X115113964Y-88625585D01*
X115113965Y-88625592D01*
X115171275Y-88839475D01*
X115171279Y-88839486D01*
X115259786Y-89029291D01*
X115264858Y-89040167D01*
X115391868Y-89221555D01*
X115548445Y-89378132D01*
X115729833Y-89505142D01*
X115787193Y-89531889D01*
X115853091Y-89562618D01*
X115905531Y-89608790D01*
X115924683Y-89675983D01*
X115904467Y-89742865D01*
X115853091Y-89787382D01*
X115729836Y-89844856D01*
X115729834Y-89844857D01*
X115548444Y-89971868D01*
X115391868Y-90128444D01*
X115264857Y-90309834D01*
X115264856Y-90309836D01*
X115171279Y-90510513D01*
X115171275Y-90510524D01*
X115113965Y-90724407D01*
X115113964Y-90724414D01*
X115094666Y-90944998D01*
X115094666Y-90945001D01*
X115113964Y-91165585D01*
X115113965Y-91165592D01*
X115171275Y-91379475D01*
X115171279Y-91379486D01*
X115222965Y-91490327D01*
X115264858Y-91580167D01*
X115391868Y-91761555D01*
X115548445Y-91918132D01*
X115729833Y-92045142D01*
X115791828Y-92074050D01*
X115853091Y-92102618D01*
X115905531Y-92148790D01*
X115924683Y-92215983D01*
X115904467Y-92282865D01*
X115853091Y-92327382D01*
X115729836Y-92384856D01*
X115729834Y-92384857D01*
X115548444Y-92511868D01*
X115391868Y-92668444D01*
X115264857Y-92849834D01*
X115264856Y-92849836D01*
X115171279Y-93050513D01*
X115171275Y-93050524D01*
X115113965Y-93264407D01*
X115113964Y-93264414D01*
X115094666Y-93484998D01*
X115094666Y-93485001D01*
X115113964Y-93705585D01*
X115113965Y-93705592D01*
X115171275Y-93919475D01*
X115171279Y-93919486D01*
X115209094Y-94000580D01*
X115264858Y-94120167D01*
X115391868Y-94301555D01*
X115548445Y-94458132D01*
X115729833Y-94585142D01*
X115791828Y-94614050D01*
X115853091Y-94642618D01*
X115905531Y-94688790D01*
X115924683Y-94755983D01*
X115904467Y-94822865D01*
X115853091Y-94867382D01*
X115729836Y-94924856D01*
X115729834Y-94924857D01*
X115548444Y-95051868D01*
X115391868Y-95208444D01*
X115264857Y-95389834D01*
X115264856Y-95389836D01*
X115171279Y-95590513D01*
X115171275Y-95590524D01*
X115113965Y-95804407D01*
X115113964Y-95804414D01*
X115094666Y-96024998D01*
X115094666Y-96025001D01*
X115113964Y-96245585D01*
X115113965Y-96245592D01*
X115171275Y-96459475D01*
X115171279Y-96459486D01*
X115241463Y-96609996D01*
X115264858Y-96660167D01*
X115391868Y-96841555D01*
X115548445Y-96998132D01*
X115729833Y-97125142D01*
X115790086Y-97153238D01*
X115853091Y-97182618D01*
X115905531Y-97228790D01*
X115924683Y-97295983D01*
X115904467Y-97362865D01*
X115853091Y-97407382D01*
X115729836Y-97464856D01*
X115729834Y-97464857D01*
X115548444Y-97591868D01*
X115391868Y-97748444D01*
X115264857Y-97929834D01*
X115264856Y-97929836D01*
X115171279Y-98130513D01*
X115171275Y-98130524D01*
X115113965Y-98344407D01*
X115113964Y-98344414D01*
X115094666Y-98564998D01*
X115094666Y-98565001D01*
X115113964Y-98785585D01*
X115113965Y-98785592D01*
X115171275Y-98999475D01*
X115171279Y-98999486D01*
X115264856Y-99200163D01*
X115264858Y-99200167D01*
X115391868Y-99381555D01*
X115548445Y-99538132D01*
X115729833Y-99665142D01*
X115791828Y-99694050D01*
X115853091Y-99722618D01*
X115905531Y-99768790D01*
X115924683Y-99835983D01*
X115904467Y-99902865D01*
X115853091Y-99947382D01*
X115729836Y-100004856D01*
X115729834Y-100004857D01*
X115548444Y-100131868D01*
X115391868Y-100288444D01*
X115264857Y-100469834D01*
X115264856Y-100469836D01*
X115171279Y-100670513D01*
X115171275Y-100670524D01*
X115113965Y-100884407D01*
X115113964Y-100884414D01*
X115094666Y-101104998D01*
X115094666Y-101105001D01*
X115113964Y-101325585D01*
X115113967Y-101325599D01*
X115121098Y-101352214D01*
X115119435Y-101422064D01*
X115080271Y-101479926D01*
X115016043Y-101507429D01*
X114987441Y-101507526D01*
X114960005Y-101504435D01*
X114959996Y-101504435D01*
X114780750Y-101524630D01*
X114780745Y-101524631D01*
X114610476Y-101584211D01*
X114457737Y-101680184D01*
X114330184Y-101807737D01*
X114234211Y-101960476D01*
X114174631Y-102130745D01*
X114174630Y-102130750D01*
X114154435Y-102309996D01*
X114154435Y-102310003D01*
X100085500Y-102310003D01*
X100085500Y-97410002D01*
X102125708Y-97410002D01*
X102143213Y-97610097D01*
X102144839Y-97628674D01*
X102201653Y-97840703D01*
X102201654Y-97840706D01*
X102201655Y-97840708D01*
X102294419Y-98039642D01*
X102294423Y-98039650D01*
X102420322Y-98219452D01*
X102420327Y-98219458D01*
X102575541Y-98374672D01*
X102575547Y-98374677D01*
X102755349Y-98500576D01*
X102755351Y-98500577D01*
X102755354Y-98500579D01*
X102954297Y-98593347D01*
X103166326Y-98650161D01*
X103322521Y-98663826D01*
X103384998Y-98669292D01*
X103385000Y-98669292D01*
X103385002Y-98669292D01*
X103445501Y-98663999D01*
X103603674Y-98650161D01*
X103815703Y-98593347D01*
X104014646Y-98500579D01*
X104194457Y-98374674D01*
X104349674Y-98219457D01*
X104355005Y-98211844D01*
X108631000Y-98211844D01*
X108637401Y-98271372D01*
X108637403Y-98271379D01*
X108687645Y-98406086D01*
X108687649Y-98406093D01*
X108773809Y-98521187D01*
X108773812Y-98521190D01*
X108888906Y-98607350D01*
X108888913Y-98607354D01*
X109023620Y-98657596D01*
X109023627Y-98657598D01*
X109083155Y-98663999D01*
X109083172Y-98664000D01*
X109635000Y-98664000D01*
X109635000Y-97845501D01*
X109742685Y-97894680D01*
X109849237Y-97910000D01*
X109920763Y-97910000D01*
X110027315Y-97894680D01*
X110135000Y-97845501D01*
X110135000Y-98664000D01*
X110686828Y-98664000D01*
X110686844Y-98663999D01*
X110746372Y-98657598D01*
X110746379Y-98657596D01*
X110881086Y-98607354D01*
X110881093Y-98607350D01*
X110996187Y-98521190D01*
X110996190Y-98521187D01*
X111082350Y-98406093D01*
X111082354Y-98406086D01*
X111132596Y-98271379D01*
X111132598Y-98271372D01*
X111138999Y-98211844D01*
X111139000Y-98211827D01*
X111139000Y-97660000D01*
X110318686Y-97660000D01*
X110344493Y-97619844D01*
X110385000Y-97481889D01*
X110385000Y-97338111D01*
X110344493Y-97200156D01*
X110318686Y-97160000D01*
X111139000Y-97160000D01*
X111139000Y-96608172D01*
X111138999Y-96608155D01*
X111132598Y-96548627D01*
X111132596Y-96548620D01*
X111082354Y-96413913D01*
X111082350Y-96413906D01*
X110996190Y-96298812D01*
X110996187Y-96298809D01*
X110881093Y-96212649D01*
X110881086Y-96212645D01*
X110746379Y-96162403D01*
X110746372Y-96162401D01*
X110686844Y-96156000D01*
X110135000Y-96156000D01*
X110135000Y-96974498D01*
X110027315Y-96925320D01*
X109920763Y-96910000D01*
X109849237Y-96910000D01*
X109742685Y-96925320D01*
X109635000Y-96974498D01*
X109635000Y-96156000D01*
X109083155Y-96156000D01*
X109023627Y-96162401D01*
X109023620Y-96162403D01*
X108888913Y-96212645D01*
X108888906Y-96212649D01*
X108773812Y-96298809D01*
X108773809Y-96298812D01*
X108687649Y-96413906D01*
X108687645Y-96413913D01*
X108637403Y-96548620D01*
X108637401Y-96548627D01*
X108631000Y-96608155D01*
X108631000Y-97160000D01*
X109451314Y-97160000D01*
X109425507Y-97200156D01*
X109385000Y-97338111D01*
X109385000Y-97481889D01*
X109425507Y-97619844D01*
X109451314Y-97660000D01*
X108631000Y-97660000D01*
X108631000Y-98211844D01*
X104355005Y-98211844D01*
X104475579Y-98039646D01*
X104568347Y-97840703D01*
X104625161Y-97628674D01*
X104642348Y-97432226D01*
X104644292Y-97410002D01*
X104644292Y-97409997D01*
X104629403Y-97239815D01*
X104625161Y-97191326D01*
X104568347Y-96979297D01*
X104475579Y-96780354D01*
X104475577Y-96780351D01*
X104475576Y-96780349D01*
X104349677Y-96600547D01*
X104349672Y-96600541D01*
X104194458Y-96445327D01*
X104194452Y-96445322D01*
X104014650Y-96319423D01*
X104014642Y-96319419D01*
X103815708Y-96226655D01*
X103815706Y-96226654D01*
X103815703Y-96226653D01*
X103664885Y-96186240D01*
X103603675Y-96169839D01*
X103603668Y-96169838D01*
X103385002Y-96150708D01*
X103384998Y-96150708D01*
X103166331Y-96169838D01*
X103166324Y-96169839D01*
X103082315Y-96192350D01*
X102954297Y-96226653D01*
X102954295Y-96226653D01*
X102954291Y-96226655D01*
X102755357Y-96319419D01*
X102755349Y-96319423D01*
X102575547Y-96445322D01*
X102575541Y-96445327D01*
X102420327Y-96600541D01*
X102420322Y-96600547D01*
X102294423Y-96780349D01*
X102294419Y-96780357D01*
X102201655Y-96979291D01*
X102201653Y-96979295D01*
X102201653Y-96979297D01*
X102177642Y-97068902D01*
X102144839Y-97191324D01*
X102144838Y-97191331D01*
X102125708Y-97409997D01*
X102125708Y-97410002D01*
X100085500Y-97410002D01*
X100085500Y-92910002D01*
X102125708Y-92910002D01*
X102140986Y-93084642D01*
X102144839Y-93128674D01*
X102201653Y-93340703D01*
X102201654Y-93340706D01*
X102201655Y-93340708D01*
X102294419Y-93539642D01*
X102294423Y-93539650D01*
X102420322Y-93719452D01*
X102420327Y-93719458D01*
X102575541Y-93874672D01*
X102575547Y-93874677D01*
X102755349Y-94000576D01*
X102755351Y-94000577D01*
X102755354Y-94000579D01*
X102954297Y-94093347D01*
X103166326Y-94150161D01*
X103322521Y-94163826D01*
X103384998Y-94169292D01*
X103385000Y-94169292D01*
X103385002Y-94169292D01*
X103439668Y-94164509D01*
X103603674Y-94150161D01*
X103815703Y-94093347D01*
X104014646Y-94000579D01*
X104194457Y-93874674D01*
X104349674Y-93719457D01*
X104475579Y-93539646D01*
X104568347Y-93340703D01*
X104625161Y-93128674D01*
X104644292Y-92910002D01*
X108625708Y-92910002D01*
X108640986Y-93084642D01*
X108644839Y-93128674D01*
X108701653Y-93340703D01*
X108701654Y-93340706D01*
X108701655Y-93340708D01*
X108794419Y-93539642D01*
X108794423Y-93539650D01*
X108920322Y-93719452D01*
X108920327Y-93719458D01*
X109075541Y-93874672D01*
X109075547Y-93874677D01*
X109255349Y-94000576D01*
X109255351Y-94000577D01*
X109255354Y-94000579D01*
X109454297Y-94093347D01*
X109666326Y-94150161D01*
X109822521Y-94163826D01*
X109884998Y-94169292D01*
X109885000Y-94169292D01*
X109885002Y-94169292D01*
X109939668Y-94164509D01*
X110103674Y-94150161D01*
X110315703Y-94093347D01*
X110514646Y-94000579D01*
X110694457Y-93874674D01*
X110849674Y-93719457D01*
X110975579Y-93539646D01*
X111068347Y-93340703D01*
X111125161Y-93128674D01*
X111144292Y-92910000D01*
X111142166Y-92885703D01*
X111125161Y-92691331D01*
X111125161Y-92691326D01*
X111068347Y-92479297D01*
X110975579Y-92280354D01*
X110975577Y-92280351D01*
X110975576Y-92280349D01*
X110849677Y-92100547D01*
X110849672Y-92100541D01*
X110694458Y-91945327D01*
X110694452Y-91945322D01*
X110514650Y-91819423D01*
X110514642Y-91819419D01*
X110315708Y-91726655D01*
X110315706Y-91726654D01*
X110315703Y-91726653D01*
X110164885Y-91686240D01*
X110103675Y-91669839D01*
X110103668Y-91669838D01*
X109885002Y-91650708D01*
X109884998Y-91650708D01*
X109666331Y-91669838D01*
X109666324Y-91669839D01*
X109543902Y-91702642D01*
X109454297Y-91726653D01*
X109454295Y-91726653D01*
X109454291Y-91726655D01*
X109255357Y-91819419D01*
X109255349Y-91819423D01*
X109075547Y-91945322D01*
X109075541Y-91945327D01*
X108920327Y-92100541D01*
X108920322Y-92100547D01*
X108794423Y-92280349D01*
X108794419Y-92280357D01*
X108701655Y-92479291D01*
X108701653Y-92479295D01*
X108701653Y-92479297D01*
X108677642Y-92568902D01*
X108644839Y-92691324D01*
X108644838Y-92691331D01*
X108625708Y-92909997D01*
X108625708Y-92910002D01*
X104644292Y-92910002D01*
X104644292Y-92910000D01*
X104642166Y-92885703D01*
X104625161Y-92691331D01*
X104625161Y-92691326D01*
X104568347Y-92479297D01*
X104475579Y-92280354D01*
X104475577Y-92280351D01*
X104475576Y-92280349D01*
X104349677Y-92100547D01*
X104349672Y-92100541D01*
X104194458Y-91945327D01*
X104194452Y-91945322D01*
X104014650Y-91819423D01*
X104014642Y-91819419D01*
X103815708Y-91726655D01*
X103815706Y-91726654D01*
X103815703Y-91726653D01*
X103664885Y-91686240D01*
X103603675Y-91669839D01*
X103603668Y-91669838D01*
X103385002Y-91650708D01*
X103384998Y-91650708D01*
X103166331Y-91669838D01*
X103166324Y-91669839D01*
X103043902Y-91702642D01*
X102954297Y-91726653D01*
X102954295Y-91726653D01*
X102954291Y-91726655D01*
X102755357Y-91819419D01*
X102755349Y-91819423D01*
X102575547Y-91945322D01*
X102575541Y-91945327D01*
X102420327Y-92100541D01*
X102420322Y-92100547D01*
X102294423Y-92280349D01*
X102294419Y-92280357D01*
X102201655Y-92479291D01*
X102201653Y-92479295D01*
X102201653Y-92479297D01*
X102177642Y-92568902D01*
X102144839Y-92691324D01*
X102144838Y-92691331D01*
X102125708Y-92909997D01*
X102125708Y-92910002D01*
X100085500Y-92910002D01*
X100085500Y-89460002D01*
X102275708Y-89460002D01*
X102294838Y-89678668D01*
X102294839Y-89678675D01*
X102302627Y-89707738D01*
X102351653Y-89890703D01*
X102351654Y-89890706D01*
X102351655Y-89890708D01*
X102444419Y-90089642D01*
X102444423Y-90089650D01*
X102570322Y-90269452D01*
X102570327Y-90269458D01*
X102725541Y-90424672D01*
X102725547Y-90424677D01*
X102905349Y-90550576D01*
X102905351Y-90550577D01*
X102905354Y-90550579D01*
X103104297Y-90643347D01*
X103316326Y-90700161D01*
X103454645Y-90712262D01*
X103534998Y-90719292D01*
X103535000Y-90719292D01*
X103535002Y-90719292D01*
X103595501Y-90713999D01*
X103753674Y-90700161D01*
X103965703Y-90643347D01*
X104164646Y-90550579D01*
X104344457Y-90424674D01*
X104499674Y-90269457D01*
X104505005Y-90261844D01*
X108781000Y-90261844D01*
X108787401Y-90321372D01*
X108787403Y-90321379D01*
X108837645Y-90456086D01*
X108837649Y-90456093D01*
X108923809Y-90571187D01*
X108923812Y-90571190D01*
X109038906Y-90657350D01*
X109038913Y-90657354D01*
X109173620Y-90707596D01*
X109173627Y-90707598D01*
X109233155Y-90713999D01*
X109233172Y-90714000D01*
X109785000Y-90714000D01*
X109785000Y-89895501D01*
X109892685Y-89944680D01*
X109999237Y-89960000D01*
X110070763Y-89960000D01*
X110177315Y-89944680D01*
X110285000Y-89895501D01*
X110285000Y-90714000D01*
X110836828Y-90714000D01*
X110836844Y-90713999D01*
X110896372Y-90707598D01*
X110896379Y-90707596D01*
X111031086Y-90657354D01*
X111031093Y-90657350D01*
X111146187Y-90571190D01*
X111146190Y-90571187D01*
X111232350Y-90456093D01*
X111232354Y-90456086D01*
X111282596Y-90321379D01*
X111282598Y-90321372D01*
X111288999Y-90261844D01*
X111289000Y-90261827D01*
X111289000Y-89710000D01*
X110468686Y-89710000D01*
X110494493Y-89669844D01*
X110535000Y-89531889D01*
X110535000Y-89388111D01*
X110494493Y-89250156D01*
X110468686Y-89210000D01*
X111289000Y-89210000D01*
X111289000Y-88658172D01*
X111288999Y-88658155D01*
X111282598Y-88598627D01*
X111282596Y-88598620D01*
X111232354Y-88463913D01*
X111232350Y-88463906D01*
X111146190Y-88348812D01*
X111146187Y-88348809D01*
X111031093Y-88262649D01*
X111031086Y-88262645D01*
X110896379Y-88212403D01*
X110896372Y-88212401D01*
X110836844Y-88206000D01*
X110285000Y-88206000D01*
X110285000Y-89024498D01*
X110177315Y-88975320D01*
X110070763Y-88960000D01*
X109999237Y-88960000D01*
X109892685Y-88975320D01*
X109785000Y-89024498D01*
X109785000Y-88206000D01*
X109233155Y-88206000D01*
X109173627Y-88212401D01*
X109173620Y-88212403D01*
X109038913Y-88262645D01*
X109038906Y-88262649D01*
X108923812Y-88348809D01*
X108923809Y-88348812D01*
X108837649Y-88463906D01*
X108837645Y-88463913D01*
X108787403Y-88598620D01*
X108787401Y-88598627D01*
X108781000Y-88658155D01*
X108781000Y-89210000D01*
X109601314Y-89210000D01*
X109575507Y-89250156D01*
X109535000Y-89388111D01*
X109535000Y-89531889D01*
X109575507Y-89669844D01*
X109601314Y-89710000D01*
X108781000Y-89710000D01*
X108781000Y-90261844D01*
X104505005Y-90261844D01*
X104625579Y-90089646D01*
X104718347Y-89890703D01*
X104775161Y-89678674D01*
X104794292Y-89460000D01*
X104775161Y-89241326D01*
X104718347Y-89029297D01*
X104625579Y-88830354D01*
X104625577Y-88830351D01*
X104625576Y-88830349D01*
X104499677Y-88650547D01*
X104499672Y-88650541D01*
X104344458Y-88495327D01*
X104344452Y-88495322D01*
X104164650Y-88369423D01*
X104164642Y-88369419D01*
X103965708Y-88276655D01*
X103965706Y-88276654D01*
X103965703Y-88276653D01*
X103814885Y-88236240D01*
X103753675Y-88219839D01*
X103753668Y-88219838D01*
X103535002Y-88200708D01*
X103534998Y-88200708D01*
X103316331Y-88219838D01*
X103316324Y-88219839D01*
X103193902Y-88252642D01*
X103104297Y-88276653D01*
X103104295Y-88276653D01*
X103104291Y-88276655D01*
X102905357Y-88369419D01*
X102905349Y-88369423D01*
X102725547Y-88495322D01*
X102725541Y-88495327D01*
X102570327Y-88650541D01*
X102570322Y-88650547D01*
X102444423Y-88830349D01*
X102444419Y-88830357D01*
X102351655Y-89029291D01*
X102351653Y-89029295D01*
X102351653Y-89029297D01*
X102331356Y-89105046D01*
X102294839Y-89241324D01*
X102294838Y-89241331D01*
X102275708Y-89459997D01*
X102275708Y-89460002D01*
X100085500Y-89460002D01*
X100085500Y-84960002D01*
X102275708Y-84960002D01*
X102294838Y-85178668D01*
X102294839Y-85178675D01*
X102308548Y-85229836D01*
X102351653Y-85390703D01*
X102351654Y-85390706D01*
X102351655Y-85390708D01*
X102444419Y-85589642D01*
X102444423Y-85589650D01*
X102570322Y-85769452D01*
X102570327Y-85769458D01*
X102725541Y-85924672D01*
X102725547Y-85924677D01*
X102905349Y-86050576D01*
X102905351Y-86050577D01*
X102905354Y-86050579D01*
X103104297Y-86143347D01*
X103316326Y-86200161D01*
X103472521Y-86213826D01*
X103534998Y-86219292D01*
X103535000Y-86219292D01*
X103535002Y-86219292D01*
X103589668Y-86214509D01*
X103753674Y-86200161D01*
X103965703Y-86143347D01*
X104164646Y-86050579D01*
X104344457Y-85924674D01*
X104499674Y-85769457D01*
X104625579Y-85589646D01*
X104718347Y-85390703D01*
X104775161Y-85178674D01*
X104794292Y-84960002D01*
X108775708Y-84960002D01*
X108794838Y-85178668D01*
X108794839Y-85178675D01*
X108808548Y-85229836D01*
X108851653Y-85390703D01*
X108851654Y-85390706D01*
X108851655Y-85390708D01*
X108944419Y-85589642D01*
X108944423Y-85589650D01*
X109070322Y-85769452D01*
X109070327Y-85769458D01*
X109225541Y-85924672D01*
X109225547Y-85924677D01*
X109405349Y-86050576D01*
X109405351Y-86050577D01*
X109405354Y-86050579D01*
X109604297Y-86143347D01*
X109816326Y-86200161D01*
X109972521Y-86213826D01*
X110034998Y-86219292D01*
X110035000Y-86219292D01*
X110035002Y-86219292D01*
X110089668Y-86214509D01*
X110253674Y-86200161D01*
X110465703Y-86143347D01*
X110664646Y-86050579D01*
X110844457Y-85924674D01*
X110999674Y-85769457D01*
X111125579Y-85589646D01*
X111218347Y-85390703D01*
X111275161Y-85178674D01*
X111294292Y-84960000D01*
X111275161Y-84741326D01*
X111218347Y-84529297D01*
X111125579Y-84330354D01*
X111125577Y-84330351D01*
X111125576Y-84330349D01*
X110999677Y-84150547D01*
X110999672Y-84150541D01*
X110844458Y-83995327D01*
X110844452Y-83995322D01*
X110664650Y-83869423D01*
X110664642Y-83869419D01*
X110465708Y-83776655D01*
X110465706Y-83776654D01*
X110465703Y-83776653D01*
X110314885Y-83736240D01*
X110253675Y-83719839D01*
X110253668Y-83719838D01*
X110035002Y-83700708D01*
X110034998Y-83700708D01*
X109816331Y-83719838D01*
X109816324Y-83719839D01*
X109693902Y-83752642D01*
X109604297Y-83776653D01*
X109604295Y-83776653D01*
X109604291Y-83776655D01*
X109405357Y-83869419D01*
X109405349Y-83869423D01*
X109225547Y-83995322D01*
X109225541Y-83995327D01*
X109070327Y-84150541D01*
X109070322Y-84150547D01*
X108944423Y-84330349D01*
X108944419Y-84330357D01*
X108851655Y-84529291D01*
X108851653Y-84529295D01*
X108851653Y-84529297D01*
X108834311Y-84594017D01*
X108794839Y-84741324D01*
X108794838Y-84741331D01*
X108775708Y-84959997D01*
X108775708Y-84960002D01*
X104794292Y-84960002D01*
X104794292Y-84960000D01*
X104775161Y-84741326D01*
X104718347Y-84529297D01*
X104625579Y-84330354D01*
X104625577Y-84330351D01*
X104625576Y-84330349D01*
X104499677Y-84150547D01*
X104499672Y-84150541D01*
X104344458Y-83995327D01*
X104344452Y-83995322D01*
X104164650Y-83869423D01*
X104164642Y-83869419D01*
X103965708Y-83776655D01*
X103965706Y-83776654D01*
X103965703Y-83776653D01*
X103814885Y-83736240D01*
X103753675Y-83719839D01*
X103753668Y-83719838D01*
X103535002Y-83700708D01*
X103534998Y-83700708D01*
X103316331Y-83719838D01*
X103316324Y-83719839D01*
X103193902Y-83752642D01*
X103104297Y-83776653D01*
X103104295Y-83776653D01*
X103104291Y-83776655D01*
X102905357Y-83869419D01*
X102905349Y-83869423D01*
X102725547Y-83995322D01*
X102725541Y-83995327D01*
X102570327Y-84150541D01*
X102570322Y-84150547D01*
X102444423Y-84330349D01*
X102444419Y-84330357D01*
X102351655Y-84529291D01*
X102351653Y-84529295D01*
X102351653Y-84529297D01*
X102334311Y-84594017D01*
X102294839Y-84741324D01*
X102294838Y-84741331D01*
X102275708Y-84959997D01*
X102275708Y-84960002D01*
X100085500Y-84960002D01*
X100085500Y-81497502D01*
X102150708Y-81497502D01*
X102169838Y-81716168D01*
X102169839Y-81716175D01*
X102181082Y-81758132D01*
X102226653Y-81928203D01*
X102226654Y-81928206D01*
X102226655Y-81928208D01*
X102319419Y-82127142D01*
X102319423Y-82127150D01*
X102445322Y-82306952D01*
X102445327Y-82306958D01*
X102600541Y-82462172D01*
X102600547Y-82462177D01*
X102780349Y-82588076D01*
X102780351Y-82588077D01*
X102780354Y-82588079D01*
X102979297Y-82680847D01*
X103191326Y-82737661D01*
X103347521Y-82751326D01*
X103409998Y-82756792D01*
X103410000Y-82756792D01*
X103410002Y-82756792D01*
X103470501Y-82751499D01*
X103628674Y-82737661D01*
X103840703Y-82680847D01*
X104039646Y-82588079D01*
X104219457Y-82462174D01*
X104374674Y-82306957D01*
X104380005Y-82299344D01*
X108656000Y-82299344D01*
X108662401Y-82358872D01*
X108662403Y-82358879D01*
X108712645Y-82493586D01*
X108712649Y-82493593D01*
X108798809Y-82608687D01*
X108798812Y-82608690D01*
X108913906Y-82694850D01*
X108913913Y-82694854D01*
X109048620Y-82745096D01*
X109048627Y-82745098D01*
X109108155Y-82751499D01*
X109108172Y-82751500D01*
X109660000Y-82751500D01*
X109660000Y-81933001D01*
X109767685Y-81982180D01*
X109874237Y-81997500D01*
X109945763Y-81997500D01*
X110052315Y-81982180D01*
X110160000Y-81933001D01*
X110160000Y-82751500D01*
X110711828Y-82751500D01*
X110711844Y-82751499D01*
X110771372Y-82745098D01*
X110771379Y-82745096D01*
X110906086Y-82694854D01*
X110906093Y-82694850D01*
X111021187Y-82608690D01*
X111021190Y-82608687D01*
X111107350Y-82493593D01*
X111107354Y-82493586D01*
X111157596Y-82358879D01*
X111157598Y-82358872D01*
X111163999Y-82299344D01*
X111164000Y-82299327D01*
X111164000Y-81747500D01*
X110343686Y-81747500D01*
X110369493Y-81707344D01*
X110410000Y-81569389D01*
X110410000Y-81425611D01*
X110369493Y-81287656D01*
X110343686Y-81247500D01*
X111164000Y-81247500D01*
X111164000Y-80695672D01*
X111163999Y-80695655D01*
X111157598Y-80636127D01*
X111157596Y-80636120D01*
X111107354Y-80501413D01*
X111107350Y-80501406D01*
X111021190Y-80386312D01*
X111021187Y-80386309D01*
X110906093Y-80300149D01*
X110906086Y-80300145D01*
X110771379Y-80249903D01*
X110771372Y-80249901D01*
X110711844Y-80243500D01*
X110160000Y-80243500D01*
X110160000Y-81061998D01*
X110052315Y-81012820D01*
X109945763Y-80997500D01*
X109874237Y-80997500D01*
X109767685Y-81012820D01*
X109660000Y-81061998D01*
X109660000Y-80243500D01*
X109108155Y-80243500D01*
X109048627Y-80249901D01*
X109048620Y-80249903D01*
X108913913Y-80300145D01*
X108913906Y-80300149D01*
X108798812Y-80386309D01*
X108798809Y-80386312D01*
X108712649Y-80501406D01*
X108712645Y-80501413D01*
X108662403Y-80636120D01*
X108662401Y-80636127D01*
X108656000Y-80695655D01*
X108656000Y-81247500D01*
X109476314Y-81247500D01*
X109450507Y-81287656D01*
X109410000Y-81425611D01*
X109410000Y-81569389D01*
X109450507Y-81707344D01*
X109476314Y-81747500D01*
X108656000Y-81747500D01*
X108656000Y-82299344D01*
X104380005Y-82299344D01*
X104500579Y-82127146D01*
X104593347Y-81928203D01*
X104650161Y-81716174D01*
X104669214Y-81498395D01*
X104669292Y-81497502D01*
X104669292Y-81497497D01*
X104662117Y-81415497D01*
X104650161Y-81278826D01*
X104593347Y-81066797D01*
X104500579Y-80867854D01*
X104500577Y-80867851D01*
X104500576Y-80867849D01*
X104374677Y-80688047D01*
X104374672Y-80688041D01*
X104219458Y-80532827D01*
X104219452Y-80532822D01*
X104039650Y-80406923D01*
X104039642Y-80406919D01*
X103840708Y-80314155D01*
X103840706Y-80314154D01*
X103840703Y-80314153D01*
X103689885Y-80273740D01*
X103628675Y-80257339D01*
X103628668Y-80257338D01*
X103410002Y-80238208D01*
X103409998Y-80238208D01*
X103191331Y-80257338D01*
X103191324Y-80257339D01*
X103068902Y-80290142D01*
X102979297Y-80314153D01*
X102979295Y-80314153D01*
X102979291Y-80314155D01*
X102780357Y-80406919D01*
X102780349Y-80406923D01*
X102600547Y-80532822D01*
X102600541Y-80532827D01*
X102445327Y-80688041D01*
X102445322Y-80688047D01*
X102319423Y-80867849D01*
X102319419Y-80867857D01*
X102226655Y-81066791D01*
X102169839Y-81278824D01*
X102169838Y-81278831D01*
X102150708Y-81497497D01*
X102150708Y-81497502D01*
X100085500Y-81497502D01*
X100085500Y-76997502D01*
X102150708Y-76997502D01*
X102163599Y-77144858D01*
X102169839Y-77216174D01*
X102226653Y-77428203D01*
X102226654Y-77428206D01*
X102226655Y-77428208D01*
X102319419Y-77627142D01*
X102319423Y-77627150D01*
X102445322Y-77806952D01*
X102445327Y-77806958D01*
X102600541Y-77962172D01*
X102600547Y-77962177D01*
X102780349Y-78088076D01*
X102780351Y-78088077D01*
X102780354Y-78088079D01*
X102979297Y-78180847D01*
X103191326Y-78237661D01*
X103347521Y-78251326D01*
X103409998Y-78256792D01*
X103410000Y-78256792D01*
X103410002Y-78256792D01*
X103464668Y-78252009D01*
X103628674Y-78237661D01*
X103840703Y-78180847D01*
X104039646Y-78088079D01*
X104219457Y-77962174D01*
X104374674Y-77806957D01*
X104500579Y-77627146D01*
X104593347Y-77428203D01*
X104650161Y-77216174D01*
X104669292Y-76997502D01*
X108650708Y-76997502D01*
X108663599Y-77144858D01*
X108669839Y-77216174D01*
X108726653Y-77428203D01*
X108726654Y-77428206D01*
X108726655Y-77428208D01*
X108819419Y-77627142D01*
X108819423Y-77627150D01*
X108945322Y-77806952D01*
X108945327Y-77806958D01*
X109100541Y-77962172D01*
X109100547Y-77962177D01*
X109280349Y-78088076D01*
X109280351Y-78088077D01*
X109280354Y-78088079D01*
X109479297Y-78180847D01*
X109691326Y-78237661D01*
X109847521Y-78251326D01*
X109909998Y-78256792D01*
X109910000Y-78256792D01*
X109910002Y-78256792D01*
X109964668Y-78252009D01*
X110128674Y-78237661D01*
X110340703Y-78180847D01*
X110539646Y-78088079D01*
X110719457Y-77962174D01*
X110874674Y-77806957D01*
X111000579Y-77627146D01*
X111093347Y-77428203D01*
X111150161Y-77216174D01*
X111169292Y-76997500D01*
X111165664Y-76956035D01*
X111160650Y-76898723D01*
X111150161Y-76778826D01*
X111093347Y-76566797D01*
X111000579Y-76367854D01*
X111000577Y-76367851D01*
X111000576Y-76367849D01*
X110874677Y-76188047D01*
X110874672Y-76188041D01*
X110719458Y-76032827D01*
X110719452Y-76032822D01*
X110539650Y-75906923D01*
X110539642Y-75906919D01*
X110340708Y-75814155D01*
X110340706Y-75814154D01*
X110340703Y-75814153D01*
X110189885Y-75773740D01*
X110128675Y-75757339D01*
X110128668Y-75757338D01*
X109910002Y-75738208D01*
X109909998Y-75738208D01*
X109691331Y-75757338D01*
X109691324Y-75757339D01*
X109568902Y-75790142D01*
X109479297Y-75814153D01*
X109479295Y-75814153D01*
X109479291Y-75814155D01*
X109280357Y-75906919D01*
X109280349Y-75906923D01*
X109100547Y-76032822D01*
X109100541Y-76032827D01*
X108945327Y-76188041D01*
X108945322Y-76188047D01*
X108819423Y-76367849D01*
X108819419Y-76367857D01*
X108726655Y-76566791D01*
X108669839Y-76778824D01*
X108669838Y-76778831D01*
X108650708Y-76997497D01*
X108650708Y-76997502D01*
X104669292Y-76997502D01*
X104669292Y-76997500D01*
X104665664Y-76956035D01*
X104660650Y-76898723D01*
X104650161Y-76778826D01*
X104593347Y-76566797D01*
X104500579Y-76367854D01*
X104500577Y-76367851D01*
X104500576Y-76367849D01*
X104374677Y-76188047D01*
X104374672Y-76188041D01*
X104219458Y-76032827D01*
X104219452Y-76032822D01*
X104039650Y-75906923D01*
X104039642Y-75906919D01*
X103840708Y-75814155D01*
X103840706Y-75814154D01*
X103840703Y-75814153D01*
X103689885Y-75773740D01*
X103628675Y-75757339D01*
X103628668Y-75757338D01*
X103410002Y-75738208D01*
X103409998Y-75738208D01*
X103191331Y-75757338D01*
X103191324Y-75757339D01*
X103068902Y-75790142D01*
X102979297Y-75814153D01*
X102979295Y-75814153D01*
X102979291Y-75814155D01*
X102780357Y-75906919D01*
X102780349Y-75906923D01*
X102600547Y-76032822D01*
X102600541Y-76032827D01*
X102445327Y-76188041D01*
X102445322Y-76188047D01*
X102319423Y-76367849D01*
X102319419Y-76367857D01*
X102226655Y-76566791D01*
X102169839Y-76778824D01*
X102169838Y-76778831D01*
X102150708Y-76997497D01*
X102150708Y-76997502D01*
X100085500Y-76997502D01*
X100085500Y-66760000D01*
X136368628Y-66760000D01*
X136410316Y-66888306D01*
X136410317Y-66888307D01*
X136507536Y-67056694D01*
X136507535Y-67056694D01*
X136637639Y-67201190D01*
X136637642Y-67201192D01*
X136794950Y-67315484D01*
X136972587Y-67394573D01*
X137009999Y-67402524D01*
X137010000Y-67402524D01*
X137010000Y-66760000D01*
X136368628Y-66760000D01*
X100085500Y-66760000D01*
X100085500Y-66510000D01*
X137005102Y-66510000D01*
X137024505Y-66607545D01*
X137079760Y-66690240D01*
X137162455Y-66745495D01*
X137235376Y-66760000D01*
X137284624Y-66760000D01*
X137334500Y-66750078D01*
X137334500Y-66982870D01*
X137334501Y-66982876D01*
X137340908Y-67042483D01*
X137391202Y-67177328D01*
X137391203Y-67177329D01*
X137391204Y-67177331D01*
X137475646Y-67290131D01*
X137482769Y-67299646D01*
X137480529Y-67301322D01*
X137507161Y-67350072D01*
X137510000Y-67376454D01*
X137510000Y-67402524D01*
X137547410Y-67394574D01*
X137553063Y-67392737D01*
X137622904Y-67390735D01*
X137634721Y-67394480D01*
X137727517Y-67429091D01*
X137727516Y-67429091D01*
X137734444Y-67429835D01*
X137787127Y-67435500D01*
X138732872Y-67435499D01*
X138792483Y-67429091D01*
X138927331Y-67378796D01*
X139042546Y-67292546D01*
X139128796Y-67177331D01*
X139179091Y-67042483D01*
X139185500Y-66982873D01*
X139185499Y-66037128D01*
X139179091Y-65977517D01*
X139173790Y-65963305D01*
X139128797Y-65842671D01*
X139128793Y-65842664D01*
X139042547Y-65727455D01*
X139042544Y-65727452D01*
X138927335Y-65641206D01*
X138927328Y-65641202D01*
X138792482Y-65590908D01*
X138792483Y-65590908D01*
X138732883Y-65584501D01*
X138732881Y-65584500D01*
X138732873Y-65584500D01*
X138732864Y-65584500D01*
X137787129Y-65584500D01*
X137787123Y-65584501D01*
X137727516Y-65590908D01*
X137634727Y-65625517D01*
X137565035Y-65630501D01*
X137553079Y-65627267D01*
X137547414Y-65625426D01*
X137510000Y-65617473D01*
X137510000Y-65643546D01*
X137490315Y-65710585D01*
X137482564Y-65720202D01*
X137482768Y-65720355D01*
X137391206Y-65842664D01*
X137391202Y-65842671D01*
X137340908Y-65977517D01*
X137334501Y-66037116D01*
X137334501Y-66037123D01*
X137334500Y-66037135D01*
X137334500Y-66269921D01*
X137284624Y-66260000D01*
X137235376Y-66260000D01*
X137162455Y-66274505D01*
X137079760Y-66329760D01*
X137024505Y-66412455D01*
X137005102Y-66510000D01*
X100085500Y-66510000D01*
X100085500Y-66260000D01*
X136368628Y-66260000D01*
X137010000Y-66260000D01*
X137010000Y-65617473D01*
X136972585Y-65625426D01*
X136972580Y-65625428D01*
X136794953Y-65704513D01*
X136637643Y-65818806D01*
X136507535Y-65963305D01*
X136410317Y-66131692D01*
X136410316Y-66131693D01*
X136368628Y-66259999D01*
X136368628Y-66260000D01*
X100085500Y-66260000D01*
X100085500Y-65209500D01*
X100105185Y-65142461D01*
X100157989Y-65096706D01*
X100209500Y-65085500D01*
X166160500Y-65085500D01*
X166227539Y-65105185D01*
G37*
%TD.AperFunction*%
%TD*%
M02*
