%TF.GenerationSoftware,KiCad,Pcbnew,7.0.11+dfsg-1build4*%
%TF.CreationDate,2026-04-04T13:50:09+05:30*%
%TF.ProjectId,controller_board,636f6e74-726f-46c6-9c65-725f626f6172,rev?*%
%TF.SameCoordinates,Original*%
%TF.FileFunction,Copper,L1,Top*%
%TF.FilePolarity,Positive*%
%FSLAX46Y46*%
G04 Gerber Fmt 4.6, Leading zero omitted, Abs format (unit mm)*
G04 Created by KiCad (PCBNEW 7.0.11+dfsg-1build4) date 2026-04-04 13:50:09*
%MOMM*%
%LPD*%
G01*
G04 APERTURE LIST*
%TA.AperFunction,ComponentPad*%
%ADD10R,1.508000X1.508000*%
%TD*%
%TA.AperFunction,ComponentPad*%
%ADD11C,1.508000*%
%TD*%
%TA.AperFunction,SMDPad,CuDef*%
%ADD12R,0.920000X0.970000*%
%TD*%
%TA.AperFunction,ComponentPad*%
%ADD13C,3.000000*%
%TD*%
%TA.AperFunction,SMDPad,CuDef*%
%ADD14R,2.150000X0.950000*%
%TD*%
%TA.AperFunction,SMDPad,CuDef*%
%ADD15R,2.150000X3.250000*%
%TD*%
%TA.AperFunction,ComponentPad*%
%ADD16C,1.530000*%
%TD*%
%TA.AperFunction,ComponentPad*%
%ADD17R,0.850000X0.850000*%
%TD*%
%TA.AperFunction,ComponentPad*%
%ADD18O,0.850000X0.850000*%
%TD*%
%TA.AperFunction,ComponentPad*%
%ADD19R,1.700000X1.700000*%
%TD*%
%TA.AperFunction,ComponentPad*%
%ADD20C,1.700000*%
%TD*%
%TA.AperFunction,ViaPad*%
%ADD21C,0.600000*%
%TD*%
%TA.AperFunction,Conductor*%
%ADD22C,0.200000*%
%TD*%
G04 APERTURE END LIST*
D10*
%TO.P,S1,1*%
%TO.N,GND*%
X109910000Y-81497500D03*
D11*
%TO.P,S1,2*%
%TO.N,unconnected-(S1-Pad2)*%
X103410000Y-81497500D03*
%TO.P,S1,3*%
%TO.N,unconnected-(S1-Pad3)*%
X109910000Y-76997500D03*
%TO.P,S1,4*%
%TO.N,GPIO 0*%
X103410000Y-76997500D03*
%TD*%
D12*
%TO.P,C2,1*%
%TO.N,+5V*%
X134985000Y-74335000D03*
%TO.P,C2,2*%
%TO.N,GND*%
X136535000Y-74335000D03*
%TD*%
D10*
%TO.P,U3,1,GND*%
%TO.N,GND*%
X137985000Y-94995000D03*
D11*
%TO.P,U3,2,VCC_IN*%
%TO.N,+3.3V*%
X137985000Y-92455000D03*
%TO.P,U3,3,SCL*%
%TO.N,Net-(U3-SCL)*%
X137985000Y-89915000D03*
%TO.P,U3,4,SDA*%
X137985000Y-87375000D03*
D13*
%TO.P,U3,S1*%
%TO.N,N/C*%
X138485000Y-102185000D03*
%TO.P,U3,S2*%
X138485000Y-80185000D03*
%TO.P,U3,S3*%
X160485000Y-80185000D03*
%TO.P,U3,S4*%
X160485000Y-102185000D03*
%TD*%
D14*
%TO.P,U4,1,GND*%
%TO.N,GND*%
X140835000Y-69735000D03*
%TO.P,U4,2,OUT_2*%
%TO.N,+3.3V*%
X140835000Y-72035000D03*
%TO.P,U4,3,IN*%
%TO.N,+5V*%
X140835000Y-74335000D03*
D15*
%TO.P,U4,4,OUT_4*%
%TO.N,unconnected-(U4-OUT_4-Pad4)*%
X146635000Y-72035000D03*
%TD*%
D16*
%TO.P,U2,0,0*%
%TO.N,GPIO 0*%
X116365000Y-73165000D03*
%TO.P,U2,1,1*%
%TO.N,unconnected-(U2-Pad1)*%
X116365000Y-75705000D03*
%TO.P,U2,2,2*%
%TO.N,unconnected-(U2-Pad2)*%
X116365000Y-78245000D03*
%TO.P,U2,3,3*%
%TO.N,GPIO 3*%
X116365000Y-80785000D03*
%TO.P,U2,3.3V_1,3.3V_1*%
%TO.N,unconnected-(U2-Pad3.3V_1)*%
X121445000Y-103645000D03*
%TO.P,U2,3.3V_2,3.3V_2*%
%TO.N,unconnected-(U2-Pad3.3V_2)*%
X131605000Y-75705000D03*
%TO.P,U2,4,4*%
%TO.N,unconnected-(U2-Pad4)*%
X116365000Y-83325000D03*
%TO.P,U2,5,5*%
%TO.N,unconnected-(U2-Pad5)*%
X116365000Y-85865000D03*
%TO.P,U2,6,6*%
%TO.N,unconnected-(U2-Pad6)*%
X116365000Y-88405000D03*
%TO.P,U2,7,7*%
%TO.N,GPIO 7*%
X116365000Y-90945000D03*
%TO.P,U2,8,8*%
%TO.N,Net-(U1-~{CSN})*%
X116365000Y-93485000D03*
%TO.P,U2,9,9*%
%TO.N,Net-(U1-IRQ)*%
X116365000Y-96025000D03*
%TO.P,U2,10,10*%
%TO.N,Net-(U1-CE)*%
X116365000Y-98565000D03*
%TO.P,U2,11,11*%
%TO.N,Net-(U1-MOSI)*%
X116365000Y-101105000D03*
%TO.P,U2,12,12*%
%TO.N,Net-(U1-MISO)*%
X116365000Y-103645000D03*
%TO.P,U2,13,13*%
%TO.N,Net-(U1-SCK)*%
X131605000Y-103645000D03*
%TO.P,U2,14,14*%
%TO.N,unconnected-(U2-Pad14)*%
X131605000Y-101105000D03*
%TO.P,U2,15,15*%
%TO.N,unconnected-(U2-Pad15)*%
X131605000Y-98565000D03*
%TO.P,U2,16,16*%
%TO.N,unconnected-(U2-Pad16)*%
X131605000Y-96025000D03*
%TO.P,U2,17,17*%
%TO.N,unconnected-(U2-Pad17)*%
X131605000Y-93485000D03*
%TO.P,U2,18,18*%
%TO.N,Net-(U3-SCL)*%
X131605000Y-90945000D03*
%TO.P,U2,19,19*%
X131605000Y-88405000D03*
%TO.P,U2,20,20*%
%TO.N,unconnected-(U2-Pad20)*%
X131605000Y-85865000D03*
%TO.P,U2,21,21*%
%TO.N,unconnected-(U2-Pad21)*%
X131605000Y-83325000D03*
%TO.P,U2,22,22*%
%TO.N,unconnected-(U2-Pad22)*%
X131605000Y-80785000D03*
%TO.P,U2,23,23*%
%TO.N,unconnected-(U2-Pad23)*%
X131605000Y-78245000D03*
%TO.P,U2,G1,G1*%
%TO.N,unconnected-(U2-PadG1)*%
X116365000Y-70625000D03*
%TO.P,U2,G2,G2*%
%TO.N,unconnected-(U2-PadG2)*%
X123985000Y-103645000D03*
%TO.P,U2,G3,G3*%
%TO.N,GND*%
X131605000Y-73165000D03*
%TO.P,U2,ON-OFF,ON/OFF*%
%TO.N,unconnected-(U2-ON{slash}OFF-PadON-OFF)*%
X129065000Y-103645000D03*
%TO.P,U2,PGM,PROGRAM*%
%TO.N,unconnected-(U2-PROGRAM-PadPGM)*%
X126525000Y-103645000D03*
%TO.P,U2,VBAT,VBAT*%
%TO.N,unconnected-(U2-PadVBAT)*%
X118905000Y-103645000D03*
%TO.P,U2,VIN,VIN*%
%TO.N,+3.3V*%
X131605000Y-70625000D03*
%TD*%
D17*
%TO.P,J1,1,Pin_1*%
%TO.N,+5V*%
X138260000Y-66510000D03*
D18*
%TO.P,J1,2,Pin_2*%
%TO.N,GND*%
X137260000Y-66510000D03*
%TD*%
D19*
%TO.P,U1,1,GND*%
%TO.N,GND*%
X119149500Y-122835000D03*
D20*
%TO.P,U1,2,VCC*%
%TO.N,+3.3V*%
X116609500Y-122835000D03*
%TO.P,U1,3,CE*%
%TO.N,Net-(U1-CE)*%
X119149500Y-120295000D03*
%TO.P,U1,4,~{CSN}*%
%TO.N,Net-(U1-~{CSN})*%
X116609500Y-120295000D03*
%TO.P,U1,5,SCK*%
%TO.N,Net-(U1-SCK)*%
X119149500Y-117755000D03*
%TO.P,U1,6,MOSI*%
%TO.N,Net-(U1-MOSI)*%
X116609500Y-117755000D03*
%TO.P,U1,7,MISO*%
%TO.N,Net-(U1-MISO)*%
X119149500Y-115215000D03*
%TO.P,U1,8,IRQ*%
%TO.N,Net-(U1-IRQ)*%
X116609500Y-115215000D03*
%TD*%
D10*
%TO.P,S3,1*%
%TO.N,GND*%
X109885000Y-97410000D03*
D11*
%TO.P,S3,2*%
%TO.N,unconnected-(S3-Pad2)*%
X103385000Y-97410000D03*
%TO.P,S3,3*%
%TO.N,unconnected-(S3-Pad3)*%
X109885000Y-92910000D03*
%TO.P,S3,4*%
%TO.N,GPIO 7*%
X103385000Y-92910000D03*
%TD*%
D12*
%TO.P,C1,1*%
%TO.N,+3.3V*%
X135135000Y-70535000D03*
%TO.P,C1,2*%
%TO.N,GND*%
X136685000Y-70535000D03*
%TD*%
D10*
%TO.P,S2,1*%
%TO.N,GND*%
X110035000Y-89460000D03*
D11*
%TO.P,S2,2*%
%TO.N,unconnected-(S2-Pad2)*%
X103535000Y-89460000D03*
%TO.P,S2,3*%
%TO.N,unconnected-(S2-Pad3)*%
X110035000Y-84960000D03*
%TO.P,S2,4*%
%TO.N,GPIO 3*%
X103535000Y-84960000D03*
%TD*%
D21*
%TO.N,GND*%
X112185000Y-96910000D03*
X113035000Y-81535000D03*
X138235000Y-75985000D03*
X112185000Y-89435000D03*
X112785000Y-90260000D03*
X138210000Y-74285000D03*
%TO.N,+3.3V*%
X140260000Y-90210000D03*
X138310000Y-72385000D03*
X138860000Y-73010000D03*
X135560000Y-72360000D03*
%TO.N,Net-(U1-MOSI)*%
X114960000Y-102310000D03*
X115460000Y-107710000D03*
%TO.N,Net-(U1-IRQ)*%
X116560000Y-109510000D03*
X119360000Y-96610000D03*
%TO.N,Net-(U3-SCL)*%
X134935000Y-89910000D03*
X136685000Y-89910000D03*
%TD*%
D22*
%TO.N,GND*%
X112185000Y-89435000D02*
X112160000Y-89460000D01*
X112185000Y-96910000D02*
X111685000Y-97410000D01*
X129310000Y-75460000D02*
X131605000Y-73165000D01*
X134360000Y-107624500D02*
X119149500Y-122835000D01*
X114850000Y-79720000D02*
X116396138Y-79720000D01*
X137695000Y-94995000D02*
X137985000Y-94995000D01*
X135710000Y-78510000D02*
X135710000Y-93010000D01*
X112185000Y-89660000D02*
X112785000Y-90260000D01*
X135365000Y-73165000D02*
X131605000Y-73165000D01*
X118485000Y-75460000D02*
X129310000Y-75460000D01*
X137985000Y-94995000D02*
X137985000Y-98385000D01*
X137260000Y-66510000D02*
X137260000Y-67111040D01*
X113035000Y-81535000D02*
X114850000Y-79720000D01*
X109910000Y-81497500D02*
X112997500Y-81497500D01*
X136535000Y-74335000D02*
X138160000Y-74335000D01*
X136685000Y-70535000D02*
X136685000Y-74185000D01*
X138160000Y-74335000D02*
X138210000Y-74285000D01*
X118485000Y-77631138D02*
X118485000Y-75460000D01*
X136685000Y-70535000D02*
X140035000Y-70535000D01*
X137985000Y-98385000D02*
X134360000Y-102010000D01*
X134360000Y-102010000D02*
X134360000Y-107624500D01*
X135710000Y-93010000D02*
X137695000Y-94995000D01*
X140035000Y-70535000D02*
X140835000Y-69735000D01*
X139883960Y-69735000D02*
X140835000Y-69735000D01*
X112160000Y-89460000D02*
X110035000Y-89460000D01*
X138235000Y-75985000D02*
X135710000Y-78510000D01*
X116396138Y-79720000D02*
X118485000Y-77631138D01*
X137260000Y-67111040D02*
X139883960Y-69735000D01*
X112185000Y-89435000D02*
X112185000Y-89660000D01*
X111685000Y-97410000D02*
X109885000Y-97410000D01*
X136535000Y-74335000D02*
X135365000Y-73165000D01*
X112997500Y-81497500D02*
X113035000Y-81535000D01*
X136685000Y-74185000D02*
X136535000Y-74335000D01*
%TO.N,+5V*%
X142760000Y-69510000D02*
X142760000Y-73310000D01*
X139760000Y-66510000D02*
X142760000Y-69510000D01*
X135770000Y-75120000D02*
X134985000Y-74335000D01*
X140050000Y-75120000D02*
X135770000Y-75120000D01*
X141735000Y-74335000D02*
X140835000Y-74335000D01*
X142760000Y-73310000D02*
X141735000Y-74335000D01*
X140835000Y-74335000D02*
X140050000Y-75120000D01*
X138260000Y-66510000D02*
X139760000Y-66510000D01*
%TO.N,+3.3V*%
X140260000Y-90210000D02*
X140230000Y-90210000D01*
X135260000Y-102810000D02*
X135260000Y-109024500D01*
X135135000Y-70535000D02*
X131695000Y-70535000D01*
X139039000Y-93509000D02*
X139039000Y-99031000D01*
X135135000Y-71935000D02*
X135560000Y-72360000D01*
X131695000Y-70535000D02*
X131605000Y-70625000D01*
X138660000Y-72035000D02*
X140835000Y-72035000D01*
X135135000Y-70535000D02*
X135135000Y-71935000D01*
X138310000Y-72460000D02*
X138860000Y-73010000D01*
X138310000Y-72385000D02*
X138310000Y-72460000D01*
X135260000Y-109024500D02*
X120299500Y-123985000D01*
X137985000Y-92455000D02*
X139039000Y-93509000D01*
X139039000Y-99031000D02*
X135260000Y-102810000D01*
X117759500Y-123985000D02*
X116609500Y-122835000D01*
X138310000Y-72385000D02*
X138660000Y-72035000D01*
X120299500Y-123985000D02*
X117759500Y-123985000D01*
X140230000Y-90210000D02*
X137985000Y-92455000D01*
%TO.N,Net-(U1-CE)*%
X114360000Y-104310000D02*
X114360000Y-100570000D01*
X117759500Y-107709500D02*
X114360000Y-104310000D01*
X119149500Y-120295000D02*
X117759500Y-118905000D01*
X117759500Y-118905000D02*
X117759500Y-107709500D01*
X114360000Y-100570000D02*
X116365000Y-98565000D01*
%TO.N,Net-(U1-~{CSN})*%
X114560000Y-99010000D02*
X114560000Y-94110000D01*
X113760000Y-117445500D02*
X113760000Y-99810000D01*
X113760000Y-99810000D02*
X114560000Y-99010000D01*
X116609500Y-120295000D02*
X113760000Y-117445500D01*
X115185000Y-93485000D02*
X116365000Y-93485000D01*
X114560000Y-94110000D02*
X115185000Y-93485000D01*
%TO.N,Net-(U1-SCK)*%
X122115000Y-117755000D02*
X119149500Y-117755000D01*
X131605000Y-108265000D02*
X122115000Y-117755000D01*
X131605000Y-103645000D02*
X131605000Y-108265000D01*
%TO.N,Net-(U1-MOSI)*%
X115460000Y-116605500D02*
X115460000Y-107710000D01*
X114960000Y-102310000D02*
X115160000Y-102310000D01*
X115160000Y-102310000D02*
X116365000Y-101105000D01*
X116609500Y-117755000D02*
X115460000Y-116605500D01*
%TO.N,Net-(U1-MISO)*%
X119149500Y-106429500D02*
X116365000Y-103645000D01*
X119149500Y-115215000D02*
X119149500Y-106429500D01*
%TO.N,Net-(U1-IRQ)*%
X118775000Y-96025000D02*
X116365000Y-96025000D01*
X116609500Y-115215000D02*
X116609500Y-109559500D01*
X119360000Y-96610000D02*
X118775000Y-96025000D01*
X116609500Y-109559500D02*
X116560000Y-109510000D01*
%TO.N,GPIO 7*%
X116365000Y-90945000D02*
X105350000Y-90945000D01*
X105350000Y-90945000D02*
X103385000Y-92910000D01*
%TO.N,GPIO 3*%
X114598500Y-82551500D02*
X105943500Y-82551500D01*
X105943500Y-82551500D02*
X103535000Y-84960000D01*
X116365000Y-80785000D02*
X114598500Y-82551500D01*
%TO.N,GPIO 0*%
X116365000Y-73165000D02*
X107242500Y-73165000D01*
X107242500Y-73165000D02*
X103410000Y-76997500D01*
%TO.N,Net-(U3-SCL)*%
X132640000Y-89910000D02*
X131605000Y-90945000D01*
X136690000Y-89915000D02*
X136685000Y-89910000D01*
X132640000Y-89910000D02*
X132640000Y-89440000D01*
X132640000Y-89440000D02*
X131605000Y-88405000D01*
X137985000Y-89915000D02*
X136690000Y-89915000D01*
X137985000Y-87375000D02*
X137985000Y-89915000D01*
X134935000Y-89910000D02*
X132640000Y-89910000D01*
%TD*%
M02*
