%TF.GenerationSoftware,KiCad,Pcbnew,9.0.9-9.0.9~ubuntu24.04.1*%
%TF.CreationDate,2026-05-14T17:54:36+05:30*%
%TF.ProjectId,pcb_itr2,7063625f-6974-4723-922e-6b696361645f,rev?*%
%TF.SameCoordinates,Original*%
%TF.FileFunction,Legend,Top*%
%TF.FilePolarity,Positive*%
%FSLAX46Y46*%
G04 Gerber Fmt 4.6, Leading zero omitted, Abs format (unit mm)*
G04 Created by KiCad (PCBNEW 9.0.9-9.0.9~ubuntu24.04.1) date 2026-05-14 17:54:36*
%MOMM*%
%LPD*%
G01*
G04 APERTURE LIST*
%ADD10C,0.100000*%
%ADD11C,0.098425*%
%ADD12C,0.150000*%
%ADD13C,0.125000*%
%ADD14C,0.120000*%
%ADD15C,0.152400*%
%ADD16C,0.127000*%
%ADD17C,0.200000*%
G04 APERTURE END LIST*
D10*
X125356866Y-68884836D02*
X125356866Y-69265789D01*
X125484836Y-72743133D02*
X125865789Y-72743133D01*
X125675312Y-72933609D02*
X125675312Y-72552657D01*
D11*
X126834383Y-89939519D02*
X126815635Y-89958267D01*
X126815635Y-89958267D02*
X126759392Y-89977014D01*
X126759392Y-89977014D02*
X126721897Y-89977014D01*
X126721897Y-89977014D02*
X126665654Y-89958267D01*
X126665654Y-89958267D02*
X126628159Y-89920771D01*
X126628159Y-89920771D02*
X126609411Y-89883276D01*
X126609411Y-89883276D02*
X126590663Y-89808285D01*
X126590663Y-89808285D02*
X126590663Y-89752042D01*
X126590663Y-89752042D02*
X126609411Y-89677052D01*
X126609411Y-89677052D02*
X126628159Y-89639556D01*
X126628159Y-89639556D02*
X126665654Y-89602061D01*
X126665654Y-89602061D02*
X126721897Y-89583313D01*
X126721897Y-89583313D02*
X126759392Y-89583313D01*
X126759392Y-89583313D02*
X126815635Y-89602061D01*
X126815635Y-89602061D02*
X126834383Y-89620809D01*
X126984364Y-89620809D02*
X127003112Y-89602061D01*
X127003112Y-89602061D02*
X127040607Y-89583313D01*
X127040607Y-89583313D02*
X127134346Y-89583313D01*
X127134346Y-89583313D02*
X127171841Y-89602061D01*
X127171841Y-89602061D02*
X127190589Y-89620809D01*
X127190589Y-89620809D02*
X127209336Y-89658304D01*
X127209336Y-89658304D02*
X127209336Y-89695799D01*
X127209336Y-89695799D02*
X127190589Y-89752042D01*
X127190589Y-89752042D02*
X126965617Y-89977014D01*
X126965617Y-89977014D02*
X127209336Y-89977014D01*
D12*
X137166666Y-92534819D02*
X137166666Y-93249104D01*
X137166666Y-93249104D02*
X137119047Y-93391961D01*
X137119047Y-93391961D02*
X137023809Y-93487200D01*
X137023809Y-93487200D02*
X136880952Y-93534819D01*
X136880952Y-93534819D02*
X136785714Y-93534819D01*
X137547619Y-92534819D02*
X138166666Y-92534819D01*
X138166666Y-92534819D02*
X137833333Y-92915771D01*
X137833333Y-92915771D02*
X137976190Y-92915771D01*
X137976190Y-92915771D02*
X138071428Y-92963390D01*
X138071428Y-92963390D02*
X138119047Y-93011009D01*
X138119047Y-93011009D02*
X138166666Y-93106247D01*
X138166666Y-93106247D02*
X138166666Y-93344342D01*
X138166666Y-93344342D02*
X138119047Y-93439580D01*
X138119047Y-93439580D02*
X138071428Y-93487200D01*
X138071428Y-93487200D02*
X137976190Y-93534819D01*
X137976190Y-93534819D02*
X137690476Y-93534819D01*
X137690476Y-93534819D02*
X137595238Y-93487200D01*
X137595238Y-93487200D02*
X137547619Y-93439580D01*
D10*
X122010972Y-83722095D02*
X121844306Y-83484000D01*
X121725258Y-83722095D02*
X121725258Y-83222095D01*
X121725258Y-83222095D02*
X121915734Y-83222095D01*
X121915734Y-83222095D02*
X121963353Y-83245905D01*
X121963353Y-83245905D02*
X121987163Y-83269714D01*
X121987163Y-83269714D02*
X122010972Y-83317333D01*
X122010972Y-83317333D02*
X122010972Y-83388762D01*
X122010972Y-83388762D02*
X121987163Y-83436381D01*
X121987163Y-83436381D02*
X121963353Y-83460190D01*
X121963353Y-83460190D02*
X121915734Y-83484000D01*
X121915734Y-83484000D02*
X121725258Y-83484000D01*
X122296687Y-83436381D02*
X122249068Y-83412571D01*
X122249068Y-83412571D02*
X122225258Y-83388762D01*
X122225258Y-83388762D02*
X122201449Y-83341143D01*
X122201449Y-83341143D02*
X122201449Y-83317333D01*
X122201449Y-83317333D02*
X122225258Y-83269714D01*
X122225258Y-83269714D02*
X122249068Y-83245905D01*
X122249068Y-83245905D02*
X122296687Y-83222095D01*
X122296687Y-83222095D02*
X122391925Y-83222095D01*
X122391925Y-83222095D02*
X122439544Y-83245905D01*
X122439544Y-83245905D02*
X122463353Y-83269714D01*
X122463353Y-83269714D02*
X122487163Y-83317333D01*
X122487163Y-83317333D02*
X122487163Y-83341143D01*
X122487163Y-83341143D02*
X122463353Y-83388762D01*
X122463353Y-83388762D02*
X122439544Y-83412571D01*
X122439544Y-83412571D02*
X122391925Y-83436381D01*
X122391925Y-83436381D02*
X122296687Y-83436381D01*
X122296687Y-83436381D02*
X122249068Y-83460190D01*
X122249068Y-83460190D02*
X122225258Y-83484000D01*
X122225258Y-83484000D02*
X122201449Y-83531619D01*
X122201449Y-83531619D02*
X122201449Y-83626857D01*
X122201449Y-83626857D02*
X122225258Y-83674476D01*
X122225258Y-83674476D02*
X122249068Y-83698286D01*
X122249068Y-83698286D02*
X122296687Y-83722095D01*
X122296687Y-83722095D02*
X122391925Y-83722095D01*
X122391925Y-83722095D02*
X122439544Y-83698286D01*
X122439544Y-83698286D02*
X122463353Y-83674476D01*
X122463353Y-83674476D02*
X122487163Y-83626857D01*
X122487163Y-83626857D02*
X122487163Y-83531619D01*
X122487163Y-83531619D02*
X122463353Y-83484000D01*
X122463353Y-83484000D02*
X122439544Y-83460190D01*
X122439544Y-83460190D02*
X122391925Y-83436381D01*
X122003571Y-66326109D02*
X121836905Y-66088014D01*
X121717857Y-66326109D02*
X121717857Y-65826109D01*
X121717857Y-65826109D02*
X121908333Y-65826109D01*
X121908333Y-65826109D02*
X121955952Y-65849919D01*
X121955952Y-65849919D02*
X121979762Y-65873728D01*
X121979762Y-65873728D02*
X122003571Y-65921347D01*
X122003571Y-65921347D02*
X122003571Y-65992776D01*
X122003571Y-65992776D02*
X121979762Y-66040395D01*
X121979762Y-66040395D02*
X121955952Y-66064204D01*
X121955952Y-66064204D02*
X121908333Y-66088014D01*
X121908333Y-66088014D02*
X121717857Y-66088014D01*
X122479762Y-66326109D02*
X122194048Y-66326109D01*
X122336905Y-66326109D02*
X122336905Y-65826109D01*
X122336905Y-65826109D02*
X122289286Y-65897538D01*
X122289286Y-65897538D02*
X122241667Y-65945157D01*
X122241667Y-65945157D02*
X122194048Y-65968966D01*
X122670238Y-65873728D02*
X122694047Y-65849919D01*
X122694047Y-65849919D02*
X122741666Y-65826109D01*
X122741666Y-65826109D02*
X122860714Y-65826109D01*
X122860714Y-65826109D02*
X122908333Y-65849919D01*
X122908333Y-65849919D02*
X122932142Y-65873728D01*
X122932142Y-65873728D02*
X122955952Y-65921347D01*
X122955952Y-65921347D02*
X122955952Y-65968966D01*
X122955952Y-65968966D02*
X122932142Y-66040395D01*
X122932142Y-66040395D02*
X122646428Y-66326109D01*
X122646428Y-66326109D02*
X122955952Y-66326109D01*
D13*
X119333333Y-90224809D02*
X119333333Y-90581952D01*
X119333333Y-90581952D02*
X119309524Y-90653380D01*
X119309524Y-90653380D02*
X119261905Y-90701000D01*
X119261905Y-90701000D02*
X119190476Y-90724809D01*
X119190476Y-90724809D02*
X119142857Y-90724809D01*
X119833333Y-90724809D02*
X119547619Y-90724809D01*
X119690476Y-90724809D02*
X119690476Y-90224809D01*
X119690476Y-90224809D02*
X119642857Y-90296238D01*
X119642857Y-90296238D02*
X119595238Y-90343857D01*
X119595238Y-90343857D02*
X119547619Y-90367666D01*
X138016666Y-72024809D02*
X137850000Y-71786714D01*
X137730952Y-72024809D02*
X137730952Y-71524809D01*
X137730952Y-71524809D02*
X137921428Y-71524809D01*
X137921428Y-71524809D02*
X137969047Y-71548619D01*
X137969047Y-71548619D02*
X137992857Y-71572428D01*
X137992857Y-71572428D02*
X138016666Y-71620047D01*
X138016666Y-71620047D02*
X138016666Y-71691476D01*
X138016666Y-71691476D02*
X137992857Y-71739095D01*
X137992857Y-71739095D02*
X137969047Y-71762904D01*
X137969047Y-71762904D02*
X137921428Y-71786714D01*
X137921428Y-71786714D02*
X137730952Y-71786714D01*
X138445238Y-71691476D02*
X138445238Y-72024809D01*
X138326190Y-71501000D02*
X138207143Y-71858142D01*
X138207143Y-71858142D02*
X138516666Y-71858142D01*
D11*
X131234383Y-89839519D02*
X131215635Y-89858267D01*
X131215635Y-89858267D02*
X131159392Y-89877014D01*
X131159392Y-89877014D02*
X131121897Y-89877014D01*
X131121897Y-89877014D02*
X131065654Y-89858267D01*
X131065654Y-89858267D02*
X131028159Y-89820771D01*
X131028159Y-89820771D02*
X131009411Y-89783276D01*
X131009411Y-89783276D02*
X130990663Y-89708285D01*
X130990663Y-89708285D02*
X130990663Y-89652042D01*
X130990663Y-89652042D02*
X131009411Y-89577052D01*
X131009411Y-89577052D02*
X131028159Y-89539556D01*
X131028159Y-89539556D02*
X131065654Y-89502061D01*
X131065654Y-89502061D02*
X131121897Y-89483313D01*
X131121897Y-89483313D02*
X131159392Y-89483313D01*
X131159392Y-89483313D02*
X131215635Y-89502061D01*
X131215635Y-89502061D02*
X131234383Y-89520809D01*
X131609336Y-89877014D02*
X131384364Y-89877014D01*
X131496850Y-89877014D02*
X131496850Y-89483313D01*
X131496850Y-89483313D02*
X131459355Y-89539556D01*
X131459355Y-89539556D02*
X131421860Y-89577052D01*
X131421860Y-89577052D02*
X131384364Y-89595799D01*
X131616179Y-75228262D02*
X131634927Y-75247010D01*
X131634927Y-75247010D02*
X131653674Y-75303253D01*
X131653674Y-75303253D02*
X131653674Y-75340748D01*
X131653674Y-75340748D02*
X131634927Y-75396991D01*
X131634927Y-75396991D02*
X131597431Y-75434487D01*
X131597431Y-75434487D02*
X131559936Y-75453234D01*
X131559936Y-75453234D02*
X131484945Y-75471982D01*
X131484945Y-75471982D02*
X131428702Y-75471982D01*
X131428702Y-75471982D02*
X131353712Y-75453234D01*
X131353712Y-75453234D02*
X131316216Y-75434487D01*
X131316216Y-75434487D02*
X131278721Y-75396991D01*
X131278721Y-75396991D02*
X131259973Y-75340748D01*
X131259973Y-75340748D02*
X131259973Y-75303253D01*
X131259973Y-75303253D02*
X131278721Y-75247010D01*
X131278721Y-75247010D02*
X131297469Y-75228262D01*
X131259973Y-74890804D02*
X131259973Y-74965795D01*
X131259973Y-74965795D02*
X131278721Y-75003290D01*
X131278721Y-75003290D02*
X131297469Y-75022038D01*
X131297469Y-75022038D02*
X131353712Y-75059533D01*
X131353712Y-75059533D02*
X131428702Y-75078281D01*
X131428702Y-75078281D02*
X131578684Y-75078281D01*
X131578684Y-75078281D02*
X131616179Y-75059533D01*
X131616179Y-75059533D02*
X131634927Y-75040786D01*
X131634927Y-75040786D02*
X131653674Y-75003290D01*
X131653674Y-75003290D02*
X131653674Y-74928300D01*
X131653674Y-74928300D02*
X131634927Y-74890804D01*
X131634927Y-74890804D02*
X131616179Y-74872057D01*
X131616179Y-74872057D02*
X131578684Y-74853309D01*
X131578684Y-74853309D02*
X131484945Y-74853309D01*
X131484945Y-74853309D02*
X131447450Y-74872057D01*
X131447450Y-74872057D02*
X131428702Y-74890804D01*
X131428702Y-74890804D02*
X131409955Y-74928300D01*
X131409955Y-74928300D02*
X131409955Y-75003290D01*
X131409955Y-75003290D02*
X131428702Y-75040786D01*
X131428702Y-75040786D02*
X131447450Y-75059533D01*
X131447450Y-75059533D02*
X131484945Y-75078281D01*
D10*
X122135972Y-80497095D02*
X121969306Y-80259000D01*
X121850258Y-80497095D02*
X121850258Y-79997095D01*
X121850258Y-79997095D02*
X122040734Y-79997095D01*
X122040734Y-79997095D02*
X122088353Y-80020905D01*
X122088353Y-80020905D02*
X122112163Y-80044714D01*
X122112163Y-80044714D02*
X122135972Y-80092333D01*
X122135972Y-80092333D02*
X122135972Y-80163762D01*
X122135972Y-80163762D02*
X122112163Y-80211381D01*
X122112163Y-80211381D02*
X122088353Y-80235190D01*
X122088353Y-80235190D02*
X122040734Y-80259000D01*
X122040734Y-80259000D02*
X121850258Y-80259000D01*
X122564544Y-79997095D02*
X122469306Y-79997095D01*
X122469306Y-79997095D02*
X122421687Y-80020905D01*
X122421687Y-80020905D02*
X122397877Y-80044714D01*
X122397877Y-80044714D02*
X122350258Y-80116143D01*
X122350258Y-80116143D02*
X122326449Y-80211381D01*
X122326449Y-80211381D02*
X122326449Y-80401857D01*
X122326449Y-80401857D02*
X122350258Y-80449476D01*
X122350258Y-80449476D02*
X122374068Y-80473286D01*
X122374068Y-80473286D02*
X122421687Y-80497095D01*
X122421687Y-80497095D02*
X122516925Y-80497095D01*
X122516925Y-80497095D02*
X122564544Y-80473286D01*
X122564544Y-80473286D02*
X122588353Y-80449476D01*
X122588353Y-80449476D02*
X122612163Y-80401857D01*
X122612163Y-80401857D02*
X122612163Y-80282809D01*
X122612163Y-80282809D02*
X122588353Y-80235190D01*
X122588353Y-80235190D02*
X122564544Y-80211381D01*
X122564544Y-80211381D02*
X122516925Y-80187571D01*
X122516925Y-80187571D02*
X122421687Y-80187571D01*
X122421687Y-80187571D02*
X122374068Y-80211381D01*
X122374068Y-80211381D02*
X122350258Y-80235190D01*
X122350258Y-80235190D02*
X122326449Y-80282809D01*
D11*
X121619518Y-74660216D02*
X121638266Y-74678964D01*
X121638266Y-74678964D02*
X121657013Y-74735207D01*
X121657013Y-74735207D02*
X121657013Y-74772702D01*
X121657013Y-74772702D02*
X121638266Y-74828945D01*
X121638266Y-74828945D02*
X121600770Y-74866441D01*
X121600770Y-74866441D02*
X121563275Y-74885188D01*
X121563275Y-74885188D02*
X121488284Y-74903936D01*
X121488284Y-74903936D02*
X121432041Y-74903936D01*
X121432041Y-74903936D02*
X121357051Y-74885188D01*
X121357051Y-74885188D02*
X121319555Y-74866441D01*
X121319555Y-74866441D02*
X121282060Y-74828945D01*
X121282060Y-74828945D02*
X121263312Y-74772702D01*
X121263312Y-74772702D02*
X121263312Y-74735207D01*
X121263312Y-74735207D02*
X121282060Y-74678964D01*
X121282060Y-74678964D02*
X121300808Y-74660216D01*
X121432041Y-74435244D02*
X121413294Y-74472740D01*
X121413294Y-74472740D02*
X121394546Y-74491487D01*
X121394546Y-74491487D02*
X121357051Y-74510235D01*
X121357051Y-74510235D02*
X121338303Y-74510235D01*
X121338303Y-74510235D02*
X121300808Y-74491487D01*
X121300808Y-74491487D02*
X121282060Y-74472740D01*
X121282060Y-74472740D02*
X121263312Y-74435244D01*
X121263312Y-74435244D02*
X121263312Y-74360254D01*
X121263312Y-74360254D02*
X121282060Y-74322758D01*
X121282060Y-74322758D02*
X121300808Y-74304011D01*
X121300808Y-74304011D02*
X121338303Y-74285263D01*
X121338303Y-74285263D02*
X121357051Y-74285263D01*
X121357051Y-74285263D02*
X121394546Y-74304011D01*
X121394546Y-74304011D02*
X121413294Y-74322758D01*
X121413294Y-74322758D02*
X121432041Y-74360254D01*
X121432041Y-74360254D02*
X121432041Y-74435244D01*
X121432041Y-74435244D02*
X121450789Y-74472740D01*
X121450789Y-74472740D02*
X121469537Y-74491487D01*
X121469537Y-74491487D02*
X121507032Y-74510235D01*
X121507032Y-74510235D02*
X121582023Y-74510235D01*
X121582023Y-74510235D02*
X121619518Y-74491487D01*
X121619518Y-74491487D02*
X121638266Y-74472740D01*
X121638266Y-74472740D02*
X121657013Y-74435244D01*
X121657013Y-74435244D02*
X121657013Y-74360254D01*
X121657013Y-74360254D02*
X121638266Y-74322758D01*
X121638266Y-74322758D02*
X121619518Y-74304011D01*
X121619518Y-74304011D02*
X121582023Y-74285263D01*
X121582023Y-74285263D02*
X121507032Y-74285263D01*
X121507032Y-74285263D02*
X121469537Y-74304011D01*
X121469537Y-74304011D02*
X121450789Y-74322758D01*
X121450789Y-74322758D02*
X121432041Y-74360254D01*
D13*
X128916666Y-89924809D02*
X128750000Y-89686714D01*
X128630952Y-89924809D02*
X128630952Y-89424809D01*
X128630952Y-89424809D02*
X128821428Y-89424809D01*
X128821428Y-89424809D02*
X128869047Y-89448619D01*
X128869047Y-89448619D02*
X128892857Y-89472428D01*
X128892857Y-89472428D02*
X128916666Y-89520047D01*
X128916666Y-89520047D02*
X128916666Y-89591476D01*
X128916666Y-89591476D02*
X128892857Y-89639095D01*
X128892857Y-89639095D02*
X128869047Y-89662904D01*
X128869047Y-89662904D02*
X128821428Y-89686714D01*
X128821428Y-89686714D02*
X128630952Y-89686714D01*
X129107143Y-89472428D02*
X129130952Y-89448619D01*
X129130952Y-89448619D02*
X129178571Y-89424809D01*
X129178571Y-89424809D02*
X129297619Y-89424809D01*
X129297619Y-89424809D02*
X129345238Y-89448619D01*
X129345238Y-89448619D02*
X129369047Y-89472428D01*
X129369047Y-89472428D02*
X129392857Y-89520047D01*
X129392857Y-89520047D02*
X129392857Y-89567666D01*
X129392857Y-89567666D02*
X129369047Y-89639095D01*
X129369047Y-89639095D02*
X129083333Y-89924809D01*
X129083333Y-89924809D02*
X129392857Y-89924809D01*
X119725189Y-73698647D02*
X119320427Y-73698647D01*
X119320427Y-73698647D02*
X119272808Y-73722457D01*
X119272808Y-73722457D02*
X119248999Y-73746266D01*
X119248999Y-73746266D02*
X119225189Y-73793885D01*
X119225189Y-73793885D02*
X119225189Y-73889123D01*
X119225189Y-73889123D02*
X119248999Y-73936742D01*
X119248999Y-73936742D02*
X119272808Y-73960552D01*
X119272808Y-73960552D02*
X119320427Y-73984361D01*
X119320427Y-73984361D02*
X119725189Y-73984361D01*
X119677570Y-74198648D02*
X119701379Y-74222457D01*
X119701379Y-74222457D02*
X119725189Y-74270076D01*
X119725189Y-74270076D02*
X119725189Y-74389124D01*
X119725189Y-74389124D02*
X119701379Y-74436743D01*
X119701379Y-74436743D02*
X119677570Y-74460552D01*
X119677570Y-74460552D02*
X119629951Y-74484362D01*
X119629951Y-74484362D02*
X119582332Y-74484362D01*
X119582332Y-74484362D02*
X119510903Y-74460552D01*
X119510903Y-74460552D02*
X119225189Y-74174838D01*
X119225189Y-74174838D02*
X119225189Y-74484362D01*
D12*
X132173809Y-65553628D02*
X132173809Y-66029819D01*
X131840476Y-65029819D02*
X132173809Y-65553628D01*
X132173809Y-65553628D02*
X132507142Y-65029819D01*
X133364285Y-66029819D02*
X132792857Y-66029819D01*
X133078571Y-66029819D02*
X133078571Y-65029819D01*
X133078571Y-65029819D02*
X132983333Y-65172676D01*
X132983333Y-65172676D02*
X132888095Y-65267914D01*
X132888095Y-65267914D02*
X132792857Y-65315533D01*
D10*
X124260972Y-77522095D02*
X124094306Y-77284000D01*
X123975258Y-77522095D02*
X123975258Y-77022095D01*
X123975258Y-77022095D02*
X124165734Y-77022095D01*
X124165734Y-77022095D02*
X124213353Y-77045905D01*
X124213353Y-77045905D02*
X124237163Y-77069714D01*
X124237163Y-77069714D02*
X124260972Y-77117333D01*
X124260972Y-77117333D02*
X124260972Y-77188762D01*
X124260972Y-77188762D02*
X124237163Y-77236381D01*
X124237163Y-77236381D02*
X124213353Y-77260190D01*
X124213353Y-77260190D02*
X124165734Y-77284000D01*
X124165734Y-77284000D02*
X123975258Y-77284000D01*
X124713353Y-77022095D02*
X124475258Y-77022095D01*
X124475258Y-77022095D02*
X124451449Y-77260190D01*
X124451449Y-77260190D02*
X124475258Y-77236381D01*
X124475258Y-77236381D02*
X124522877Y-77212571D01*
X124522877Y-77212571D02*
X124641925Y-77212571D01*
X124641925Y-77212571D02*
X124689544Y-77236381D01*
X124689544Y-77236381D02*
X124713353Y-77260190D01*
X124713353Y-77260190D02*
X124737163Y-77307809D01*
X124737163Y-77307809D02*
X124737163Y-77426857D01*
X124737163Y-77426857D02*
X124713353Y-77474476D01*
X124713353Y-77474476D02*
X124689544Y-77498286D01*
X124689544Y-77498286D02*
X124641925Y-77522095D01*
X124641925Y-77522095D02*
X124522877Y-77522095D01*
X124522877Y-77522095D02*
X124475258Y-77498286D01*
X124475258Y-77498286D02*
X124451449Y-77474476D01*
D11*
X129216179Y-75203262D02*
X129234927Y-75222010D01*
X129234927Y-75222010D02*
X129253674Y-75278253D01*
X129253674Y-75278253D02*
X129253674Y-75315748D01*
X129253674Y-75315748D02*
X129234927Y-75371991D01*
X129234927Y-75371991D02*
X129197431Y-75409487D01*
X129197431Y-75409487D02*
X129159936Y-75428234D01*
X129159936Y-75428234D02*
X129084945Y-75446982D01*
X129084945Y-75446982D02*
X129028702Y-75446982D01*
X129028702Y-75446982D02*
X128953712Y-75428234D01*
X128953712Y-75428234D02*
X128916216Y-75409487D01*
X128916216Y-75409487D02*
X128878721Y-75371991D01*
X128878721Y-75371991D02*
X128859973Y-75315748D01*
X128859973Y-75315748D02*
X128859973Y-75278253D01*
X128859973Y-75278253D02*
X128878721Y-75222010D01*
X128878721Y-75222010D02*
X128897469Y-75203262D01*
X128991207Y-74865804D02*
X129253674Y-74865804D01*
X128841226Y-74959543D02*
X129122441Y-75053281D01*
X129122441Y-75053281D02*
X129122441Y-74809561D01*
D10*
X117526109Y-67721428D02*
X117288014Y-67888094D01*
X117526109Y-68007142D02*
X117026109Y-68007142D01*
X117026109Y-68007142D02*
X117026109Y-67816666D01*
X117026109Y-67816666D02*
X117049919Y-67769047D01*
X117049919Y-67769047D02*
X117073728Y-67745237D01*
X117073728Y-67745237D02*
X117121347Y-67721428D01*
X117121347Y-67721428D02*
X117192776Y-67721428D01*
X117192776Y-67721428D02*
X117240395Y-67745237D01*
X117240395Y-67745237D02*
X117264204Y-67769047D01*
X117264204Y-67769047D02*
X117288014Y-67816666D01*
X117288014Y-67816666D02*
X117288014Y-68007142D01*
X117526109Y-67245237D02*
X117526109Y-67530951D01*
X117526109Y-67388094D02*
X117026109Y-67388094D01*
X117026109Y-67388094D02*
X117097538Y-67435713D01*
X117097538Y-67435713D02*
X117145157Y-67483332D01*
X117145157Y-67483332D02*
X117168966Y-67530951D01*
X117526109Y-66769047D02*
X117526109Y-67054761D01*
X117526109Y-66911904D02*
X117026109Y-66911904D01*
X117026109Y-66911904D02*
X117097538Y-66959523D01*
X117097538Y-66959523D02*
X117145157Y-67007142D01*
X117145157Y-67007142D02*
X117168966Y-67054761D01*
D11*
X134016179Y-75228262D02*
X134034927Y-75247010D01*
X134034927Y-75247010D02*
X134053674Y-75303253D01*
X134053674Y-75303253D02*
X134053674Y-75340748D01*
X134053674Y-75340748D02*
X134034927Y-75396991D01*
X134034927Y-75396991D02*
X133997431Y-75434487D01*
X133997431Y-75434487D02*
X133959936Y-75453234D01*
X133959936Y-75453234D02*
X133884945Y-75471982D01*
X133884945Y-75471982D02*
X133828702Y-75471982D01*
X133828702Y-75471982D02*
X133753712Y-75453234D01*
X133753712Y-75453234D02*
X133716216Y-75434487D01*
X133716216Y-75434487D02*
X133678721Y-75396991D01*
X133678721Y-75396991D02*
X133659973Y-75340748D01*
X133659973Y-75340748D02*
X133659973Y-75303253D01*
X133659973Y-75303253D02*
X133678721Y-75247010D01*
X133678721Y-75247010D02*
X133697469Y-75228262D01*
X133659973Y-74872057D02*
X133659973Y-75059533D01*
X133659973Y-75059533D02*
X133847450Y-75078281D01*
X133847450Y-75078281D02*
X133828702Y-75059533D01*
X133828702Y-75059533D02*
X133809955Y-75022038D01*
X133809955Y-75022038D02*
X133809955Y-74928300D01*
X133809955Y-74928300D02*
X133828702Y-74890804D01*
X133828702Y-74890804D02*
X133847450Y-74872057D01*
X133847450Y-74872057D02*
X133884945Y-74853309D01*
X133884945Y-74853309D02*
X133978684Y-74853309D01*
X133978684Y-74853309D02*
X134016179Y-74872057D01*
X134016179Y-74872057D02*
X134034927Y-74890804D01*
X134034927Y-74890804D02*
X134053674Y-74928300D01*
X134053674Y-74928300D02*
X134053674Y-75022038D01*
X134053674Y-75022038D02*
X134034927Y-75059533D01*
X134034927Y-75059533D02*
X134016179Y-75078281D01*
X127286179Y-74988262D02*
X127304927Y-75007010D01*
X127304927Y-75007010D02*
X127323674Y-75063253D01*
X127323674Y-75063253D02*
X127323674Y-75100748D01*
X127323674Y-75100748D02*
X127304927Y-75156991D01*
X127304927Y-75156991D02*
X127267431Y-75194487D01*
X127267431Y-75194487D02*
X127229936Y-75213234D01*
X127229936Y-75213234D02*
X127154945Y-75231982D01*
X127154945Y-75231982D02*
X127098702Y-75231982D01*
X127098702Y-75231982D02*
X127023712Y-75213234D01*
X127023712Y-75213234D02*
X126986216Y-75194487D01*
X126986216Y-75194487D02*
X126948721Y-75156991D01*
X126948721Y-75156991D02*
X126929973Y-75100748D01*
X126929973Y-75100748D02*
X126929973Y-75063253D01*
X126929973Y-75063253D02*
X126948721Y-75007010D01*
X126948721Y-75007010D02*
X126967469Y-74988262D01*
X126929973Y-74857029D02*
X126929973Y-74613309D01*
X126929973Y-74613309D02*
X127079955Y-74744543D01*
X127079955Y-74744543D02*
X127079955Y-74688300D01*
X127079955Y-74688300D02*
X127098702Y-74650804D01*
X127098702Y-74650804D02*
X127117450Y-74632057D01*
X127117450Y-74632057D02*
X127154945Y-74613309D01*
X127154945Y-74613309D02*
X127248684Y-74613309D01*
X127248684Y-74613309D02*
X127286179Y-74632057D01*
X127286179Y-74632057D02*
X127304927Y-74650804D01*
X127304927Y-74650804D02*
X127323674Y-74688300D01*
X127323674Y-74688300D02*
X127323674Y-74800786D01*
X127323674Y-74800786D02*
X127304927Y-74838281D01*
X127304927Y-74838281D02*
X127286179Y-74857029D01*
D10*
X137333333Y-73166109D02*
X137333333Y-73523252D01*
X137333333Y-73523252D02*
X137309524Y-73594680D01*
X137309524Y-73594680D02*
X137261905Y-73642300D01*
X137261905Y-73642300D02*
X137190476Y-73666109D01*
X137190476Y-73666109D02*
X137142857Y-73666109D01*
X137547619Y-73213728D02*
X137571428Y-73189919D01*
X137571428Y-73189919D02*
X137619047Y-73166109D01*
X137619047Y-73166109D02*
X137738095Y-73166109D01*
X137738095Y-73166109D02*
X137785714Y-73189919D01*
X137785714Y-73189919D02*
X137809523Y-73213728D01*
X137809523Y-73213728D02*
X137833333Y-73261347D01*
X137833333Y-73261347D02*
X137833333Y-73308966D01*
X137833333Y-73308966D02*
X137809523Y-73380395D01*
X137809523Y-73380395D02*
X137523809Y-73666109D01*
X137523809Y-73666109D02*
X137833333Y-73666109D01*
X122210972Y-82172095D02*
X122044306Y-81934000D01*
X121925258Y-82172095D02*
X121925258Y-81672095D01*
X121925258Y-81672095D02*
X122115734Y-81672095D01*
X122115734Y-81672095D02*
X122163353Y-81695905D01*
X122163353Y-81695905D02*
X122187163Y-81719714D01*
X122187163Y-81719714D02*
X122210972Y-81767333D01*
X122210972Y-81767333D02*
X122210972Y-81838762D01*
X122210972Y-81838762D02*
X122187163Y-81886381D01*
X122187163Y-81886381D02*
X122163353Y-81910190D01*
X122163353Y-81910190D02*
X122115734Y-81934000D01*
X122115734Y-81934000D02*
X121925258Y-81934000D01*
X122377639Y-81672095D02*
X122710972Y-81672095D01*
X122710972Y-81672095D02*
X122496687Y-82172095D01*
X117526109Y-69421428D02*
X117288014Y-69588094D01*
X117526109Y-69707142D02*
X117026109Y-69707142D01*
X117026109Y-69707142D02*
X117026109Y-69516666D01*
X117026109Y-69516666D02*
X117049919Y-69469047D01*
X117049919Y-69469047D02*
X117073728Y-69445237D01*
X117073728Y-69445237D02*
X117121347Y-69421428D01*
X117121347Y-69421428D02*
X117192776Y-69421428D01*
X117192776Y-69421428D02*
X117240395Y-69445237D01*
X117240395Y-69445237D02*
X117264204Y-69469047D01*
X117264204Y-69469047D02*
X117288014Y-69516666D01*
X117288014Y-69516666D02*
X117288014Y-69707142D01*
X117526109Y-68945237D02*
X117526109Y-69230951D01*
X117526109Y-69088094D02*
X117026109Y-69088094D01*
X117026109Y-69088094D02*
X117097538Y-69135713D01*
X117097538Y-69135713D02*
X117145157Y-69183332D01*
X117145157Y-69183332D02*
X117168966Y-69230951D01*
X117026109Y-68635714D02*
X117026109Y-68588095D01*
X117026109Y-68588095D02*
X117049919Y-68540476D01*
X117049919Y-68540476D02*
X117073728Y-68516666D01*
X117073728Y-68516666D02*
X117121347Y-68492857D01*
X117121347Y-68492857D02*
X117216585Y-68469047D01*
X117216585Y-68469047D02*
X117335633Y-68469047D01*
X117335633Y-68469047D02*
X117430871Y-68492857D01*
X117430871Y-68492857D02*
X117478490Y-68516666D01*
X117478490Y-68516666D02*
X117502300Y-68540476D01*
X117502300Y-68540476D02*
X117526109Y-68588095D01*
X117526109Y-68588095D02*
X117526109Y-68635714D01*
X117526109Y-68635714D02*
X117502300Y-68683333D01*
X117502300Y-68683333D02*
X117478490Y-68707142D01*
X117478490Y-68707142D02*
X117430871Y-68730952D01*
X117430871Y-68730952D02*
X117335633Y-68754761D01*
X117335633Y-68754761D02*
X117216585Y-68754761D01*
X117216585Y-68754761D02*
X117121347Y-68730952D01*
X117121347Y-68730952D02*
X117073728Y-68707142D01*
X117073728Y-68707142D02*
X117049919Y-68683333D01*
X117049919Y-68683333D02*
X117026109Y-68635714D01*
X121830952Y-70626109D02*
X121830952Y-70126109D01*
X121830952Y-70126109D02*
X121950000Y-70126109D01*
X121950000Y-70126109D02*
X122021428Y-70149919D01*
X122021428Y-70149919D02*
X122069047Y-70197538D01*
X122069047Y-70197538D02*
X122092857Y-70245157D01*
X122092857Y-70245157D02*
X122116666Y-70340395D01*
X122116666Y-70340395D02*
X122116666Y-70411823D01*
X122116666Y-70411823D02*
X122092857Y-70507061D01*
X122092857Y-70507061D02*
X122069047Y-70554680D01*
X122069047Y-70554680D02*
X122021428Y-70602300D01*
X122021428Y-70602300D02*
X121950000Y-70626109D01*
X121950000Y-70626109D02*
X121830952Y-70626109D01*
X122592857Y-70626109D02*
X122307143Y-70626109D01*
X122450000Y-70626109D02*
X122450000Y-70126109D01*
X122450000Y-70126109D02*
X122402381Y-70197538D01*
X122402381Y-70197538D02*
X122354762Y-70245157D01*
X122354762Y-70245157D02*
X122307143Y-70268966D01*
D13*
X123871469Y-87995979D02*
X123633374Y-88162645D01*
X123871469Y-88281693D02*
X123371469Y-88281693D01*
X123371469Y-88281693D02*
X123371469Y-88091217D01*
X123371469Y-88091217D02*
X123395279Y-88043598D01*
X123395279Y-88043598D02*
X123419088Y-88019788D01*
X123419088Y-88019788D02*
X123466707Y-87995979D01*
X123466707Y-87995979D02*
X123538136Y-87995979D01*
X123538136Y-87995979D02*
X123585755Y-88019788D01*
X123585755Y-88019788D02*
X123609564Y-88043598D01*
X123609564Y-88043598D02*
X123633374Y-88091217D01*
X123633374Y-88091217D02*
X123633374Y-88281693D01*
X123871469Y-87519788D02*
X123871469Y-87805502D01*
X123871469Y-87662645D02*
X123371469Y-87662645D01*
X123371469Y-87662645D02*
X123442898Y-87710264D01*
X123442898Y-87710264D02*
X123490517Y-87757883D01*
X123490517Y-87757883D02*
X123514326Y-87805502D01*
D12*
X124866666Y-73234819D02*
X124866666Y-73949104D01*
X124866666Y-73949104D02*
X124819047Y-74091961D01*
X124819047Y-74091961D02*
X124723809Y-74187200D01*
X124723809Y-74187200D02*
X124580952Y-74234819D01*
X124580952Y-74234819D02*
X124485714Y-74234819D01*
X125771428Y-73568152D02*
X125771428Y-74234819D01*
X125533333Y-73187200D02*
X125295238Y-73901485D01*
X125295238Y-73901485D02*
X125914285Y-73901485D01*
D10*
X126426109Y-84980952D02*
X126830871Y-84980952D01*
X126830871Y-84980952D02*
X126878490Y-84957142D01*
X126878490Y-84957142D02*
X126902300Y-84933333D01*
X126902300Y-84933333D02*
X126926109Y-84885714D01*
X126926109Y-84885714D02*
X126926109Y-84790476D01*
X126926109Y-84790476D02*
X126902300Y-84742857D01*
X126902300Y-84742857D02*
X126878490Y-84719047D01*
X126878490Y-84719047D02*
X126830871Y-84695238D01*
X126830871Y-84695238D02*
X126426109Y-84695238D01*
X126926109Y-84195237D02*
X126926109Y-84480951D01*
X126926109Y-84338094D02*
X126426109Y-84338094D01*
X126426109Y-84338094D02*
X126497538Y-84385713D01*
X126497538Y-84385713D02*
X126545157Y-84433332D01*
X126545157Y-84433332D02*
X126568966Y-84480951D01*
X121960972Y-85497095D02*
X121794306Y-85259000D01*
X121675258Y-85497095D02*
X121675258Y-84997095D01*
X121675258Y-84997095D02*
X121865734Y-84997095D01*
X121865734Y-84997095D02*
X121913353Y-85020905D01*
X121913353Y-85020905D02*
X121937163Y-85044714D01*
X121937163Y-85044714D02*
X121960972Y-85092333D01*
X121960972Y-85092333D02*
X121960972Y-85163762D01*
X121960972Y-85163762D02*
X121937163Y-85211381D01*
X121937163Y-85211381D02*
X121913353Y-85235190D01*
X121913353Y-85235190D02*
X121865734Y-85259000D01*
X121865734Y-85259000D02*
X121675258Y-85259000D01*
X122199068Y-85497095D02*
X122294306Y-85497095D01*
X122294306Y-85497095D02*
X122341925Y-85473286D01*
X122341925Y-85473286D02*
X122365734Y-85449476D01*
X122365734Y-85449476D02*
X122413353Y-85378047D01*
X122413353Y-85378047D02*
X122437163Y-85282809D01*
X122437163Y-85282809D02*
X122437163Y-85092333D01*
X122437163Y-85092333D02*
X122413353Y-85044714D01*
X122413353Y-85044714D02*
X122389544Y-85020905D01*
X122389544Y-85020905D02*
X122341925Y-84997095D01*
X122341925Y-84997095D02*
X122246687Y-84997095D01*
X122246687Y-84997095D02*
X122199068Y-85020905D01*
X122199068Y-85020905D02*
X122175258Y-85044714D01*
X122175258Y-85044714D02*
X122151449Y-85092333D01*
X122151449Y-85092333D02*
X122151449Y-85211381D01*
X122151449Y-85211381D02*
X122175258Y-85259000D01*
X122175258Y-85259000D02*
X122199068Y-85282809D01*
X122199068Y-85282809D02*
X122246687Y-85306619D01*
X122246687Y-85306619D02*
X122341925Y-85306619D01*
X122341925Y-85306619D02*
X122389544Y-85282809D01*
X122389544Y-85282809D02*
X122413353Y-85259000D01*
X122413353Y-85259000D02*
X122437163Y-85211381D01*
D13*
X135301469Y-87995979D02*
X135063374Y-88162645D01*
X135301469Y-88281693D02*
X134801469Y-88281693D01*
X134801469Y-88281693D02*
X134801469Y-88091217D01*
X134801469Y-88091217D02*
X134825279Y-88043598D01*
X134825279Y-88043598D02*
X134849088Y-88019788D01*
X134849088Y-88019788D02*
X134896707Y-87995979D01*
X134896707Y-87995979D02*
X134968136Y-87995979D01*
X134968136Y-87995979D02*
X135015755Y-88019788D01*
X135015755Y-88019788D02*
X135039564Y-88043598D01*
X135039564Y-88043598D02*
X135063374Y-88091217D01*
X135063374Y-88091217D02*
X135063374Y-88281693D01*
X134801469Y-87829312D02*
X134801469Y-87519788D01*
X134801469Y-87519788D02*
X134991945Y-87686455D01*
X134991945Y-87686455D02*
X134991945Y-87615026D01*
X134991945Y-87615026D02*
X135015755Y-87567407D01*
X135015755Y-87567407D02*
X135039564Y-87543598D01*
X135039564Y-87543598D02*
X135087183Y-87519788D01*
X135087183Y-87519788D02*
X135206231Y-87519788D01*
X135206231Y-87519788D02*
X135253850Y-87543598D01*
X135253850Y-87543598D02*
X135277660Y-87567407D01*
X135277660Y-87567407D02*
X135301469Y-87615026D01*
X135301469Y-87615026D02*
X135301469Y-87757883D01*
X135301469Y-87757883D02*
X135277660Y-87805502D01*
X135277660Y-87805502D02*
X135253850Y-87829312D01*
D11*
X136086179Y-74963262D02*
X136104927Y-74982010D01*
X136104927Y-74982010D02*
X136123674Y-75038253D01*
X136123674Y-75038253D02*
X136123674Y-75075748D01*
X136123674Y-75075748D02*
X136104927Y-75131991D01*
X136104927Y-75131991D02*
X136067431Y-75169487D01*
X136067431Y-75169487D02*
X136029936Y-75188234D01*
X136029936Y-75188234D02*
X135954945Y-75206982D01*
X135954945Y-75206982D02*
X135898702Y-75206982D01*
X135898702Y-75206982D02*
X135823712Y-75188234D01*
X135823712Y-75188234D02*
X135786216Y-75169487D01*
X135786216Y-75169487D02*
X135748721Y-75131991D01*
X135748721Y-75131991D02*
X135729973Y-75075748D01*
X135729973Y-75075748D02*
X135729973Y-75038253D01*
X135729973Y-75038253D02*
X135748721Y-74982010D01*
X135748721Y-74982010D02*
X135767469Y-74963262D01*
X135729973Y-74832029D02*
X135729973Y-74569561D01*
X135729973Y-74569561D02*
X136123674Y-74738290D01*
D14*
%TO.C,J3*%
X136120000Y-89430000D02*
X136120000Y-76620000D01*
X138880000Y-76620000D02*
X136120000Y-76620000D01*
X138880000Y-89430000D02*
X136120000Y-89430000D01*
X138880000Y-89430000D02*
X138880000Y-76620000D01*
X138880000Y-90700000D02*
X138880000Y-92080000D01*
X138880000Y-92080000D02*
X137500000Y-92080000D01*
%TO.C,R8*%
X124089402Y-82965146D02*
X124563918Y-82965146D01*
X124089402Y-84010146D02*
X124563918Y-84010146D01*
%TO.C,R12*%
X122562258Y-66877500D02*
X122087742Y-66877500D01*
X122562258Y-67922500D02*
X122087742Y-67922500D01*
%TO.C,J1*%
X118120000Y-76620000D02*
X119500000Y-76620000D01*
X118120000Y-78000000D02*
X118120000Y-76620000D01*
X118120000Y-79270000D02*
X118120000Y-89540000D01*
X118120000Y-79270000D02*
X120880000Y-79270000D01*
X118120000Y-89540000D02*
X120880000Y-89540000D01*
X120880000Y-79270000D02*
X120880000Y-89540000D01*
%TO.C,R4*%
X137262742Y-72477500D02*
X137737258Y-72477500D01*
X137262742Y-73522500D02*
X137737258Y-73522500D01*
%TO.C,R6*%
X124089402Y-79640146D02*
X124563918Y-79640146D01*
X124089402Y-80685146D02*
X124563918Y-80685146D01*
%TO.C,R2*%
X128554160Y-88199904D02*
X128554160Y-87725388D01*
X129599160Y-88199904D02*
X129599160Y-87725388D01*
D15*
%TO.C,U2*%
X117875199Y-73456273D02*
X117875199Y-74702927D01*
X119175638Y-75006700D02*
X119724360Y-75006700D01*
X121024799Y-74702927D02*
X121024799Y-73456273D01*
D14*
%TO.C,Y1*%
X129525000Y-66575000D02*
X135775000Y-66575000D01*
X129525000Y-71625000D02*
X135775000Y-71625000D01*
X129525000Y-71625000D02*
G75*
G02*
X129525000Y-66575000I0J2525000D01*
G01*
X135775000Y-66575000D02*
G75*
G02*
X135775000Y-71625000I0J-2525000D01*
G01*
%TO.C,R5*%
X124139402Y-77990146D02*
X124613918Y-77990146D01*
X124139402Y-79035146D02*
X124613918Y-79035146D01*
%TO.C,R11*%
X118937742Y-66877500D02*
X119412258Y-66877500D01*
X118937742Y-67922500D02*
X119412258Y-67922500D01*
%TO.C,J2*%
X136805000Y-74315000D02*
X137500000Y-74315000D01*
X136805000Y-75000000D02*
X136805000Y-74315000D01*
X136805000Y-75685000D02*
X136805000Y-75560000D01*
X136805000Y-75685000D02*
X136891724Y-75685000D01*
X136805000Y-75685000D02*
X138195000Y-75685000D01*
X138108276Y-75685000D02*
X138195000Y-75685000D01*
X138195000Y-75685000D02*
X138195000Y-75560000D01*
%TO.C,R7*%
X124089402Y-81290146D02*
X124563918Y-81290146D01*
X124089402Y-82335146D02*
X124563918Y-82335146D01*
%TO.C,R10*%
X119437258Y-68677500D02*
X118962742Y-68677500D01*
X119437258Y-69722500D02*
X118962742Y-69722500D01*
%TO.C,D1*%
X121500000Y-69935000D02*
X123785000Y-69935000D01*
X123785000Y-68465000D02*
X121500000Y-68465000D01*
X123785000Y-69935000D02*
X123785000Y-68465000D01*
%TO.C,R1*%
X124554160Y-88149904D02*
X124554160Y-87675388D01*
X125599160Y-88149904D02*
X125599160Y-87675388D01*
%TO.C,J4*%
X123820000Y-70130000D02*
X123820000Y-67480000D01*
X126580000Y-67480000D02*
X123820000Y-67480000D01*
X126580000Y-70130000D02*
X123820000Y-70130000D01*
X126580000Y-70130000D02*
X126580000Y-67480000D01*
X126580000Y-71400000D02*
X126580000Y-72780000D01*
X126580000Y-72780000D02*
X125200000Y-72780000D01*
D16*
%TO.C,U1*%
X127736660Y-79672646D02*
X127736660Y-80217646D01*
X127736660Y-79672646D02*
X128281660Y-79672646D01*
X127736660Y-84672646D02*
X127736660Y-84127646D01*
X127736660Y-84672646D02*
X128281660Y-84672646D01*
X132736660Y-79672646D02*
X132191660Y-79672646D01*
X132736660Y-79672646D02*
X132736660Y-80217646D01*
X132736660Y-84672646D02*
X132191660Y-84672646D01*
X132736660Y-84672646D02*
X132736660Y-84127646D01*
D17*
X126841660Y-80672646D02*
G75*
G02*
X126641660Y-80672646I-100000J0D01*
G01*
X126641660Y-80672646D02*
G75*
G02*
X126841660Y-80672646I100000J0D01*
G01*
D14*
%TO.C,R9*%
X124032048Y-84723486D02*
X124506564Y-84723486D01*
X124032048Y-85768486D02*
X124506564Y-85768486D01*
%TO.C,R3*%
X133354160Y-88149904D02*
X133354160Y-87675388D01*
X134399160Y-88149904D02*
X134399160Y-87675388D01*
%TD*%
M02*
