%TF.GenerationSoftware,KiCad,Pcbnew,9.0.9-9.0.9~ubuntu24.04.1*%
%TF.CreationDate,2026-05-14T17:54:36+05:30*%
%TF.ProjectId,pcb_itr2,7063625f-6974-4723-922e-6b696361645f,rev?*%
%TF.SameCoordinates,Original*%
%TF.FileFunction,Copper,L2,Bot*%
%TF.FilePolarity,Positive*%
%FSLAX46Y46*%
G04 Gerber Fmt 4.6, Leading zero omitted, Abs format (unit mm)*
G04 Created by KiCad (PCBNEW 9.0.9-9.0.9~ubuntu24.04.1) date 2026-05-14 17:54:36*
%MOMM*%
%LPD*%
G01*
G04 APERTURE LIST*
%TA.AperFunction,ComponentPad*%
%ADD10R,1.700000X1.700000*%
%TD*%
%TA.AperFunction,ComponentPad*%
%ADD11C,1.700000*%
%TD*%
%TA.AperFunction,ComponentPad*%
%ADD12C,1.500000*%
%TD*%
%TA.AperFunction,ComponentPad*%
%ADD13R,0.850000X0.850000*%
%TD*%
%TA.AperFunction,ViaPad*%
%ADD14C,0.600000*%
%TD*%
%TA.AperFunction,Conductor*%
%ADD15C,0.200000*%
%TD*%
%TA.AperFunction,Conductor*%
%ADD16C,0.250000*%
%TD*%
G04 APERTURE END LIST*
D10*
%TO.P,J3,1,Pin_1*%
%TO.N,Net-(J3-Pin_1)*%
X137500000Y-90700000D03*
D11*
%TO.P,J3,2,Pin_2*%
%TO.N,Net-(J3-Pin_2)*%
X137500000Y-88160000D03*
%TO.P,J3,3,Pin_3*%
%TO.N,Net-(J3-Pin_3)*%
X137500000Y-85620000D03*
%TO.P,J3,4,Pin_4*%
%TO.N,Net-(J3-Pin_4)*%
X137500000Y-83080000D03*
%TO.P,J3,5,Pin_5*%
%TO.N,Net-(J3-Pin_5)*%
X137500000Y-80540000D03*
%TO.P,J3,6,Pin_6*%
%TO.N,Net-(J3-Pin_6)*%
X137500000Y-78000000D03*
%TD*%
D10*
%TO.P,J1,1,Pin_1*%
%TO.N,Net-(J1-Pin_1)*%
X119500000Y-78000000D03*
D11*
%TO.P,J1,2,Pin_2*%
%TO.N,Net-(J1-Pin_2)*%
X119500000Y-80540000D03*
%TO.P,J1,3,Pin_3*%
%TO.N,Net-(J1-Pin_3)*%
X119500000Y-83080000D03*
%TO.P,J1,4,Pin_4*%
%TO.N,Net-(J1-Pin_4)*%
X119500000Y-85620000D03*
%TO.P,J1,5,Pin_5*%
%TO.N,Net-(J1-Pin_5)*%
X119500000Y-88160000D03*
%TD*%
D12*
%TO.P,Y1,1,1*%
%TO.N,XTAL1*%
X130200000Y-69100000D03*
%TO.P,Y1,2,2*%
%TO.N,XTAL2*%
X135100000Y-69100000D03*
%TD*%
D13*
%TO.P,J2,1,Pin_1*%
%TO.N,Net-(J2-Pin_1)*%
X137500000Y-75000000D03*
%TD*%
D10*
%TO.P,J4,1,Pin_1*%
%TO.N,+5V*%
X125200000Y-71400000D03*
D11*
%TO.P,J4,2,Pin_2*%
%TO.N,GND*%
X125200000Y-68860000D03*
%TD*%
D14*
%TO.N,Net-(U1-RLDOUT)*%
X129096660Y-85907646D03*
X128296660Y-87832646D03*
%TO.N,GND*%
X132900925Y-86113381D03*
X127876660Y-73337646D03*
X130876660Y-86137646D03*
X129461660Y-73337646D03*
%TO.N,XTAL2*%
X131425000Y-75975000D03*
X133900000Y-75200000D03*
X133900000Y-72500000D03*
X130636660Y-77300000D03*
%TO.N,+3.3V*%
X132647700Y-87552824D03*
X133500000Y-80000000D03*
%TO.N,Net-(U1-RSTB)*%
X130136660Y-78150000D03*
X132550000Y-77775000D03*
%TO.N,+5V*%
X123500000Y-71500000D03*
X121400000Y-72300000D03*
%TD*%
D15*
%TO.N,Net-(U1-RLDOUT)*%
X128296660Y-86707646D02*
X129096660Y-85907646D01*
X128296660Y-87832646D02*
X128296660Y-86707646D01*
%TO.N,GND*%
X132876660Y-86137646D02*
X132900925Y-86113381D01*
X127876660Y-73337646D02*
X129461660Y-73337646D01*
X130876660Y-86137646D02*
X132876660Y-86137646D01*
%TO.N,XTAL2*%
X133900000Y-75200000D02*
X133900000Y-72500000D01*
X131425000Y-76511660D02*
X130636660Y-77300000D01*
X131425000Y-75975000D02*
X131425000Y-76511660D01*
%TO.N,+3.3V*%
X133500925Y-86699599D02*
X133500925Y-80000925D01*
X132647700Y-87552824D02*
X133500925Y-86699599D01*
X133500925Y-80000925D02*
X133500000Y-80000000D01*
%TO.N,Net-(U1-RSTB)*%
X132175000Y-78150000D02*
X132550000Y-77775000D01*
X130136660Y-78150000D02*
X132175000Y-78150000D01*
D16*
%TO.N,+5V*%
X123500000Y-71500000D02*
X122200000Y-71500000D01*
X122200000Y-71500000D02*
X121400000Y-72300000D01*
%TD*%
%TA.AperFunction,Conductor*%
%TO.N,GND*%
G36*
X139339199Y-65452831D02*
G01*
X139384954Y-65505635D01*
X139396160Y-65557146D01*
X139396160Y-92408146D01*
X139376475Y-92475185D01*
X139323671Y-92520940D01*
X139272160Y-92532146D01*
X117046160Y-92532146D01*
X116979121Y-92512461D01*
X116933366Y-92459657D01*
X116922160Y-92408146D01*
X116922160Y-77102135D01*
X118149500Y-77102135D01*
X118149500Y-78897870D01*
X118149501Y-78897876D01*
X118155908Y-78957483D01*
X118206202Y-79092328D01*
X118206206Y-79092335D01*
X118292452Y-79207544D01*
X118292455Y-79207547D01*
X118407664Y-79293793D01*
X118407671Y-79293797D01*
X118539082Y-79342810D01*
X118595016Y-79384681D01*
X118619433Y-79450145D01*
X118604582Y-79518418D01*
X118583431Y-79546673D01*
X118469889Y-79660215D01*
X118344951Y-79832179D01*
X118248444Y-80021585D01*
X118182753Y-80223760D01*
X118149500Y-80433713D01*
X118149500Y-80646286D01*
X118182753Y-80856239D01*
X118248444Y-81058414D01*
X118344951Y-81247820D01*
X118469890Y-81419786D01*
X118620213Y-81570109D01*
X118792182Y-81695050D01*
X118800946Y-81699516D01*
X118851742Y-81747491D01*
X118868536Y-81815312D01*
X118845998Y-81881447D01*
X118800946Y-81920484D01*
X118792182Y-81924949D01*
X118620213Y-82049890D01*
X118469890Y-82200213D01*
X118344951Y-82372179D01*
X118248444Y-82561585D01*
X118182753Y-82763760D01*
X118149500Y-82973713D01*
X118149500Y-83186286D01*
X118182753Y-83396239D01*
X118248444Y-83598414D01*
X118344951Y-83787820D01*
X118469890Y-83959786D01*
X118620213Y-84110109D01*
X118792182Y-84235050D01*
X118800946Y-84239516D01*
X118851742Y-84287491D01*
X118868536Y-84355312D01*
X118845998Y-84421447D01*
X118800946Y-84460484D01*
X118792182Y-84464949D01*
X118620213Y-84589890D01*
X118469890Y-84740213D01*
X118344951Y-84912179D01*
X118248444Y-85101585D01*
X118182753Y-85303760D01*
X118149500Y-85513713D01*
X118149500Y-85726286D01*
X118175902Y-85892985D01*
X118182754Y-85936243D01*
X118199080Y-85986490D01*
X118248444Y-86138414D01*
X118344951Y-86327820D01*
X118469890Y-86499786D01*
X118620213Y-86650109D01*
X118792182Y-86775050D01*
X118800946Y-86779516D01*
X118851742Y-86827491D01*
X118868536Y-86895312D01*
X118845998Y-86961447D01*
X118800946Y-87000484D01*
X118792182Y-87004949D01*
X118620213Y-87129890D01*
X118469890Y-87280213D01*
X118344951Y-87452179D01*
X118248444Y-87641585D01*
X118182753Y-87843760D01*
X118149500Y-88053713D01*
X118149500Y-88266286D01*
X118182753Y-88476239D01*
X118248444Y-88678414D01*
X118344951Y-88867820D01*
X118469890Y-89039786D01*
X118620213Y-89190109D01*
X118792179Y-89315048D01*
X118792181Y-89315049D01*
X118792184Y-89315051D01*
X118981588Y-89411557D01*
X119183757Y-89477246D01*
X119393713Y-89510500D01*
X119393714Y-89510500D01*
X119606286Y-89510500D01*
X119606287Y-89510500D01*
X119816243Y-89477246D01*
X120018412Y-89411557D01*
X120207816Y-89315051D01*
X120297554Y-89249853D01*
X120379786Y-89190109D01*
X120379788Y-89190106D01*
X120379792Y-89190104D01*
X120530104Y-89039792D01*
X120530106Y-89039788D01*
X120530109Y-89039786D01*
X120655048Y-88867820D01*
X120655047Y-88867820D01*
X120655051Y-88867816D01*
X120751557Y-88678412D01*
X120817246Y-88476243D01*
X120850500Y-88266287D01*
X120850500Y-88053713D01*
X120817246Y-87843757D01*
X120788017Y-87753799D01*
X127496160Y-87753799D01*
X127496160Y-87911492D01*
X127526921Y-88066135D01*
X127526924Y-88066147D01*
X127587262Y-88211818D01*
X127587269Y-88211831D01*
X127674870Y-88342934D01*
X127674873Y-88342938D01*
X127786367Y-88454432D01*
X127786371Y-88454435D01*
X127917474Y-88542036D01*
X127917487Y-88542043D01*
X128063158Y-88602381D01*
X128063163Y-88602383D01*
X128217813Y-88633145D01*
X128217816Y-88633146D01*
X128217818Y-88633146D01*
X128375504Y-88633146D01*
X128375505Y-88633145D01*
X128530157Y-88602383D01*
X128675839Y-88542040D01*
X128806949Y-88454435D01*
X128918449Y-88342935D01*
X129006054Y-88211825D01*
X129066397Y-88066143D01*
X129097160Y-87911488D01*
X129097160Y-87753804D01*
X129097160Y-87753801D01*
X129097159Y-87753799D01*
X129066397Y-87599149D01*
X129014549Y-87473977D01*
X131847200Y-87473977D01*
X131847200Y-87631670D01*
X131877961Y-87786313D01*
X131877964Y-87786325D01*
X131938302Y-87931996D01*
X131938309Y-87932009D01*
X132025910Y-88063112D01*
X132025913Y-88063116D01*
X132137407Y-88174610D01*
X132137411Y-88174613D01*
X132268514Y-88262214D01*
X132268527Y-88262221D01*
X132414198Y-88322559D01*
X132414203Y-88322561D01*
X132568853Y-88353323D01*
X132568856Y-88353324D01*
X132568858Y-88353324D01*
X132726544Y-88353324D01*
X132726545Y-88353323D01*
X132881197Y-88322561D01*
X132993866Y-88275891D01*
X133026872Y-88262221D01*
X133026872Y-88262220D01*
X133026879Y-88262218D01*
X133157989Y-88174613D01*
X133269489Y-88063113D01*
X133357094Y-87932003D01*
X133417437Y-87786321D01*
X133436813Y-87688909D01*
X133448338Y-87630974D01*
X133480723Y-87569063D01*
X133482223Y-87567535D01*
X133859431Y-87190326D01*
X133859436Y-87190323D01*
X133869639Y-87180119D01*
X133869641Y-87180119D01*
X133981445Y-87068315D01*
X134060502Y-86931383D01*
X134101425Y-86778656D01*
X134101425Y-80578381D01*
X134121110Y-80511342D01*
X134122323Y-80509490D01*
X134209390Y-80379185D01*
X134209390Y-80379184D01*
X134209394Y-80379179D01*
X134269737Y-80233497D01*
X134300500Y-80078842D01*
X134300500Y-79921158D01*
X134300500Y-79921155D01*
X134300499Y-79921153D01*
X134269738Y-79766510D01*
X134269737Y-79766503D01*
X134269735Y-79766498D01*
X134209397Y-79620827D01*
X134209390Y-79620814D01*
X134121789Y-79489711D01*
X134121786Y-79489707D01*
X134010292Y-79378213D01*
X134010288Y-79378210D01*
X133879185Y-79290609D01*
X133879172Y-79290602D01*
X133733501Y-79230264D01*
X133733489Y-79230261D01*
X133578845Y-79199500D01*
X133578842Y-79199500D01*
X133421158Y-79199500D01*
X133421155Y-79199500D01*
X133266510Y-79230261D01*
X133266498Y-79230264D01*
X133120827Y-79290602D01*
X133120814Y-79290609D01*
X132989711Y-79378210D01*
X132989707Y-79378213D01*
X132878213Y-79489707D01*
X132878210Y-79489711D01*
X132790609Y-79620814D01*
X132790602Y-79620827D01*
X132730264Y-79766498D01*
X132730261Y-79766510D01*
X132699500Y-79921153D01*
X132699500Y-80078846D01*
X132730261Y-80233489D01*
X132730264Y-80233501D01*
X132790602Y-80379172D01*
X132790609Y-80379185D01*
X132879527Y-80512259D01*
X132900405Y-80578936D01*
X132900425Y-80581150D01*
X132900425Y-86399502D01*
X132880740Y-86466541D01*
X132864106Y-86487183D01*
X132633039Y-86718249D01*
X132571716Y-86751734D01*
X132569550Y-86752185D01*
X132414208Y-86783085D01*
X132414198Y-86783088D01*
X132268527Y-86843426D01*
X132268514Y-86843433D01*
X132137411Y-86931034D01*
X132137407Y-86931037D01*
X132025913Y-87042531D01*
X132025910Y-87042535D01*
X131938309Y-87173638D01*
X131938302Y-87173651D01*
X131877964Y-87319322D01*
X131877961Y-87319334D01*
X131847200Y-87473977D01*
X129014549Y-87473977D01*
X129006054Y-87453467D01*
X128918449Y-87322357D01*
X128917666Y-87321574D01*
X128913978Y-87315234D01*
X128906513Y-87284900D01*
X128897180Y-87255093D01*
X128897160Y-87252880D01*
X128897160Y-87007743D01*
X128916845Y-86940704D01*
X128933479Y-86920062D01*
X129010115Y-86843426D01*
X129111322Y-86742218D01*
X129172643Y-86708735D01*
X129174810Y-86708284D01*
X129232745Y-86696759D01*
X129330157Y-86677383D01*
X129475839Y-86617040D01*
X129606949Y-86529435D01*
X129718449Y-86417935D01*
X129806054Y-86286825D01*
X129866397Y-86141143D01*
X129897160Y-85986488D01*
X129897160Y-85828804D01*
X129897160Y-85828801D01*
X129897159Y-85828799D01*
X129866398Y-85674156D01*
X129866398Y-85674154D01*
X129866397Y-85674149D01*
X129866395Y-85674144D01*
X129806057Y-85528473D01*
X129806050Y-85528460D01*
X129718449Y-85397357D01*
X129718446Y-85397353D01*
X129606952Y-85285859D01*
X129606948Y-85285856D01*
X129475845Y-85198255D01*
X129475832Y-85198248D01*
X129330161Y-85137910D01*
X129330149Y-85137907D01*
X129175505Y-85107146D01*
X129175502Y-85107146D01*
X129017818Y-85107146D01*
X129017815Y-85107146D01*
X128863170Y-85137907D01*
X128863158Y-85137910D01*
X128717487Y-85198248D01*
X128717474Y-85198255D01*
X128586371Y-85285856D01*
X128586367Y-85285859D01*
X128474873Y-85397353D01*
X128474870Y-85397357D01*
X128387269Y-85528460D01*
X128387262Y-85528473D01*
X128326924Y-85674144D01*
X128326921Y-85674154D01*
X128296021Y-85829496D01*
X128263636Y-85891407D01*
X128262085Y-85892985D01*
X127816141Y-86338928D01*
X127816140Y-86338930D01*
X127773421Y-86412922D01*
X127737083Y-86475861D01*
X127696159Y-86628589D01*
X127696159Y-86628591D01*
X127696159Y-86796692D01*
X127696160Y-86796705D01*
X127696160Y-87252880D01*
X127676475Y-87319919D01*
X127675262Y-87321771D01*
X127587269Y-87453460D01*
X127587262Y-87453473D01*
X127526924Y-87599144D01*
X127526921Y-87599156D01*
X127496160Y-87753799D01*
X120788017Y-87753799D01*
X120751557Y-87641588D01*
X120655051Y-87452184D01*
X120655049Y-87452181D01*
X120655048Y-87452179D01*
X120530109Y-87280213D01*
X120379786Y-87129890D01*
X120207820Y-87004951D01*
X120207115Y-87004591D01*
X120199054Y-87000485D01*
X120148259Y-86952512D01*
X120131463Y-86884692D01*
X120153999Y-86818556D01*
X120199054Y-86779515D01*
X120207816Y-86775051D01*
X120299714Y-86708284D01*
X120379786Y-86650109D01*
X120379788Y-86650106D01*
X120379792Y-86650104D01*
X120530104Y-86499792D01*
X120530106Y-86499788D01*
X120530109Y-86499786D01*
X120639086Y-86349789D01*
X120655051Y-86327816D01*
X120751557Y-86138412D01*
X120817246Y-85936243D01*
X120850500Y-85726287D01*
X120850500Y-85513713D01*
X120817246Y-85303757D01*
X120751557Y-85101588D01*
X120655051Y-84912184D01*
X120655049Y-84912181D01*
X120655048Y-84912179D01*
X120530109Y-84740213D01*
X120379786Y-84589890D01*
X120207820Y-84464951D01*
X120207115Y-84464591D01*
X120199054Y-84460485D01*
X120148259Y-84412512D01*
X120131463Y-84344692D01*
X120153999Y-84278556D01*
X120199054Y-84239515D01*
X120207816Y-84235051D01*
X120229789Y-84219086D01*
X120379786Y-84110109D01*
X120379788Y-84110106D01*
X120379792Y-84110104D01*
X120530104Y-83959792D01*
X120530106Y-83959788D01*
X120530109Y-83959786D01*
X120655048Y-83787820D01*
X120655047Y-83787820D01*
X120655051Y-83787816D01*
X120751557Y-83598412D01*
X120817246Y-83396243D01*
X120850500Y-83186287D01*
X120850500Y-82973713D01*
X120817246Y-82763757D01*
X120751557Y-82561588D01*
X120655051Y-82372184D01*
X120655049Y-82372181D01*
X120655048Y-82372179D01*
X120530109Y-82200213D01*
X120379786Y-82049890D01*
X120207820Y-81924951D01*
X120207115Y-81924591D01*
X120199054Y-81920485D01*
X120148259Y-81872512D01*
X120131463Y-81804692D01*
X120153999Y-81738556D01*
X120199054Y-81699515D01*
X120207816Y-81695051D01*
X120229789Y-81679086D01*
X120379786Y-81570109D01*
X120379788Y-81570106D01*
X120379792Y-81570104D01*
X120530104Y-81419792D01*
X120530106Y-81419788D01*
X120530109Y-81419786D01*
X120655048Y-81247820D01*
X120655047Y-81247820D01*
X120655051Y-81247816D01*
X120751557Y-81058412D01*
X120817246Y-80856243D01*
X120850500Y-80646287D01*
X120850500Y-80433713D01*
X120817246Y-80223757D01*
X120751557Y-80021588D01*
X120655051Y-79832184D01*
X120655049Y-79832181D01*
X120655048Y-79832179D01*
X120530109Y-79660213D01*
X120416569Y-79546673D01*
X120383084Y-79485350D01*
X120388068Y-79415658D01*
X120429940Y-79359725D01*
X120460915Y-79342810D01*
X120592331Y-79293796D01*
X120707546Y-79207546D01*
X120793796Y-79092331D01*
X120844091Y-78957483D01*
X120850500Y-78897873D01*
X120850499Y-78071153D01*
X129336160Y-78071153D01*
X129336160Y-78228846D01*
X129366921Y-78383489D01*
X129366924Y-78383501D01*
X129427262Y-78529172D01*
X129427269Y-78529185D01*
X129514870Y-78660288D01*
X129514873Y-78660292D01*
X129626367Y-78771786D01*
X129626371Y-78771789D01*
X129757474Y-78859390D01*
X129757487Y-78859397D01*
X129850378Y-78897873D01*
X129903163Y-78919737D01*
X130057813Y-78950499D01*
X130057816Y-78950500D01*
X130057818Y-78950500D01*
X130215504Y-78950500D01*
X130215505Y-78950499D01*
X130370157Y-78919737D01*
X130515839Y-78859394D01*
X130515845Y-78859390D01*
X130647535Y-78771398D01*
X130714213Y-78750520D01*
X130716426Y-78750500D01*
X132088331Y-78750500D01*
X132088347Y-78750501D01*
X132095943Y-78750501D01*
X132254054Y-78750501D01*
X132254057Y-78750501D01*
X132406785Y-78709577D01*
X132456904Y-78680639D01*
X132543716Y-78630520D01*
X132572935Y-78601300D01*
X132582599Y-78594727D01*
X132605168Y-78587453D01*
X132625980Y-78576089D01*
X132628152Y-78575637D01*
X132628841Y-78575500D01*
X132628842Y-78575500D01*
X132783497Y-78544737D01*
X132929179Y-78484394D01*
X133060289Y-78396789D01*
X133171789Y-78285289D01*
X133259394Y-78154179D01*
X133319737Y-78008497D01*
X133332641Y-77943623D01*
X133342569Y-77893713D01*
X136149500Y-77893713D01*
X136149500Y-78106286D01*
X136168911Y-78228846D01*
X136182754Y-78316243D01*
X136204606Y-78383497D01*
X136248444Y-78518414D01*
X136344951Y-78707820D01*
X136469890Y-78879786D01*
X136620213Y-79030109D01*
X136792182Y-79155050D01*
X136800946Y-79159516D01*
X136851742Y-79207491D01*
X136868536Y-79275312D01*
X136845998Y-79341447D01*
X136800946Y-79380484D01*
X136792182Y-79384949D01*
X136620213Y-79509890D01*
X136469890Y-79660213D01*
X136344951Y-79832179D01*
X136248444Y-80021585D01*
X136182753Y-80223760D01*
X136149500Y-80433713D01*
X136149500Y-80646286D01*
X136182753Y-80856239D01*
X136248444Y-81058414D01*
X136344951Y-81247820D01*
X136469890Y-81419786D01*
X136620213Y-81570109D01*
X136792182Y-81695050D01*
X136800946Y-81699516D01*
X136851742Y-81747491D01*
X136868536Y-81815312D01*
X136845998Y-81881447D01*
X136800946Y-81920484D01*
X136792182Y-81924949D01*
X136620213Y-82049890D01*
X136469890Y-82200213D01*
X136344951Y-82372179D01*
X136248444Y-82561585D01*
X136182753Y-82763760D01*
X136149500Y-82973713D01*
X136149500Y-83186286D01*
X136182753Y-83396239D01*
X136248444Y-83598414D01*
X136344951Y-83787820D01*
X136469890Y-83959786D01*
X136620213Y-84110109D01*
X136792182Y-84235050D01*
X136800946Y-84239516D01*
X136851742Y-84287491D01*
X136868536Y-84355312D01*
X136845998Y-84421447D01*
X136800946Y-84460484D01*
X136792182Y-84464949D01*
X136620213Y-84589890D01*
X136469890Y-84740213D01*
X136344951Y-84912179D01*
X136248444Y-85101585D01*
X136182753Y-85303760D01*
X136149500Y-85513713D01*
X136149500Y-85726286D01*
X136175902Y-85892985D01*
X136182754Y-85936243D01*
X136199080Y-85986490D01*
X136248444Y-86138414D01*
X136344951Y-86327820D01*
X136469890Y-86499786D01*
X136620213Y-86650109D01*
X136792182Y-86775050D01*
X136800946Y-86779516D01*
X136851742Y-86827491D01*
X136868536Y-86895312D01*
X136845998Y-86961447D01*
X136800946Y-87000484D01*
X136792182Y-87004949D01*
X136620213Y-87129890D01*
X136469890Y-87280213D01*
X136344951Y-87452179D01*
X136248444Y-87641585D01*
X136182753Y-87843760D01*
X136149500Y-88053713D01*
X136149500Y-88266286D01*
X136182753Y-88476239D01*
X136248444Y-88678414D01*
X136344951Y-88867820D01*
X136469890Y-89039786D01*
X136583430Y-89153326D01*
X136616915Y-89214649D01*
X136611931Y-89284341D01*
X136570059Y-89340274D01*
X136539083Y-89357189D01*
X136407669Y-89406203D01*
X136407664Y-89406206D01*
X136292455Y-89492452D01*
X136292452Y-89492455D01*
X136206206Y-89607664D01*
X136206202Y-89607671D01*
X136155908Y-89742517D01*
X136149501Y-89802116D01*
X136149501Y-89802123D01*
X136149500Y-89802135D01*
X136149500Y-91597870D01*
X136149501Y-91597876D01*
X136155908Y-91657483D01*
X136206202Y-91792328D01*
X136206206Y-91792335D01*
X136292452Y-91907544D01*
X136292455Y-91907547D01*
X136407664Y-91993793D01*
X136407671Y-91993797D01*
X136542517Y-92044091D01*
X136542516Y-92044091D01*
X136549444Y-92044835D01*
X136602127Y-92050500D01*
X138397872Y-92050499D01*
X138457483Y-92044091D01*
X138592331Y-91993796D01*
X138707546Y-91907546D01*
X138793796Y-91792331D01*
X138844091Y-91657483D01*
X138850500Y-91597873D01*
X138850499Y-89802128D01*
X138844091Y-89742517D01*
X138793796Y-89607669D01*
X138793795Y-89607668D01*
X138793793Y-89607664D01*
X138707547Y-89492455D01*
X138707544Y-89492452D01*
X138592335Y-89406206D01*
X138592328Y-89406202D01*
X138460917Y-89357189D01*
X138404983Y-89315318D01*
X138380566Y-89249853D01*
X138395418Y-89181580D01*
X138416563Y-89153332D01*
X138530104Y-89039792D01*
X138655051Y-88867816D01*
X138751557Y-88678412D01*
X138817246Y-88476243D01*
X138850500Y-88266287D01*
X138850500Y-88053713D01*
X138817246Y-87843757D01*
X138751557Y-87641588D01*
X138655051Y-87452184D01*
X138655049Y-87452181D01*
X138655048Y-87452179D01*
X138530109Y-87280213D01*
X138379786Y-87129890D01*
X138207820Y-87004951D01*
X138207115Y-87004591D01*
X138199054Y-87000485D01*
X138148259Y-86952512D01*
X138131463Y-86884692D01*
X138153999Y-86818556D01*
X138199054Y-86779515D01*
X138207816Y-86775051D01*
X138299714Y-86708284D01*
X138379786Y-86650109D01*
X138379788Y-86650106D01*
X138379792Y-86650104D01*
X138530104Y-86499792D01*
X138530106Y-86499788D01*
X138530109Y-86499786D01*
X138639086Y-86349789D01*
X138655051Y-86327816D01*
X138751557Y-86138412D01*
X138817246Y-85936243D01*
X138850500Y-85726287D01*
X138850500Y-85513713D01*
X138817246Y-85303757D01*
X138751557Y-85101588D01*
X138655051Y-84912184D01*
X138655049Y-84912181D01*
X138655048Y-84912179D01*
X138530109Y-84740213D01*
X138379786Y-84589890D01*
X138207820Y-84464951D01*
X138207115Y-84464591D01*
X138199054Y-84460485D01*
X138148259Y-84412512D01*
X138131463Y-84344692D01*
X138153999Y-84278556D01*
X138199054Y-84239515D01*
X138207816Y-84235051D01*
X138229789Y-84219086D01*
X138379786Y-84110109D01*
X138379788Y-84110106D01*
X138379792Y-84110104D01*
X138530104Y-83959792D01*
X138530106Y-83959788D01*
X138530109Y-83959786D01*
X138655048Y-83787820D01*
X138655047Y-83787820D01*
X138655051Y-83787816D01*
X138751557Y-83598412D01*
X138817246Y-83396243D01*
X138850500Y-83186287D01*
X138850500Y-82973713D01*
X138817246Y-82763757D01*
X138751557Y-82561588D01*
X138655051Y-82372184D01*
X138655049Y-82372181D01*
X138655048Y-82372179D01*
X138530109Y-82200213D01*
X138379786Y-82049890D01*
X138207820Y-81924951D01*
X138207115Y-81924591D01*
X138199054Y-81920485D01*
X138148259Y-81872512D01*
X138131463Y-81804692D01*
X138153999Y-81738556D01*
X138199054Y-81699515D01*
X138207816Y-81695051D01*
X138229789Y-81679086D01*
X138379786Y-81570109D01*
X138379788Y-81570106D01*
X138379792Y-81570104D01*
X138530104Y-81419792D01*
X138530106Y-81419788D01*
X138530109Y-81419786D01*
X138655048Y-81247820D01*
X138655047Y-81247820D01*
X138655051Y-81247816D01*
X138751557Y-81058412D01*
X138817246Y-80856243D01*
X138850500Y-80646287D01*
X138850500Y-80433713D01*
X138817246Y-80223757D01*
X138751557Y-80021588D01*
X138655051Y-79832184D01*
X138655049Y-79832181D01*
X138655048Y-79832179D01*
X138530109Y-79660213D01*
X138379786Y-79509890D01*
X138207820Y-79384951D01*
X138207115Y-79384591D01*
X138199054Y-79380485D01*
X138148259Y-79332512D01*
X138131463Y-79264692D01*
X138153999Y-79198556D01*
X138199054Y-79159515D01*
X138207816Y-79155051D01*
X138294138Y-79092335D01*
X138379786Y-79030109D01*
X138379788Y-79030106D01*
X138379792Y-79030104D01*
X138530104Y-78879792D01*
X138530106Y-78879788D01*
X138530109Y-78879786D01*
X138639086Y-78729789D01*
X138655051Y-78707816D01*
X138751557Y-78518412D01*
X138817246Y-78316243D01*
X138850500Y-78106287D01*
X138850500Y-77893713D01*
X138817246Y-77683757D01*
X138751557Y-77481588D01*
X138655051Y-77292184D01*
X138655049Y-77292181D01*
X138655048Y-77292179D01*
X138530109Y-77120213D01*
X138379786Y-76969890D01*
X138207820Y-76844951D01*
X138018414Y-76748444D01*
X138018413Y-76748443D01*
X138018412Y-76748443D01*
X137816243Y-76682754D01*
X137816241Y-76682753D01*
X137816240Y-76682753D01*
X137654957Y-76657208D01*
X137606287Y-76649500D01*
X137393713Y-76649500D01*
X137345042Y-76657208D01*
X137183760Y-76682753D01*
X136981585Y-76748444D01*
X136792179Y-76844951D01*
X136620213Y-76969890D01*
X136469890Y-77120213D01*
X136344951Y-77292179D01*
X136248444Y-77481585D01*
X136182753Y-77683760D01*
X136149500Y-77893713D01*
X133342569Y-77893713D01*
X133348346Y-77864672D01*
X133348350Y-77864651D01*
X133350500Y-77853841D01*
X133350500Y-77696155D01*
X133350499Y-77696153D01*
X133339271Y-77639707D01*
X133319737Y-77541503D01*
X133294920Y-77481588D01*
X133259397Y-77395827D01*
X133259390Y-77395814D01*
X133171789Y-77264711D01*
X133171786Y-77264707D01*
X133060292Y-77153213D01*
X133060288Y-77153210D01*
X132929185Y-77065609D01*
X132929172Y-77065602D01*
X132783501Y-77005264D01*
X132783489Y-77005261D01*
X132628845Y-76974500D01*
X132628842Y-76974500D01*
X132471158Y-76974500D01*
X132471155Y-76974500D01*
X132316510Y-77005261D01*
X132316498Y-77005264D01*
X132170827Y-77065602D01*
X132170814Y-77065609D01*
X132039711Y-77153210D01*
X132039707Y-77153213D01*
X131928213Y-77264707D01*
X131928210Y-77264711D01*
X131840609Y-77395814D01*
X131840602Y-77395827D01*
X131808657Y-77472952D01*
X131789735Y-77496432D01*
X131772751Y-77521361D01*
X131768032Y-77523364D01*
X131764816Y-77527356D01*
X131736202Y-77536879D01*
X131708439Y-77548668D01*
X131699168Y-77549205D01*
X131698522Y-77549421D01*
X131697101Y-77549325D01*
X131694096Y-77549500D01*
X131554309Y-77549500D01*
X131487270Y-77529815D01*
X131441515Y-77477011D01*
X131431571Y-77407853D01*
X131432691Y-77401312D01*
X131437297Y-77378153D01*
X131440720Y-77371607D01*
X131440919Y-77364222D01*
X131456696Y-77341064D01*
X131469681Y-77316241D01*
X131471183Y-77314711D01*
X131783506Y-77002387D01*
X131783511Y-77002384D01*
X131793714Y-76992180D01*
X131793716Y-76992180D01*
X131905520Y-76880376D01*
X131981691Y-76748443D01*
X131984577Y-76743445D01*
X132025500Y-76590717D01*
X132025500Y-76554765D01*
X132045185Y-76487726D01*
X132046398Y-76485874D01*
X132134390Y-76354185D01*
X132134390Y-76354184D01*
X132134394Y-76354179D01*
X132194737Y-76208497D01*
X132225500Y-76053842D01*
X132225500Y-75896158D01*
X132225500Y-75896155D01*
X132225499Y-75896153D01*
X132194737Y-75741503D01*
X132181808Y-75710289D01*
X132134397Y-75595827D01*
X132134390Y-75595814D01*
X132046789Y-75464711D01*
X132046786Y-75464707D01*
X131935292Y-75353213D01*
X131935288Y-75353210D01*
X131804185Y-75265609D01*
X131804172Y-75265602D01*
X131658501Y-75205264D01*
X131658489Y-75205261D01*
X131503845Y-75174500D01*
X131503842Y-75174500D01*
X131346158Y-75174500D01*
X131346155Y-75174500D01*
X131191510Y-75205261D01*
X131191498Y-75205264D01*
X131045827Y-75265602D01*
X131045814Y-75265609D01*
X130914711Y-75353210D01*
X130914707Y-75353213D01*
X130803213Y-75464707D01*
X130803210Y-75464711D01*
X130715609Y-75595814D01*
X130715602Y-75595827D01*
X130655264Y-75741498D01*
X130655261Y-75741510D01*
X130624500Y-75896153D01*
X130624500Y-76053846D01*
X130655261Y-76208489D01*
X130655264Y-76208501D01*
X130689065Y-76290104D01*
X130691201Y-76309978D01*
X130698188Y-76328708D01*
X130694860Y-76344006D01*
X130696534Y-76359573D01*
X130687585Y-76377449D01*
X130683337Y-76396982D01*
X130666650Y-76419272D01*
X130665259Y-76422052D01*
X130662186Y-76425236D01*
X130621998Y-76465425D01*
X130560676Y-76498911D01*
X130558508Y-76499362D01*
X130403168Y-76530261D01*
X130403158Y-76530264D01*
X130257487Y-76590602D01*
X130257474Y-76590609D01*
X130126371Y-76678210D01*
X130126367Y-76678213D01*
X130014873Y-76789707D01*
X130014870Y-76789711D01*
X129927269Y-76920814D01*
X129927262Y-76920827D01*
X129866924Y-77066498D01*
X129866921Y-77066510D01*
X129836160Y-77221153D01*
X129836160Y-77325161D01*
X129816475Y-77392200D01*
X129763671Y-77437955D01*
X129759622Y-77439718D01*
X129757490Y-77440601D01*
X129757474Y-77440609D01*
X129626371Y-77528210D01*
X129626367Y-77528213D01*
X129514873Y-77639707D01*
X129514870Y-77639711D01*
X129427269Y-77770814D01*
X129427262Y-77770827D01*
X129366924Y-77916498D01*
X129366921Y-77916510D01*
X129336160Y-78071153D01*
X120850499Y-78071153D01*
X120850499Y-77916510D01*
X120850499Y-77102129D01*
X120850498Y-77102123D01*
X120850497Y-77102116D01*
X120844091Y-77042517D01*
X120830196Y-77005263D01*
X120793797Y-76907671D01*
X120793793Y-76907664D01*
X120707547Y-76792455D01*
X120707544Y-76792452D01*
X120592335Y-76706206D01*
X120592328Y-76706202D01*
X120457482Y-76655908D01*
X120457483Y-76655908D01*
X120397883Y-76649501D01*
X120397881Y-76649500D01*
X120397873Y-76649500D01*
X120397864Y-76649500D01*
X118602129Y-76649500D01*
X118602123Y-76649501D01*
X118542516Y-76655908D01*
X118407671Y-76706202D01*
X118407664Y-76706206D01*
X118292455Y-76792452D01*
X118292452Y-76792455D01*
X118206206Y-76907664D01*
X118206202Y-76907671D01*
X118155908Y-77042517D01*
X118153329Y-77066510D01*
X118149501Y-77102123D01*
X118149500Y-77102135D01*
X116922160Y-77102135D01*
X116922160Y-72221153D01*
X120599500Y-72221153D01*
X120599500Y-72378846D01*
X120630261Y-72533489D01*
X120630264Y-72533501D01*
X120690602Y-72679172D01*
X120690609Y-72679185D01*
X120778210Y-72810288D01*
X120778213Y-72810292D01*
X120889707Y-72921786D01*
X120889711Y-72921789D01*
X121020814Y-73009390D01*
X121020827Y-73009397D01*
X121166498Y-73069735D01*
X121166503Y-73069737D01*
X121321153Y-73100499D01*
X121321156Y-73100500D01*
X121321158Y-73100500D01*
X121478844Y-73100500D01*
X121478845Y-73100499D01*
X121633497Y-73069737D01*
X121779179Y-73009394D01*
X121910289Y-72921789D01*
X122021789Y-72810289D01*
X122109394Y-72679179D01*
X122169737Y-72533497D01*
X122191858Y-72422282D01*
X122224240Y-72360375D01*
X122225676Y-72358912D01*
X122422772Y-72161816D01*
X122484095Y-72128334D01*
X122510452Y-72125500D01*
X122957650Y-72125500D01*
X123024689Y-72145185D01*
X123026541Y-72146398D01*
X123120821Y-72209394D01*
X123120823Y-72209395D01*
X123120827Y-72209397D01*
X123258683Y-72266498D01*
X123266503Y-72269737D01*
X123407906Y-72297864D01*
X123421153Y-72300499D01*
X123421156Y-72300500D01*
X123421158Y-72300500D01*
X123578843Y-72300500D01*
X123609787Y-72294344D01*
X123713492Y-72273716D01*
X123783081Y-72279943D01*
X123838259Y-72322805D01*
X123853864Y-72352000D01*
X123906202Y-72492328D01*
X123906206Y-72492335D01*
X123992452Y-72607544D01*
X123992455Y-72607547D01*
X124107664Y-72693793D01*
X124107671Y-72693797D01*
X124242517Y-72744091D01*
X124242516Y-72744091D01*
X124249444Y-72744835D01*
X124302127Y-72750500D01*
X126097872Y-72750499D01*
X126157483Y-72744091D01*
X126292331Y-72693796D01*
X126407546Y-72607546D01*
X126493796Y-72492331D01*
X126520344Y-72421153D01*
X133099500Y-72421153D01*
X133099500Y-72578846D01*
X133130261Y-72733489D01*
X133130264Y-72733501D01*
X133190602Y-72879172D01*
X133190609Y-72879185D01*
X133278602Y-73010874D01*
X133299480Y-73077551D01*
X133299500Y-73079765D01*
X133299500Y-74620234D01*
X133279815Y-74687273D01*
X133278602Y-74689125D01*
X133190609Y-74820814D01*
X133190602Y-74820827D01*
X133130264Y-74966498D01*
X133130261Y-74966510D01*
X133099500Y-75121153D01*
X133099500Y-75278846D01*
X133130261Y-75433489D01*
X133130264Y-75433501D01*
X133190602Y-75579172D01*
X133190609Y-75579185D01*
X133278210Y-75710288D01*
X133278213Y-75710292D01*
X133389707Y-75821786D01*
X133389711Y-75821789D01*
X133520814Y-75909390D01*
X133520827Y-75909397D01*
X133666498Y-75969735D01*
X133666503Y-75969737D01*
X133821153Y-76000499D01*
X133821156Y-76000500D01*
X133821158Y-76000500D01*
X133978844Y-76000500D01*
X133978845Y-76000499D01*
X134133497Y-75969737D01*
X134279179Y-75909394D01*
X134410289Y-75821789D01*
X134521789Y-75710289D01*
X134609394Y-75579179D01*
X134669737Y-75433497D01*
X134700500Y-75278842D01*
X134700500Y-75121158D01*
X134700500Y-75121155D01*
X134700499Y-75121153D01*
X134669738Y-74966510D01*
X134669737Y-74966503D01*
X134669735Y-74966498D01*
X134609397Y-74820827D01*
X134609390Y-74820814D01*
X134521398Y-74689125D01*
X134515747Y-74671078D01*
X134505523Y-74655169D01*
X134501071Y-74624207D01*
X134500520Y-74622447D01*
X134500500Y-74620234D01*
X134500500Y-74527135D01*
X136574500Y-74527135D01*
X136574500Y-75472870D01*
X136574501Y-75472876D01*
X136580908Y-75532483D01*
X136631202Y-75667328D01*
X136631206Y-75667335D01*
X136717452Y-75782544D01*
X136717455Y-75782547D01*
X136832664Y-75868793D01*
X136832671Y-75868797D01*
X136967517Y-75919091D01*
X136967516Y-75919091D01*
X136974444Y-75919835D01*
X137027127Y-75925500D01*
X137972872Y-75925499D01*
X138032483Y-75919091D01*
X138167331Y-75868796D01*
X138282546Y-75782546D01*
X138368796Y-75667331D01*
X138419091Y-75532483D01*
X138425500Y-75472873D01*
X138425499Y-74527128D01*
X138419091Y-74467517D01*
X138368796Y-74332669D01*
X138368795Y-74332668D01*
X138368793Y-74332664D01*
X138282547Y-74217455D01*
X138282544Y-74217452D01*
X138167335Y-74131206D01*
X138167328Y-74131202D01*
X138032482Y-74080908D01*
X138032483Y-74080908D01*
X137972883Y-74074501D01*
X137972881Y-74074500D01*
X137972873Y-74074500D01*
X137972864Y-74074500D01*
X137027129Y-74074500D01*
X137027123Y-74074501D01*
X136967516Y-74080908D01*
X136832671Y-74131202D01*
X136832664Y-74131206D01*
X136717455Y-74217452D01*
X136717452Y-74217455D01*
X136631206Y-74332664D01*
X136631202Y-74332671D01*
X136580908Y-74467517D01*
X136574501Y-74527116D01*
X136574501Y-74527123D01*
X136574500Y-74527135D01*
X134500500Y-74527135D01*
X134500500Y-73079765D01*
X134520185Y-73012726D01*
X134521398Y-73010874D01*
X134609390Y-72879185D01*
X134609390Y-72879184D01*
X134609394Y-72879179D01*
X134669737Y-72733497D01*
X134700500Y-72578842D01*
X134700500Y-72421158D01*
X134700500Y-72421155D01*
X134700499Y-72421153D01*
X134693386Y-72385393D01*
X134669737Y-72266503D01*
X134669735Y-72266498D01*
X134609397Y-72120827D01*
X134609390Y-72120814D01*
X134521789Y-71989711D01*
X134521786Y-71989707D01*
X134410292Y-71878213D01*
X134410288Y-71878210D01*
X134279185Y-71790609D01*
X134279172Y-71790602D01*
X134133501Y-71730264D01*
X134133489Y-71730261D01*
X133978845Y-71699500D01*
X133978842Y-71699500D01*
X133821158Y-71699500D01*
X133821155Y-71699500D01*
X133666510Y-71730261D01*
X133666498Y-71730264D01*
X133520827Y-71790602D01*
X133520814Y-71790609D01*
X133389711Y-71878210D01*
X133389707Y-71878213D01*
X133278213Y-71989707D01*
X133278210Y-71989711D01*
X133190609Y-72120814D01*
X133190602Y-72120827D01*
X133130264Y-72266498D01*
X133130261Y-72266510D01*
X133099500Y-72421153D01*
X126520344Y-72421153D01*
X126544091Y-72357483D01*
X126550500Y-72297873D01*
X126550499Y-70502128D01*
X126544091Y-70442517D01*
X126493796Y-70307669D01*
X126493795Y-70307668D01*
X126493793Y-70307664D01*
X126407547Y-70192455D01*
X126407544Y-70192452D01*
X126292335Y-70106206D01*
X126292328Y-70106202D01*
X126157482Y-70055908D01*
X126157483Y-70055908D01*
X126097883Y-70049501D01*
X126097881Y-70049500D01*
X126097873Y-70049500D01*
X126097865Y-70049500D01*
X126087309Y-70049500D01*
X126020270Y-70029815D01*
X125999628Y-70013181D01*
X125329408Y-69342962D01*
X125392993Y-69325925D01*
X125507007Y-69260099D01*
X125600099Y-69167007D01*
X125665925Y-69052993D01*
X125682962Y-68989408D01*
X126315270Y-69621717D01*
X126315270Y-69621716D01*
X126354622Y-69567554D01*
X126451095Y-69378217D01*
X126516757Y-69176130D01*
X126516757Y-69176127D01*
X126544404Y-69001577D01*
X128949500Y-69001577D01*
X128949500Y-69198422D01*
X128980290Y-69392826D01*
X129041117Y-69580029D01*
X129130476Y-69755405D01*
X129246172Y-69914646D01*
X129385354Y-70053828D01*
X129544595Y-70169524D01*
X129589594Y-70192452D01*
X129719970Y-70258882D01*
X129719972Y-70258882D01*
X129719975Y-70258884D01*
X129820317Y-70291487D01*
X129907173Y-70319709D01*
X130101578Y-70350500D01*
X130101583Y-70350500D01*
X130298422Y-70350500D01*
X130492826Y-70319709D01*
X130529896Y-70307664D01*
X130680025Y-70258884D01*
X130855405Y-70169524D01*
X131014646Y-70053828D01*
X131153828Y-69914646D01*
X131269524Y-69755405D01*
X131358884Y-69580025D01*
X131419709Y-69392826D01*
X131448103Y-69213554D01*
X131450500Y-69198422D01*
X131450500Y-69001577D01*
X133849500Y-69001577D01*
X133849500Y-69198422D01*
X133880290Y-69392826D01*
X133941117Y-69580029D01*
X134030476Y-69755405D01*
X134146172Y-69914646D01*
X134285354Y-70053828D01*
X134444595Y-70169524D01*
X134489594Y-70192452D01*
X134619970Y-70258882D01*
X134619972Y-70258882D01*
X134619975Y-70258884D01*
X134720317Y-70291487D01*
X134807173Y-70319709D01*
X135001578Y-70350500D01*
X135001583Y-70350500D01*
X135198422Y-70350500D01*
X135392826Y-70319709D01*
X135429896Y-70307664D01*
X135580025Y-70258884D01*
X135755405Y-70169524D01*
X135914646Y-70053828D01*
X136053828Y-69914646D01*
X136169524Y-69755405D01*
X136258884Y-69580025D01*
X136319709Y-69392826D01*
X136348103Y-69213554D01*
X136350500Y-69198422D01*
X136350500Y-69001577D01*
X136319709Y-68807173D01*
X136258882Y-68619970D01*
X136201038Y-68506446D01*
X136169524Y-68444595D01*
X136053828Y-68285354D01*
X135914646Y-68146172D01*
X135755405Y-68030476D01*
X135580029Y-67941117D01*
X135392826Y-67880290D01*
X135198422Y-67849500D01*
X135198417Y-67849500D01*
X135001583Y-67849500D01*
X135001578Y-67849500D01*
X134807173Y-67880290D01*
X134619970Y-67941117D01*
X134444594Y-68030476D01*
X134353741Y-68096485D01*
X134285354Y-68146172D01*
X134285352Y-68146174D01*
X134285351Y-68146174D01*
X134146174Y-68285351D01*
X134146174Y-68285352D01*
X134146172Y-68285354D01*
X134096485Y-68353741D01*
X134030476Y-68444594D01*
X133941117Y-68619970D01*
X133880290Y-68807173D01*
X133849500Y-69001577D01*
X131450500Y-69001577D01*
X131419709Y-68807173D01*
X131358882Y-68619970D01*
X131301038Y-68506446D01*
X131269524Y-68444595D01*
X131153828Y-68285354D01*
X131014646Y-68146172D01*
X130855405Y-68030476D01*
X130680029Y-67941117D01*
X130492826Y-67880290D01*
X130298422Y-67849500D01*
X130298417Y-67849500D01*
X130101583Y-67849500D01*
X130101578Y-67849500D01*
X129907173Y-67880290D01*
X129719970Y-67941117D01*
X129544594Y-68030476D01*
X129453741Y-68096485D01*
X129385354Y-68146172D01*
X129385352Y-68146174D01*
X129385351Y-68146174D01*
X129246174Y-68285351D01*
X129246174Y-68285352D01*
X129246172Y-68285354D01*
X129196485Y-68353741D01*
X129130476Y-68444594D01*
X129041117Y-68619970D01*
X128980290Y-68807173D01*
X128949500Y-69001577D01*
X126544404Y-69001577D01*
X126548247Y-68977313D01*
X126548247Y-68977312D01*
X126550000Y-68966244D01*
X126550000Y-68753753D01*
X126516757Y-68543872D01*
X126516757Y-68543869D01*
X126451095Y-68341782D01*
X126354624Y-68152449D01*
X126315270Y-68098282D01*
X126315269Y-68098282D01*
X125682962Y-68730590D01*
X125665925Y-68667007D01*
X125600099Y-68552993D01*
X125507007Y-68459901D01*
X125392993Y-68394075D01*
X125329409Y-68377037D01*
X125961716Y-67744728D01*
X125907550Y-67705375D01*
X125718217Y-67608904D01*
X125516129Y-67543242D01*
X125306246Y-67510000D01*
X125093754Y-67510000D01*
X124883872Y-67543242D01*
X124883869Y-67543242D01*
X124681782Y-67608904D01*
X124492439Y-67705380D01*
X124438282Y-67744727D01*
X124438282Y-67744728D01*
X125070591Y-68377037D01*
X125007007Y-68394075D01*
X124892993Y-68459901D01*
X124799901Y-68552993D01*
X124734075Y-68667007D01*
X124717037Y-68730591D01*
X124084728Y-68098282D01*
X124084727Y-68098282D01*
X124045380Y-68152439D01*
X123948904Y-68341782D01*
X123883242Y-68543869D01*
X123883242Y-68543872D01*
X123850000Y-68753753D01*
X123850000Y-68966246D01*
X123883242Y-69176127D01*
X123883242Y-69176130D01*
X123948904Y-69378217D01*
X124045375Y-69567550D01*
X124084728Y-69621716D01*
X124717037Y-68989408D01*
X124734075Y-69052993D01*
X124799901Y-69167007D01*
X124892993Y-69260099D01*
X125007007Y-69325925D01*
X125070590Y-69342962D01*
X124400370Y-70013181D01*
X124339047Y-70046666D01*
X124312698Y-70049500D01*
X124302134Y-70049500D01*
X124302123Y-70049501D01*
X124242516Y-70055908D01*
X124107671Y-70106202D01*
X124107664Y-70106206D01*
X123992455Y-70192452D01*
X123992452Y-70192455D01*
X123906206Y-70307664D01*
X123906202Y-70307671D01*
X123855908Y-70442517D01*
X123849501Y-70502116D01*
X123849501Y-70502123D01*
X123849500Y-70502135D01*
X123849500Y-70602242D01*
X123829815Y-70669281D01*
X123777011Y-70715036D01*
X123707853Y-70724980D01*
X123701309Y-70723859D01*
X123578846Y-70699500D01*
X123578842Y-70699500D01*
X123421158Y-70699500D01*
X123421155Y-70699500D01*
X123266510Y-70730261D01*
X123266498Y-70730264D01*
X123120827Y-70790602D01*
X123120815Y-70790609D01*
X123026541Y-70853602D01*
X122959864Y-70874480D01*
X122957650Y-70874500D01*
X122138389Y-70874500D01*
X122087535Y-70884615D01*
X122087530Y-70884616D01*
X122077971Y-70886518D01*
X122017548Y-70898537D01*
X121970397Y-70918067D01*
X121903715Y-70945688D01*
X121903714Y-70945689D01*
X121881347Y-70960633D01*
X121881344Y-70960635D01*
X121801268Y-71014140D01*
X121757705Y-71057703D01*
X121714142Y-71101267D01*
X121714139Y-71101270D01*
X121341203Y-71474205D01*
X121279880Y-71507690D01*
X121277714Y-71508141D01*
X121166508Y-71530261D01*
X121166498Y-71530264D01*
X121020827Y-71590602D01*
X121020814Y-71590609D01*
X120889711Y-71678210D01*
X120889707Y-71678213D01*
X120778213Y-71789707D01*
X120778210Y-71789711D01*
X120690609Y-71920814D01*
X120690602Y-71920827D01*
X120630264Y-72066498D01*
X120630261Y-72066510D01*
X120599500Y-72221153D01*
X116922160Y-72221153D01*
X116922160Y-65557146D01*
X116941845Y-65490107D01*
X116994649Y-65444352D01*
X117046160Y-65433146D01*
X139272160Y-65433146D01*
X139339199Y-65452831D01*
G37*
%TD.AperFunction*%
%TD*%
M02*
