%TF.GenerationSoftware,KiCad,Pcbnew,7.0.11+dfsg-1build4*%
%TF.CreationDate,2026-04-04T13:49:15+05:30*%
%TF.ProjectId,pcb_itr2,7063625f-6974-4723-922e-6b696361645f,rev?*%
%TF.SameCoordinates,Original*%
%TF.FileFunction,Copper,L2,Bot*%
%TF.FilePolarity,Positive*%
%FSLAX46Y46*%
G04 Gerber Fmt 4.6, Leading zero omitted, Abs format (unit mm)*
G04 Created by KiCad (PCBNEW 7.0.11+dfsg-1build4) date 2026-04-04 13:49:15*
%MOMM*%
%LPD*%
G01*
G04 APERTURE LIST*
%TA.AperFunction,ComponentPad*%
%ADD10R,0.850000X0.850000*%
%TD*%
%TA.AperFunction,ComponentPad*%
%ADD11O,0.850000X0.850000*%
%TD*%
%TA.AperFunction,ComponentPad*%
%ADD12C,1.500000*%
%TD*%
%TA.AperFunction,ViaPad*%
%ADD13C,0.600000*%
%TD*%
%TA.AperFunction,Conductor*%
%ADD14C,0.200000*%
%TD*%
%TA.AperFunction,Conductor*%
%ADD15C,0.250000*%
%TD*%
G04 APERTURE END LIST*
D10*
%TO.P,J3,1,Pin_1*%
%TO.N,Net-(J3-Pin_1)*%
X135221660Y-85132646D03*
D11*
%TO.P,J3,2,Pin_2*%
%TO.N,Net-(J3-Pin_2)*%
X135221660Y-84132646D03*
%TO.P,J3,3,Pin_3*%
%TO.N,Net-(J3-Pin_3)*%
X135221660Y-83132646D03*
%TO.P,J3,4,Pin_4*%
%TO.N,Net-(J3-Pin_4)*%
X135221660Y-82132646D03*
%TO.P,J3,5,Pin_5*%
%TO.N,Net-(J3-Pin_5)*%
X135221660Y-81132646D03*
%TO.P,J3,6,Pin_6*%
%TO.N,Net-(J3-Pin_6)*%
X135221660Y-80132646D03*
%TD*%
D10*
%TO.P,J1,1,Pin_1*%
%TO.N,Net-(J1-Pin_1)*%
X119501660Y-79262646D03*
D11*
%TO.P,J1,2,Pin_2*%
%TO.N,Net-(J1-Pin_2)*%
X119501660Y-80262646D03*
%TO.P,J1,3,Pin_3*%
%TO.N,Net-(J1-Pin_3)*%
X119501660Y-81262646D03*
%TO.P,J1,4,Pin_4*%
%TO.N,Net-(J1-Pin_4)*%
X119501660Y-82262646D03*
%TO.P,J1,5,Pin_5*%
%TO.N,Net-(J1-Pin_5)*%
X119501660Y-83262646D03*
%TD*%
D12*
%TO.P,Y1,1,1*%
%TO.N,XTAL1*%
X130200000Y-69100000D03*
%TO.P,Y1,2,2*%
%TO.N,XTAL2*%
X135100000Y-69100000D03*
%TD*%
D10*
%TO.P,J2,1,Pin_1*%
%TO.N,Net-(J2-Pin_1)*%
X137476660Y-75737646D03*
%TD*%
%TO.P,J4,1,Pin_1*%
%TO.N,+5V*%
X125200000Y-71400000D03*
D11*
%TO.P,J4,2,Pin_2*%
%TO.N,GND*%
X125200000Y-70400000D03*
%TD*%
D13*
%TO.N,Net-(U1-RLDOUT)*%
X129096660Y-85907646D03*
X128296660Y-87832646D03*
%TO.N,GND*%
X132900925Y-86113381D03*
X127876660Y-73337646D03*
X130876660Y-86137646D03*
X129461660Y-73337646D03*
%TO.N,XTAL2*%
X131425000Y-75975000D03*
X133900000Y-75200000D03*
X133900000Y-72500000D03*
X130636660Y-77300000D03*
%TO.N,+3.3V*%
X132647700Y-87552824D03*
X133500000Y-80000000D03*
%TO.N,Net-(U1-RSTB)*%
X130136660Y-78150000D03*
X132550000Y-77775000D03*
%TO.N,+5V*%
X123500000Y-71500000D03*
X121400000Y-72300000D03*
%TD*%
D14*
%TO.N,Net-(U1-RLDOUT)*%
X128296660Y-86707646D02*
X129096660Y-85907646D01*
X128296660Y-87832646D02*
X128296660Y-86707646D01*
%TO.N,GND*%
X132876660Y-86137646D02*
X132900925Y-86113381D01*
X127876660Y-73337646D02*
X129461660Y-73337646D01*
X130876660Y-86137646D02*
X132876660Y-86137646D01*
%TO.N,XTAL2*%
X133900000Y-75200000D02*
X133900000Y-72500000D01*
X131425000Y-76511660D02*
X130636660Y-77300000D01*
X131425000Y-75975000D02*
X131425000Y-76511660D01*
%TO.N,+3.3V*%
X133500925Y-86699599D02*
X133500925Y-80000925D01*
X132647700Y-87552824D02*
X133500925Y-86699599D01*
X133500925Y-80000925D02*
X133500000Y-80000000D01*
%TO.N,Net-(U1-RSTB)*%
X132175000Y-78150000D02*
X132550000Y-77775000D01*
X130136660Y-78150000D02*
X132175000Y-78150000D01*
D15*
%TO.N,+5V*%
X123500000Y-71500000D02*
X122200000Y-71500000D01*
X122200000Y-71500000D02*
X121400000Y-72300000D01*
%TD*%
%TA.AperFunction,Conductor*%
%TO.N,GND*%
G36*
X139339199Y-65452831D02*
G01*
X139384954Y-65505635D01*
X139396160Y-65557146D01*
X139396160Y-89908146D01*
X139376475Y-89975185D01*
X139323671Y-90020940D01*
X139272160Y-90032146D01*
X117046160Y-90032146D01*
X116979121Y-90012461D01*
X116933366Y-89959657D01*
X116922160Y-89908146D01*
X116922160Y-87832649D01*
X127491095Y-87832649D01*
X127511290Y-88011895D01*
X127511291Y-88011900D01*
X127570871Y-88182169D01*
X127631471Y-88278612D01*
X127666844Y-88334908D01*
X127794398Y-88462462D01*
X127947138Y-88558435D01*
X128117405Y-88618014D01*
X128117410Y-88618015D01*
X128296656Y-88638211D01*
X128296660Y-88638211D01*
X128296664Y-88638211D01*
X128475909Y-88618015D01*
X128475912Y-88618014D01*
X128475915Y-88618014D01*
X128646182Y-88558435D01*
X128798922Y-88462462D01*
X128926476Y-88334908D01*
X129022449Y-88182168D01*
X129082028Y-88011901D01*
X129102225Y-87832646D01*
X129090893Y-87732073D01*
X129082029Y-87653396D01*
X129082028Y-87653391D01*
X129046839Y-87552827D01*
X131842135Y-87552827D01*
X131862330Y-87732073D01*
X131862331Y-87732078D01*
X131921911Y-87902347D01*
X131990745Y-88011895D01*
X132017884Y-88055086D01*
X132145438Y-88182640D01*
X132298178Y-88278613D01*
X132459060Y-88334908D01*
X132468445Y-88338192D01*
X132468450Y-88338193D01*
X132647696Y-88358389D01*
X132647700Y-88358389D01*
X132647704Y-88358389D01*
X132826949Y-88338193D01*
X132826952Y-88338192D01*
X132826955Y-88338192D01*
X132997222Y-88278613D01*
X133149962Y-88182640D01*
X133277516Y-88055086D01*
X133373489Y-87902346D01*
X133433068Y-87732079D01*
X133442861Y-87645153D01*
X133469926Y-87580742D01*
X133478390Y-87571367D01*
X133891968Y-87157789D01*
X133904148Y-87147108D01*
X133929207Y-87127881D01*
X134025461Y-87002440D01*
X134085969Y-86856361D01*
X134089830Y-86827035D01*
X134106607Y-86699599D01*
X134102486Y-86668296D01*
X134101425Y-86652111D01*
X134101425Y-85813129D01*
X134121110Y-85746090D01*
X134173914Y-85700335D01*
X134243072Y-85690391D01*
X134306628Y-85719416D01*
X134341607Y-85769797D01*
X134352861Y-85799972D01*
X134352866Y-85799981D01*
X134439112Y-85915190D01*
X134439115Y-85915193D01*
X134554324Y-86001439D01*
X134554331Y-86001443D01*
X134689177Y-86051737D01*
X134689176Y-86051737D01*
X134696104Y-86052481D01*
X134748787Y-86058146D01*
X135694532Y-86058145D01*
X135754143Y-86051737D01*
X135888991Y-86001442D01*
X136004206Y-85915192D01*
X136090456Y-85799977D01*
X136140751Y-85665129D01*
X136147160Y-85605519D01*
X136147159Y-84659774D01*
X136140751Y-84600163D01*
X136103559Y-84500448D01*
X136098576Y-84430758D01*
X136101805Y-84418816D01*
X136131922Y-84326128D01*
X136152258Y-84132646D01*
X136131922Y-83939164D01*
X136071804Y-83754138D01*
X136037455Y-83694645D01*
X136020982Y-83626747D01*
X136037456Y-83570646D01*
X136071804Y-83511154D01*
X136131922Y-83326128D01*
X136152258Y-83132646D01*
X136131922Y-82939164D01*
X136071804Y-82754138D01*
X136037455Y-82694645D01*
X136020982Y-82626747D01*
X136037456Y-82570646D01*
X136071804Y-82511154D01*
X136131922Y-82326128D01*
X136152258Y-82132646D01*
X136131922Y-81939164D01*
X136071804Y-81754138D01*
X136037455Y-81694645D01*
X136020982Y-81626747D01*
X136037456Y-81570646D01*
X136071804Y-81511154D01*
X136131922Y-81326128D01*
X136152258Y-81132646D01*
X136131922Y-80939164D01*
X136071804Y-80754138D01*
X136037455Y-80694645D01*
X136020982Y-80626747D01*
X136037456Y-80570646D01*
X136071804Y-80511154D01*
X136131922Y-80326128D01*
X136152258Y-80132646D01*
X136131922Y-79939164D01*
X136071804Y-79754138D01*
X136071803Y-79754137D01*
X136071803Y-79754135D01*
X136071802Y-79754134D01*
X136007501Y-79642762D01*
X135974530Y-79585654D01*
X135895370Y-79497738D01*
X135844357Y-79441081D01*
X135844354Y-79441079D01*
X135844353Y-79441078D01*
X135844352Y-79441077D01*
X135765655Y-79383900D01*
X135686957Y-79326722D01*
X135550508Y-79265972D01*
X135509231Y-79247595D01*
X135509229Y-79247594D01*
X135318934Y-79207146D01*
X135124386Y-79207146D01*
X134934091Y-79247594D01*
X134756362Y-79326722D01*
X134598965Y-79441079D01*
X134598962Y-79441081D01*
X134468788Y-79585655D01*
X134435818Y-79642762D01*
X134385251Y-79690978D01*
X134316644Y-79704200D01*
X134251779Y-79678232D01*
X134223437Y-79646734D01*
X134129815Y-79497737D01*
X134002262Y-79370184D01*
X133849523Y-79274211D01*
X133679254Y-79214631D01*
X133679249Y-79214630D01*
X133500004Y-79194435D01*
X133499996Y-79194435D01*
X133320750Y-79214630D01*
X133320745Y-79214631D01*
X133150476Y-79274211D01*
X132997737Y-79370184D01*
X132870184Y-79497737D01*
X132774211Y-79650476D01*
X132714631Y-79820745D01*
X132714630Y-79820750D01*
X132694435Y-79999996D01*
X132694435Y-80000003D01*
X132714630Y-80179249D01*
X132714631Y-80179254D01*
X132774211Y-80349523D01*
X132870182Y-80502259D01*
X132873367Y-80506252D01*
X132899780Y-80570937D01*
X132900425Y-80583571D01*
X132900425Y-86399501D01*
X132880740Y-86466540D01*
X132864106Y-86487182D01*
X132629165Y-86722122D01*
X132567842Y-86755607D01*
X132555368Y-86757661D01*
X132468450Y-86767454D01*
X132298178Y-86827034D01*
X132145437Y-86923008D01*
X132017884Y-87050561D01*
X131921911Y-87203300D01*
X131862331Y-87373569D01*
X131862330Y-87373574D01*
X131842135Y-87552820D01*
X131842135Y-87552827D01*
X129046839Y-87552827D01*
X129022448Y-87483122D01*
X128926473Y-87330380D01*
X128924210Y-87327542D01*
X128923319Y-87325361D01*
X128922771Y-87324488D01*
X128922924Y-87324391D01*
X128897804Y-87262855D01*
X128897160Y-87250233D01*
X128897160Y-87007742D01*
X128916845Y-86940703D01*
X128933475Y-86920065D01*
X129115195Y-86738344D01*
X129176516Y-86704861D01*
X129188971Y-86702809D01*
X129275915Y-86693014D01*
X129446182Y-86633435D01*
X129598922Y-86537462D01*
X129726476Y-86409908D01*
X129822449Y-86257168D01*
X129882028Y-86086901D01*
X129902225Y-85907646D01*
X129899079Y-85879728D01*
X129882029Y-85728396D01*
X129882028Y-85728391D01*
X129822449Y-85558124D01*
X129726476Y-85405384D01*
X129598922Y-85277830D01*
X129446183Y-85181857D01*
X129275914Y-85122277D01*
X129275909Y-85122276D01*
X129096664Y-85102081D01*
X129096656Y-85102081D01*
X128917410Y-85122276D01*
X128917405Y-85122277D01*
X128747136Y-85181857D01*
X128594397Y-85277830D01*
X128466844Y-85405383D01*
X128370870Y-85558124D01*
X128311290Y-85728396D01*
X128301497Y-85815314D01*
X128274430Y-85879728D01*
X128265958Y-85889111D01*
X127905625Y-86249444D01*
X127893434Y-86260136D01*
X127868378Y-86279363D01*
X127844209Y-86310859D01*
X127844210Y-86310860D01*
X127772124Y-86404804D01*
X127772121Y-86404809D01*
X127711617Y-86550880D01*
X127711615Y-86550885D01*
X127690978Y-86707644D01*
X127690978Y-86707645D01*
X127695099Y-86738947D01*
X127696160Y-86755133D01*
X127696160Y-87250233D01*
X127676475Y-87317272D01*
X127669110Y-87327542D01*
X127666846Y-87330380D01*
X127570871Y-87483122D01*
X127511291Y-87653391D01*
X127511290Y-87653396D01*
X127491095Y-87832642D01*
X127491095Y-87832649D01*
X116922160Y-87832649D01*
X116922160Y-83262646D01*
X118571062Y-83262646D01*
X118591398Y-83456129D01*
X118651516Y-83641156D01*
X118651517Y-83641157D01*
X118716747Y-83754138D01*
X118748790Y-83809638D01*
X118776854Y-83840806D01*
X118878962Y-83954210D01*
X118878965Y-83954212D01*
X118878968Y-83954215D01*
X118997012Y-84039979D01*
X119036362Y-84068569D01*
X119104586Y-84098943D01*
X119214089Y-84147697D01*
X119404386Y-84188146D01*
X119598934Y-84188146D01*
X119789231Y-84147697D01*
X119966959Y-84068568D01*
X120124352Y-83954215D01*
X120254530Y-83809638D01*
X120351804Y-83641154D01*
X120411922Y-83456128D01*
X120432258Y-83262646D01*
X120411922Y-83069164D01*
X120351804Y-82884138D01*
X120317455Y-82824645D01*
X120300982Y-82756747D01*
X120317456Y-82700646D01*
X120351804Y-82641154D01*
X120411922Y-82456128D01*
X120432258Y-82262646D01*
X120411922Y-82069164D01*
X120351804Y-81884138D01*
X120317455Y-81824645D01*
X120300982Y-81756747D01*
X120317456Y-81700646D01*
X120351804Y-81641154D01*
X120411922Y-81456128D01*
X120432258Y-81262646D01*
X120411922Y-81069164D01*
X120351804Y-80884138D01*
X120317455Y-80824645D01*
X120300982Y-80756747D01*
X120317456Y-80700646D01*
X120351804Y-80641154D01*
X120411922Y-80456128D01*
X120432258Y-80262646D01*
X120411922Y-80069164D01*
X120381810Y-79976490D01*
X120379816Y-79906652D01*
X120383555Y-79894856D01*
X120420751Y-79795129D01*
X120427160Y-79735519D01*
X120427159Y-78789774D01*
X120420751Y-78730163D01*
X120400003Y-78674536D01*
X120370457Y-78595317D01*
X120370453Y-78595310D01*
X120284207Y-78480101D01*
X120284204Y-78480098D01*
X120168995Y-78393852D01*
X120168988Y-78393848D01*
X120034142Y-78343554D01*
X120034143Y-78343554D01*
X119974543Y-78337147D01*
X119974541Y-78337146D01*
X119974533Y-78337146D01*
X119974524Y-78337146D01*
X119028789Y-78337146D01*
X119028783Y-78337147D01*
X118969176Y-78343554D01*
X118834331Y-78393848D01*
X118834324Y-78393852D01*
X118719115Y-78480098D01*
X118719112Y-78480101D01*
X118632866Y-78595310D01*
X118632862Y-78595317D01*
X118582568Y-78730163D01*
X118576161Y-78789762D01*
X118576161Y-78789769D01*
X118576160Y-78789781D01*
X118576160Y-79735516D01*
X118576161Y-79735522D01*
X118582568Y-79795129D01*
X118619759Y-79894841D01*
X118624743Y-79964533D01*
X118621508Y-79976491D01*
X118591400Y-80069157D01*
X118591398Y-80069162D01*
X118571062Y-80262646D01*
X118591398Y-80456129D01*
X118651516Y-80641156D01*
X118651517Y-80641157D01*
X118685863Y-80700646D01*
X118702336Y-80768546D01*
X118685863Y-80824646D01*
X118651517Y-80884134D01*
X118651516Y-80884135D01*
X118591398Y-81069162D01*
X118571062Y-81262646D01*
X118591398Y-81456129D01*
X118651516Y-81641156D01*
X118651517Y-81641157D01*
X118685863Y-81700646D01*
X118702336Y-81768546D01*
X118685863Y-81824646D01*
X118651517Y-81884134D01*
X118651516Y-81884135D01*
X118591398Y-82069162D01*
X118571062Y-82262646D01*
X118591398Y-82456129D01*
X118651516Y-82641156D01*
X118651517Y-82641157D01*
X118685863Y-82700646D01*
X118702336Y-82768546D01*
X118685863Y-82824646D01*
X118651517Y-82884134D01*
X118651516Y-82884135D01*
X118591398Y-83069162D01*
X118571062Y-83262646D01*
X116922160Y-83262646D01*
X116922160Y-78150003D01*
X129331095Y-78150003D01*
X129351290Y-78329249D01*
X129351291Y-78329254D01*
X129410871Y-78499523D01*
X129471062Y-78595315D01*
X129506844Y-78652262D01*
X129634398Y-78779816D01*
X129787138Y-78875789D01*
X129957405Y-78935368D01*
X129957410Y-78935369D01*
X130136656Y-78955565D01*
X130136660Y-78955565D01*
X130136664Y-78955565D01*
X130315909Y-78935369D01*
X130315912Y-78935368D01*
X130315915Y-78935368D01*
X130486182Y-78875789D01*
X130638922Y-78779816D01*
X130638927Y-78779810D01*
X130641757Y-78777555D01*
X130643935Y-78776665D01*
X130644818Y-78776111D01*
X130644915Y-78776265D01*
X130706443Y-78751145D01*
X130719072Y-78750500D01*
X132127513Y-78750500D01*
X132143697Y-78751560D01*
X132175000Y-78755682D01*
X132175001Y-78755682D01*
X132227254Y-78748802D01*
X132331762Y-78735044D01*
X132477841Y-78674536D01*
X132534130Y-78631344D01*
X132581619Y-78594904D01*
X132643216Y-78570061D01*
X132729255Y-78560368D01*
X132899522Y-78500789D01*
X133052262Y-78404816D01*
X133179816Y-78277262D01*
X133275789Y-78124522D01*
X133335368Y-77954255D01*
X133335369Y-77954249D01*
X133355565Y-77775003D01*
X133355565Y-77774996D01*
X133335369Y-77595750D01*
X133335368Y-77595745D01*
X133319186Y-77549500D01*
X133275789Y-77425478D01*
X133267083Y-77411623D01*
X133179815Y-77272737D01*
X133052262Y-77145184D01*
X132899523Y-77049211D01*
X132729254Y-76989631D01*
X132729249Y-76989630D01*
X132550004Y-76969435D01*
X132549996Y-76969435D01*
X132370750Y-76989630D01*
X132370745Y-76989631D01*
X132200476Y-77049211D01*
X132047737Y-77145184D01*
X131920184Y-77272737D01*
X131824211Y-77425476D01*
X131809873Y-77466454D01*
X131769151Y-77523230D01*
X131704198Y-77548978D01*
X131692831Y-77549500D01*
X131552869Y-77549500D01*
X131485830Y-77529815D01*
X131440075Y-77477011D01*
X131429648Y-77411623D01*
X131430428Y-77404701D01*
X131431820Y-77392334D01*
X131458883Y-77327921D01*
X131467350Y-77318543D01*
X131816043Y-76969850D01*
X131828223Y-76959169D01*
X131853282Y-76939942D01*
X131949536Y-76814501D01*
X132010044Y-76668422D01*
X132025500Y-76551021D01*
X132026834Y-76540887D01*
X132051324Y-76483293D01*
X132051111Y-76483159D01*
X132051948Y-76481825D01*
X132052831Y-76479751D01*
X132054812Y-76477265D01*
X132054816Y-76477262D01*
X132150789Y-76324522D01*
X132190681Y-76210516D01*
X136551160Y-76210516D01*
X136551161Y-76210522D01*
X136557568Y-76270129D01*
X136607862Y-76404974D01*
X136607866Y-76404981D01*
X136694112Y-76520190D01*
X136694115Y-76520193D01*
X136809324Y-76606439D01*
X136809331Y-76606443D01*
X136944177Y-76656737D01*
X136944176Y-76656737D01*
X136951104Y-76657481D01*
X137003787Y-76663146D01*
X137949532Y-76663145D01*
X138009143Y-76656737D01*
X138143991Y-76606442D01*
X138259206Y-76520192D01*
X138345456Y-76404977D01*
X138395751Y-76270129D01*
X138402160Y-76210519D01*
X138402159Y-75264774D01*
X138395751Y-75205163D01*
X138393826Y-75200003D01*
X138345457Y-75070317D01*
X138345453Y-75070310D01*
X138259207Y-74955101D01*
X138259204Y-74955098D01*
X138143995Y-74868852D01*
X138143988Y-74868848D01*
X138009142Y-74818554D01*
X138009143Y-74818554D01*
X137949543Y-74812147D01*
X137949541Y-74812146D01*
X137949533Y-74812146D01*
X137949524Y-74812146D01*
X137003789Y-74812146D01*
X137003783Y-74812147D01*
X136944176Y-74818554D01*
X136809331Y-74868848D01*
X136809324Y-74868852D01*
X136694115Y-74955098D01*
X136694112Y-74955101D01*
X136607866Y-75070310D01*
X136607862Y-75070317D01*
X136557568Y-75205163D01*
X136552833Y-75249211D01*
X136551161Y-75264769D01*
X136551160Y-75264781D01*
X136551160Y-76210516D01*
X132190681Y-76210516D01*
X132210368Y-76154255D01*
X132210369Y-76154249D01*
X132230565Y-75975003D01*
X132230565Y-75974996D01*
X132210369Y-75795750D01*
X132210368Y-75795745D01*
X132150788Y-75625476D01*
X132054815Y-75472737D01*
X131927262Y-75345184D01*
X131774523Y-75249211D01*
X131633895Y-75200003D01*
X133094435Y-75200003D01*
X133114630Y-75379249D01*
X133114631Y-75379254D01*
X133174211Y-75549523D01*
X133221936Y-75625476D01*
X133270184Y-75702262D01*
X133397738Y-75829816D01*
X133550478Y-75925789D01*
X133691104Y-75974996D01*
X133720745Y-75985368D01*
X133720750Y-75985369D01*
X133899996Y-76005565D01*
X133900000Y-76005565D01*
X133900004Y-76005565D01*
X134079249Y-75985369D01*
X134079252Y-75985368D01*
X134079255Y-75985368D01*
X134249522Y-75925789D01*
X134402262Y-75829816D01*
X134529816Y-75702262D01*
X134625789Y-75549522D01*
X134685368Y-75379255D01*
X134698267Y-75264773D01*
X134705565Y-75200003D01*
X134705565Y-75199996D01*
X134685369Y-75020750D01*
X134685368Y-75020745D01*
X134632218Y-74868852D01*
X134625789Y-74850478D01*
X134605730Y-74818555D01*
X134529813Y-74697734D01*
X134527550Y-74694896D01*
X134526659Y-74692715D01*
X134526111Y-74691842D01*
X134526264Y-74691745D01*
X134501144Y-74630209D01*
X134500500Y-74617587D01*
X134500500Y-73082412D01*
X134520185Y-73015373D01*
X134527555Y-73005097D01*
X134529810Y-73002267D01*
X134529816Y-73002262D01*
X134625789Y-72849522D01*
X134685368Y-72679255D01*
X134705565Y-72500000D01*
X134697923Y-72432178D01*
X134685369Y-72320750D01*
X134685368Y-72320745D01*
X134625788Y-72150476D01*
X134537328Y-72009693D01*
X134529816Y-71997738D01*
X134402262Y-71870184D01*
X134369379Y-71849522D01*
X134249523Y-71774211D01*
X134079254Y-71714631D01*
X134079249Y-71714630D01*
X133900004Y-71694435D01*
X133899996Y-71694435D01*
X133720750Y-71714630D01*
X133720745Y-71714631D01*
X133550476Y-71774211D01*
X133397737Y-71870184D01*
X133270184Y-71997737D01*
X133174211Y-72150476D01*
X133114631Y-72320745D01*
X133114630Y-72320750D01*
X133094435Y-72499996D01*
X133094435Y-72500003D01*
X133114630Y-72679249D01*
X133114631Y-72679254D01*
X133174211Y-72849523D01*
X133270185Y-73002263D01*
X133272445Y-73005097D01*
X133273334Y-73007275D01*
X133273889Y-73008158D01*
X133273734Y-73008255D01*
X133298855Y-73069783D01*
X133299500Y-73082412D01*
X133299500Y-74617587D01*
X133279815Y-74684626D01*
X133272450Y-74694896D01*
X133270186Y-74697734D01*
X133174211Y-74850476D01*
X133114631Y-75020745D01*
X133114630Y-75020750D01*
X133094435Y-75199996D01*
X133094435Y-75200003D01*
X131633895Y-75200003D01*
X131604254Y-75189631D01*
X131604249Y-75189630D01*
X131425004Y-75169435D01*
X131424996Y-75169435D01*
X131245750Y-75189630D01*
X131245745Y-75189631D01*
X131075476Y-75249211D01*
X130922737Y-75345184D01*
X130795184Y-75472737D01*
X130699211Y-75625476D01*
X130639631Y-75795745D01*
X130639630Y-75795750D01*
X130619435Y-75974996D01*
X130619435Y-75975003D01*
X130639630Y-76154249D01*
X130639631Y-76154254D01*
X130689987Y-76298161D01*
X130693548Y-76367940D01*
X130660626Y-76426797D01*
X130618125Y-76469298D01*
X130556802Y-76502783D01*
X130544328Y-76504837D01*
X130457410Y-76514630D01*
X130287138Y-76574210D01*
X130134397Y-76670184D01*
X130006844Y-76797737D01*
X129910871Y-76950476D01*
X129851291Y-77120745D01*
X129851290Y-77120750D01*
X129831095Y-77299996D01*
X129831095Y-77300000D01*
X129832535Y-77312785D01*
X129820477Y-77381607D01*
X129775286Y-77431658D01*
X129634397Y-77520184D01*
X129506844Y-77647737D01*
X129410871Y-77800476D01*
X129351291Y-77970745D01*
X129351290Y-77970750D01*
X129331095Y-78149996D01*
X129331095Y-78150003D01*
X116922160Y-78150003D01*
X116922160Y-72300003D01*
X120594435Y-72300003D01*
X120614630Y-72479249D01*
X120614631Y-72479254D01*
X120674211Y-72649523D01*
X120770184Y-72802262D01*
X120897738Y-72929816D01*
X120988080Y-72986582D01*
X121013036Y-73002263D01*
X121050478Y-73025789D01*
X121176206Y-73069783D01*
X121220745Y-73085368D01*
X121220750Y-73085369D01*
X121399996Y-73105565D01*
X121400000Y-73105565D01*
X121400004Y-73105565D01*
X121579249Y-73085369D01*
X121579252Y-73085368D01*
X121579255Y-73085368D01*
X121749522Y-73025789D01*
X121902262Y-72929816D01*
X122029816Y-72802262D01*
X122125789Y-72649522D01*
X122185368Y-72479255D01*
X122190672Y-72432174D01*
X122217737Y-72367764D01*
X122226191Y-72358398D01*
X122422773Y-72161816D01*
X122484096Y-72128334D01*
X122510453Y-72125500D01*
X122955145Y-72125500D01*
X123021116Y-72144505D01*
X123150478Y-72225789D01*
X123273385Y-72268796D01*
X123320745Y-72285368D01*
X123320750Y-72285369D01*
X123499996Y-72305565D01*
X123500000Y-72305565D01*
X123500004Y-72305565D01*
X123679249Y-72285369D01*
X123679252Y-72285368D01*
X123679255Y-72285368D01*
X123849522Y-72225789D01*
X124002262Y-72129816D01*
X124122387Y-72009690D01*
X124183706Y-71976208D01*
X124253398Y-71981192D01*
X124309332Y-72023063D01*
X124326247Y-72054042D01*
X124331201Y-72067326D01*
X124331206Y-72067335D01*
X124417452Y-72182544D01*
X124417455Y-72182547D01*
X124532664Y-72268793D01*
X124532671Y-72268797D01*
X124667517Y-72319091D01*
X124667516Y-72319091D01*
X124674444Y-72319835D01*
X124727127Y-72325500D01*
X125672872Y-72325499D01*
X125732483Y-72319091D01*
X125867331Y-72268796D01*
X125982546Y-72182546D01*
X126068796Y-72067331D01*
X126119091Y-71932483D01*
X126125500Y-71872873D01*
X126125499Y-70927128D01*
X126119091Y-70867517D01*
X126081619Y-70767048D01*
X126076635Y-70697357D01*
X126079870Y-70685397D01*
X126091371Y-70650000D01*
X126066454Y-70650000D01*
X125999415Y-70630315D01*
X125989797Y-70622564D01*
X125989645Y-70622768D01*
X125867335Y-70531206D01*
X125867328Y-70531202D01*
X125732482Y-70480908D01*
X125732483Y-70480908D01*
X125672883Y-70474501D01*
X125672881Y-70474500D01*
X125672873Y-70474500D01*
X125672864Y-70474500D01*
X125440079Y-70474500D01*
X125454898Y-70400000D01*
X125435495Y-70302455D01*
X125380240Y-70219760D01*
X125297545Y-70164505D01*
X125224624Y-70150000D01*
X125175376Y-70150000D01*
X125102455Y-70164505D01*
X125019760Y-70219760D01*
X124964505Y-70302455D01*
X124945102Y-70400000D01*
X124959921Y-70474500D01*
X124727129Y-70474500D01*
X124727123Y-70474501D01*
X124667516Y-70480908D01*
X124532671Y-70531202D01*
X124532664Y-70531206D01*
X124410355Y-70622768D01*
X124408680Y-70620531D01*
X124359904Y-70647166D01*
X124333546Y-70650000D01*
X124308628Y-70650000D01*
X124320129Y-70685399D01*
X124322124Y-70755240D01*
X124318380Y-70767048D01*
X124280909Y-70867514D01*
X124279126Y-70875062D01*
X124276874Y-70874529D01*
X124254567Y-70928383D01*
X124197174Y-70968231D01*
X124127348Y-70970724D01*
X124070335Y-70938257D01*
X124002262Y-70870184D01*
X123849523Y-70774211D01*
X123679254Y-70714631D01*
X123679249Y-70714630D01*
X123500004Y-70694435D01*
X123499996Y-70694435D01*
X123320750Y-70714630D01*
X123320745Y-70714631D01*
X123150476Y-70774211D01*
X123021117Y-70855494D01*
X122955145Y-70874500D01*
X122282743Y-70874500D01*
X122267122Y-70872775D01*
X122267096Y-70873061D01*
X122259334Y-70872327D01*
X122259333Y-70872327D01*
X122197109Y-70874282D01*
X122192127Y-70874439D01*
X122188232Y-70874500D01*
X122160647Y-70874500D01*
X122156661Y-70875003D01*
X122145033Y-70875918D01*
X122101373Y-70877290D01*
X122082129Y-70882881D01*
X122063079Y-70886825D01*
X122043211Y-70889334D01*
X122043210Y-70889334D01*
X122002599Y-70905413D01*
X121991554Y-70909194D01*
X121949614Y-70921379D01*
X121949610Y-70921381D01*
X121932366Y-70931579D01*
X121914905Y-70940133D01*
X121896274Y-70947510D01*
X121896262Y-70947517D01*
X121860933Y-70973185D01*
X121851173Y-70979596D01*
X121813580Y-71001829D01*
X121799414Y-71015995D01*
X121784624Y-71028627D01*
X121768414Y-71040404D01*
X121768411Y-71040407D01*
X121740573Y-71074058D01*
X121732711Y-71082697D01*
X121341620Y-71473787D01*
X121280297Y-71507272D01*
X121267825Y-71509326D01*
X121220750Y-71514630D01*
X121050478Y-71574210D01*
X120897737Y-71670184D01*
X120770184Y-71797737D01*
X120674211Y-71950476D01*
X120614631Y-72120745D01*
X120614630Y-72120750D01*
X120594435Y-72299996D01*
X120594435Y-72300003D01*
X116922160Y-72300003D01*
X116922160Y-70150000D01*
X124308628Y-70150000D01*
X124950000Y-70150000D01*
X124950000Y-69507473D01*
X125450000Y-69507473D01*
X125450000Y-70150000D01*
X126091372Y-70150000D01*
X126091371Y-70149999D01*
X126049683Y-70021693D01*
X126049682Y-70021692D01*
X125952463Y-69853305D01*
X125952464Y-69853305D01*
X125822360Y-69708809D01*
X125822357Y-69708807D01*
X125665051Y-69594516D01*
X125487412Y-69515426D01*
X125450000Y-69507473D01*
X124950000Y-69507473D01*
X124912585Y-69515426D01*
X124912580Y-69515428D01*
X124734953Y-69594513D01*
X124577643Y-69708806D01*
X124447535Y-69853305D01*
X124350317Y-70021692D01*
X124350316Y-70021693D01*
X124308628Y-70149999D01*
X124308628Y-70150000D01*
X116922160Y-70150000D01*
X116922160Y-69100002D01*
X128944723Y-69100002D01*
X128963793Y-69317975D01*
X128963793Y-69317979D01*
X129020422Y-69529322D01*
X129020424Y-69529326D01*
X129020425Y-69529330D01*
X129050822Y-69594516D01*
X129112897Y-69727638D01*
X129112898Y-69727639D01*
X129238402Y-69906877D01*
X129393123Y-70061598D01*
X129572361Y-70187102D01*
X129770670Y-70279575D01*
X129982023Y-70336207D01*
X130164926Y-70352208D01*
X130199998Y-70355277D01*
X130200000Y-70355277D01*
X130200002Y-70355277D01*
X130228254Y-70352805D01*
X130417977Y-70336207D01*
X130629330Y-70279575D01*
X130827639Y-70187102D01*
X131006877Y-70061598D01*
X131161598Y-69906877D01*
X131287102Y-69727639D01*
X131379575Y-69529330D01*
X131436207Y-69317977D01*
X131455277Y-69100002D01*
X133844723Y-69100002D01*
X133863793Y-69317975D01*
X133863793Y-69317979D01*
X133920422Y-69529322D01*
X133920424Y-69529326D01*
X133920425Y-69529330D01*
X133950822Y-69594516D01*
X134012897Y-69727638D01*
X134012898Y-69727639D01*
X134138402Y-69906877D01*
X134293123Y-70061598D01*
X134472361Y-70187102D01*
X134670670Y-70279575D01*
X134882023Y-70336207D01*
X135064926Y-70352208D01*
X135099998Y-70355277D01*
X135100000Y-70355277D01*
X135100002Y-70355277D01*
X135128254Y-70352805D01*
X135317977Y-70336207D01*
X135529330Y-70279575D01*
X135727639Y-70187102D01*
X135906877Y-70061598D01*
X136061598Y-69906877D01*
X136187102Y-69727639D01*
X136279575Y-69529330D01*
X136336207Y-69317977D01*
X136355277Y-69100000D01*
X136336207Y-68882023D01*
X136279575Y-68670670D01*
X136187102Y-68472362D01*
X136187100Y-68472359D01*
X136187099Y-68472357D01*
X136061599Y-68293124D01*
X136061596Y-68293121D01*
X135906877Y-68138402D01*
X135727639Y-68012898D01*
X135727640Y-68012898D01*
X135727638Y-68012897D01*
X135628484Y-67966661D01*
X135529330Y-67920425D01*
X135529326Y-67920424D01*
X135529322Y-67920422D01*
X135317977Y-67863793D01*
X135100002Y-67844723D01*
X135099998Y-67844723D01*
X134954682Y-67857436D01*
X134882023Y-67863793D01*
X134882020Y-67863793D01*
X134670677Y-67920422D01*
X134670668Y-67920426D01*
X134472361Y-68012898D01*
X134472357Y-68012900D01*
X134293121Y-68138402D01*
X134138402Y-68293121D01*
X134012900Y-68472357D01*
X134012898Y-68472361D01*
X133920426Y-68670668D01*
X133920422Y-68670677D01*
X133863793Y-68882020D01*
X133863793Y-68882024D01*
X133844723Y-69099997D01*
X133844723Y-69100002D01*
X131455277Y-69100002D01*
X131455277Y-69100000D01*
X131436207Y-68882023D01*
X131379575Y-68670670D01*
X131287102Y-68472362D01*
X131287100Y-68472359D01*
X131287099Y-68472357D01*
X131161599Y-68293124D01*
X131161596Y-68293121D01*
X131006877Y-68138402D01*
X130827639Y-68012898D01*
X130827640Y-68012898D01*
X130827638Y-68012897D01*
X130728484Y-67966661D01*
X130629330Y-67920425D01*
X130629326Y-67920424D01*
X130629322Y-67920422D01*
X130417977Y-67863793D01*
X130200002Y-67844723D01*
X130199998Y-67844723D01*
X130054682Y-67857436D01*
X129982023Y-67863793D01*
X129982020Y-67863793D01*
X129770677Y-67920422D01*
X129770668Y-67920426D01*
X129572361Y-68012898D01*
X129572357Y-68012900D01*
X129393121Y-68138402D01*
X129238402Y-68293121D01*
X129112900Y-68472357D01*
X129112898Y-68472361D01*
X129020426Y-68670668D01*
X129020422Y-68670677D01*
X128963793Y-68882020D01*
X128963793Y-68882024D01*
X128944723Y-69099997D01*
X128944723Y-69100002D01*
X116922160Y-69100002D01*
X116922160Y-65557146D01*
X116941845Y-65490107D01*
X116994649Y-65444352D01*
X117046160Y-65433146D01*
X139272160Y-65433146D01*
X139339199Y-65452831D01*
G37*
%TD.AperFunction*%
%TD*%
M02*
