%TF.GenerationSoftware,KiCad,Pcbnew,7.0.11+dfsg-1build4*%
%TF.CreationDate,2026-04-04T13:49:15+05:30*%
%TF.ProjectId,pcb_itr2,7063625f-6974-4723-922e-6b696361645f,rev?*%
%TF.SameCoordinates,Original*%
%TF.FileFunction,Copper,L1,Top*%
%TF.FilePolarity,Positive*%
%FSLAX46Y46*%
G04 Gerber Fmt 4.6, Leading zero omitted, Abs format (unit mm)*
G04 Created by KiCad (PCBNEW 7.0.11+dfsg-1build4) date 2026-04-04 13:49:15*
%MOMM*%
%LPD*%
G01*
G04 APERTURE LIST*
G04 Aperture macros list*
%AMRoundRect*
0 Rectangle with rounded corners*
0 $1 Rounding radius*
0 $2 $3 $4 $5 $6 $7 $8 $9 X,Y pos of 4 corners*
0 Add a 4 corners polygon primitive as box body*
4,1,4,$2,$3,$4,$5,$6,$7,$8,$9,$2,$3,0*
0 Add four circle primitives for the rounded corners*
1,1,$1+$1,$2,$3*
1,1,$1+$1,$4,$5*
1,1,$1+$1,$6,$7*
1,1,$1+$1,$8,$9*
0 Add four rect primitives between the rounded corners*
20,1,$1+$1,$2,$3,$4,$5,0*
20,1,$1+$1,$4,$5,$6,$7,0*
20,1,$1+$1,$6,$7,$8,$9,0*
20,1,$1+$1,$8,$9,$2,$3,0*%
G04 Aperture macros list end*
%TA.AperFunction,SMDPad,CuDef*%
%ADD10R,0.970000X0.920000*%
%TD*%
%TA.AperFunction,ComponentPad*%
%ADD11R,0.850000X0.850000*%
%TD*%
%TA.AperFunction,ComponentPad*%
%ADD12O,0.850000X0.850000*%
%TD*%
%TA.AperFunction,SMDPad,CuDef*%
%ADD13RoundRect,0.200000X-0.200000X-0.275000X0.200000X-0.275000X0.200000X0.275000X-0.200000X0.275000X0*%
%TD*%
%TA.AperFunction,SMDPad,CuDef*%
%ADD14RoundRect,0.200000X0.200000X0.275000X-0.200000X0.275000X-0.200000X-0.275000X0.200000X-0.275000X0*%
%TD*%
%TA.AperFunction,SMDPad,CuDef*%
%ADD15RoundRect,0.200000X0.275000X-0.200000X0.275000X0.200000X-0.275000X0.200000X-0.275000X-0.200000X0*%
%TD*%
%TA.AperFunction,SMDPad,CuDef*%
%ADD16R,0.685800X0.990600*%
%TD*%
%TA.AperFunction,ComponentPad*%
%ADD17C,1.500000*%
%TD*%
%TA.AperFunction,SMDPad,CuDef*%
%ADD18RoundRect,0.218750X0.218750X0.256250X-0.218750X0.256250X-0.218750X-0.256250X0.218750X-0.256250X0*%
%TD*%
%TA.AperFunction,SMDPad,CuDef*%
%ADD19RoundRect,0.033750X-0.396250X-0.101250X0.396250X-0.101250X0.396250X0.101250X-0.396250X0.101250X0*%
%TD*%
%TA.AperFunction,SMDPad,CuDef*%
%ADD20RoundRect,0.033750X-0.101250X-0.396250X0.101250X-0.396250X0.101250X0.396250X-0.101250X0.396250X0*%
%TD*%
%TA.AperFunction,SMDPad,CuDef*%
%ADD21R,3.000000X3.000000*%
%TD*%
%TA.AperFunction,ViaPad*%
%ADD22C,0.600000*%
%TD*%
%TA.AperFunction,Conductor*%
%ADD23C,0.200000*%
%TD*%
%TA.AperFunction,Conductor*%
%ADD24C,0.250000*%
%TD*%
G04 APERTURE END LIST*
D10*
%TO.P,C2,1*%
%TO.N,Net-(U1-RLDINV)*%
X126876660Y-87162646D03*
%TO.P,C2,2*%
%TO.N,Net-(U1-RLDOUT)*%
X126876660Y-88712646D03*
%TD*%
D11*
%TO.P,J3,1,Pin_1*%
%TO.N,Net-(J3-Pin_1)*%
X135221660Y-85132646D03*
D12*
%TO.P,J3,2,Pin_2*%
%TO.N,Net-(J3-Pin_2)*%
X135221660Y-84132646D03*
%TO.P,J3,3,Pin_3*%
%TO.N,Net-(J3-Pin_3)*%
X135221660Y-83132646D03*
%TO.P,J3,4,Pin_4*%
%TO.N,Net-(J3-Pin_4)*%
X135221660Y-82132646D03*
%TO.P,J3,5,Pin_5*%
%TO.N,Net-(J3-Pin_5)*%
X135221660Y-81132646D03*
%TO.P,J3,6,Pin_6*%
%TO.N,Net-(J3-Pin_6)*%
X135221660Y-80132646D03*
%TD*%
D13*
%TO.P,R8,1*%
%TO.N,Net-(J1-Pin_4)*%
X123501660Y-83487646D03*
%TO.P,R8,2*%
%TO.N,Net-(U1-IN4)*%
X125151660Y-83487646D03*
%TD*%
D14*
%TO.P,R12,1*%
%TO.N,+3.3V*%
X123150000Y-67400000D03*
%TO.P,R12,2*%
%TO.N,Net-(D1-A)*%
X121500000Y-67400000D03*
%TD*%
D11*
%TO.P,J1,1,Pin_1*%
%TO.N,Net-(J1-Pin_1)*%
X119501660Y-79262646D03*
D12*
%TO.P,J1,2,Pin_2*%
%TO.N,Net-(J1-Pin_2)*%
X119501660Y-80262646D03*
%TO.P,J1,3,Pin_3*%
%TO.N,Net-(J1-Pin_3)*%
X119501660Y-81262646D03*
%TO.P,J1,4,Pin_4*%
%TO.N,Net-(J1-Pin_4)*%
X119501660Y-82262646D03*
%TO.P,J1,5,Pin_5*%
%TO.N,Net-(J1-Pin_5)*%
X119501660Y-83262646D03*
%TD*%
D13*
%TO.P,R4,1*%
%TO.N,Net-(U1-RSTB)*%
X134651660Y-77737646D03*
%TO.P,R4,2*%
%TO.N,Net-(J2-Pin_1)*%
X136301660Y-77737646D03*
%TD*%
D10*
%TO.P,C1,1*%
%TO.N,GND*%
X131476660Y-87187646D03*
%TO.P,C1,2*%
%TO.N,Net-(U1-RLDIN)*%
X131476660Y-88737646D03*
%TD*%
%TO.P,C6,1*%
%TO.N,XTAL1*%
X130276660Y-75937646D03*
%TO.P,C6,2*%
%TO.N,GND*%
X130276660Y-74387646D03*
%TD*%
D13*
%TO.P,R6,1*%
%TO.N,Net-(J1-Pin_2)*%
X123501660Y-80162646D03*
%TO.P,R6,2*%
%TO.N,Net-(U1-IN2)*%
X125151660Y-80162646D03*
%TD*%
D10*
%TO.P,C8,1*%
%TO.N,+3.3V*%
X122549999Y-75129600D03*
%TO.P,C8,2*%
%TO.N,GND*%
X122549999Y-73579600D03*
%TD*%
D15*
%TO.P,R2,1*%
%TO.N,Net-(U1-RLDOUT)*%
X129076660Y-88787646D03*
%TO.P,R2,2*%
%TO.N,Net-(U1-RLDINV)*%
X129076660Y-87137646D03*
%TD*%
D16*
%TO.P,U2,1,IN*%
%TO.N,+5V*%
X120400000Y-72784200D03*
%TO.P,U2,2,GND*%
%TO.N,GND*%
X119449999Y-72784200D03*
%TO.P,U2,3,EN*%
%TO.N,+5V*%
X118499998Y-72784200D03*
%TO.P,U2,4,RST/ADJ*%
%TO.N,Net-(U2-RST{slash}ADJ)*%
X118499998Y-75375000D03*
%TO.P,U2,5,OUT*%
%TO.N,+3.3V*%
X120400000Y-75375000D03*
%TD*%
D17*
%TO.P,Y1,1,1*%
%TO.N,XTAL1*%
X130200000Y-69100000D03*
%TO.P,Y1,2,2*%
%TO.N,XTAL2*%
X135100000Y-69100000D03*
%TD*%
D13*
%TO.P,R5,1*%
%TO.N,Net-(J1-Pin_1)*%
X123551660Y-78512646D03*
%TO.P,R5,2*%
%TO.N,Net-(U1-IN1)*%
X125201660Y-78512646D03*
%TD*%
D10*
%TO.P,C4,1*%
%TO.N,Net-(U1-CVREF)*%
X128076660Y-75937646D03*
%TO.P,C4,2*%
%TO.N,GND*%
X128076660Y-74387646D03*
%TD*%
D13*
%TO.P,R11,1*%
%TO.N,Net-(U2-RST{slash}ADJ)*%
X118350000Y-67400000D03*
%TO.P,R11,2*%
%TO.N,+3.3V*%
X120000000Y-67400000D03*
%TD*%
D10*
%TO.P,C5,1*%
%TO.N,XTAL2*%
X132676660Y-75937646D03*
%TO.P,C5,2*%
%TO.N,GND*%
X132676660Y-74387646D03*
%TD*%
%TO.P,C3,1*%
%TO.N,GND*%
X126076660Y-74387646D03*
%TO.P,C3,2*%
%TO.N,+3.3V*%
X126076660Y-75937646D03*
%TD*%
D11*
%TO.P,J2,1,Pin_1*%
%TO.N,Net-(J2-Pin_1)*%
X137476660Y-75737646D03*
%TD*%
D13*
%TO.P,R7,1*%
%TO.N,Net-(J1-Pin_3)*%
X123501660Y-81812646D03*
%TO.P,R7,2*%
%TO.N,Net-(U1-IN3)*%
X125151660Y-81812646D03*
%TD*%
D14*
%TO.P,R10,1*%
%TO.N,GND*%
X120025000Y-69200000D03*
%TO.P,R10,2*%
%TO.N,Net-(U2-RST{slash}ADJ)*%
X118375000Y-69200000D03*
%TD*%
D18*
%TO.P,D1,1,K*%
%TO.N,GND*%
X123087500Y-69200000D03*
%TO.P,D1,2,A*%
%TO.N,Net-(D1-A)*%
X121512500Y-69200000D03*
%TD*%
D15*
%TO.P,R1,1*%
%TO.N,Net-(U1-RLDINV)*%
X125076660Y-88737646D03*
%TO.P,R1,2*%
%TO.N,Net-(U1-CMOUT)*%
X125076660Y-87087646D03*
%TD*%
D11*
%TO.P,J4,1,Pin_1*%
%TO.N,+5V*%
X125200000Y-71400000D03*
D12*
%TO.P,J4,2,Pin_2*%
%TO.N,GND*%
X125200000Y-70400000D03*
%TD*%
D19*
%TO.P,U1,1,IN1*%
%TO.N,Net-(U1-IN1)*%
X127801660Y-80672646D03*
%TO.P,U1,2,IN2*%
%TO.N,Net-(U1-IN2)*%
X127801660Y-81172646D03*
%TO.P,U1,3,IN3*%
%TO.N,Net-(U1-IN3)*%
X127801660Y-81672646D03*
%TO.P,U1,4,IN4*%
%TO.N,Net-(U1-IN4)*%
X127801660Y-82172646D03*
%TO.P,U1,5,IN5*%
%TO.N,Net-(U1-IN5)*%
X127801660Y-82672646D03*
%TO.P,U1,6,IN6*%
%TO.N,unconnected-(U1-IN6-Pad6)*%
X127801660Y-83172646D03*
%TO.P,U1,7,WCT*%
%TO.N,unconnected-(U1-WCT-Pad7)*%
X127801660Y-83672646D03*
D20*
%TO.P,U1,8,CMOUT*%
%TO.N,Net-(U1-CMOUT)*%
X128736660Y-84607646D03*
%TO.P,U1,9,RLDOUT*%
%TO.N,Net-(U1-RLDOUT)*%
X129236660Y-84607646D03*
%TO.P,U1,10,RLDINV*%
%TO.N,Net-(U1-RLDINV)*%
X129736660Y-84607646D03*
%TO.P,U1,11,RLDIN*%
%TO.N,Net-(U1-RLDIN)*%
X130236660Y-84607646D03*
%TO.P,U1,12,RLDREF*%
X130736660Y-84607646D03*
%TO.P,U1,13,SYNCB*%
%TO.N,Net-(U1-SYNCB)*%
X131236660Y-84607646D03*
%TO.P,U1,14,VSSIO*%
%TO.N,GND*%
X131736660Y-84607646D03*
D19*
%TO.P,U1,15,ALARMB*%
%TO.N,Net-(J3-Pin_1)*%
X132671660Y-83672646D03*
%TO.P,U1,16,CSB*%
%TO.N,Net-(J3-Pin_2)*%
X132671660Y-83172646D03*
%TO.P,U1,17,SCLK*%
%TO.N,Net-(J3-Pin_3)*%
X132671660Y-82672646D03*
%TO.P,U1,18,SDI*%
%TO.N,Net-(J3-Pin_4)*%
X132671660Y-82172646D03*
%TO.P,U1,19,SDO*%
%TO.N,Net-(J3-Pin_5)*%
X132671660Y-81672646D03*
%TO.P,U1,20,DRDYB*%
%TO.N,Net-(J3-Pin_6)*%
X132671660Y-81172646D03*
%TO.P,U1,21,CLK*%
%TO.N,unconnected-(U1-CLK-Pad21)*%
X132671660Y-80672646D03*
D20*
%TO.P,U1,22,VDDIO*%
%TO.N,+3.3V*%
X131736660Y-79737646D03*
%TO.P,U1,23,XTAL1*%
%TO.N,XTAL1*%
X131236660Y-79737646D03*
%TO.P,U1,24,XTAL2*%
%TO.N,XTAL2*%
X130736660Y-79737646D03*
%TO.P,U1,25,RSTB*%
%TO.N,Net-(U1-RSTB)*%
X130236660Y-79737646D03*
%TO.P,U1,26,CVREF*%
%TO.N,Net-(U1-CVREF)*%
X129736660Y-79737646D03*
%TO.P,U1,27,VSS*%
%TO.N,GND*%
X129236660Y-79737646D03*
%TO.P,U1,28,VDD*%
%TO.N,+3.3V*%
X128736660Y-79737646D03*
D21*
%TO.P,U1,29,EPAD*%
X130236660Y-82172646D03*
%TD*%
D13*
%TO.P,R9,1*%
%TO.N,Net-(J1-Pin_5)*%
X123444306Y-85245986D03*
%TO.P,R9,2*%
%TO.N,Net-(U1-IN5)*%
X125094306Y-85245986D03*
%TD*%
D15*
%TO.P,R3,1*%
%TO.N,+3.3V*%
X133876660Y-88737646D03*
%TO.P,R3,2*%
%TO.N,Net-(U1-SYNCB)*%
X133876660Y-87087646D03*
%TD*%
D10*
%TO.P,C7,1*%
%TO.N,GND*%
X134876660Y-74362646D03*
%TO.P,C7,2*%
%TO.N,+3.3V*%
X134876660Y-75912646D03*
%TD*%
D22*
%TO.N,Net-(U1-RLDOUT)*%
X129096660Y-85907646D03*
X128296660Y-87832646D03*
%TO.N,GND*%
X132900925Y-86113381D03*
X127876660Y-73337646D03*
X130876660Y-86137646D03*
X129461660Y-73337646D03*
%TO.N,XTAL2*%
X131425000Y-75975000D03*
X133900000Y-75200000D03*
X133900000Y-72500000D03*
X130636660Y-77300000D03*
%TO.N,+3.3V*%
X132647700Y-87552824D03*
X133500000Y-80000000D03*
%TO.N,Net-(U1-RSTB)*%
X130136660Y-78150000D03*
X132550000Y-77775000D03*
%TO.N,+5V*%
X123500000Y-71500000D03*
X121400000Y-72300000D03*
%TD*%
D23*
%TO.N,Net-(U1-RLDIN)*%
X131476660Y-88737646D02*
X130476660Y-88737646D01*
X130736660Y-84607646D02*
X130236660Y-84607646D01*
X130236660Y-88497646D02*
X130236660Y-84607646D01*
X130476660Y-88737646D02*
X130236660Y-88497646D01*
%TO.N,Net-(U1-RLDINV)*%
X129736660Y-86477646D02*
X129736660Y-84607646D01*
X125076660Y-88737646D02*
X125301660Y-88737646D01*
X125301660Y-88737646D02*
X126876660Y-87162646D01*
X129051660Y-87162646D02*
X129076660Y-87137646D01*
X126876660Y-87162646D02*
X129051660Y-87162646D01*
X129076660Y-87137646D02*
X129736660Y-86477646D01*
%TO.N,Net-(U1-RLDOUT)*%
X129001660Y-88712646D02*
X129076660Y-88787646D01*
X129076660Y-88062646D02*
X128871660Y-87857646D01*
X128321660Y-87857646D02*
X128296660Y-87832646D01*
X126876660Y-88712646D02*
X129001660Y-88712646D01*
X128871660Y-87857646D02*
X128321660Y-87857646D01*
X129096660Y-85907646D02*
X129236660Y-85767646D01*
X129076660Y-88787646D02*
X129076660Y-88062646D01*
X129236660Y-85767646D02*
X129236660Y-84607646D01*
%TO.N,Net-(U1-CVREF)*%
X128076660Y-76937646D02*
X129736660Y-78597646D01*
X129736660Y-78597646D02*
X129736660Y-79737646D01*
X128076660Y-75937646D02*
X128076660Y-76937646D01*
D24*
%TO.N,GND*%
X123087500Y-69200000D02*
X123087500Y-70512500D01*
X124287500Y-70400000D02*
X123087500Y-69200000D01*
D23*
X129236660Y-78931960D02*
X129236660Y-79737646D01*
D24*
X123087500Y-70512500D02*
X121812500Y-71787500D01*
X125268614Y-73579600D02*
X126076660Y-74387646D01*
D23*
X128076660Y-74387646D02*
X127426660Y-74387646D01*
D24*
X121425000Y-71400000D02*
X121812500Y-71787500D01*
D23*
X126076660Y-74387646D02*
X128076660Y-74387646D01*
D24*
X122549999Y-73579600D02*
X125268614Y-73579600D01*
D23*
X127426660Y-74387646D02*
X127076660Y-74737646D01*
D24*
X120025000Y-71336101D02*
X120088899Y-71400000D01*
D23*
X126676660Y-73337646D02*
X127876660Y-73337646D01*
D24*
X120088899Y-71400000D02*
X121425000Y-71400000D01*
D23*
X127076660Y-76771960D02*
X129236660Y-78931960D01*
D24*
X122549999Y-72524999D02*
X122549999Y-73579600D01*
D23*
X132900925Y-86113381D02*
X132652395Y-86113381D01*
D24*
X119449999Y-72038900D02*
X120088899Y-71400000D01*
D23*
X131476660Y-86737646D02*
X130876660Y-86137646D01*
X127076660Y-74737646D02*
X127076660Y-76771960D01*
X134851660Y-74387646D02*
X134876660Y-74362646D01*
D24*
X121812500Y-71787500D02*
X122549999Y-72524999D01*
D23*
X129461660Y-73572646D02*
X130276660Y-74387646D01*
X131736660Y-85197646D02*
X131736660Y-84607646D01*
X126076660Y-73937646D02*
X126676660Y-73337646D01*
D24*
X120025000Y-69200000D02*
X120025000Y-71336101D01*
X119449999Y-72784200D02*
X119449999Y-72038900D01*
D23*
X126076660Y-74387646D02*
X126076660Y-73937646D01*
X130276660Y-74387646D02*
X132676660Y-74387646D01*
X132652395Y-86113381D02*
X131736660Y-85197646D01*
X132676660Y-74387646D02*
X134851660Y-74387646D01*
X125710000Y-74020986D02*
X126076660Y-74387646D01*
X129461660Y-73337646D02*
X129461660Y-73572646D01*
X131476660Y-87187646D02*
X131476660Y-86737646D01*
D24*
X125200000Y-70400000D02*
X124287500Y-70400000D01*
D23*
%TO.N,XTAL2*%
X130636660Y-77300000D02*
X130736660Y-77400000D01*
X132676660Y-75937646D02*
X133162354Y-75937646D01*
X130736660Y-77400000D02*
X130736660Y-79737646D01*
X132676660Y-75937646D02*
X131462354Y-75937646D01*
X133900000Y-70300000D02*
X135100000Y-69100000D01*
X133900000Y-72500000D02*
X133900000Y-70300000D01*
X131462354Y-75937646D02*
X131425000Y-75975000D01*
X133162354Y-75937646D02*
X133900000Y-75200000D01*
D24*
%TO.N,XTAL1*%
X128936660Y-74597646D02*
X130276660Y-75937646D01*
D23*
X131236660Y-79737646D02*
X131236660Y-76897646D01*
X131236660Y-76897646D02*
X130276660Y-75937646D01*
D24*
X128936660Y-70363340D02*
X128936660Y-74597646D01*
X130200000Y-69100000D02*
X128936660Y-70363340D01*
%TO.N,+3.3V*%
X118854700Y-74554700D02*
X119579700Y-74554700D01*
X120400000Y-75375000D02*
X122304599Y-75375000D01*
X130236660Y-82172646D02*
X130236660Y-80422646D01*
X119579700Y-74554700D02*
X120400000Y-75375000D01*
D23*
X126076660Y-75937646D02*
X126076660Y-76337646D01*
D24*
X117832098Y-72014562D02*
X117832098Y-73532098D01*
X122304599Y-75375000D02*
X122549999Y-75129600D01*
D23*
X130500000Y-80367646D02*
X131435668Y-80367646D01*
X133262646Y-88737646D02*
X132650000Y-88125000D01*
X131736660Y-77277646D02*
X131736660Y-79737646D01*
X131435668Y-80367646D02*
X131736660Y-80066654D01*
X133851660Y-76937646D02*
X132076660Y-76937646D01*
X132650000Y-88125000D02*
X132650000Y-87555124D01*
D24*
X120000000Y-67400000D02*
X119100000Y-68300000D01*
D23*
X126076660Y-76337646D02*
X128736660Y-78997646D01*
X128736660Y-78997646D02*
X128736660Y-79737646D01*
X131736660Y-80066654D02*
X131736660Y-79737646D01*
X134876660Y-75912646D02*
X133851660Y-76937646D01*
D24*
X119100000Y-70746660D02*
X117832098Y-72014562D01*
X120000000Y-67400000D02*
X120700000Y-66700000D01*
D23*
X128736660Y-79737646D02*
X128736660Y-80167646D01*
X133876660Y-88737646D02*
X133262646Y-88737646D01*
D24*
X117832098Y-73532098D02*
X118854700Y-74554700D01*
D23*
X128736660Y-80167646D02*
X128936660Y-80367646D01*
D24*
X120700000Y-66700000D02*
X122450000Y-66700000D01*
X122549999Y-75129600D02*
X125268614Y-75129600D01*
D23*
X128936660Y-80367646D02*
X130500000Y-80367646D01*
X132076660Y-76937646D02*
X131736660Y-77277646D01*
D24*
X122450000Y-66700000D02*
X123150000Y-67400000D01*
D23*
X133500000Y-80000000D02*
X131999014Y-80000000D01*
D24*
X125268614Y-75129600D02*
X126076660Y-75937646D01*
X130236660Y-80422646D02*
X130266660Y-80392646D01*
D23*
X131999014Y-80000000D02*
X131736660Y-79737646D01*
D24*
X119100000Y-68300000D02*
X119100000Y-70746660D01*
D23*
X132650000Y-87555124D02*
X132647700Y-87552824D01*
%TO.N,Net-(J3-Pin_1)*%
X134871660Y-85132646D02*
X133411660Y-83672646D01*
X135221660Y-85132646D02*
X134871660Y-85132646D01*
X133411660Y-83672646D02*
X132671660Y-83672646D01*
%TO.N,Net-(J3-Pin_2)*%
X134437346Y-84132646D02*
X133477346Y-83172646D01*
X135221660Y-84132646D02*
X134437346Y-84132646D01*
X133477346Y-83172646D02*
X132671660Y-83172646D01*
%TO.N,Net-(J3-Pin_3)*%
X134620620Y-83132646D02*
X134160620Y-82672646D01*
X135221660Y-83132646D02*
X134620620Y-83132646D01*
X134160620Y-82672646D02*
X132671660Y-82672646D01*
%TO.N,Net-(J3-Pin_4)*%
X132711660Y-82132646D02*
X132671660Y-82172646D01*
X135221660Y-82132646D02*
X132711660Y-82132646D01*
%TO.N,Net-(J3-Pin_5)*%
X134121660Y-81132646D02*
X133581660Y-81672646D01*
X133581660Y-81672646D02*
X132671660Y-81672646D01*
X135221660Y-81132646D02*
X134121660Y-81132646D01*
%TO.N,Net-(J3-Pin_6)*%
X135221660Y-80132646D02*
X134321660Y-80132646D01*
X134321660Y-80132646D02*
X133281660Y-81172646D01*
X133281660Y-81172646D02*
X132671660Y-81172646D01*
%TO.N,Net-(U1-CMOUT)*%
X128736660Y-85153632D02*
X127769306Y-86120986D01*
X128736660Y-84607646D02*
X128736660Y-85153632D01*
X126043320Y-86120986D02*
X125076660Y-87087646D01*
X127769306Y-86120986D02*
X126043320Y-86120986D01*
%TO.N,Net-(U1-SYNCB)*%
X133026660Y-87087646D02*
X131236660Y-85297646D01*
X131236660Y-85297646D02*
X131236660Y-84607646D01*
X133876660Y-87087646D02*
X133026660Y-87087646D01*
%TO.N,Net-(U1-RSTB)*%
X132587354Y-77737646D02*
X134651660Y-77737646D01*
X130236660Y-79737646D02*
X130236660Y-78250000D01*
X132550000Y-77775000D02*
X132587354Y-77737646D01*
X130236660Y-78250000D02*
X130136660Y-78150000D01*
D24*
%TO.N,Net-(U2-RST{slash}ADJ)*%
X117382098Y-74257100D02*
X118499998Y-75375000D01*
X118350000Y-69175000D02*
X118375000Y-69200000D01*
X117382098Y-71092902D02*
X117382098Y-74257100D01*
X118375000Y-69200000D02*
X118375000Y-70100000D01*
X118375000Y-70100000D02*
X117382098Y-71092902D01*
X118350000Y-67400000D02*
X118350000Y-69175000D01*
D23*
%TO.N,Net-(J1-Pin_1)*%
X122801660Y-79262646D02*
X123551660Y-78512646D01*
X119501660Y-79262646D02*
X122801660Y-79262646D01*
%TO.N,Net-(J1-Pin_2)*%
X119501660Y-80262646D02*
X123401660Y-80262646D01*
X123401660Y-80262646D02*
X123501660Y-80162646D01*
%TO.N,Net-(J1-Pin_3)*%
X119501660Y-81262646D02*
X122951660Y-81262646D01*
X122951660Y-81262646D02*
X123501660Y-81812646D01*
%TO.N,Net-(J1-Pin_4)*%
X119501660Y-82262646D02*
X122276660Y-82262646D01*
X122276660Y-82262646D02*
X123501660Y-83487646D01*
%TO.N,Net-(J1-Pin_5)*%
X121460966Y-83262646D02*
X123444306Y-85245986D01*
X119501660Y-83262646D02*
X121460966Y-83262646D01*
%TO.N,Net-(J2-Pin_1)*%
X136301660Y-76912646D02*
X137476660Y-75737646D01*
X136301660Y-77737646D02*
X136301660Y-76912646D01*
%TO.N,Net-(U1-IN1)*%
X125201660Y-78512646D02*
X126351660Y-79662646D01*
X126351660Y-80287646D02*
X126736660Y-80672646D01*
X126736660Y-80672646D02*
X127801660Y-80672646D01*
X126351660Y-79662646D02*
X126351660Y-80287646D01*
%TO.N,Net-(U1-IN2)*%
X125151660Y-80162646D02*
X126161660Y-81172646D01*
X126161660Y-81172646D02*
X127801660Y-81172646D01*
%TO.N,Net-(U1-IN3)*%
X125291660Y-81672646D02*
X127801660Y-81672646D01*
X125151660Y-81812646D02*
X125291660Y-81672646D01*
X127736660Y-81737646D02*
X127801660Y-81672646D01*
%TO.N,Net-(U1-IN4)*%
X125451660Y-83487646D02*
X126766660Y-82172646D01*
X125151660Y-83487646D02*
X125451660Y-83487646D01*
X126766660Y-82172646D02*
X127801660Y-82172646D01*
%TO.N,Net-(U1-IN5)*%
X125094306Y-84770986D02*
X127192646Y-82672646D01*
X125094306Y-85245986D02*
X125094306Y-84770986D01*
X127192646Y-82672646D02*
X127801660Y-82672646D01*
D24*
%TO.N,+5V*%
X125200000Y-71400000D02*
X123600000Y-71400000D01*
X119950000Y-73875000D02*
X120400000Y-73425000D01*
X120400000Y-73425000D02*
X120400000Y-72784200D01*
X118499998Y-73529500D02*
X118845498Y-73875000D01*
X120884200Y-72300000D02*
X120400000Y-72784200D01*
X123600000Y-71400000D02*
X123500000Y-71500000D01*
X118845498Y-73875000D02*
X119950000Y-73875000D01*
X118499998Y-72784200D02*
X118499998Y-73529500D01*
X121400000Y-72300000D02*
X120884200Y-72300000D01*
%TO.N,Net-(D1-A)*%
X121500000Y-67400000D02*
X121500000Y-69187500D01*
X121500000Y-69187500D02*
X121512500Y-69200000D01*
%TD*%
M02*
